<svg width="28" height="28" viewBox="0 0 28 28" fill="none" xmlns="http://www.w3.org/2000/svg">
<g clip-path="url(#clip0)">
<path d="M19.683 24.1137C19.5853 23.7626 19.2213 23.5572 18.8701 23.6552C18.811 23.6717 18.7517 23.6878 18.6919 23.7036C17.2622 24.0831 15.6397 24.2837 13.9998 24.2837C11.3861 24.2837 8.87628 23.7783 7.11408 22.8972C5.77221 22.2262 5.41182 21.6268 5.3848 21.4938C5.37939 21.1339 5.08599 20.8438 4.72478 20.8438C4.36023 20.8438 4.0647 21.1393 4.0647 21.5038C4.0647 22.3458 4.98394 23.308 6.52367 24.0779C8.463 25.0476 11.188 25.6038 13.9998 25.6038C15.7523 25.6038 17.4919 25.3879 19.0305 24.9796C19.0955 24.9623 19.1602 24.9447 19.2244 24.9268C19.5755 24.8289 19.7809 24.4649 19.683 24.1137Z" fill="black"/>
<path d="M21.6911 23.4295C21.6825 23.3873 21.67 23.3457 21.6535 23.3061C21.637 23.2658 21.6165 23.2275 21.5928 23.1919C21.5684 23.1556 21.5413 23.1219 21.5109 23.0915C21.4799 23.0612 21.4462 23.0334 21.4106 23.0096C21.3743 22.9859 21.336 22.9654 21.2964 22.9489C21.2568 22.9324 21.2152 22.9192 21.173 22.9113C21.0878 22.8941 21 22.8941 20.9149 22.9113C20.8727 22.9192 20.8311 22.9324 20.7915 22.9489C20.7519 22.9655 20.7136 22.9859 20.6773 23.0096C20.6416 23.0334 20.6073 23.0611 20.5769 23.0915C20.5466 23.1219 20.5188 23.1556 20.4951 23.1919C20.4713 23.2275 20.4508 23.2658 20.4343 23.3061C20.4178 23.3457 20.4053 23.3873 20.3967 23.4295C20.3881 23.4718 20.3835 23.5153 20.3835 23.5582C20.3835 23.6012 20.3881 23.6447 20.3967 23.687C20.4053 23.7292 20.4178 23.7708 20.4343 23.8111C20.4509 23.8506 20.4713 23.8889 20.4951 23.9246C20.5188 23.9609 20.5465 23.9945 20.5769 24.0249C20.6073 24.0553 20.6416 24.083 20.6773 24.1068C20.7136 24.1313 20.7519 24.1511 20.7915 24.1682C20.8311 24.1847 20.8727 24.1972 20.9149 24.2058C20.9578 24.2144 21.0007 24.2183 21.0443 24.2183C21.0872 24.2183 21.1301 24.2144 21.173 24.2058C21.2153 24.1972 21.2569 24.1847 21.2964 24.1682C21.336 24.151 21.3743 24.1312 21.4106 24.1068C21.4463 24.083 21.4799 24.0553 21.511 24.0249C21.5413 23.9946 21.5684 23.9609 21.5929 23.9246C21.6166 23.8889 21.6371 23.8506 21.6536 23.8111C21.6701 23.7708 21.6826 23.7292 21.6912 23.687C21.6998 23.6447 21.7044 23.6012 21.7044 23.5582C21.7043 23.5153 21.6997 23.4718 21.6911 23.4295Z" fill="black"/>
<path d="M21.4984 16.3217C21.8837 15.7105 22.0845 15.0536 22.0845 14.3728C22.0845 13.3174 21.5814 12.2928 20.6504 11.4207C21.6036 10.6915 22.1159 9.80861 22.1159 8.86169C22.1159 7.08817 20.2943 5.57332 17.4562 4.87633C17.836 4.421 18.0499 3.90377 18.0499 3.35066C18.05 1.47186 15.5969 0 12.4654 0C9.33385 0 6.88072 1.47186 6.88072 3.35082C6.88072 4.25415 7.44882 5.06271 8.38562 5.65957C6.79508 6.46905 5.88366 7.61022 5.88366 8.86185C5.88366 9.301 5.99418 9.72636 6.20736 10.129C4.06016 11.1728 2.8462 12.6907 2.8462 14.3729C2.8462 15.4791 3.37673 16.5222 4.36734 17.4084C2.61963 18.5495 1.66943 19.98 1.66943 21.5048C1.66943 25.147 7.08559 28.0001 13.9999 28.0001C20.9142 28.0001 26.3303 25.1469 26.3303 21.5047C26.3303 19.4304 24.5418 17.5322 21.4984 16.3217ZM8.20094 3.35082C8.20094 2.39034 9.9522 1.32021 12.4654 1.32021C14.9785 1.32021 16.7298 2.39034 16.7298 3.35082C16.7298 3.80194 16.3434 4.27712 15.6732 4.65435C15.6548 4.66228 15.6366 4.6707 15.619 4.68038C14.8895 5.07583 13.9412 5.31585 12.9119 5.36978C12.9037 5.37016 12.8953 5.37038 12.8871 5.37076C12.8223 5.37393 12.7573 5.37661 12.6919 5.37836C12.6171 5.38028 12.5415 5.38142 12.4653 5.38142C12.3728 5.38142 12.2806 5.37962 12.1888 5.37661C12.175 5.37618 12.1616 5.37546 12.1479 5.37497C11.4802 5.34949 10.8298 5.24443 10.2505 5.06653C10.2349 5.06172 10.2189 5.05942 10.203 5.05576C8.96312 4.66529 8.20094 3.98432 8.20094 3.35082ZM10.0669 6.38795C10.0799 6.39151 10.0933 6.39457 10.1064 6.39812C10.1842 6.4194 10.2629 6.43963 10.3427 6.45877C10.3487 6.46025 10.3547 6.46156 10.3607 6.46298C10.9106 6.59363 11.5057 6.67435 12.1317 6.69546C12.1404 6.69579 12.1489 6.69633 12.1575 6.69661C12.2593 6.69978 12.3618 6.70164 12.4652 6.70164C12.5554 6.70164 12.6451 6.70011 12.7347 6.6977C12.7696 6.69677 12.8041 6.69508 12.8388 6.69376C12.892 6.69174 12.9453 6.68961 12.9982 6.68671C13.0414 6.68436 13.0844 6.6814 13.1273 6.67851C13.1702 6.67561 13.2131 6.67249 13.2557 6.66899C13.3035 6.66511 13.3509 6.6609 13.3982 6.65625C13.4347 6.65269 13.471 6.64881 13.5074 6.64482C13.5581 6.63929 13.6087 6.63366 13.6589 6.62732C13.6905 6.62338 13.7218 6.6189 13.7533 6.61458C13.8062 6.60736 13.8591 6.60019 13.9114 6.59215C13.9382 6.588 13.9647 6.58324 13.9914 6.57881C14.0766 6.56476 14.161 6.54961 14.2445 6.53331C14.293 6.52385 14.3415 6.51461 14.3895 6.50449C14.4165 6.49869 14.443 6.49235 14.4698 6.48633C14.5275 6.47348 14.585 6.4603 14.6419 6.44636C14.6601 6.44187 14.678 6.43706 14.6961 6.43252C14.7641 6.41529 14.8314 6.39736 14.8982 6.37854C14.905 6.37663 14.9117 6.37466 14.9185 6.37275C15.3218 6.2579 15.7019 6.11479 16.049 5.944C18.7694 6.3541 20.7958 7.59124 20.7958 8.86196C20.7958 9.53451 20.2204 10.2275 19.2074 10.7865C19.1286 10.83 19.0476 10.8723 18.9647 10.9136C18.9411 10.9253 18.9165 10.9363 18.8926 10.9479C18.8293 10.9785 18.7657 11.0091 18.7002 11.0384C18.6819 11.0466 18.6628 11.0543 18.6444 11.0625C18.5691 11.0954 18.4933 11.1281 18.4154 11.1593C18.4102 11.1613 18.4049 11.1633 18.3997 11.1654C17.2701 11.6155 15.8703 11.8829 14.4001 11.9242C14.3897 11.9245 14.3794 11.9251 14.369 11.9253C14.2465 11.9285 14.1234 11.9302 13.9999 11.9302C13.8953 11.9302 13.7913 11.9286 13.6875 11.9264C13.6538 11.9257 13.6203 11.9247 13.5867 11.9238C13.5147 11.9217 13.4429 11.9191 13.3712 11.916C13.3347 11.9144 13.2981 11.913 13.2617 11.9112C13.1686 11.9064 13.0758 11.9008 12.9836 11.8943C12.9374 11.8911 12.8918 11.8871 12.8459 11.8834C12.7942 11.8792 12.7425 11.8749 12.691 11.8702C12.6385 11.8654 12.5862 11.8603 12.5342 11.8549C12.4886 11.8501 12.4433 11.845 12.398 11.8399C12.3166 11.8306 12.2356 11.8206 12.1551 11.8099C12.1014 11.8028 12.0476 11.7957 11.9943 11.7879C11.9485 11.7812 11.9031 11.7741 11.8576 11.767C11.8006 11.7581 11.7439 11.7488 11.6874 11.7392C11.6523 11.7332 11.6169 11.7273 11.5819 11.721C10.6275 11.5491 9.7556 11.2746 9.02278 10.9082C8.5575 10.6755 8.17217 10.4156 7.87774 10.1412C7.86915 10.1331 7.86062 10.125 7.85214 10.1169C7.82638 10.0923 7.80145 10.0677 7.77716 10.0429C7.75934 10.0247 7.74178 10.0065 7.72461 9.98809C7.38577 9.62469 7.20387 9.24035 7.20387 8.86246C7.20376 7.93337 8.32098 6.97349 10.0669 6.38795ZM4.16647 14.3729C4.16636 13.1735 5.24108 12.0003 7.06387 11.1859C7.19173 11.2991 7.32922 11.409 7.47677 11.5155C7.50548 11.5363 7.53484 11.5568 7.56416 11.5773C7.57586 11.5854 7.5874 11.5936 7.59921 11.6016C8.86764 12.4739 10.727 13.0477 12.8199 13.2054C12.8301 13.2062 12.8402 13.207 12.8503 13.2077C12.9725 13.2167 13.0953 13.2245 13.219 13.2306C13.2228 13.2308 13.2266 13.231 13.2304 13.2311C13.3413 13.2365 13.4528 13.2404 13.5647 13.2435C13.5927 13.2442 13.6208 13.245 13.6488 13.2456C13.7654 13.2482 13.8823 13.2499 13.9998 13.2499C15.8387 13.2499 17.5649 12.9366 18.9699 12.3587C18.9856 12.3523 19.0008 12.3456 19.0164 12.3392C19.0952 12.3062 19.1732 12.2728 19.2499 12.2382C19.2821 12.2237 19.3136 12.2088 19.3453 12.1941C19.3854 12.1755 19.4263 12.1575 19.4658 12.1384C20.1155 12.6597 20.7644 13.4192 20.7644 14.3728C20.7644 14.9966 20.4833 15.594 19.9843 16.1333C19.9687 16.1468 19.9529 16.1599 19.9385 16.175C18.6189 17.5595 15.9611 18.4851 13.0561 18.5965C13.0484 18.5967 13.0406 18.597 13.0328 18.5972C12.9533 18.6001 12.8736 18.6023 12.7937 18.604C12.7727 18.6045 12.7516 18.6049 12.7305 18.6053C12.6423 18.6069 12.5539 18.6078 12.4653 18.6078C12.391 18.6078 12.3169 18.6072 12.243 18.6062C12.2043 18.6057 12.1657 18.6047 12.1272 18.6039C12.0947 18.6032 12.0622 18.6026 12.0297 18.6017C11.9731 18.6001 11.9166 18.5982 11.8603 18.596C11.8499 18.5956 11.8394 18.5953 11.829 18.5948C9.76462 18.5104 7.88435 18.0204 6.503 17.2854C6.29573 17.1739 6.09771 17.0562 5.91068 16.9322C5.90149 16.9261 5.89165 16.9216 5.88224 16.9159C4.81085 16.2022 4.16647 15.3178 4.16647 14.3729ZM21.9568 25.0405C19.8424 26.0977 17.0165 26.6798 13.9998 26.6798C10.9831 26.6798 8.15713 26.0976 6.0428 25.0405C4.10243 24.0703 2.98948 22.7815 2.98948 21.5048C2.98948 20.3338 3.8857 19.1859 5.523 18.2474C5.5365 18.2554 5.5505 18.2633 5.56412 18.2713C5.59956 18.2921 5.63516 18.313 5.67125 18.3335C5.69526 18.3471 5.7196 18.3606 5.74377 18.3742C5.76723 18.3872 5.79009 18.4005 5.81382 18.4134C5.8205 18.417 5.8275 18.4204 5.83417 18.424C5.92757 18.4747 6.02284 18.5242 6.11953 18.5726C6.14239 18.584 6.16519 18.5954 6.18816 18.6067C6.27818 18.651 6.36961 18.6941 6.46231 18.7362C6.49622 18.7517 6.53029 18.7669 6.56458 18.7821C6.6477 18.8188 6.73159 18.8549 6.81669 18.89C6.86481 18.9099 6.91343 18.9293 6.96215 18.9487C7.01925 18.9714 7.07683 18.9936 7.13469 19.0154C7.21525 19.0459 7.29641 19.0757 7.37838 19.1048C7.40102 19.1128 7.42388 19.1206 7.44658 19.1285C7.56656 19.1702 7.68797 19.2104 7.81091 19.2491C7.81315 19.2497 7.81539 19.2504 7.81763 19.2512C8.61055 19.4999 9.46225 19.6828 10.3512 19.7952C10.4092 19.8025 10.4673 19.8099 10.5257 19.8167C10.5913 19.8243 10.657 19.8314 10.723 19.8382C10.8191 19.8481 10.9154 19.8573 11.0122 19.8657C11.0613 19.8698 11.1106 19.8736 11.16 19.8774C11.2727 19.8861 11.3857 19.8939 11.4993 19.9004C11.5312 19.9022 11.5632 19.9036 11.5952 19.9052C11.7245 19.9118 11.8541 19.9173 11.9843 19.9209C11.9994 19.9213 12.0146 19.9215 12.0298 19.9219C12.1746 19.9256 12.3197 19.9277 12.4655 19.9277C12.6023 19.9277 12.7385 19.9255 12.8743 19.9223C12.9142 19.9213 12.954 19.9202 12.9938 19.919C13.1055 19.9156 13.2168 19.9112 13.3277 19.9055C13.3855 19.9026 13.4431 19.8991 13.5007 19.8957C13.5847 19.8905 13.6685 19.8851 13.752 19.8787C13.8235 19.8733 13.8948 19.8674 13.966 19.8611C14.0058 19.8576 14.0453 19.8536 14.0849 19.8497C15.7468 19.691 17.2971 19.2891 18.5965 18.6756C18.5987 18.6746 18.6009 18.6735 18.6031 18.6724C18.7786 18.5894 18.951 18.5038 19.117 18.4132C19.6845 18.1031 20.1756 17.7586 20.5869 17.3871C23.3262 18.374 25.0103 19.9319 25.0103 21.5044C25.0101 22.7815 23.8973 24.0702 21.9568 25.0405Z" fill="black"/>
<path d="M10.9222 9.43729C10.9136 9.39507 10.901 9.35346 10.8845 9.31321C10.868 9.27361 10.8476 9.23533 10.8238 9.19968C10.8 9.16336 10.7724 9.12973 10.742 9.09932C10.7116 9.06892 10.6779 9.04125 10.6416 9.01746C10.606 8.99367 10.5677 8.97321 10.5274 8.95675C10.4878 8.94024 10.4462 8.92706 10.404 8.91913C10.3188 8.90196 10.2311 8.90196 10.1459 8.91913C10.1044 8.92706 10.0627 8.94024 10.0225 8.95675C9.9829 8.97327 9.94462 8.99372 9.90896 9.01746C9.87265 9.04125 9.83902 9.06892 9.80861 9.09932C9.7782 9.12973 9.75053 9.16336 9.72609 9.19968C9.7023 9.23533 9.68184 9.27361 9.66538 9.31321C9.64887 9.35346 9.63634 9.39507 9.62776 9.43729C9.61917 9.47957 9.61523 9.5231 9.61523 9.56603C9.61523 9.7396 9.68589 9.90996 9.80866 10.0327C9.83902 10.0631 9.8727 10.0909 9.90902 10.1146C9.94467 10.1384 9.98295 10.1588 10.0225 10.1753C10.0628 10.1918 10.1044 10.205 10.146 10.2129C10.1889 10.2215 10.2324 10.2261 10.2754 10.2261C10.3183 10.2261 10.3618 10.2215 10.4041 10.2129C10.4463 10.205 10.4879 10.1918 10.5275 10.1753C10.5678 10.1588 10.6061 10.1383 10.6417 10.1146C10.678 10.0908 10.7117 10.0631 10.7421 10.0327C10.7725 10.0023 10.8002 9.96869 10.8239 9.93238C10.8477 9.89672 10.8682 9.85844 10.8846 9.81819C10.9012 9.7786 10.9137 9.73698 10.9223 9.69476C10.9309 9.65249 10.9354 9.60896 10.9354 9.56603C10.9354 9.5231 10.9307 9.47951 10.9222 9.43729Z" fill="black"/>
<path d="M19.4319 8.40757C19.1823 8.14173 18.7646 8.12855 18.4988 8.37798C18.4037 8.46729 18.1143 8.70168 17.4838 8.94925C16.5265 9.32496 15.2892 9.532 14 9.532C13.4485 9.532 12.9029 9.49399 12.3785 9.41913C12.0179 9.36745 11.6833 9.61836 11.6317 9.97924C11.5801 10.3401 11.8309 10.6744 12.1918 10.7259C12.7779 10.8097 13.3863 10.8522 14 10.8522C15.4504 10.8522 16.8589 10.6128 17.9662 10.1782C18.7389 9.87495 19.1737 9.55535 19.4024 9.34065C19.6681 9.09111 19.6813 8.67341 19.4319 8.40757Z" fill="black"/>
</g>
<defs>
<clipPath id="clip0">
<rect width="28" height="28" fill="white"/>
</clipPath>
</defs>
</svg>
