<svg width="28" height="28" viewBox="0 0 28 28" fill="none" xmlns="http://www.w3.org/2000/svg">
<g clip-path="url(#clip0)">
<path d="M27.9517 2.77236C27.8643 2.59995 27.6755 2.50302 27.4851 2.53281L25.0995 2.90056L25.4672 0.514905C25.4967 0.323969 25.4 0.135714 25.2277 0.0483181C25.0553 -0.0390776 24.8463 -0.00577548 24.7097 0.130888L21.9404 2.90015C21.8733 2.96735 21.8293 3.05415 21.8148 3.14804L21.3765 5.99171L19.7913 7.57692C17.6076 5.5496 14.7809 4.43771 11.7813 4.43771C8.63191 4.43771 5.67273 5.6625 3.44882 7.88641C1.22479 10.1104 0 13.0696 0 16.2189C0 19.3683 1.22479 22.3274 3.4487 24.5514C5.67267 26.7753 8.63186 28 11.7811 28C14.9304 28 17.8897 26.7752 20.1136 24.5513C22.3375 22.3273 23.5623 19.3681 23.5623 16.2189C23.5623 13.7137 22.788 11.3225 21.3233 9.30369C21.1783 9.10388 20.8988 9.05943 20.6992 9.20444C20.4995 9.34938 20.4551 9.62873 20.6 9.82848C21.9533 11.6938 22.6687 13.9035 22.6687 16.2189C22.6687 22.2223 17.7845 27.1064 11.7811 27.1064C5.77776 27.1064 0.893616 22.2223 0.893616 16.2189C0.893616 10.2155 5.77776 5.33138 11.7811 5.33138C14.5421 5.33138 17.1444 6.3504 19.1588 8.20931L17.1164 10.2518C15.6477 8.93659 13.7665 8.21592 11.7811 8.21592C7.36816 8.21592 3.77803 11.8061 3.77803 16.219C3.77803 20.6318 7.36816 24.222 11.7811 24.222C16.194 24.222 19.7841 20.6318 19.7841 16.219C19.7841 14.7461 19.3813 13.3069 18.6195 12.0567C18.4911 11.846 18.2161 11.7792 18.0054 11.9077C17.7947 12.0361 17.728 12.3111 17.8564 12.5218C18.5328 13.6318 18.8904 14.9103 18.8904 16.219C18.8904 20.1392 15.7011 23.3285 11.781 23.3285C7.86084 23.3285 4.67159 20.1392 4.67159 16.219C4.67159 12.2989 7.86084 9.1096 11.781 9.1096C13.5282 9.1096 15.1846 9.73739 16.4836 10.8845L14.4364 12.9318C13.6872 12.3245 12.7599 11.9941 11.781 11.9941C9.45142 11.9941 7.55612 13.8894 7.55612 16.219C7.55612 18.5487 9.45142 20.4439 11.781 20.4439C14.1107 20.4439 16.0059 18.5487 16.0059 16.219C16.0059 15.804 15.9459 15.3937 15.8275 14.9997C15.7565 14.7633 15.5073 14.6292 15.271 14.7004C15.0347 14.7713 14.9006 15.0205 14.9717 15.2568C15.065 15.5675 15.1123 15.8911 15.1123 16.219C15.1123 18.0559 13.6179 19.5503 11.781 19.5503C9.94416 19.5503 8.44974 18.0559 8.44974 16.219C8.44974 14.3821 9.94416 12.8877 11.781 12.8877C12.5207 12.8877 13.2227 13.1272 13.7998 13.5684L11.465 15.9031C11.2905 16.0777 11.2905 16.3605 11.465 16.535C11.5523 16.6222 11.6666 16.6658 11.781 16.6658C11.8953 16.6658 12.0097 16.6222 12.0969 16.535L20.112 8.51993C20.1147 8.51719 22.0081 6.62379 22.0081 6.62379L24.8518 6.18538C24.9457 6.17096 25.0324 6.12694 25.0996 6.0598L27.8689 3.29054C28.0057 3.1537 28.0391 2.94471 27.9517 2.77236ZM22.6756 3.42869L24.376 1.72838L24.1457 3.22245L22.4453 4.92282L22.6756 3.42869ZM24.5713 5.32441L23.0773 5.55473L24.7777 3.85435L26.2716 3.62404L24.5713 5.32441Z" fill="black"/>
</g>
<defs>
<clipPath id="clip0">
<rect width="28" height="28" fill="white"/>
</clipPath>
</defs>
</svg>
