<svg width="32" height="32" viewBox="0 0 28 28" fill="none" xmlns="http://www.w3.org/2000/svg">
<g clip-path="url(#clip0)">
<path d="M13.0901 26.6598L12.8229 24.4075C12.6691 23.1112 12.6725 21.7971 12.833 20.5016L13.0998 18.3477C13.1032 18.3205 13.1036 18.2934 13.1014 18.2665C13.1018 18.2563 13.1029 18.2462 13.1029 18.2359C13.1029 18.1924 13.0986 18.1492 13.0901 18.1045L12.8229 15.8524C12.6691 14.5562 12.6725 13.242 12.833 11.9466L13.0998 9.79263C13.1032 9.76534 13.1036 9.73811 13.1014 9.71115C13.1018 9.70098 13.1029 9.69108 13.1029 9.68074C13.1029 9.63798 13.0985 9.59401 13.0901 9.54966L12.8229 7.29736C12.6691 6.00111 12.6725 4.68697 12.8329 3.39149L13.0997 1.23746C13.102 1.21849 13.1025 1.19951 13.1021 1.18059C13.1022 1.17594 13.1027 1.1714 13.1027 1.1667C13.1027 0.365092 11.877 0 10.7381 0C9.59915 0 8.37339 0.365092 8.37339 1.1667C8.37339 1.17085 8.37393 1.17479 8.37399 1.17895C8.37355 1.19721 8.37388 1.21559 8.37601 1.23402L8.64004 3.52892C8.77856 4.73308 8.78152 5.95457 8.64879 7.15944L8.45208 8.94503L7.95754 8.4505C8.02322 7.95049 7.94579 6.81535 6.4946 5.21252C4.67313 3.20079 1.78789 2.26039 1.66599 2.22134C1.52402 2.17584 1.36866 2.21352 1.26327 2.3189C1.15789 2.42429 1.12021 2.57965 1.16571 2.72162C1.20476 2.84357 2.14516 5.72877 4.15689 7.55018C5.53162 8.79486 6.56236 9.02898 7.14336 9.02898C7.23983 9.02898 7.32366 9.02247 7.39481 9.01312L7.70538 9.32369L6.97634 9.52324C6.627 9.27808 5.81725 8.93235 4.24444 9.28005C2.20182 9.73155 0.472932 11.3022 0.400307 11.3688C0.29055 11.4696 0.246253 11.6232 0.285628 11.767C0.324948 11.9107 0.441323 12.0204 0.587119 12.0512C0.644486 12.0634 1.47694 12.235 2.56073 12.235C3.2989 12.235 4.15371 12.1553 4.95915 11.8913C6.4899 11.3896 7.01069 10.6797 7.18645 10.2908L8.35315 9.97152L8.40275 10.0211L8.6401 12.0841C8.77862 13.2882 8.78157 14.5097 8.64884 15.7146L8.38421 18.1168C8.377 18.1579 8.3735 18.1971 8.3735 18.2359C8.3735 18.2467 8.37459 18.2572 8.37503 18.2679C8.37306 18.2932 8.37317 18.3187 8.37612 18.3443L8.64015 20.6392C8.68106 20.995 8.71053 21.3568 8.7277 21.7143C8.7382 21.9338 8.92338 22.1032 9.1442 22.0926C9.36366 22.0821 9.53308 21.8956 9.52253 21.6761C9.50454 21.301 9.47358 20.9216 9.43065 20.5483L9.27277 19.1759C9.27272 19.1759 9.27266 19.1758 9.27261 19.1758C9.69983 19.329 10.2276 19.4027 10.7382 19.4027C11.2453 19.4027 11.7695 19.33 12.1952 19.1789C12.1951 19.1789 12.195 19.179 12.195 19.179L12.0432 20.4039C11.8749 21.7629 11.8713 23.1415 12.0327 24.5013L12.3018 26.7702C12.3021 26.7724 12.3024 26.7746 12.3027 26.7768C12.2075 26.9022 11.6744 27.1619 10.7382 27.1619C9.80067 27.1619 9.26736 26.9014 9.1733 26.7763C9.17341 26.7754 9.17352 26.7745 9.17362 26.7736L9.4399 24.3568C9.44559 24.3051 9.45105 24.2533 9.45625 24.2015C9.47834 23.9829 9.31898 23.7878 9.10034 23.7657C8.8822 23.7436 8.68663 23.903 8.66454 24.1216C8.65956 24.171 8.65431 24.2203 8.6489 24.2697L8.38427 26.6718C8.37705 26.7129 8.37355 26.752 8.37355 26.7909C8.37355 27.5925 9.59931 27.9576 10.7382 27.9576C11.8771 27.9576 13.1029 27.5925 13.1029 26.7909C13.1029 26.7482 13.0986 26.7042 13.0901 26.6598ZM4.69091 6.96027C3.46356 5.84897 2.65074 4.25237 2.23993 3.29513C3.19641 3.70506 4.79115 4.51679 5.90464 5.74654C7.03322 6.99308 7.17841 7.85271 7.17349 8.22912C6.79566 8.23421 5.93734 8.0888 4.69091 6.96027ZM4.7112 11.135C3.64386 11.4849 2.44162 11.4664 1.64466 11.3945C2.29282 10.9272 3.31667 10.3 4.4161 10.057C5.51324 9.81456 6.10786 9.96796 6.38315 10.0981C6.21247 10.3502 5.77875 10.7851 4.7112 11.135ZM10.7381 0.795755C11.6393 0.795755 12.1669 1.03649 12.29 1.16626C12.2655 1.19246 12.2246 1.22308 12.1672 1.25551C12.1653 1.25655 12.1632 1.25764 12.1612 1.25874C12.1447 1.26798 12.1268 1.27728 12.1076 1.28668C12.1033 1.28876 12.0987 1.29089 12.0943 1.29297C12.0766 1.30139 12.058 1.30982 12.0383 1.31829C12.0317 1.32114 12.0247 1.32392 12.0179 1.32671C11.9992 1.33442 11.9797 1.34214 11.9592 1.34979C11.9504 1.35307 11.9413 1.35635 11.9322 1.35958C11.9124 1.36669 11.8917 1.37369 11.8704 1.38064C11.8595 1.38419 11.8483 1.38769 11.8371 1.39119C11.8161 1.39764 11.7943 1.40404 11.7719 1.41028C11.759 1.41388 11.7459 1.41749 11.7324 1.42105C11.7102 1.4269 11.6872 1.43259 11.6637 1.43817C11.6488 1.44172 11.6338 1.44528 11.6184 1.44867C11.5948 1.45392 11.5702 1.45889 11.5454 1.46376C11.5288 1.46704 11.5123 1.47038 11.4952 1.47344C11.4699 1.47803 11.4435 1.4823 11.4171 1.48646C11.399 1.48935 11.381 1.49236 11.3623 1.49504C11.3351 1.49892 11.3067 1.50237 11.2784 1.50581C11.2591 1.50817 11.2401 1.51068 11.2203 1.51281C11.1903 1.51599 11.159 1.51856 11.1279 1.52118C11.1082 1.52282 11.089 1.52479 11.0688 1.52621C11.0341 1.52867 10.9979 1.53026 10.9618 1.53195C10.9437 1.53278 10.9264 1.53403 10.908 1.53469C10.8529 1.5366 10.7963 1.5377 10.738 1.5377C10.6797 1.5377 10.6231 1.5366 10.5679 1.53469C10.5496 1.53403 10.5322 1.53283 10.5142 1.53195C10.4781 1.53026 10.4419 1.52862 10.4072 1.52621C10.3869 1.52479 10.3678 1.52282 10.348 1.52118C10.3169 1.51856 10.2856 1.51599 10.2556 1.51281C10.2358 1.51068 10.2169 1.50817 10.1975 1.50587C10.1692 1.50242 10.1408 1.49898 10.1135 1.4951C10.0948 1.49242 10.0769 1.48941 10.0588 1.48651C10.0324 1.4823 10.006 1.47809 9.9807 1.47349C9.96358 1.47038 9.94712 1.4671 9.9305 1.46376C9.90567 1.45884 9.88106 1.45392 9.85743 1.44867C9.84201 1.44522 9.82708 1.44172 9.81215 1.43817C9.78875 1.43259 9.76567 1.42696 9.74347 1.4211C9.73001 1.41755 9.71689 1.41394 9.70393 1.41033C9.68161 1.4041 9.65985 1.39775 9.6389 1.39124C9.62753 1.38774 9.61637 1.38419 9.60538 1.38064C9.58411 1.37374 9.5636 1.36674 9.5438 1.35969C9.53462 1.35641 9.52548 1.35313 9.51662 1.34985C9.49623 1.34224 9.47676 1.33453 9.45811 1.32682C9.45122 1.32398 9.44422 1.32119 9.4376 1.31835C9.41797 1.30992 9.39948 1.30156 9.38193 1.29314C9.37744 1.291 9.37269 1.28882 9.36831 1.28668C9.34928 1.27733 9.33162 1.26809 9.31516 1.25896C9.31308 1.25781 9.31073 1.2566 9.3087 1.25546C9.25139 1.22308 9.21054 1.1924 9.18609 1.16626C9.30919 1.03649 9.83682 0.795755 10.7381 0.795755ZM10.7381 18.6067C9.8005 18.6067 9.26719 18.3462 9.17313 18.221C9.17324 18.2202 9.17335 18.2193 9.17346 18.2184L9.43973 15.8016C9.57897 14.5377 9.5759 13.2563 9.43055 11.993L9.27266 10.6206C9.27255 10.6205 9.2725 10.6205 9.27239 10.6205C9.69966 10.7737 10.2274 10.8474 10.7381 10.8474C11.2452 10.8474 11.7692 10.7748 12.1949 10.6237L12.0431 11.8486C11.8747 13.2076 11.8712 14.5862 12.0325 15.946L12.3017 18.2149C12.302 18.217 12.3022 18.2193 12.3026 18.2215C12.2074 18.3469 11.6743 18.6067 10.7381 18.6067ZM10.7381 10.0517C9.8005 10.0517 9.26719 9.7911 9.17313 9.66598C9.17324 9.6651 9.17335 9.66423 9.17346 9.66341L9.43973 7.24661C9.57897 5.98262 9.5759 4.70125 9.43055 3.43803L9.27764 2.10852C9.64984 2.24119 10.0976 2.3136 10.5437 2.32984C10.5481 2.33001 10.5526 2.33012 10.557 2.33023C10.6175 2.33225 10.6779 2.33351 10.7381 2.33351C10.7977 2.33351 10.8574 2.3323 10.9173 2.33028C10.9221 2.33012 10.9268 2.33001 10.9316 2.32984C11.3745 2.31382 11.819 2.24251 12.1896 2.1118L12.0432 3.29365C11.8748 4.65263 11.8712 6.03124 12.0326 7.3911L12.3017 9.65991C12.302 9.6621 12.3023 9.66434 12.3026 9.66652C12.2075 9.79181 11.6744 10.0517 10.7381 10.0517Z" fill="#002823"/>
<path d="M27.5996 19.9825C27.5232 19.9124 25.7023 18.2582 23.5518 17.7829C21.8842 17.4142 21.0357 17.7858 20.6765 18.042L19.8605 17.8187L20.2228 17.4563C20.2996 17.467 20.391 17.4745 20.4973 17.4745C21.1055 17.4745 22.1875 17.2286 23.6341 15.9188C25.7534 13.9999 26.7443 10.9598 26.7854 10.8313C26.8309 10.6894 26.7932 10.534 26.6879 10.4286C26.5825 10.3232 26.4271 10.2856 26.2851 10.331C26.1567 10.3722 23.1163 11.3631 21.1976 13.4823C19.6591 15.1816 19.5885 16.3773 19.66 16.8937L19.0523 17.5014L18.8617 15.8946C18.8363 15.6807 18.8149 15.4624 18.7979 15.2459C18.7807 15.0268 18.5896 14.8632 18.3702 14.8803C18.1511 14.8974 17.9874 15.0889 18.0045 15.308C18.0223 15.5351 18.0449 15.7641 18.0715 15.9885L18.3407 18.2574C18.3409 18.2595 18.3412 18.2617 18.3415 18.2639C18.2465 18.3893 17.7133 18.6491 16.777 18.6491C15.8393 18.6491 15.3061 18.3885 15.2121 18.2634C15.2122 18.2625 15.2123 18.2616 15.2124 18.2608L15.4787 15.844C15.6179 14.5801 15.6149 13.2987 15.4695 12.0354L15.3166 10.706C15.689 10.8387 16.1371 10.9112 16.5837 10.9273C16.587 10.9274 16.5903 10.9274 16.5937 10.9276C16.6549 10.9296 16.7161 10.9309 16.777 10.9309C16.8372 10.9309 16.8977 10.9297 16.9583 10.9277C16.962 10.9276 16.9658 10.9274 16.9695 10.9273C17.4127 10.9114 17.8576 10.8401 18.2285 10.7092L18.0821 11.8911C18.0462 12.181 18.0174 12.4758 17.9965 12.7673C17.9808 12.9865 18.1458 13.1769 18.3649 13.1926C18.5837 13.2081 18.7745 13.0434 18.7902 12.8242C18.8101 12.5464 18.8375 12.2654 18.8718 11.989L19.1387 9.83507C19.1411 9.81593 19.1415 9.79684 19.1411 9.77786C19.1411 9.77333 19.1417 9.76895 19.1417 9.76436C19.1417 8.96275 17.916 8.59766 16.777 8.59766C15.6381 8.59766 14.4124 8.96275 14.4124 9.76436C14.4124 9.76846 14.4128 9.77234 14.413 9.77639C14.4125 9.79471 14.4128 9.81314 14.415 9.83162L14.679 12.1265C14.8176 13.3307 14.8205 14.5522 14.6878 15.7571L14.4231 18.1592C14.4159 18.2003 14.4124 18.2394 14.4124 18.2783C14.4124 18.2891 14.4135 18.2995 14.4139 18.3101C14.412 18.3355 14.412 18.361 14.415 18.3866L14.679 20.6815C14.8176 21.8857 14.8205 23.1072 14.6878 24.3121L14.4231 26.7142C14.4159 26.7553 14.4124 26.7944 14.4124 26.8333C14.4124 27.6349 15.6382 28 16.7771 28C17.916 28 19.1418 27.6349 19.1418 26.8333C19.1418 26.79 19.1376 26.7468 19.129 26.7021L18.8618 24.4499C18.8618 24.4499 18.8618 24.4499 18.8618 24.4499C18.7079 23.1536 18.7114 21.8394 18.8719 20.544L19.1175 18.5619L19.2129 18.4665L20.4665 18.8096C20.6452 19.213 21.1861 19.9649 22.8092 20.4969C23.6571 20.7748 24.5567 20.8586 25.3341 20.8586C26.4753 20.8586 27.3525 20.6778 27.4129 20.665C27.5587 20.6342 27.675 20.5245 27.7144 20.3808C27.7536 20.2369 27.7093 20.0833 27.5996 19.9825ZM21.7875 14.0165C22.9828 12.6964 24.708 11.8298 25.7142 11.4024C25.2868 12.4085 24.4202 14.1337 23.1 15.329C21.7549 16.5469 20.8312 16.6848 20.4417 16.6736C20.4318 16.2873 20.5695 15.3617 21.7875 14.0165ZM16.777 9.39319C17.6783 9.39319 18.2059 9.63393 18.329 9.7637C18.3045 9.7899 18.2635 9.82063 18.2061 9.85306C18.2043 9.85404 18.2024 9.85503 18.2007 9.85601C18.1839 9.86536 18.1658 9.87477 18.1464 9.88434C18.1424 9.88631 18.138 9.88828 18.1339 9.89025C18.1159 9.89883 18.097 9.90742 18.077 9.91601C18.0707 9.91868 18.0641 9.92131 18.0576 9.92399C18.0386 9.93186 18.0187 9.93974 17.9978 9.9475C17.9894 9.95062 17.9807 9.95374 17.972 9.95686C17.9518 9.96413 17.9307 9.97129 17.9089 9.97835C17.8984 9.98174 17.8877 9.98513 17.8769 9.98847C17.8554 9.99508 17.833 10.0016 17.8101 10.008C17.7977 10.0115 17.7853 10.0149 17.7725 10.0183C17.7496 10.0243 17.7258 10.0302 17.7016 10.0359C17.6874 10.0393 17.6731 10.0427 17.6584 10.046C17.634 10.0514 17.6087 10.0566 17.583 10.0616C17.5672 10.0647 17.5515 10.0679 17.5351 10.0708C17.5089 10.0756 17.4817 10.08 17.4543 10.0843C17.437 10.087 17.42 10.0899 17.4022 10.0924C17.3739 10.0965 17.3443 10.1001 17.3147 10.1036C17.2966 10.1058 17.2788 10.1082 17.2602 10.1102C17.2285 10.1136 17.1954 10.1163 17.1624 10.1191C17.1445 10.1205 17.1271 10.1223 17.1088 10.1236C17.0711 10.1263 17.032 10.1281 16.9927 10.1298C16.9776 10.1305 16.9632 10.1315 16.9479 10.1321C16.8925 10.134 16.8357 10.1351 16.7771 10.1351C16.7186 10.1351 16.6618 10.134 16.6064 10.1321C16.591 10.1315 16.5765 10.1305 16.5613 10.1298C16.5221 10.128 16.4831 10.1262 16.4455 10.1235C16.4271 10.1222 16.4098 10.1205 16.3918 10.119C16.3588 10.1163 16.3257 10.1135 16.294 10.1101C16.2754 10.1082 16.2578 10.1058 16.2397 10.1036C16.21 10.1 16.1804 10.0964 16.152 10.0924C16.1343 10.0899 16.1173 10.087 16.1001 10.0843C16.0727 10.08 16.0454 10.0755 16.0192 10.0708C16.0028 10.0678 15.9871 10.0646 15.9713 10.0615C15.9456 10.0564 15.9202 10.0514 15.8959 10.0459C15.8811 10.0427 15.8669 10.0393 15.8527 10.0359C15.8285 10.0302 15.8047 10.0244 15.7819 10.0183C15.769 10.0149 15.7565 10.0115 15.744 10.008C15.7212 10.0016 15.6989 9.99508 15.6774 9.98847C15.6665 9.98508 15.6558 9.98174 15.6453 9.97829C15.6235 9.97124 15.6025 9.96408 15.5823 9.95686C15.5735 9.95374 15.5648 9.95062 15.5564 9.94745C15.5356 9.93968 15.5157 9.93181 15.4966 9.92393C15.4901 9.92125 15.4835 9.91858 15.4772 9.9159C15.4573 9.90736 15.4385 9.89878 15.4206 9.8903C15.4163 9.88828 15.4118 9.88625 15.4077 9.88423C15.3884 9.87477 15.3705 9.86536 15.3538 9.85612C15.3519 9.85508 15.3499 9.85404 15.3481 9.85301C15.2906 9.82058 15.2497 9.7899 15.2252 9.7637C15.3482 9.63393 15.8758 9.39319 16.777 9.39319ZM16.777 27.2042C15.8394 27.2042 15.3061 26.9436 15.2121 26.8184C15.2122 26.8176 15.2123 26.8168 15.2124 26.8159L15.4787 24.3991C15.6179 23.1351 15.6149 21.8538 15.4695 20.5904L15.3116 19.2181C15.7388 19.3712 16.2665 19.4448 16.777 19.4448C17.2842 19.4448 17.8082 19.3722 18.2339 19.2212L18.0821 20.4461C17.9138 21.805 17.9102 23.1837 18.0715 24.5436L18.3407 26.8124C18.341 26.8146 18.3413 26.8168 18.3416 26.819C18.2465 26.9443 17.7134 27.2042 16.777 27.2042ZM23.0569 19.7405C21.8954 19.3599 21.4395 18.883 21.2664 18.616C21.5513 18.4743 22.1866 18.2961 23.38 18.5599C24.5685 18.8226 25.6772 19.5126 26.3611 20.0107C25.5203 20.0914 24.2163 20.1206 23.0569 19.7405Z" fill="#002823"/>
</g>
<defs>
<clipPath id="clip0">
<rect width="28" height="28" fill="white"/>
</clipPath>
</defs>
</svg>
