<svg width="32" height="32" viewBox="0 0 28 28" fill="none" xmlns="http://www.w3.org/2000/svg">
<g clip-path="url(#clip0)">
<path d="M26.6121 5.6177L23.5061 3.22844C17.9095 -1.07615 10.0909 -1.07615 4.49431 3.22844L1.38828 5.6177C0.973845 5.93577 0.726562 6.43821 0.726562 6.96079V18.6588C0.726562 18.8805 0.875031 19.0747 1.08888 19.1332L5.29712 20.2811C6.13532 20.5097 7.00057 20.6253 7.86925 20.6253H8.09392L9.08895 27.5777C9.09289 27.6038 9.10272 27.6278 9.11058 27.6524C9.11452 27.6657 9.11698 27.679 9.12189 27.6922C9.14352 27.7458 9.17449 27.794 9.21284 27.8368C9.21579 27.8397 9.21628 27.8442 9.21923 27.8471C9.22513 27.8535 9.23349 27.855 9.23939 27.8609C9.27577 27.8953 9.31657 27.9238 9.36278 27.9459C9.37507 27.9518 9.38638 27.9592 9.39916 27.9641C9.40605 27.9666 9.41195 27.9715 9.41883 27.9739C9.46701 27.9902 9.51666 27.997 9.56631 27.9975C9.56926 27.9975 9.57221 27.9995 9.57516 27.9995C9.58401 27.9995 9.59286 27.9951 9.60171 27.9946C9.64497 27.9921 9.68725 27.9843 9.72855 27.9705C9.74428 27.9651 9.75903 27.9597 9.77427 27.9528C9.81999 27.9322 9.86325 27.9061 9.9016 27.8717C9.90553 27.8682 9.91044 27.8673 9.91438 27.8638L9.92077 27.8574L9.92126 27.8569L9.9247 27.8535L12.017 25.86L14.1644 27.7704C14.189 27.792 14.218 27.8034 14.245 27.8191C14.2549 27.825 14.2637 27.8324 14.2735 27.8373C14.2848 27.8432 14.2942 27.8535 14.306 27.8579C14.3089 27.8589 14.3114 27.8599 14.3143 27.8609C14.3483 27.8737 14.3837 27.8766 14.4186 27.8815C14.4417 27.885 14.4643 27.8938 14.4879 27.8938C14.4889 27.8938 14.4898 27.8943 14.4908 27.8943C14.5071 27.8943 14.5223 27.8869 14.538 27.8855C14.5818 27.881 14.625 27.8766 14.6668 27.8609C14.6717 27.8589 14.6762 27.8569 14.6806 27.855C14.6993 27.8471 14.7145 27.8319 14.7322 27.8215C14.7612 27.8048 14.7927 27.793 14.8187 27.7694L16.7046 26.0807L18.4474 27.7414L18.5762 27.8643C18.6229 27.909 18.6769 27.943 18.7354 27.9656C18.7935 27.9882 18.8544 28 18.9159 28C18.9699 28 19.024 27.9911 19.0766 27.973C19.083 27.971 19.0879 27.9666 19.0938 27.9641C19.1056 27.9597 19.1155 27.9528 19.1268 27.9474C19.1735 27.9248 19.2153 27.8958 19.2516 27.8609C19.2575 27.855 19.2654 27.8535 19.2713 27.8471C19.2743 27.8437 19.2752 27.8392 19.2782 27.8363C19.3165 27.794 19.3475 27.7453 19.3691 27.6918C19.3741 27.679 19.376 27.6662 19.38 27.6534C19.3878 27.6283 19.3981 27.6042 19.4016 27.5777L20.3966 20.6253H20.5023C21.4536 20.6253 22.3985 20.4866 23.3109 20.2133L26.9223 19.1298C27.1303 19.0673 27.2729 18.8756 27.2729 18.6588V6.96128C27.2733 6.43821 27.0261 5.93626 26.6121 5.6177ZM19.4075 14.2524H8.59193V8.05611C8.59193 7.94845 8.67944 7.86143 8.78661 7.86143H19.2123C19.32 7.86143 19.407 7.94894 19.407 8.05611L19.4075 14.2524ZM20.3907 15.2357H21.1281C21.5347 15.2357 21.8656 15.5582 21.8656 15.9554C21.8656 16.3649 21.5278 16.7105 21.1281 16.7105H20.403C20.4025 16.7105 20.402 16.7105 20.4015 16.7105H20.3907H8.10031H6.87127C6.47159 16.7105 6.13385 16.3649 6.13385 15.9554C6.13385 15.5582 6.46471 15.2357 6.87127 15.2357H7.6087C7.60919 15.2357 20.3907 15.2357 20.3907 15.2357ZM16.6151 24.6369L14.9579 23.0578L17.2876 20.8376L18.9513 22.3503L16.6151 24.6369ZM14.2455 23.7367L15.9121 25.3246L14.4854 26.7203L12.7943 25.1191L14.2455 23.7367ZM11.9944 24.5238L9.54517 22.3449L11.2029 20.8376L13.5327 23.0578L11.9944 24.5238ZM14.2455 22.3789L11.9325 20.1749L14.2455 18.0723L16.5586 20.1749L14.2455 22.3789ZM15.2912 17.6938H19.1622L17.2719 19.495L15.2912 17.6938ZM11.2191 19.4945L9.32886 17.6933H13.1998L11.2191 19.4945ZM8.78907 18.5369L10.4901 20.1577L9.18974 21.3401L9.00833 20.0722C9.00784 20.0697 9.00931 20.0668 9.00882 20.0643L8.78907 18.5369ZM11.2373 25.1658L9.92372 26.4701L9.51813 23.6359L11.2373 25.1658ZM18.5644 26.4932L17.3289 25.3138L18.9616 23.7161L18.5644 26.4932ZM19.3023 21.3396L18.002 20.1572L19.7029 18.5364L19.4837 20.0633C19.4832 20.0658 19.4847 20.0683 19.4842 20.0712L19.3023 21.3396ZM26.2901 18.293L23.0292 19.2714C22.2195 19.5142 21.3818 19.6386 20.5377 19.642L20.8165 17.6933H21.1277C22.0765 17.6933 22.8483 16.9136 22.8483 15.9549C22.8483 15.0159 22.0765 14.252 21.1277 14.252H20.3902V8.05611C20.3902 7.40669 19.8617 6.8782 19.2123 6.8782H8.7871C8.13768 6.8782 7.60919 7.40669 7.60919 8.05611V14.2524H6.87176C5.92295 14.2524 5.15111 15.0164 5.15111 15.9554C5.15111 16.9141 5.92295 17.6938 6.87176 17.6938H7.67457L7.95332 19.6425H7.86925C7.08808 19.6425 6.30936 19.5383 5.55571 19.3328L1.70979 18.2837V6.96128C1.70979 6.74202 1.81353 6.53112 1.98756 6.39789L5.09359 4.00864C10.3377 -0.0255641 17.6627 -0.0255641 22.9068 4.00864L26.0128 6.39789C26.1869 6.53112 26.2901 6.74202 26.2901 6.96128V18.293Z" fill="#002823"/>
</g>
<defs>
<clipPath id="clip0">
<rect width="28" height="28" fill="white"/>
</clipPath>
</defs>
</svg>
