<svg width="32" height="32" viewBox="0 0 28 28" fill="none" xmlns="http://www.w3.org/2000/svg">
<path d="M26.9018 5.74352L19.9018 1.80602C19.8622 1.78378 19.8194 1.76784 19.7749 1.75877L15.3999 0.883767C15.3711 0.877681 15.3418 0.874747 15.3124 0.875017H12.6874C12.658 0.874747 12.6287 0.877681 12.5999 0.883767L8.2249 1.75877C8.17981 1.76766 8.13641 1.78361 8.09628 1.80602L1.09628 5.74352C1.01049 5.79178 0.943476 5.86757 0.906084 5.95863C0.868691 6.04969 0.863101 6.1507 0.890216 6.24533L2.64022 12.3703C2.65854 12.4344 2.69126 12.4934 2.73587 12.5429C2.78049 12.5924 2.83582 12.6311 2.89765 12.656C2.95948 12.6808 3.02617 12.6912 3.09264 12.6864C3.1591 12.6815 3.22358 12.6616 3.28115 12.628L7.8749 9.9492V26.6875C7.8749 26.8035 7.921 26.9148 8.00304 26.9969C8.08509 27.0789 8.19637 27.125 8.3124 27.125H19.6874C19.8034 27.125 19.9147 27.0789 19.9968 26.9969C20.0788 26.9148 20.1249 26.8035 20.1249 26.6875V9.9492L24.7187 12.628C24.7762 12.6616 24.8407 12.6815 24.9072 12.6864C24.9736 12.6912 25.0403 12.6808 25.1022 12.656C25.164 12.6311 25.2193 12.5924 25.2639 12.5429C25.3085 12.4934 25.3413 12.4344 25.3596 12.3703L27.1096 6.24533C27.1366 6.15051 27.1307 6.04935 27.093 5.95827C27.0553 5.86719 26.9879 5.79151 26.9018 5.74352ZM24.2501 5.25614L22.6751 10.4248L19.9062 8.80952C19.8397 8.77116 19.7643 8.75094 19.6876 8.7509C19.6109 8.75086 19.5355 8.771 19.469 8.80929C19.4026 8.84759 19.3473 8.90269 19.3088 8.96908C19.2704 9.03546 19.2501 9.1108 19.2499 9.18752V13.125H13.5624V12.3725L19.5124 2.59833L19.5338 2.6027L24.2501 5.25614ZM19.2499 15.75H13.5624V14H19.2499V15.75ZM15.2687 1.75002L16.411 1.97839L14.108 5.76189L12.7102 1.75395L12.7312 1.75002H15.2687ZM12.5999 8.23552L10.1136 2.27502L11.8435 1.92939L13.5187 6.72964L12.5999 8.23552ZM1.82778 6.33677L3.22778 5.54927L4.80278 10.7275L3.3284 11.5885L1.82778 6.33677ZM5.58153 10.2743L4.00959 5.10958L8.4664 2.6027L9.23859 2.45002L12.0386 9.16127L10.5638 11.585C10.5219 11.6535 10.4998 11.7322 10.4999 11.8125V13.125H8.7499V9.18752C8.74975 9.1108 8.72942 9.03546 8.69096 8.96908C8.6525 8.90269 8.59725 8.84759 8.53077 8.80929C8.46429 8.771 8.3889 8.75086 8.31218 8.7509C8.23546 8.75094 8.1601 8.77116 8.09365 8.80952L5.58153 10.2743ZM8.7499 14H10.4999V15.75H8.7499V14ZM8.7499 16.625H10.4999V26.25H8.7499V16.625ZM11.3749 26.25V11.935L17.3249 2.16083L18.5989 2.41589L12.7513 12.0225C12.7094 12.091 12.6873 12.1697 12.6874 12.25V26.25H11.3749ZM18.3749 26.25V22.3125H17.4999V26.25H16.6249V24.0625H15.7499V26.25H13.5624V16.625H19.2499V26.25H18.3749ZM24.6714 11.5885L23.4534 10.878L25.031 5.69495L26.172 6.33677L24.6714 11.5885Z" fill="#002823"/>
<path d="M18.375 20.5625H17.5V21.4375H18.375V20.5625Z" fill="#002823"/>
</svg>
