<svg width="32" height="32" viewBox="0 0 28 28" fill="none" xmlns="http://www.w3.org/2000/svg">
<g clip-path="url(#clip0)">
<path d="M27.9545 18.8635C27.9976 18.748 28.0129 18.6209 27.9731 18.4925L25.6666 10.9967V4.08071C25.6666 2.47306 24.3588 1.16406 22.75 1.16406H5.25C3.64115 1.16406 2.33335 2.47306 2.33335 4.08071V10.9967L0.0268516 18.4925C-0.0127969 18.6197 0.00235156 18.7469 0.0455 18.8635C0.0175 18.9872 0 19.1144 0 19.2474V23.914V26.2474C0 26.5694 0.261352 26.8307 0.583352 26.8307H2.9167C3.23865 26.8307 3.5 26.5694 3.5 26.2474V24.4974H24.5V26.2474C24.5 26.5694 24.7614 26.8307 25.0834 26.8307H27.4167C27.7387 26.8307 28.0001 26.5694 28.0001 26.2474V23.914V19.2474C28 19.1144 27.9825 18.9872 27.9545 18.8635ZM3.5 4.08071C3.5 3.11586 4.28515 2.33071 5.25 2.33071H22.75C23.7149 2.33071 24.5 3.11586 24.5 4.08071V10.4974H22.9145L22.3709 8.32271C22.1749 7.54221 21.476 6.99736 20.6721 6.99736H16.9166C15.9518 6.99736 15.1666 7.78251 15.1666 8.74736V10.4974H12.8333V8.74851C12.8333 7.78366 12.0481 6.99851 11.0833 6.99851H7.3278C6.52395 6.99851 5.82515 7.54451 5.62915 8.32386L5.0855 10.4974H3.5V4.08071ZM21.7164 11.44C21.6044 11.5824 21.4364 11.664 21.2555 11.664H16.9166C16.5958 11.664 16.3333 11.4027 16.3333 11.0807V8.74736C16.3333 8.42536 16.5958 8.16401 16.9166 8.16401H20.6733C20.9416 8.16401 21.1738 8.34486 21.2391 8.60501L21.8225 10.9384C21.8669 11.1145 21.8284 11.2965 21.7164 11.44ZM11.6679 8.74736V11.0749C11.6679 11.0772 11.6667 11.0784 11.6667 11.0807C11.6667 11.0819 11.6667 11.0831 11.6667 11.0831C11.6656 11.4039 11.4042 11.6641 11.0846 11.6641H6.7457C6.5637 11.6641 6.39685 11.5824 6.28485 11.4401C6.17285 11.2966 6.13435 11.1134 6.1787 10.9384L6.76205 8.60506C6.82741 8.34606 7.05955 8.16406 7.32905 8.16406H11.0846C11.4054 8.16401 11.6679 8.42536 11.6679 8.74736ZM3.34715 11.664H5.103C5.16485 11.839 5.24535 12.007 5.36315 12.1587C5.69915 12.5857 6.202 12.8307 6.7445 12.8307H11.0834C11.8429 12.8307 12.4845 12.3407 12.726 11.664H15.274C15.5155 12.3419 16.1571 12.8307 16.9166 12.8307H21.2555C21.798 12.8307 22.2996 12.5857 22.6356 12.1587C22.7535 12.0082 22.834 11.839 22.8958 11.664H24.6528L26.4541 17.5184C26.3865 17.5102 26.32 17.4974 26.25 17.4974H1.75C1.68 17.4974 1.6135 17.5102 1.547 17.5184L3.34715 11.664ZM2.33335 25.664H1.16665V24.4974H2.3333V25.664H2.33335ZM26.8334 25.664H25.6667V24.4974H26.8334V25.664ZM26.8334 23.3307H1.16665V19.2474C1.16665 18.9254 1.42915 18.664 1.75 18.664H26.25C26.5709 18.664 26.8334 18.9254 26.8334 19.2474V23.3307Z" fill="#002823"/>
</g>
<defs>
<clipPath id="clip0">
<rect width="28" height="28" fill="white"/>
</clipPath>
</defs>
</svg>
