<svg width="28" height="28" viewBox="0 0 28 28" fill="none" xmlns="http://www.w3.org/2000/svg">
<g clip-path="url(#clip0)">
<path d="M12.2605 6.34834C12.4068 6.34834 12.5447 6.27928 12.6321 6.16199C12.7197 6.04469 12.7469 5.8932 12.7052 5.75281C12.3728 4.61769 11.7984 3.56815 11.021 2.67689C10.3947 2.01049 9.46243 1.72518 8.5705 1.92694C8.44732 1.97403 8.35018 2.0714 8.30308 2.19458C8.27749 2.26387 8.25847 2.33543 8.24647 2.40834C8.2322 2.49484 8.2245 2.58224 8.22314 2.66987V2.67735C8.22881 3.41689 8.5268 4.12428 9.05236 4.64486C9.94361 5.42154 10.9925 5.99578 12.1269 6.32796C12.1704 6.34087 12.2152 6.34789 12.2605 6.34834ZM9.70993 3.98819C9.52584 3.80387 9.38137 3.58355 9.28513 3.34126V3.33673C9.26475 3.28533 9.24709 3.2337 9.23192 3.18411C9.224 3.15717 9.21833 3.13181 9.21154 3.10531C9.20452 3.07882 9.19841 3.05889 9.19388 3.0358C9.18912 3.01247 9.18822 3.00319 9.18505 2.98666C9.17146 2.91737 9.16195 2.8474 9.15674 2.77698C9.61415 2.81162 10.0437 3.00908 10.368 3.33356C10.829 3.85482 11.2006 4.44876 11.4675 5.09162C10.824 4.82374 10.2291 4.4508 9.70767 3.98819H9.70993Z" fill="black"/>
<path d="M26.4927 6.66793H19.3343C19.6439 6.45643 19.9346 6.21845 20.2029 5.95691C21.8618 4.29305 21.9162 1.77032 20.8564 0.710596C19.7967 -0.349129 17.2749 -0.29569 15.6092 1.365C14.9281 2.10635 14.3747 2.95549 13.9716 3.878C13.5686 2.95481 13.0147 2.10522 12.3329 1.36364C10.669 -0.295237 8.14653 -0.349582 7.08657 0.710143C6.0264 1.76987 6.08119 4.2926 7.7403 5.95691C8.00885 6.21845 8.2996 6.45643 8.60891 6.66793H1.45056C1.19446 6.66793 0.986816 6.87557 0.986816 7.13167V11.7691C0.986816 12.0252 1.19446 12.2328 1.45056 12.2328H2.37804V25.6814C2.37963 26.9612 3.41694 27.9985 4.69676 28.0001H23.2465C24.5265 27.9985 25.5638 26.9612 25.5652 25.6814V12.2328H26.4927C26.7488 12.2328 26.9564 12.0252 26.9564 11.7691V7.13167C26.9564 6.87557 26.7488 6.66793 26.4927 6.66793ZM16.2654 2.02031C17.5982 0.691575 19.5422 0.706973 20.2011 1.3659C20.8601 2.02484 20.8759 3.96789 19.5472 5.30115C18.9387 5.86362 18.244 6.32487 17.4895 6.66793H14.7184C14.7184 6.65819 14.7184 6.64755 14.7184 6.63781C14.7184 6.53206 14.7105 6.42496 14.7003 6.31717C14.6964 6.28162 14.6924 6.2463 14.6883 6.21007C14.6776 6.12108 14.6645 6.03232 14.6487 5.94401C14.6437 5.91298 14.6385 5.88174 14.633 5.85117C14.6108 5.73568 14.5866 5.62201 14.5588 5.51219C14.5551 5.49634 14.5508 5.48253 14.5472 5.46577C14.5225 5.36976 14.4972 5.28032 14.4711 5.18771C14.4675 5.17503 14.4641 5.16121 14.4605 5.14853C14.8405 3.9928 15.455 2.92764 16.2654 2.02031ZM15.8266 11.3054H12.1166V7.59541H15.8266V11.3054ZM8.39651 5.3016C7.06755 3.96834 7.08318 2.02529 7.74234 1.3659C8.40127 0.70652 10.3443 0.691122 11.6767 2.01895C12.5204 2.9641 13.1528 4.07862 13.5316 5.28779C13.584 5.4506 13.6243 5.60684 13.6623 5.75855C13.6729 5.80203 13.6818 5.84415 13.6911 5.88694C13.7162 6.00016 13.7363 6.10817 13.7515 6.21165C13.7565 6.24675 13.7631 6.28298 13.7671 6.31717C13.7819 6.43288 13.7898 6.5495 13.7909 6.66611H10.4537C9.69966 6.32374 9.00517 5.86317 8.39651 5.3016ZM1.9143 7.59541H11.1892V11.3054H1.9143V7.59541ZM3.30553 25.6814V12.2328H12.1166V27.0726H4.69676C3.92846 27.0726 3.30553 26.4497 3.30553 25.6814ZM13.0441 27.0726V12.2328H14.8991V27.0726H13.0441ZM24.6377 25.6814C24.6377 26.4497 24.015 27.0726 23.2465 27.0726H15.8266V12.2328H24.6377V25.6814ZM26.0289 11.3054H16.7541V7.59541H26.0289V11.3054Z" fill="black"/>
<path d="M15.6815 6.35021C15.7262 6.35021 15.7705 6.34387 15.8133 6.33119C16.9491 5.99923 17.9991 5.42386 18.8901 4.64491C19.55 4.01383 19.8344 3.08544 19.6415 2.19305C19.5948 2.07033 19.4977 1.97341 19.3749 1.92654C18.4826 1.73361 17.5542 2.01802 16.9231 2.67786C16.1444 3.56889 15.569 4.61887 15.2368 5.75468C15.1954 5.89507 15.2223 6.04679 15.31 6.16385C15.3976 6.28115 15.5353 6.35021 15.6815 6.35021ZM17.5789 3.33362C17.9036 3.00936 18.3336 2.81213 18.791 2.77704C18.7563 3.23466 18.5589 3.66489 18.2346 3.98961C17.7129 4.4538 17.1172 4.82742 16.4723 5.0953C16.7404 4.4504 17.1144 3.8551 17.5789 3.33362Z" fill="black"/>
</g>
<defs>
<clipPath id="clip0">
<rect width="28" height="28" fill="white"/>
</clipPath>
</defs>
</svg>
