<svg width="28" height="28" viewBox="0 0 28 28" fill="none" xmlns="http://www.w3.org/2000/svg">
<g clip-path="url(#clip0)">
<path d="M23.3765 23.9471C23.3763 23.9471 23.3761 23.9469 23.3759 23.9469L19.7759 22.5701L23.428 21.176C24.0544 20.937 24.475 20.4162 24.5822 19.7471C24.7083 18.9595 24.387 18.1003 23.7824 17.6092C23.3699 17.2742 22.8756 17.1424 22.3563 17.2199C22.6994 16.1672 22.9025 14.9092 22.9252 13.6413C22.9555 11.9347 22.6622 10.4235 22.0991 9.38681C21.8919 9.00507 21.4832 8.63721 21.0355 8.6763C20.8857 8.68933 20.5181 8.77628 20.3429 9.29858C20.2594 9.54596 20.1955 9.76984 20.1391 9.96722C20.0823 10.1659 20.0287 10.3532 19.9887 10.4376C19.7868 10.8591 19.4051 11.1013 19.0594 11.0266C18.617 10.9307 18.3312 10.3225 18.3133 9.43936C18.2891 8.2341 18.1186 7.09506 17.807 6.05408C17.7414 5.83554 17.5113 5.71121 17.2924 5.77679C17.0738 5.84216 16.9497 6.07245 17.0151 6.2912C17.3054 7.26062 17.4641 8.32553 17.487 9.45602C17.5263 11.3906 18.5666 11.7655 18.8845 11.8345C19.6055 11.9907 20.366 11.563 20.7349 10.7933C20.8045 10.6461 20.8616 10.4468 20.9338 10.1945C20.9876 10.0059 21.0489 9.79184 21.1262 9.56198C21.1316 9.54617 21.1365 9.53293 21.1414 9.52203C21.2057 9.56241 21.3033 9.65363 21.3728 9.78137C22.3494 11.5805 22.3315 15.2318 21.3538 17.5485L17.9841 18.8373C18.2028 17.9785 18.2968 17.1383 18.2635 16.3306C18.2541 16.1027 18.0605 15.9256 17.8335 15.9348C17.6053 15.9442 17.4282 16.1369 17.4376 16.3648C17.475 17.2691 17.3338 18.2242 17.0181 19.2066L13.9996 20.3611L10.3802 18.977C10.1682 18.3098 10.0898 17.5391 10.1659 16.832C10.2458 16.0875 10.4633 15.7605 10.5453 15.7115C10.7696 15.7782 11.0012 16.2715 11.1402 16.5677C11.2148 16.7263 11.2851 16.8762 11.3605 16.9963C11.9044 17.857 12.5283 17.9234 12.8518 17.8867C13.4132 17.8226 13.9047 17.3748 14.1341 16.7184C14.5665 15.4815 14.8231 13.5401 14.123 12.1398C13.9312 11.7552 13.9528 11.5692 13.9825 11.545C14.1036 11.4459 14.6661 11.5143 15.1852 11.9189C16.0946 12.6266 16.7664 13.5685 17.1279 14.643C17.2005 14.8594 17.4351 14.9756 17.6512 14.903C17.8674 14.8301 17.9838 14.5958 17.911 14.3794C17.4976 13.1506 16.7307 12.0742 15.693 11.2667C15.0288 10.7489 14.0199 10.4462 13.4591 10.9052C13.2269 11.0954 12.9084 11.5562 13.3837 12.5091C14.0092 13.7603 13.6593 15.5721 13.354 16.4456C13.2337 16.7893 12.9943 17.0384 12.758 17.0655C12.4525 17.0997 12.1893 16.7604 12.0601 16.5558C12.012 16.4793 11.952 16.3516 11.8885 16.2163C11.6589 15.7274 11.3444 15.0574 10.7346 14.9064C10.4265 14.8306 10.1264 14.9335 9.88989 15.1969C9.33554 15.8143 9.1672 17.2746 9.43594 18.6158L6.76629 17.5948C6.5971 16.942 6.44308 15.8649 6.86776 14.8615C7.77481 12.7202 7.712 12.4987 6.59902 10.2486L6.43539 9.91766C6.34588 9.73566 6.22433 9.55408 6.11709 9.39386C6.07009 9.32379 6.00985 9.23386 5.96243 9.15588C6.71224 8.71603 7.98736 9.04095 8.68313 9.66025C9.22744 10.1445 9.76449 10.5722 10.3428 10.4876C10.6732 10.4391 10.9535 10.2317 11.1761 9.87088C13.4021 6.27069 12.0315 3.31393 11.2951 1.72543C11.1473 1.40649 10.9685 1.0209 10.9292 0.830994C10.9539 0.82843 10.9862 0.826508 11.027 0.826508H11.0355C11.8437 0.826508 12.8144 1.14844 13.7001 1.71027C14.781 2.396 15.6927 3.40237 16.3368 4.62067C16.4436 4.82254 16.6938 4.89944 16.8954 4.79285C17.0971 4.68604 17.1742 4.4361 17.0674 4.23422C15.5283 1.32318 12.8644 0 11.0353 0C11.0319 0 11.0281 0 11.0247 0C10.8777 0.000427246 10.4306 0.00170898 10.206 0.354614C9.94137 0.770538 10.1815 1.28879 10.5451 2.07321C11.2633 3.62219 12.4649 6.21472 10.4729 9.4368C10.4122 9.53528 10.3193 9.65576 10.2229 9.66986C9.97769 9.70532 9.47439 9.258 9.23257 9.04288C8.26507 8.18176 6.52511 7.7746 5.43392 8.51266C5.22372 8.5932 5.13613 8.74509 5.10131 8.83481C4.97186 9.16977 5.18441 9.48679 5.43029 9.854C5.52792 9.99948 5.62875 10.1499 5.69412 10.2827L5.85818 10.6151C6.37707 11.6638 6.63726 12.1902 6.66909 12.652C6.699 13.0904 6.52981 13.5407 6.10684 14.5392C5.69753 15.5056 5.72381 16.506 5.85092 17.2612C5.2564 17.1097 4.68411 17.2296 4.21713 17.6089C3.61279 18.0999 3.29171 18.9586 3.41775 19.7462C3.52499 20.4157 3.94583 20.937 4.57217 21.1758L8.22235 22.5697L4.63241 23.9437C3.81552 24.2293 3.28359 25.1494 3.41006 26.1552C3.48355 26.7488 3.77792 27.285 4.21777 27.6266C4.53243 27.8708 4.90157 28 5.27477 28C5.34313 28 5.41171 27.9957 5.48007 27.987C5.54672 27.9786 5.61166 27.966 5.67553 27.9498C5.6907 27.9466 5.70565 27.9423 5.72061 27.9374C5.8099 27.912 5.8962 27.8791 5.97866 27.8396L14.0004 24.7764C14.0004 24.7764 22.3089 27.9462 22.3227 27.9494C22.3868 27.9656 22.4522 27.9784 22.5193 27.9868C22.5879 27.9957 22.6566 28 22.7252 28C23.0988 28 23.468 27.8708 23.7824 27.6268C24.2223 27.2852 24.5167 26.7488 24.5901 26.156C24.7162 25.1535 24.1887 24.2366 23.3765 23.9471ZM22.1869 18.1148C22.5904 17.9606 22.9619 18.0076 23.2614 18.2509C23.6382 18.557 23.8457 19.1186 23.766 19.6164C23.7235 19.8817 23.5793 20.2335 23.1332 20.4038L18.6181 22.1275L15.1565 20.8037L22.1869 18.1148ZM4.23016 26.0528C4.15347 25.4417 4.44421 24.8877 4.89688 24.7264C4.90457 24.7241 4.91226 24.7217 4.91995 24.719L4.92571 24.7168C4.97122 24.7023 5.01843 24.6918 5.06692 24.6856H5.06756C5.10324 24.6812 5.13784 24.679 5.17159 24.679C5.40914 24.679 5.59841 24.7841 5.72082 24.8792C5.98828 25.0868 6.16836 25.422 6.21514 25.7997C6.28564 26.36 6.04638 26.8723 5.65631 27.078L5.46917 27.1494C5.43862 27.157 5.40765 27.163 5.37582 27.1671C5.09084 27.2036 4.86419 27.0821 4.7247 26.9738C4.45724 26.7659 4.27694 26.4307 4.23016 26.0528ZM6.97842 26.573C7.05084 26.2991 7.07348 26.0022 7.03524 25.6971C6.96176 25.1037 6.66738 24.5677 6.22775 24.2261C6.2254 24.2244 6.22305 24.2227 6.2207 24.221L9.37976 23.0119L12.8419 24.334L6.97842 26.573ZM20.9652 25.6965C20.9269 26.0018 20.9496 26.2989 21.022 26.573L9.54489 22.1903C9.53314 22.1852 9.52117 22.1805 9.509 22.1764L4.86675 20.4038C4.42071 20.2335 4.2763 19.881 4.23379 19.6155C4.15411 19.1178 4.36154 18.5566 4.73815 18.2507C5.03744 18.0076 5.40872 17.9606 5.81182 18.1148L21.7791 24.2212C21.7772 24.2227 21.775 24.2242 21.7731 24.2257C21.333 24.5673 21.0387 25.1035 20.9652 25.6965ZM23.77 26.0537C23.7233 26.4307 23.5432 26.7661 23.2757 26.9738C23.136 27.0821 22.9098 27.2034 22.6235 27.1669C22.5921 27.1628 22.5616 27.157 22.5315 27.1496L22.3424 27.0774C21.9536 26.8714 21.715 26.3594 21.7853 25.7988C21.8321 25.4218 22.0121 25.0864 22.2798 24.8788C22.402 24.7839 22.5906 24.6788 22.8275 24.6788C22.8611 24.6788 22.8955 24.6809 22.9309 24.6856H22.9318C22.9824 24.692 23.0313 24.7032 23.0788 24.7183L23.0805 24.719C23.0826 24.7198 23.0847 24.7202 23.0869 24.7209C23.5489 24.8749 23.8478 25.4348 23.77 26.0537Z" fill="black"/>
</g>
<defs>
<clipPath id="clip0">
<rect width="28" height="28" fill="white"/>
</clipPath>
</defs>
</svg>
