<svg width="28" height="28" viewBox="0 0 28 28" fill="none" xmlns="http://www.w3.org/2000/svg">
<g clip-path="url(#clip0)">
<path d="M27.8798 0.120332C27.7981 0.0386288 27.6858 -0.00468362 27.5701 0.000402304L25.9796 0.0747225C25.9474 0.0762537 25.9155 0.0815037 25.8845 0.0905271L24.875 0.382777C24.8093 0.401753 24.7494 0.436917 24.7007 0.484933L24.2497 0.92976L23.5304 1.25274C23.4602 1.28419 23.4003 1.33472 23.3576 1.39849C22.9664 1.9808 22.4845 3.24987 23.1406 4.25585L20.9982 6.39877C19.0456 4.65583 16.0967 3.82688 13.9142 3.43679C11.346 2.9778 8.40328 2.86498 5.76877 3.11911C5.76221 3.02544 5.7592 2.93039 5.74241 2.8378C5.71152 2.66751 5.6396 2.50585 5.53356 2.36908C5.31186 2.08317 4.95716 1.92436 4.59638 1.94902C4.31042 1.96915 4.05859 2.09947 3.87735 2.29454C3.69011 2.18467 3.47458 2.13327 3.25293 2.14863C2.65465 2.19074 2.20222 2.71169 2.24428 3.30992L2.27583 3.75929C0.732173 4.23512 -0.032685 4.8701 0.00133061 5.64895C0.0229868 6.14355 0.345861 6.51165 0.960985 6.74298C1.33253 6.8827 1.81816 6.98119 2.50727 7.05508L2.53773 7.48864C2.56147 7.82644 2.74642 8.1404 3.03041 8.32481C3.32299 8.51479 3.69803 8.55242 4.0225 8.42379L11.4979 15.9015L6.9661 20.4345L3.8242 20.7723C3.7309 20.7823 3.64384 20.824 3.5775 20.8903L0.172666 24.2963C0.0467211 24.4222 0.0166978 24.6208 0.0997132 24.7784C0.177315 24.9257 0.341596 25.0134 0.507244 24.9954L3.31282 24.6937L3.01127 27.5003C2.99404 27.6605 3.07509 27.8199 3.21465 27.9003C3.37385 27.9919 3.58051 27.9648 3.71045 27.8348L7.11529 24.4288C7.18162 24.3625 7.22329 24.2754 7.2333 24.1822L7.57674 20.9861L12.079 16.4827L19.5778 23.9839C19.5382 24.0852 19.5135 24.1928 19.5056 24.3044C19.4836 24.6188 19.5988 24.927 19.8218 25.1499C20.007 25.335 20.2531 25.447 20.5145 25.4654L20.9111 25.4933C20.9847 26.182 21.083 26.6676 21.2224 27.0391C21.4532 27.6542 21.8207 27.9771 22.3147 27.9989C22.3313 27.9996 22.3479 28 22.3644 28C23.1191 28 23.7359 27.235 24.2006 25.7243L24.6932 25.7588C24.719 25.7606 24.7447 25.7616 24.7702 25.7616C25.3356 25.7615 25.8143 25.3226 25.8545 24.7502C25.87 24.5292 25.8188 24.3139 25.7092 24.1267C25.9044 23.9454 26.0341 23.6927 26.0541 23.4067C26.0745 23.1169 25.9807 22.8365 25.7901 22.6172C25.5996 22.398 25.335 22.266 25.0453 22.2458L24.84 22.2314C25.0159 20.3986 25.017 18.36 24.8404 16.4395C24.8195 16.2135 24.6192 16.0472 24.3935 16.0679C24.1675 16.0887 24.0012 16.2888 24.0219 16.5147C24.1947 18.393 24.1931 20.3858 24.02 22.1738L21.5256 21.9986C21.3074 17.7527 20.7795 13.0578 17.8705 10.1203C17.8686 10.1183 17.8669 10.1161 17.865 10.1142C17.8639 10.1131 17.8627 10.1122 17.8616 10.1111C16.2235 8.47853 13.8587 7.42411 10.632 6.88757C10.4077 6.85 10.1964 7.00176 10.1592 7.22554C10.1219 7.44943 10.2733 7.66112 10.4972 7.69836C13.3568 8.17387 15.485 9.0638 16.9852 10.4129L12.079 15.3204L5.05691 8.2961C5.604 8.25016 6.02509 7.80358 6.0514 7.26672C6.95976 7.31375 7.91826 7.37511 8.88683 7.47994C8.90187 7.48158 8.9168 7.4824 8.93156 7.4824C9.13872 7.4824 9.31684 7.32627 9.33964 7.11567C9.36409 6.89003 9.20101 6.68725 8.97537 6.66286C7.95457 6.55228 6.94964 6.48933 6.00201 6.4411L5.82636 3.93932C8.39415 3.6895 11.265 3.79828 13.7696 4.24584C16.8938 4.8042 19.2941 5.8449 20.709 7.25348C21.7678 8.32071 23.1683 10.5134 23.8273 14.8989C23.8579 15.1027 24.0332 15.2489 24.2332 15.2489C24.2535 15.2489 24.2741 15.2474 24.2947 15.2443C24.5192 15.2106 24.6738 15.0013 24.6401 14.7768C24.2762 12.3557 23.4499 9.09448 21.578 6.98125L23.7168 4.84188C24.0834 5.09027 24.4864 5.18499 24.8793 5.18499C25.5692 5.18499 26.2277 4.89542 26.6022 4.64374C26.6659 4.60087 26.7164 4.54099 26.7478 4.47093L27.0707 3.7513L27.5154 3.30008C27.5634 3.2514 27.5985 3.19152 27.6175 3.12584L27.9097 2.11604C27.9186 2.08509 27.9239 2.05315 27.9255 2.02094L27.9997 0.429972C28.0052 0.314527 27.9616 0.202144 27.8798 0.120332V0.120332ZM0.822462 5.61302C0.811032 5.35189 1.27948 4.9565 2.33512 4.60382L2.44865 6.2206C1.13423 6.06162 0.830993 5.80771 0.822462 5.61302V5.61302ZM3.64121 7.67764C3.49646 7.68792 3.36772 7.57521 3.35755 7.43105L3.06415 3.25228C3.05464 3.11649 3.15368 2.99208 3.28815 2.97113C3.46025 2.94433 3.57789 3.07613 3.59643 3.23451L3.88102 7.28892C3.88747 7.3814 3.89753 7.47775 3.8435 7.55918C3.79855 7.62705 3.72253 7.6719 3.64121 7.67764V7.67764ZM3.56104 23.8404L1.57731 24.0537L4.05624 21.574L6.04019 21.3608L3.56104 23.8404ZM6.43153 23.9504L3.95288 26.4298L4.169 24.4187L6.64765 21.9392L6.43153 23.9504ZM22.3602 27.1779C22.357 27.1779 22.3539 27.1778 22.3509 27.1777C22.1569 27.1692 21.904 26.866 21.7455 25.5518L23.3564 25.6649C23.0088 26.7082 22.6201 27.1779 22.3602 27.1779V27.1779ZM25.1698 23.1564C25.3223 23.3318 25.181 23.612 24.9504 23.5954L24.004 23.5291C23.7763 23.5129 23.5812 23.6838 23.5653 23.9102C23.5494 24.1367 23.7201 24.3331 23.9465 24.3489L24.7688 24.4066C24.927 24.4251 25.059 24.543 25.032 24.7148C25.011 24.849 24.8862 24.948 24.7508 24.9389L20.5721 24.6455C20.4077 24.6339 20.2931 24.4714 20.3342 24.3123C20.3809 24.1315 20.5561 24.1109 20.7142 24.122L22.3038 24.2336C22.5304 24.25 22.7267 24.0789 22.7426 23.8524C22.7585 23.626 22.5878 23.4296 22.3614 23.4137L20.7718 23.3021C20.6306 23.2921 20.5193 23.1692 20.5249 23.0276C20.5307 22.8796 20.661 22.7624 20.809 22.7721L24.9877 23.0655C25.0585 23.0706 25.1232 23.1028 25.1698 23.1564V23.1564ZM17.5653 10.9951C20.0111 13.7303 20.4948 18.0282 20.7003 21.9547C20.1781 21.9979 19.7497 22.4135 19.7066 22.9502L12.6601 15.9016L17.5653 10.9951ZM4.98461 7.47797C4.83963 7.48825 4.71123 7.37625 4.701 7.23139L4.40766 3.05267C4.39831 2.91978 4.49324 2.79679 4.62433 2.77262C4.77822 2.74423 4.92664 2.85957 4.93758 3.01543L5.23098 7.1942C5.24126 7.34043 5.13068 7.46769 4.98461 7.47797V7.47797ZM27.1068 1.93426L26.8569 2.79739L26.4334 3.22712C26.399 3.26196 26.3712 3.3027 26.3511 3.34738L26.0501 4.01834C25.7345 4.19853 24.6912 4.70691 23.9929 4.00855C23.2905 3.30593 23.7994 2.26807 23.9824 1.95077L24.6539 1.64928C24.6985 1.62927 24.7393 1.60138 24.7742 1.56698L25.2037 1.14326L26.0665 0.893447L27.1577 0.842479L27.1068 1.93426Z" fill="black"/>
</g>
<defs>
<clipPath id="clip0">
<rect width="28" height="28" fill="white"/>
</clipPath>
</defs>
</svg>
