<svg width="28" height="28" viewBox="0 0 28 28" fill="none" xmlns="http://www.w3.org/2000/svg">
<g clip-path="url(#clip0)">
<path d="M26.8914 6.17813L14.1783 0.0407695C14.0656 -0.0135898 13.9343 -0.0135898 13.8217 0.0407695L1.10853 6.17813C0.966779 6.24654 0.876709 6.3901 0.876709 6.54749V21.4525C0.876709 21.6099 0.966779 21.7535 1.10853 21.8219L13.8216 27.9592C13.878 27.9864 13.939 28 14 28C14.0609 28 14.1219 27.9864 14.1783 27.9592L26.8914 21.8219C27.0331 21.7535 27.1232 21.6099 27.1232 21.4525V6.54754C27.1232 6.39004 27.0331 6.2466 26.8914 6.17813ZM14 0.865621L25.7696 6.54749L22.3578 8.19457C22.3362 8.17811 22.3134 8.1629 22.2884 8.15082L10.5987 2.50761L14 0.865621ZM9.67237 2.97136L21.4249 8.64497L19.0179 9.80703L7.27017 4.13572L9.67237 2.97136ZM21.6999 9.42307V13.7186L19.4515 14.804V10.5085L21.6999 9.42307ZM26.3029 21.1952L14.4101 26.9364V12.9423L17.2469 11.5728C17.4509 11.4743 17.5364 11.2291 17.4379 11.0251C17.3395 10.8212 17.0943 10.7355 16.8902 10.8341L14 12.2294L12.8627 11.6803C12.6586 11.5817 12.4135 11.6674 12.315 11.8714C12.2165 12.0754 12.302 12.3206 12.506 12.4191L13.5898 12.9423V26.9364L1.69702 21.195V7.20095L10.7533 11.5729C10.8107 11.6007 10.8715 11.6138 10.9313 11.6138C11.0837 11.6138 11.2302 11.5284 11.3009 11.3819C11.3994 11.1779 11.3139 10.9327 11.1099 10.8342L2.23028 6.54749L6.30477 4.58049L18.6255 10.5285C18.6273 10.531 18.6294 10.5332 18.6312 10.5357V15.4575C18.6312 15.5987 18.7038 15.7298 18.8233 15.8049C18.8897 15.8466 18.9655 15.8677 19.0414 15.8677C19.1022 15.8677 19.1632 15.8542 19.2197 15.8269L22.2884 14.3454C22.4301 14.277 22.5202 14.1335 22.5202 13.9761V9.02713L26.3029 7.201V21.1952Z" fill="black"/>
<path d="M5.0817 19.6056L3.21603 18.705C3.01194 18.6064 2.76683 18.692 2.66833 18.896C2.56984 19.1 2.65537 19.3452 2.85936 19.4437L4.72502 20.3444C4.7825 20.3721 4.84326 20.3853 4.90303 20.3853C5.0555 20.3853 5.20195 20.2998 5.27267 20.1533C5.37121 19.9493 5.28568 19.7042 5.0817 19.6056Z" fill="black"/>
<path d="M6.7988 18.4841L3.21868 16.7557C3.01464 16.6572 2.76948 16.7428 2.67098 16.9468C2.57255 17.1508 2.65808 17.396 2.86206 17.4945L6.44218 19.2229C6.49966 19.2506 6.56041 19.2638 6.62019 19.2638C6.77266 19.2638 6.91911 19.1783 6.98982 19.0318C7.08831 18.8277 7.00278 18.5825 6.7988 18.4841Z" fill="black"/>
</g>
<defs>
<clipPath id="clip0">
<rect width="28" height="28" fill="white"/>
</clipPath>
</defs>
</svg>
