<svg width="32" height="32" viewBox="0 0 28 28" fill="none" xmlns="http://www.w3.org/2000/svg">
<g clip-path="url(#clip0)">
<path d="M17.3118 26.3044C17.2763 26.3044 17.2402 26.3005 17.2052 26.2935C17.1701 26.2868 17.1357 26.276 17.1031 26.2623C17.0695 26.2486 17.0379 26.2317 17.0084 26.2119C16.9783 26.1922 16.9503 26.1694 16.9253 26.1441C16.9001 26.1189 16.877 26.0912 16.8574 26.0611C16.8377 26.0316 16.8209 25.9997 16.8072 25.9664C16.7935 25.9335 16.7824 25.8991 16.776 25.8641C16.7687 25.8291 16.7649 25.793 16.7649 25.7575C16.7649 25.722 16.7687 25.6859 16.776 25.6509C16.7824 25.6159 16.7935 25.5815 16.8072 25.5481C16.8209 25.5152 16.8377 25.4834 16.8574 25.4539C16.877 25.4238 16.9001 25.396 16.9253 25.3708C16.9503 25.3456 16.9783 25.3228 17.0084 25.3031C17.0379 25.2832 17.0695 25.2664 17.1031 25.2527C17.1357 25.239 17.1701 25.2281 17.2052 25.2215C17.2759 25.2074 17.3479 25.2074 17.4184 25.2215C17.4536 25.2281 17.488 25.239 17.5213 25.2527C17.5542 25.2664 17.5858 25.2832 17.6153 25.3031C17.6454 25.3228 17.6734 25.3456 17.6984 25.3708C17.7236 25.396 17.7467 25.4238 17.7664 25.4539C17.786 25.4834 17.8029 25.5152 17.8166 25.5481C17.8302 25.5815 17.8413 25.6159 17.8477 25.6509C17.855 25.6859 17.8586 25.722 17.8586 25.7575C17.8586 25.793 17.855 25.8291 17.8477 25.8641C17.8413 25.8991 17.8302 25.9335 17.8166 25.9664C17.8029 25.9997 17.786 26.0316 17.7664 26.0611C17.7467 26.0912 17.7236 26.1189 17.6984 26.1441C17.6734 26.1694 17.6454 26.1922 17.6153 26.2119C17.5858 26.2317 17.5542 26.2486 17.5213 26.2623C17.488 26.276 17.4536 26.2868 17.4184 26.2935C17.3835 26.3005 17.3474 26.3044 17.3118 26.3044Z" fill="#002823"/>
<path d="M25.6168 17.9161C25.5803 17.2862 25.2955 14.5994 25.2575 14.3459C25.1951 13.9321 25.0881 13.2743 24.9311 12.4908C24.6578 11.1281 24.1853 9.15396 23.4851 7.49005C21.5838 2.97256 18.88 1.58295 16.9369 1.21509C16.2026 0.462708 15.1597 0 13.9859 0C12.8109 0 11.7678 0.462708 11.0338 1.2153C9.09562 1.58231 6.38901 2.96936 4.48648 7.49005C3.56577 9.67819 2.89392 13.389 2.64783 14.8829C2.64484 14.9013 2.39255 17.2614 2.35474 17.9161C2.30304 18.8114 2.86338 19.6255 3.71723 19.896L6.43323 20.7563C6.39243 20.9707 6.37107 21.192 6.37107 21.4183V27.4531C6.37107 27.7552 6.61588 28 6.91794 28H21.0534C21.3554 28 21.6003 27.7552 21.6003 27.4531V21.4183C21.6003 21.192 21.5791 20.9707 21.5383 20.7563L24.2545 19.896C25.1082 19.6258 25.6683 18.8114 25.6168 17.9161ZM22.4767 7.91431C23.5126 10.3759 24.0766 13.7368 24.228 14.8556C24.14 14.9318 24.0371 14.9895 23.9232 15.0256L15.6931 17.648V16.8705C18.3098 16.192 20.3279 13.987 20.6866 11.2045C20.7088 11.1451 20.721 11.0808 20.721 11.0138V8.49985C20.721 6.95193 20.1878 5.60269 19.1793 4.59738C18.8432 4.26263 18.4589 3.96954 18.0336 3.72089C18.012 3.32889 17.9343 2.95398 17.8076 2.603C19.7278 3.37033 21.3275 5.18292 22.4767 7.91431ZM8.32251 10.3304C8.32251 10.3171 8.32251 10.3039 8.32273 10.2906C9.72602 10.0164 10.5867 8.68442 10.9945 7.8577C12.4068 8.83182 16.1913 11.2372 19.5219 11.5309C18.9686 14.1122 16.6833 15.9935 13.9859 15.9935C10.8631 15.9935 8.32251 13.4531 8.32251 10.3304ZM13.9658 3.81958H13.9976C15.8367 3.81958 17.4019 4.3703 18.407 5.37219C19.2166 6.17905 19.6272 7.23135 19.6272 8.49985V10.4425C15.8463 10.1168 11.1368 6.61783 11.0874 6.58087C10.9917 6.50888 10.8764 6.47171 10.7597 6.47171C10.7055 6.47171 10.6508 6.47983 10.5978 6.49606C10.4305 6.54776 10.2979 6.67679 10.2413 6.84256C10.234 6.86371 9.59058 8.70706 8.3443 9.15182V8.56693C8.3443 5.07739 11.3726 3.82855 13.9658 3.81958ZM13.9859 1.09375C15.3674 1.09375 16.5011 1.96277 16.8414 3.17636C15.9865 2.88049 15.026 2.72583 13.9974 2.72583C13.9857 2.72583 13.9737 2.72583 13.9619 2.72583C12.9203 2.72946 11.9674 2.89032 11.1272 3.18704C11.4636 1.96747 12.5992 1.09375 13.9859 1.09375ZM5.49479 7.91431C6.64408 5.18335 8.24369 3.37054 10.1637 2.60321C10.0349 2.96039 9.95673 3.34256 9.93686 3.74246C8.24967 4.75055 7.25055 6.44907 7.25055 8.56693V9.78372C7.23603 9.96466 7.22876 10.1484 7.22876 10.3302C7.22876 13.4666 9.37653 16.1106 12.2784 16.8687V17.648L4.04749 15.0252C3.94068 14.9914 3.84348 14.9384 3.7591 14.8686C3.9834 13.5388 4.63987 9.94543 5.49479 7.91431ZM4.04728 18.8533C3.67087 18.7341 3.42392 18.3746 3.44678 17.9792C3.47391 17.5105 3.52262 16.8376 3.60913 16.0303C3.64417 16.0437 3.68006 16.0561 3.71616 16.0677L9.46924 17.9008C8.31717 18.0464 7.33558 18.7473 6.80173 19.7257L4.04728 18.8533ZM9.37226 26.9062V26.3047H15.2883C15.5904 26.3047 15.8352 26.0599 15.8352 25.7578C15.8352 25.4557 15.5904 25.2109 15.2883 25.2109H9.37226V24.4472C9.37226 23.3261 10.2844 22.414 11.4055 22.414C12.165 22.414 13.4388 22.6071 13.4388 23.9004C13.4388 24.2024 13.6836 24.4472 13.9857 24.4472C14.2877 24.4472 14.5325 24.2024 14.5325 23.9004C14.5325 22.6071 15.8066 22.414 16.566 22.414C17.6871 22.414 18.5993 23.3261 18.5993 24.4472V26.9062H9.37226ZM20.5065 26.9062H19.693V24.4472C19.693 22.7231 18.2902 21.3202 16.566 21.3202H16.5658C15.4099 21.3202 14.5163 21.6755 13.9857 22.3027C13.4552 21.6753 12.5616 21.3202 11.4055 21.3202C9.68137 21.3202 8.27851 22.7231 8.27851 24.4472V26.9062H7.46482V21.4183C7.46482 20.0663 8.56476 18.9663 9.91678 18.9663H12.8253C13.1273 18.9663 13.3721 18.7215 13.3721 18.4194V17.0597C13.5742 17.0779 13.7789 17.0873 13.9857 17.0873C14.1924 17.0873 14.3971 17.0779 14.5992 17.0597V18.4194C14.5992 18.7215 14.8442 18.9663 15.1461 18.9663H18.0548C19.4068 18.9663 20.5065 20.0663 20.5065 21.4181V26.9062ZM23.924 18.8533L21.1696 19.7257C20.6357 18.7471 19.6544 18.0464 18.5023 17.9008L24.2543 16.0679C24.2908 16.0563 24.3269 16.0437 24.3624 16.0303C24.4489 16.8371 24.4976 17.5103 24.5248 17.9792C24.5476 18.3746 24.3007 18.7341 23.924 18.8533Z" fill="#002823"/>
</g>
<defs>
<clipPath id="clip0">
<rect width="28" height="28" fill="white"/>
</clipPath>
</defs>
</svg>
