<svg width="32" height="32" viewBox="0 0 28 28" fill="none" xmlns="http://www.w3.org/2000/svg">
<g clip-path="url(#clip0)">
<path d="M14 2.18344C13.6979 2.18344 13.4531 1.93863 13.4531 1.63657V0.929688C13.4531 0.627624 13.6979 0.382812 14 0.382812C14.3018 0.382812 14.5469 0.627624 14.5469 0.929688V1.63657C14.5469 1.93863 14.3021 2.18344 14 2.18344Z" fill="#002823"/>
<path d="M18.9704 5.92678C18.8305 5.92678 18.6905 5.87317 18.5837 5.76635C18.3701 5.55294 18.3703 5.20666 18.5837 4.99304L19.5068 4.07019C19.7204 3.85678 20.0667 3.85678 20.2803 4.0704C20.4937 4.28402 20.4937 4.63031 20.2801 4.84372L19.357 5.76657C19.2502 5.87338 19.1103 5.92678 18.9704 5.92678Z" fill="#002823"/>
<path d="M9.02951 5.92678C8.88937 5.92678 8.74945 5.87338 8.64285 5.76657L7.71979 4.84372C7.50616 4.63031 7.50616 4.28402 7.71979 4.0704C7.93341 3.85678 8.27969 3.85678 8.4931 4.07019L9.41617 4.99304C9.62979 5.20666 9.62979 5.55294 9.41617 5.76635C9.30936 5.87317 9.16943 5.92678 9.02951 5.92678Z" fill="#002823"/>
<path d="M25.8804 5.65243C25.7404 5.65243 25.6005 5.59903 25.4937 5.49221C25.2801 5.27859 25.2801 4.93231 25.4937 4.71869L25.8727 4.33972C26.0863 4.12631 26.4326 4.12631 26.6462 4.33993C26.8598 4.55334 26.8598 4.89962 26.6462 5.11325L26.267 5.49221C26.1602 5.59903 26.0203 5.65243 25.8804 5.65243Z" fill="#002823"/>
<path d="M2.2869 5.65243C2.14676 5.65243 2.00705 5.59903 1.90024 5.49221L1.52106 5.11325C1.30743 4.89962 1.30743 4.55355 1.52106 4.33993C1.73447 4.12631 2.08075 4.12631 2.29437 4.33972L2.67355 4.71869C2.88718 4.93231 2.88718 5.27838 2.67355 5.49221C2.56674 5.59903 2.42682 5.65243 2.2869 5.65243Z" fill="#002823"/>
<path d="M25.1062 18.1094H25.1055C24.8037 18.1094 24.5591 18.3542 24.5591 18.6562C24.5591 18.9583 24.8041 19.2031 25.1062 19.2031C25.4082 19.2031 25.653 18.9583 25.653 18.6562C25.653 18.3542 25.4082 18.1094 25.1062 18.1094Z" fill="#002823"/>
<path d="M27.8895 12.0037C27.8017 11.8877 27.6716 11.8112 27.5274 11.7916L26.6299 11.6685C26.6259 11.6679 26.6218 11.6675 26.6176 11.667C26.0551 11.6027 25.4935 11.5756 24.9359 11.5848C25.3365 10.0574 25.4106 8.58574 25.1715 7.0013L25.057 6.24081C25.012 5.94217 24.7336 5.73666 24.4348 5.78152L23.579 5.91012C23.5751 5.91076 23.5711 5.9114 23.567 5.91204C21.6216 6.24935 19.8222 7.02843 18.2889 8.17559C17.3348 5.48544 15.5519 4.05994 14.7558 3.42335C14.6287 3.32166 14.4706 3.19541 14.43 3.15012C14.327 3.01939 14.17 2.94248 14.0032 2.94141C13.8479 2.94056 13.7017 3.00486 13.5979 3.11744C13.5755 3.13752 13.5212 3.18195 13.473 3.22169C11.7292 4.65338 10.4872 6.33288 9.77324 8.22237C8.22661 7.0498 6.40463 6.25384 4.43289 5.91226C4.42905 5.9114 4.42499 5.91098 4.42093 5.91034L3.56516 5.78152C3.26694 5.73666 2.98795 5.94217 2.94309 6.24081L2.82838 7.0013C2.59233 8.56673 2.66453 10.0726 3.05055 11.5846C2.49726 11.576 1.94035 11.6034 1.38237 11.667C1.37831 11.6675 1.37404 11.6679 1.36998 11.6685L0.472553 11.7916C0.328572 11.8114 0.198262 11.8877 0.110463 12.0039C0.0228783 12.1199 -0.0149329 12.266 0.00536124 12.41L0.119863 13.2188C0.591327 16.5524 2.31739 19.5153 4.97977 21.562C6.53601 22.7587 8.31932 23.5673 10.2013 23.9509C10.2048 23.9546 10.2082 23.9582 10.2116 23.9618L13.5988 27.4644C13.7017 27.571 13.8436 27.631 13.9918 27.631H13.9923C14.1407 27.631 14.2828 27.5703 14.3858 27.4635L17.7542 23.9672C17.7565 23.9646 17.7589 23.9623 17.7612 23.9597C19.6554 23.5801 21.4503 22.7694 23.0199 21.562C23.3897 21.2779 23.7471 20.9711 24.0821 20.6501C24.3002 20.4413 24.3077 20.0951 24.099 19.877C23.8898 19.6586 23.5437 19.6514 23.3256 19.8603C23.0191 20.1538 22.6918 20.4347 22.3532 20.6949C20.2965 22.2768 17.8176 23.1138 15.2529 23.1138L19.0162 19.83C19.244 19.6315 19.2675 19.2861 19.069 19.0584C18.8703 18.8308 18.5247 18.8073 18.2974 19.0058L14.5383 22.2858C15.2014 18.7561 16.3545 16.397 18.047 15.0957C20.4608 13.2406 23.4581 12.4087 26.4877 12.7531L26.8348 12.8005L26.7972 13.0656C26.6321 14.2335 26.2976 15.3601 25.8028 16.4144C25.6744 16.6878 25.7921 17.0133 26.0656 17.1417C26.3392 17.2701 26.6648 17.1524 26.7929 16.879C27.334 15.7261 27.6998 14.4945 27.8803 13.2188L27.9948 12.41C28.0149 12.266 27.977 12.1199 27.8895 12.0037ZM13.9921 4.21311C14.0179 4.23383 14.0448 4.25519 14.0728 4.27762C14.8938 4.93408 16.5767 6.27969 17.3844 8.92348C16.7982 9.45796 16.2614 10.0525 15.7829 10.7023C14.989 11.7805 14.3913 12.9614 14 14.2017C13.6088 12.9614 13.0109 11.7805 12.2171 10.7021C11.7527 10.0719 11.2336 9.49321 10.6677 8.97111C11.265 7.17947 12.3818 5.58072 13.9921 4.21311ZM3.90973 7.1643L3.94285 6.94427L4.25196 6.99084C7.1162 7.48879 9.63182 9.03712 11.3363 11.3507C12.8099 13.3521 13.54 15.7425 13.4443 18.1883C12.7328 16.4423 11.7967 15.1335 10.6194 14.2284C8.73311 12.7785 6.52084 11.9001 4.20282 11.6542C3.77408 10.1704 3.67838 8.69896 3.90973 7.1643ZM1.20293 13.0656L1.16533 12.8005L1.51247 12.7529C4.54206 12.4089 7.53939 13.2406 9.95289 15.0954C11.6433 16.3951 12.7857 18.7138 13.4439 22.1817C13.4392 22.2071 13.4347 22.2326 13.43 22.258L9.70274 19.0058C9.47523 18.8073 9.12981 18.8308 8.93114 19.0584C8.73247 19.2861 8.75618 19.6315 8.98369 19.83L12.7469 23.1135C10.1825 23.1127 7.69832 22.2729 5.64648 20.6947C3.21204 18.8236 1.63402 16.114 1.20293 13.0656ZM16.0257 24.1844L13.991 26.2967L11.9462 24.1821C12.2132 24.199 12.4813 24.2073 12.7503 24.2073C13.1651 24.2073 13.5823 24.1872 13.9998 24.1468C14.4193 24.1874 14.838 24.2077 15.2548 24.2077C15.5126 24.2077 15.7698 24.1998 16.0257 24.1844ZM17.3801 14.2284C16.2122 15.1264 15.2627 16.4575 14.5556 18.1874C14.4601 15.7419 15.1903 13.3519 16.6636 11.3507C18.3679 9.03712 20.8837 7.48879 23.748 6.99084L24.0569 6.94427L24.0902 7.1643C24.3243 8.71605 24.2261 10.1486 23.7807 11.6561C21.4686 11.9044 19.2623 12.7819 17.3801 14.2284Z" fill="#002823"/>
</g>
<defs>
<clipPath id="clip0">
<rect width="28" height="28" fill="white"/>
</clipPath>
</defs>
</svg>
