<svg width="32" height="32" viewBox="0 0 28 28" fill="none" xmlns="http://www.w3.org/2000/svg">
<g clip-path="url(#clip0)">
<path d="M27.6183 27.2269H26.5665V12.9385H26.9016C27.1124 12.9385 27.2833 12.7676 27.2833 12.5568V9.69451C27.2833 9.694 27.2833 9.69349 27.2833 9.69304V9.68978C27.2833 9.68632 27.2828 9.68296 27.2827 9.6795C27.2825 9.67095 27.2823 9.66245 27.2815 9.65395C27.2809 9.64764 27.2798 9.64148 27.2789 9.63522C27.2781 9.62937 27.2773 9.62352 27.2763 9.61772C27.2749 9.61024 27.273 9.60291 27.2711 9.59558C27.27 9.5911 27.269 9.58657 27.2676 9.58214C27.2654 9.57456 27.2627 9.56713 27.26 9.55975C27.2585 9.55558 27.2571 9.55136 27.2555 9.54718C27.2527 9.54021 27.2495 9.53344 27.2463 9.52672C27.2442 9.52219 27.2421 9.51761 27.2398 9.51314C27.2367 9.50723 27.2333 9.50158 27.23 9.49588C27.2269 9.49074 27.224 9.4856 27.2207 9.48062C27.2176 9.47583 27.2142 9.47125 27.2109 9.46667C27.2069 9.46113 27.2029 9.45563 27.1986 9.45029C27.1954 9.44632 27.192 9.44255 27.1886 9.43868C27.1838 9.43324 27.1791 9.42779 27.174 9.4226C27.1702 9.41878 27.1663 9.41522 27.1623 9.41156C27.1573 9.40688 27.1524 9.40214 27.1471 9.39777C27.1419 9.39339 27.1365 9.38942 27.131 9.3853C27.1267 9.38204 27.1225 9.37863 27.118 9.37553C27.1101 9.37008 27.1019 9.36514 27.0936 9.36031C27.0914 9.35904 27.0894 9.35751 27.0872 9.35629C27.0869 9.35614 27.0856 9.35542 27.085 9.35512C27.0842 9.35466 27.0834 9.35415 27.0825 9.35375C26.9108 9.25812 21.6477 6.32512 19.7764 5.07219C18.1332 3.97192 14.3083 0.154085 14.2699 0.115663C14.1208 -0.0333459 13.8792 -0.0333459 13.7302 0.115663C13.6918 0.154085 9.86735 3.97162 8.22372 5.07214C6.35231 6.32517 1.08769 9.25899 0.917462 9.35375C0.916648 9.35415 0.915885 9.35461 0.915121 9.35507C0.91451 9.35542 0.913187 9.35614 0.912882 9.35629C0.91049 9.35761 0.908404 9.35919 0.906063 9.36057C0.897971 9.3653 0.88993 9.37013 0.882195 9.37543C0.877462 9.37863 0.873085 9.38219 0.868556 9.3856C0.863314 9.38957 0.858072 9.39339 0.853034 9.39761C0.847538 9.40219 0.842449 9.40708 0.837309 9.41191C0.833594 9.41543 0.829777 9.41878 0.826215 9.42245C0.820922 9.42779 0.816036 9.43344 0.8111 9.43909C0.807894 9.44275 0.804637 9.44632 0.801583 9.45008C0.797105 9.45563 0.792983 9.46138 0.78881 9.46713C0.785655 9.47151 0.782448 9.47583 0.779497 9.48036C0.776036 9.48565 0.772881 9.491 0.769726 9.49644C0.76652 9.50184 0.763313 9.50723 0.760413 9.51283C0.757919 9.51761 0.75568 9.5225 0.75339 9.52744C0.750387 9.53385 0.747334 9.54026 0.744687 9.54688C0.742855 9.55141 0.741329 9.55599 0.7397 9.56057C0.737155 9.56764 0.734662 9.57466 0.732524 9.58189C0.731099 9.58672 0.72998 9.59166 0.728758 9.59655C0.727028 9.60347 0.725196 9.61039 0.723873 9.61746C0.722652 9.62372 0.721888 9.63003 0.720972 9.63639C0.720158 9.64215 0.719191 9.6479 0.718631 9.65375C0.717766 9.66276 0.717461 9.67181 0.717257 9.68087C0.717206 9.68388 0.716799 9.68678 0.716799 9.68978V9.69268C0.716799 9.69339 0.716799 9.6941 0.716799 9.69482V12.5568C0.716799 12.7677 0.887691 12.9385 1.09848 12.9385H1.43355V27.227H0.381682C0.170892 27.227 0 27.3978 0 27.6087C0 27.8195 0.170892 27.9904 0.381682 27.9904H1.81518H3.30801H5.74254H7.23537H20.7647H22.2575H24.692H26.1849H27.6184C27.8292 27.9904 28.0001 27.8195 28.0001 27.6087C28.0001 27.3978 27.8292 27.2269 27.6183 27.2269ZM8.64841 5.70634C10.1111 4.72694 13.0837 1.82825 14 0.923251C14.9163 1.82825 17.889 4.72699 19.3517 5.70639C20.7082 6.61464 23.7163 8.3344 25.4413 9.30799H24.7513C24.5405 9.30799 24.3696 9.47884 24.3696 9.68968C24.3696 9.90052 24.5405 10.0714 24.7513 10.0714H26.5199V12.175H26.1849H24.692H22.2575H20.7647H7.23537H5.74254H3.30801H1.81518H1.48011V10.0714H22.601C22.8119 10.0714 22.9827 9.90057 22.9827 9.68973C22.9827 9.47889 22.8119 9.30805 22.601 9.30805H2.55875C4.28375 8.3344 7.29196 6.61459 8.64841 5.70634ZM24.3103 12.9385V27.227H22.6391V12.9385H24.3103ZM20.3829 12.9385V27.227H7.61705V12.9385H20.3829ZM5.36085 12.9385V27.227H3.6897V12.9385H5.36085ZM2.19686 27.2269V12.9385H2.92633V27.227H2.19686V27.2269ZM6.12422 27.2269V12.9385H6.85369V27.227H6.12422V27.2269ZM21.1463 27.2269V12.9385H21.8758V27.227H21.1463V27.2269ZM25.0737 27.2269V12.9385H25.8031V27.227H25.0737V27.2269Z" fill="currentColor"/>
</g>
<defs>
<clipPath id="clip0">
<rect width="28" height="28" fill="white"/>
</clipPath>
</defs>
</svg>
