<svg width="32" height="32" viewBox="0 0 27 14" fill="none" xmlns="http://www.w3.org/2000/svg">
<path d="M8.43889 6.076L4.32366 6.06758L3.59556 1.197C3.49879 0.512422 2.92594 0 2.26808 0C2.25995 0 2.25141 0 2.24287 0C1.50353 0 0.899144 0.62065 0.892869 1.39021C0.892394 1.45272 0.895558 1.51479 0.902783 1.57172L1.59128 7.63744C1.67049 8.34493 2.24603 8.87595 2.92915 8.87595C2.93232 8.87595 2.93548 8.87595 2.93859 8.87595H8.43805C9.18234 8.87595 9.78805 8.2478 9.78805 7.47595C9.78805 6.70409 9.18229 6.076 8.43889 6.076ZM8.43752 7.94265H2.9349C2.93401 7.94265 2.93263 7.94265 2.93174 7.94265C2.70313 7.94265 2.51144 7.76579 2.48487 7.52872L1.796 1.45737C1.79373 1.43686 1.79283 1.41586 1.79283 1.39623C1.79463 1.14002 1.99623 0.933297 2.25094 0.933297C2.2541 0.933297 2.25679 0.932805 2.25948 0.933297C2.48176 0.933297 2.6726 1.10409 2.70545 1.33602L3.49294 6.60467C3.52669 6.83195 3.71527 6.99945 3.93664 6.99995L8.43752 7.0093C8.68548 7.0093 8.88751 7.21837 8.88751 7.47595C8.88751 7.73358 8.68548 7.94265 8.43752 7.94265Z" fill="#002823"/>
<path d="M3.05874 8.25351L1.70801 12.4531L2.56171 12.7484L3.91244 8.54881L3.05874 8.25351Z" fill="#002823"/>
<path d="M7.9642 8.25565L7.11035 8.55078L8.46026 12.751L9.31411 12.4558L7.9642 8.25565Z" fill="#002823"/>
<path d="M19.8 1.86719H7.19998C6.9516 1.86719 6.75 2.07577 6.75 2.33384V4.20048C6.75 4.45855 6.9516 4.66713 7.19998 4.66713H19.8C20.0488 4.66713 20.2499 4.45855 20.2499 4.20048V2.33384C20.25 2.07577 20.0489 1.86719 19.8 1.86719ZM19.35 3.73384H7.65002V2.80048H19.35V3.73384H19.35Z" fill="#002823"/>
<path d="M14.4001 3.73438H12.6001C12.3518 3.73438 12.1501 3.94295 12.1501 4.20102V12.601C12.1501 12.8591 12.3518 13.0677 12.6001 13.0677H14.4001C14.649 13.0677 14.8501 12.8591 14.8501 12.601V4.20102C14.8501 3.94301 14.649 3.73438 14.4001 3.73438ZM13.9501 12.1344H13.0501V4.66773H13.9501V12.1344Z" fill="#002823"/>
<path d="M24.7661 0C24.7562 0 24.749 0 24.7405 0C24.0745 0 23.5021 0.51193 23.4054 1.19328L22.6768 6.06763L18.5624 6.076C17.8181 6.076 17.2124 6.70414 17.2124 7.476C17.2124 8.24786 17.8181 8.876 18.5624 8.876H24.0578C24.061 8.876 24.0641 8.876 24.0672 8.876C24.7539 8.876 25.3295 8.34493 25.4087 7.63842L26.0967 1.57363C26.1039 1.51206 26.1075 1.44999 26.1071 1.38928C26.1017 0.62065 25.4969 0 24.7661 0ZM25.203 1.46207L24.5145 7.52965C24.488 7.76579 24.2963 7.94265 24.0645 7.94265C24.0637 7.94265 24.0623 7.94265 24.0614 7.94265H18.5624C18.314 7.94265 18.1124 7.73358 18.1124 7.476C18.1124 7.21842 18.314 7.00935 18.5633 7.00935L23.0633 7C23.2847 6.99951 23.4732 6.83151 23.507 6.60472L24.2949 1.3323C24.3273 1.10409 24.5182 0.933297 24.7486 0.933297C24.7513 0.933297 24.7548 0.933297 24.7571 0.933297C25.0037 0.933297 25.2053 1.14002 25.2071 1.39765C25.2076 1.41865 25.2058 1.43965 25.203 1.46207Z" fill="#002823"/>
<path d="M19.0382 8.25342L17.687 12.4531L18.5403 12.7484L19.8915 8.54867L19.0382 8.25342Z" fill="#002823"/>
<path d="M27 12.1328H0V13.0661H27V12.1328Z" fill="#002823"/>
</svg>
