<svg width="28" height="28" viewBox="0 0 28 28" fill="none" xmlns="http://www.w3.org/2000/svg">
<g clip-path="url(#clip0)">
<path d="M16.4763 13.9997L27.4869 2.98906C28.171 2.30556 28.171 1.19656 27.4869 0.51306C26.8029 -0.17102 25.695 -0.17102 25.0109 0.51306L14.0003 11.5237L2.98906 0.51306C2.30498 -0.17102 1.19714 -0.17102 0.51306 0.51306C-0.17102 1.19656 -0.17102 2.30556 0.51306 2.98906L11.5243 13.9997L0.51306 25.0104C-0.17102 25.6939 -0.17102 26.8029 0.51306 27.4864C0.8551 27.8278 1.30337 27.9988 1.75106 27.9988C2.19875 27.9988 2.64702 27.8278 2.98906 27.4858L14.0003 16.4751L25.0109 27.4858C25.353 27.8278 25.8013 27.9988 26.2489 27.9988C26.6966 27.9988 27.1449 27.8278 27.4869 27.4858C28.171 26.8023 28.171 25.6933 27.4869 25.0098L16.4763 13.9997Z" fill="black"/>
</g>
<defs>
<clipPath id="clip0">
<rect width="28" height="28" fill="white"/>
</clipPath>
</defs>
</svg>
