<svg width="32" height="32" viewBox="0 0 28 28" fill="none" xmlns="http://www.w3.org/2000/svg">
<g clip-path="url(#clip0)">
<path d="M27.8125 10.14C27.5908 9.71923 27.1982 9.41303 26.7353 9.29994C23.1467 8.42297 20.3145 9.2971 18.3158 10.4772C19.2465 7.85805 18.9066 4.43172 14.1136 0.974981C13.7403 0.705737 13.2666 0.60976 12.8139 0.711664C12.3499 0.816108 11.952 1.11535 11.7222 1.5327C10.0902 4.49662 10.0416 7.2306 10.5201 9.38842C9.54075 8.72039 8.46541 8.34041 7.30782 8.25895C5.31746 8.11895 3.09705 8.86802 0.707962 10.4858C0.326896 10.7438 0.0740421 11.1557 0.0141094 11.6158C-0.0472748 12.0875 0.0970233 12.5641 0.409992 12.9233C2.54229 15.3707 4.97643 16.3767 7.1051 16.7125C6.18815 17.4331 5.50838 18.3408 5.07894 19.424C4.37583 21.1973 4.35073 23.4423 5.00437 26.0966C5.11438 26.5434 5.41319 26.9234 5.82407 27.1389C6.06465 27.2651 6.32996 27.329 6.5963 27.329C6.79624 27.329 6.99672 27.293 7.18765 27.2205C10.4547 25.9797 12.2758 23.8319 13.2907 21.8214C13.6219 23.0052 14.2195 24.0137 15.0792 24.8291C16.5652 26.2383 18.8238 27.0516 21.7925 27.2464C21.8274 27.2487 21.8622 27.2499 21.8969 27.2499C22.3197 27.2499 22.7291 27.0818 23.0338 26.78C23.3717 26.4453 23.5502 25.9805 23.5236 25.5048C23.3264 21.9857 21.805 19.5906 20.1795 18.0159C20.253 18.0181 20.3262 18.0195 20.399 18.0195C21.5622 18.0195 22.6425 17.74 23.6249 17.1834C25.4077 16.173 26.8451 14.2486 27.8971 11.4634C28.0597 11.0329 28.0288 10.5505 27.8125 10.14ZM12.5167 1.97025C12.6213 1.78023 12.8022 1.6441 13.013 1.59668C13.2155 1.55115 13.4178 1.59166 13.5829 1.71074C15.9446 3.41402 17.3335 5.2302 17.7109 7.10892C17.9977 8.53636 17.7036 10.0157 16.837 11.5059C16.8368 11.5063 16.8366 11.5068 16.8363 11.5072C16.4563 11.8149 16.1122 12.1285 15.8035 12.4355C15.8636 12.0569 15.7761 11.6675 15.5485 11.3437C15.2479 10.9159 14.7569 10.6785 14.2347 10.7098C13.7711 10.7372 13.3539 10.9722 13.0903 11.3545C12.8266 11.7368 12.7551 12.2102 12.8941 12.6533L12.9862 12.9466C12.6498 12.4143 12.3048 11.786 12.0075 11.0774C11.4403 9.72552 11.1543 8.34973 11.1575 6.98821C11.1615 5.28935 11.6188 3.60107 12.5167 1.97025ZM16.2463 17.865C16.2382 18.0479 16.1479 18.2138 15.9987 18.3199C15.8282 18.4412 15.6197 18.4641 15.4269 18.3829C15.2341 18.3016 15.105 18.1365 15.0728 17.9297L14.8268 16.3523L16.0401 17.3898C16.1793 17.5088 16.2545 17.6821 16.2463 17.865ZM13.2841 16.1646L12.6617 17.6348C12.5903 17.8034 12.4479 17.9273 12.271 17.9749C12.0942 18.0222 11.9088 17.9864 11.7626 17.8763C11.5954 17.7504 11.5105 17.5587 11.5297 17.3503C11.5489 17.142 11.6674 16.969 11.8547 16.8758L13.2841 16.1646ZM14.8659 12.4374L14.2375 13.905L13.7595 12.3817C13.7047 12.207 13.7329 12.0203 13.8369 11.8695C13.9409 11.7188 14.1053 11.6261 14.2881 11.6153C14.3007 11.6146 14.3132 11.6142 14.3256 11.6142C14.5195 11.6142 14.6931 11.7044 14.8062 11.8653C14.9265 12.0365 14.9483 12.245 14.8659 12.4374ZM17.0268 15.177L15.4461 14.9528L16.7922 14.0944C16.9466 13.9959 17.1341 13.9745 17.3068 14.0356C17.4794 14.0967 17.6117 14.2314 17.6698 14.405C17.7362 14.6035 17.6975 14.8095 17.5635 14.9703C17.4296 15.1311 17.2341 15.2065 17.0268 15.177ZM1.09387 12.3274C0.951442 12.1638 0.885704 11.9471 0.913584 11.7329C0.940375 11.5272 1.04796 11.3511 1.21651 11.2369C5.17951 8.55335 8.46371 8.45393 10.9786 10.9406C11.0452 11.1203 11.1141 11.2939 11.1846 11.4605C11.3771 11.9158 11.5864 12.3385 11.8005 12.7263C11.527 12.6347 11.2288 12.6233 10.9383 12.7011C10.4332 12.8365 10.0419 13.2163 9.89158 13.7171C9.75804 14.1619 9.83533 14.6343 10.1038 15.0134C10.3722 15.3924 10.7922 15.6222 11.2561 15.6439L11.5662 15.6584C10.9595 15.7893 10.2616 15.896 9.50398 15.9334C8.03463 16.0058 6.63973 15.8044 5.35774 15.3349C3.75612 14.7483 2.32155 13.7365 1.09387 12.3274ZM12.8932 14.8123L11.2984 14.7378C11.1154 14.7292 10.9499 14.6386 10.844 14.4892C10.7382 14.3397 10.7077 14.1534 10.7603 13.978C10.8205 13.7776 10.9709 13.6316 11.1731 13.5774C11.2259 13.5633 11.2788 13.5563 11.3309 13.5563C11.478 13.5563 11.6183 13.612 11.7309 13.7179L12.8932 14.8123ZM11.1639 23.4145C10.0589 24.7137 8.61261 25.7089 6.86549 26.3724C6.66265 26.4493 6.43677 26.4359 6.24542 26.3355C6.06175 26.2391 5.93378 26.0772 5.88509 25.8795C4.79693 21.4607 5.69145 18.4229 8.54185 16.8477C8.67689 16.8521 8.80994 16.8544 8.94045 16.8544C9.14928 16.8544 9.35254 16.849 9.54855 16.8394C9.98084 16.8181 10.3941 16.776 10.7842 16.7204C10.6988 16.8876 10.6444 17.0724 10.6264 17.267C10.5785 17.7876 10.7992 18.2863 11.2169 18.6008C11.4805 18.7994 11.7942 18.9028 12.1146 18.9028C12.2451 18.9028 12.3766 18.8857 12.5064 18.8508C12.955 18.7303 13.316 18.4159 13.4971 17.9882L13.6181 17.7024C13.5308 18.3169 13.3891 19.0084 13.1617 19.7322C12.7206 21.1357 12.0485 22.3745 11.1639 23.4145ZM21.0971 20.5642C22.0016 22.0102 22.5132 23.6895 22.6178 25.5555C22.63 25.772 22.5489 25.9834 22.3954 26.1355C22.248 26.2815 22.055 26.3543 21.8519 26.3411C16.9448 26.0192 14.2797 23.9863 13.9303 20.2992C13.9643 20.1997 13.9967 20.1013 14.0272 20.0044C14.1772 19.5271 14.2925 19.064 14.381 18.6253C14.5414 18.8863 14.7806 19.095 15.0747 19.2189C15.2636 19.2985 15.4617 19.3377 15.6585 19.3377C15.9636 19.3377 16.2657 19.2434 16.5246 19.0591C16.903 18.7899 17.1319 18.3693 17.1526 17.9053C17.1733 17.4414 16.9827 17.0022 16.6297 16.7004L16.3938 16.4986C16.9532 16.7676 17.5697 17.1116 18.1908 17.5471C19.3952 18.3916 20.373 19.4067 21.0971 20.5642ZM27.0484 11.1429C25.3081 15.7502 22.5816 17.7064 18.9443 16.9572C18.9351 16.9554 18.9259 16.9534 18.9166 16.9514C18.8479 16.9011 18.7795 16.8519 18.7116 16.8044C18.2969 16.5136 17.8851 16.2609 17.4891 16.0421C17.7862 15.9649 18.056 15.7966 18.2606 15.551C18.5953 15.1492 18.6961 14.6133 18.5302 14.1174C18.3829 13.6769 18.0474 13.3355 17.6095 13.1804C17.1717 13.0254 16.696 13.0798 16.3044 13.3295L16.0428 13.4964C16.463 13.0397 16.9716 12.5502 17.5692 12.083C18.728 11.1768 19.984 10.5371 21.3021 10.1818C22.9489 9.73773 24.7044 9.73755 26.5199 10.1812C26.7305 10.2327 26.9092 10.3718 27.0099 10.563C27.1067 10.7465 27.1203 10.9524 27.0484 11.1429Z" fill="#002823"/>
</g>
<defs>
<clipPath id="clip0">
<rect width="28" height="28" fill="white"/>
</clipPath>
</defs>
</svg>
