<svg width="32" height="32" viewBox="0 0 28 28" fill="none" xmlns="http://www.w3.org/2000/svg">
<path d="M19.8278 9.43956L19.5282 8.45349C19.1476 7.33337 17.9311 6.73388 16.811 7.11445C16.1809 7.32853 15.686 7.82337 15.4719 8.45349L15.1723 9.43956C14.9202 10.2712 14.8673 11.1504 15.0179 12.0062C15.1552 12.7268 15.6126 13.3458 16.2611 13.6886L15.9255 21.1893C15.8806 21.608 16.0164 22.0259 16.2989 22.3382C16.9063 23.0026 17.9374 23.0488 18.6018 22.4414C18.6377 22.4086 18.6722 22.3742 18.705 22.3382C18.9812 22.0348 19.1167 21.6291 19.0783 21.2206L18.7409 13.6876C19.3885 13.3447 19.8452 12.7261 19.9823 12.0062C20.1328 11.1504 20.0799 10.2712 19.8278 9.43956ZM19.0629 11.8438C18.9619 12.3615 18.593 12.7862 18.0946 12.9587C17.9054 13.0298 17.7836 13.2146 17.7927 13.4165L18.1473 21.2943C18.1637 21.4488 18.1127 21.6029 18.0073 21.7171C17.7263 21.9953 17.2738 21.9953 16.9928 21.7171C16.8822 21.5937 16.832 21.4275 16.8556 21.2635L17.2075 13.4165C17.2166 13.2146 17.0947 13.0298 16.9055 12.9587C16.4071 12.7862 16.0382 12.3615 15.9372 11.8438C15.8124 11.1333 15.8563 10.4034 16.0655 9.71302L16.3651 8.72649C16.5969 8.0997 17.293 7.77951 17.9198 8.01132C18.2512 8.13388 18.5124 8.39516 18.635 8.72649L18.9346 9.71302C19.1436 10.4035 19.1875 11.1333 19.0629 11.8438Z" fill="#002823"/>
<path d="M12.6 7C12.3423 7 12.1333 7.20895 12.1333 7.46667V11.4735L10.8701 12.7367C10.7766 12.8298 10.7269 12.9582 10.7333 13.09L11.1417 21.2567C11.1514 21.4328 11.0875 21.605 10.9653 21.7322C10.7098 21.9899 10.2938 21.9918 10.036 21.7363C10.0346 21.7349 10.0333 21.7335 10.0319 21.7322C9.90968 21.605 9.84581 21.4328 9.85555 21.2567L10.2667 13.09C10.2732 12.9583 10.2237 12.8299 10.1304 12.7367L8.86668 11.4735V7.46667C8.86668 7.20895 8.65773 7 8.40002 7C8.1423 7 7.93335 7.20895 7.93335 7.46667V11.6667C7.93335 11.7905 7.98258 11.9091 8.07008 11.9966L9.32355 13.2505L8.92548 21.2114C8.88313 22.081 9.55373 22.8203 10.4233 22.8626C11.2929 22.905 12.0322 22.2344 12.0745 21.3648C12.0771 21.3137 12.0771 21.2626 12.0745 21.2115L11.6765 13.2506L12.9299 11.9967C13.0174 11.9092 13.0667 11.7905 13.0667 11.6667V7.46673C13.0667 7.20895 12.8577 7 12.6 7Z" fill="#002823"/>
<path d="M9.79992 7C9.5422 7 9.33325 7.20895 9.33325 7.46667V11.2C9.33325 11.4577 9.5422 11.6667 9.79992 11.6667C10.0576 11.6667 10.2666 11.4577 10.2666 11.2V7.46667C10.2666 7.20895 10.0576 7 9.79992 7Z" fill="#002823"/>
<path d="M11.2001 7C10.9423 7 10.7334 7.20895 10.7334 7.46667V11.2C10.7334 11.4577 10.9423 11.6667 11.2001 11.6667C11.4578 11.6667 11.6667 11.4577 11.6667 11.2V7.46667C11.6667 7.20895 11.4578 7 11.2001 7Z" fill="#002823"/>
<path d="M14 0C6.26803 0 0 6.26803 0 14C0 21.732 6.26803 28 14 28C21.732 28 28 21.732 28 14C27.9913 6.27165 21.7283 0.00875 14 0ZM14 27.0667C6.78347 27.0667 0.933333 21.2165 0.933333 14C0.933333 6.78347 6.78347 0.933333 14 0.933333C21.2165 0.933333 27.0667 6.78347 27.0667 14C27.0584 21.2131 21.2131 27.0584 14 27.0667Z" fill="#002823"/>
<path d="M15.5147 22.7612C15.4897 22.5047 15.2614 22.3171 15.0049 22.3421C14.9989 22.3427 14.9928 22.3434 14.9868 22.3442L14.9887 22.3437C14.3317 22.42 13.668 22.42 13.011 22.3437C12.7549 22.3137 12.523 22.4969 12.493 22.753C12.4629 23.0091 12.6462 23.2409 12.9022 23.271C13.6309 23.3561 14.3669 23.3561 15.0956 23.271C15.3521 23.246 15.5397 23.0178 15.5147 22.7612Z" fill="#002823"/>
<path d="M21.14 7.98319C20.9744 7.78573 20.6801 7.75989 20.4826 7.92556C20.482 7.92608 20.4813 7.92666 20.4806 7.92719C20.2837 8.09332 20.2586 8.38767 20.4246 8.58472C23.2384 11.9249 23.0231 16.8639 19.9295 19.9467C19.7469 20.1286 19.7464 20.4242 19.9283 20.6068C20.1103 20.7893 20.4059 20.7899 20.5884 20.6079C24.0264 17.183 24.2662 11.6949 21.14 7.98319Z" fill="#002823"/>
<path d="M16.2012 4.92727C14.3774 4.49018 12.4646 4.60766 10.708 5.26467C10.4668 5.35538 10.3448 5.62453 10.4355 5.86573C10.5039 6.04756 10.6777 6.1679 10.8719 6.16808C10.9277 6.16778 10.983 6.15758 11.0352 6.1378C12.6171 5.54624 14.3395 5.4406 15.9818 5.83447C16.2324 5.89502 16.4846 5.74108 16.5451 5.49054C16.6057 5.23999 16.4517 4.98782 16.2012 4.92727Z" fill="#002823"/>
<path d="M8.04954 19.9274C6.47635 18.3568 5.59464 16.2237 5.60001 14.0007C5.5954 12.2247 6.15796 10.4936 7.2058 9.05962C7.36068 8.85359 7.3192 8.56105 7.11317 8.40617C6.90714 8.2513 6.6146 8.29277 6.45972 8.4988C6.45698 8.50248 6.4543 8.50615 6.45167 8.50989C3.75358 12.2192 4.1506 17.3392 7.38827 20.5882C7.57074 20.7707 7.86672 20.7709 8.0493 20.5884C8.23189 20.4059 8.232 20.1099 8.04954 19.9274Z" fill="#002823"/>
</svg>
