<svg width="28" height="28" viewBox="0 0 28 28" fill="none" xmlns="http://www.w3.org/2000/svg">
<g clip-path="url(#clip0)">
<path d="M8.75134 21.0096L4.48369 21.0012L3.72862 16.1306C3.62827 15.446 3.0342 14.9336 2.35197 14.9336C2.34355 14.9336 2.33469 14.9336 2.32583 14.9336C1.55911 14.9336 0.932337 15.5542 0.925829 16.3238C0.925337 16.3863 0.928618 16.4484 0.936111 16.5053L1.65011 22.571C1.73225 23.2785 2.32911 23.8095 3.03753 23.8095C3.04081 23.8095 3.04409 23.8095 3.04732 23.8095H8.75046C9.52232 23.8095 10.1505 23.1814 10.1505 22.4095C10.1505 21.6377 9.52227 21.0096 8.75134 21.0096ZM8.74992 22.8762H3.04349C3.04256 22.8762 3.04114 22.8762 3.04021 22.8762C2.80314 22.8762 2.60435 22.6994 2.57679 22.4623L1.86241 16.391C1.86006 16.3705 1.85913 16.3495 1.85913 16.3298C1.86099 16.0736 2.07006 15.8669 2.3342 15.8669C2.33748 15.8669 2.34027 15.8664 2.34306 15.8669C2.57356 15.8669 2.77148 16.0377 2.80555 16.2696L3.6222 21.5383C3.6572 21.7655 3.85276 21.933 4.08234 21.9335L8.74992 21.9429C9.00706 21.9429 9.21656 22.152 9.21656 22.4095C9.21656 22.6672 9.00706 22.8762 8.74992 22.8762Z" fill="black"/>
<path d="M3.172 23.1871L1.77124 27.3867L2.65656 27.682L4.05732 23.4824L3.172 23.1871Z" fill="black"/>
<path d="M8.25901 23.1892L7.37354 23.4844L8.77344 27.6845L9.65891 27.3894L8.25901 23.1892Z" fill="black"/>
<path d="M20.5334 16.8008H7.46665C7.20907 16.8008 7 17.0094 7 17.2674V19.1341C7 19.3921 7.20907 19.6007 7.46665 19.6007H20.5333C20.7914 19.6007 20.9999 19.3921 20.9999 19.1341V17.2674C21 17.0094 20.7914 16.8008 20.5334 16.8008ZM20.0666 18.6674H7.93335V17.7341H20.0667V18.6674H20.0666Z" fill="black"/>
<path d="M14.9334 18.668H13.0667C12.8092 18.668 12.6001 18.8765 12.6001 19.1346V27.5346C12.6001 27.7927 12.8092 28.0013 13.0667 28.0013H14.9334C15.1915 28.0013 15.4 27.7927 15.4 27.5346V19.1346C15.4 18.8766 15.1915 18.668 14.9334 18.668ZM14.4667 27.068H13.5333V19.6013H14.4667V27.068Z" fill="black"/>
<path d="M27.5195 4.08658L26.5861 0.353281C26.5338 0.14607 26.3477 0 26.1335 0H1.86676C1.65255 0 1.4659 0.14607 1.41411 0.353281L0.480758 4.08658C0.445758 4.22614 0.477476 4.37358 0.565687 4.487C0.653898 4.60042 0.789687 4.66665 0.933406 4.66665H27.0668C27.2105 4.66665 27.3458 4.60037 27.4345 4.487C27.5232 4.37358 27.5545 4.22614 27.5195 4.08658ZM1.53125 3.73335L2.23125 0.933352H25.769L26.469 3.73335H1.53125Z" fill="black"/>
<path d="M15.8668 3.73438H12.1334C11.8758 3.73438 11.6667 3.94345 11.6667 4.20102V5.60102C11.6667 6.8876 12.7135 7.93438 14.0001 7.93438C15.2867 7.93438 16.3335 6.88766 16.3335 5.60102V4.20102C16.3335 3.94345 16.1248 3.73438 15.8668 3.73438ZM15.4001 5.60102C15.4001 6.37288 14.772 7.00102 14.0001 7.00102C13.2282 7.00102 12.6001 6.37288 12.6001 5.60102V4.66767H15.4001V5.60102Z" fill="black"/>
<path d="M12.1333 3.73438H8.4C8.14242 3.73438 7.93335 3.94345 7.93335 4.20102V5.60102C7.93335 6.8876 8.98007 7.93438 10.2667 7.93438C11.5533 7.93438 12.6001 6.88766 12.6001 5.60102V4.20102C12.6 3.94345 12.3909 3.73438 12.1333 3.73438ZM11.6666 5.60102C11.6666 6.37288 11.0385 7.00102 10.2666 7.00102C9.49479 7.00102 8.86665 6.37288 8.86665 5.60102V4.66767H11.6666V5.60102Z" fill="black"/>
<path d="M8.39995 3.73438H4.6666C4.40902 3.73438 4.19995 3.94345 4.19995 4.20102V5.60102C4.19995 6.8876 5.24667 7.93438 6.5333 7.93438C7.81994 7.93438 8.86665 6.88766 8.86665 5.60102V4.20102C8.8666 3.94345 8.65753 3.73438 8.39995 3.73438ZM7.9333 5.60102C7.9333 6.37288 7.30516 7.00102 6.5333 7.00102C5.76144 7.00102 5.1333 6.37288 5.1333 5.60102V4.66767H7.9333V5.60102Z" fill="black"/>
<path d="M4.66674 3.73438H0.933445C0.675867 3.73438 0.466797 3.94345 0.466797 4.20102V5.60102C0.466797 6.8876 1.51352 7.93438 2.80015 7.93438C4.08673 7.93438 5.1335 6.88766 5.1335 5.60102V4.20102C5.13345 3.94345 4.92437 3.73438 4.66674 3.73438ZM4.20009 5.60102C4.20009 6.37288 3.57195 7.00102 2.80009 7.00102C2.02823 7.00102 1.40009 6.37288 1.40009 5.60102V4.66767H4.20009V5.60102Z" fill="black"/>
<path d="M19.5999 3.73438H15.8666C15.6085 3.73438 15.3999 3.94345 15.3999 4.20102V5.60102C15.3999 6.8876 16.4466 7.93438 17.7333 7.93438C19.0198 7.93438 20.0666 6.88766 20.0666 5.60102V4.20102C20.0665 3.94345 19.858 3.73438 19.5999 3.73438ZM19.1333 5.60102C19.1333 6.37288 18.5051 7.00102 17.7333 7.00102C16.9614 7.00102 16.3333 6.37288 16.3333 5.60102V4.66767H19.1333V5.60102Z" fill="black"/>
<path d="M23.3333 3.73438H19.5999C19.3419 3.73438 19.1333 3.94345 19.1333 4.20102V5.60102C19.1333 6.8876 20.18 7.93438 21.4667 7.93438C22.7532 7.93438 23.8 6.88766 23.8 5.60102V4.20102C23.7999 3.94345 23.5914 3.73438 23.3333 3.73438ZM22.8666 5.60102C22.8666 6.37288 22.2385 7.00102 21.4666 7.00102C20.6947 7.00102 20.0666 6.37288 20.0666 5.60102V4.66767H22.8666V5.60102Z" fill="black"/>
<path d="M27.0667 3.73438H23.3333C23.0753 3.73438 22.8667 3.94345 22.8667 4.20102V5.60102C22.8667 6.8876 23.9134 7.93438 25.2001 7.93438C26.4866 7.93438 27.5334 6.88766 27.5334 5.60102V4.20102C27.5334 3.94345 27.3248 3.73438 27.0667 3.73438ZM26.6001 5.60102C26.6001 6.37288 25.9719 7.00102 25.2001 7.00102C24.4282 7.00102 23.8001 6.37288 23.8001 5.60102V4.66767H26.6001V5.60102Z" fill="black"/>
<path d="M12.6001 0.46875H11.6667V4.2021H12.6001V0.46875Z" fill="black"/>
<path d="M16.3333 0.46875H15.3999V4.2021H16.3333V0.46875Z" fill="black"/>
<path d="M8.8667 0.46875H7.93335V4.2021H8.8667V0.46875Z" fill="black"/>
<path d="M20.0667 0.46875H19.1333V4.2021H20.0667V0.46875Z" fill="black"/>
<path d="M4.67003 0.41209L4.20361 4.14453L5.12978 4.26027L5.5962 0.527826L4.67003 0.41209Z" fill="black"/>
<path d="M23.3307 0.407702L22.4045 0.523438L22.871 4.25588L23.7971 4.14015L23.3307 0.407702Z" fill="black"/>
<path d="M25.6833 14.9336C25.6731 14.9336 25.6656 14.9336 25.6568 14.9336C24.9661 14.9336 24.3725 15.4455 24.2722 16.1269L23.5167 21.0012L19.2499 21.0096C18.478 21.0096 17.8499 21.6377 17.8499 22.4096C17.8499 23.1815 18.478 23.8096 19.2499 23.8096H24.9488C24.9521 23.8096 24.9553 23.8096 24.9586 23.8096C25.6707 23.8096 26.2676 23.2785 26.3497 22.572L27.0632 16.5072C27.0707 16.4456 27.0744 16.3836 27.0739 16.3229C27.0684 15.5542 26.4412 14.9336 25.6833 14.9336ZM26.1364 16.3957L25.4224 22.4632C25.3949 22.6994 25.1961 22.8762 24.9558 22.8762C24.9549 22.8762 24.9534 22.8762 24.9525 22.8762H19.2499C18.9923 22.8762 18.7832 22.6672 18.7832 22.4096C18.7832 22.152 18.9923 21.9429 19.2508 21.9429L23.9174 21.9336C24.147 21.9331 24.3426 21.7651 24.3776 21.5383L25.1947 16.2659C25.2283 16.0377 25.4262 15.8669 25.6651 15.8669C25.6679 15.8669 25.6716 15.8669 25.674 15.8669C25.9297 15.8669 26.1388 16.0736 26.1406 16.3312C26.1411 16.3522 26.1393 16.3732 26.1364 16.3957Z" fill="black"/>
<path d="M24.8257 23.1894L23.9407 23.4844L25.3406 27.6845L26.2256 27.3896L24.8257 23.1894Z" fill="black"/>
<path d="M19.7433 23.187L18.342 27.3867L19.227 27.682L20.6282 23.4823L19.7433 23.187Z" fill="black"/>
<path d="M28 27.0664H0V27.9997H28V27.0664Z" fill="black"/>
</g>
<defs>
<clipPath id="clip0">
<rect width="28" height="28" fill="white"/>
</clipPath>
</defs>
</svg>
