<svg width="28" height="28" viewBox="0 0 28 28" fill="none" xmlns="http://www.w3.org/2000/svg">
<g clip-path="url(#clip0)">
<path d="M20.9209 3.72958C20.8533 3.51317 20.623 3.39253 20.4067 3.46024C20.1903 3.52783 20.0697 3.7581 20.1374 3.97446C20.1437 3.99488 20.7298 5.92032 19.8291 7.16995C19.3407 6.95682 18.2561 6.32486 17.9861 4.83976C17.9456 4.61672 17.7321 4.4685 17.5088 4.50933C17.2857 4.54988 17.1378 4.76362 17.1783 4.98666C17.6194 7.41253 19.7611 8.02714 19.852 8.0521C19.8879 8.06196 19.9245 8.06677 19.9607 8.06677C20.0734 8.06677 20.1831 8.02025 20.2619 7.93519C20.8737 7.27444 21.1801 6.33219 21.148 5.21031C21.1246 4.38929 20.9293 3.75608 20.9209 3.72958Z" fill="black"/>
<path d="M22.2906 3.39062C21.9659 3.39062 21.7019 3.65466 21.7019 3.97924C21.7019 4.30386 21.9659 4.5679 22.2906 4.5679C22.6151 4.5679 22.8792 4.30386 22.8792 3.97924C22.8792 3.65466 22.6151 3.39062 22.2906 3.39062Z" fill="black"/>
<path d="M3.20159 11.6619C2.78922 12.4842 2.60258 13.3965 2.66016 14.3218C2.66344 14.3745 2.66727 14.4277 2.67165 14.4811C2.72151 15.0918 2.58572 15.8162 2.26788 16.6343C2.18577 16.8456 2.29054 17.0835 2.50186 17.1656C2.55074 17.1846 2.60099 17.1935 2.65041 17.1935C2.81483 17.1935 2.97006 17.0941 3.03317 16.9316C3.39633 15.9967 3.54997 15.1498 3.48987 14.4141C3.48593 14.3661 3.48248 14.3183 3.47958 14.2709C3.42474 13.3899 3.63256 12.523 4.08056 11.7638C4.18647 11.5844 4.14115 11.3542 3.9752 11.2282C2.59852 10.1832 1.8479 8.84718 1.4606 7.9104C0.284581 5.06587 1.6976 1.69063 1.99284 1.0429C2.00066 1.02572 2.00597 1.01389 2.00871 1.00743C2.07625 0.851113 2.25846 0.778536 2.41489 0.846352C2.5711 0.913784 2.64346 1.09583 2.57559 1.25352C2.5722 1.26146 2.2369 2.05674 2.03969 3.18859C2.00077 3.41196 2.15031 3.62455 2.37368 3.66347C2.59677 3.70238 2.80963 3.55285 2.84855 3.32948C3.02781 2.30042 3.32819 1.58192 3.33038 1.57667C3.57641 1.00508 3.31177 0.339348 2.74045 0.0926066C2.16837 -0.154464 1.50198 0.110067 1.25529 0.681273L1.24571 0.702401C1.03411 1.16666 0.642105 2.12779 0.39405 3.34831C0.0205434 5.18606 0.124101 6.8265 0.70193 8.22403C1.26536 9.58691 2.12568 10.7686 3.20159 11.6619Z" fill="black"/>
<path d="M27.8051 5.24315C27.8182 5.10752 27.8253 4.97113 27.8253 4.83489C27.8253 4.66921 27.7257 4.51968 27.5727 4.45597L26.8053 4.13621C26.8052 4.13616 26.8051 4.13616 26.8049 4.1361L24.3369 3.10775L23.3589 1.81362C22.5006 0.677993 21.1383 0 19.7147 0C18.2647 0 16.9655 0.864034 16.4047 2.20125L14.1962 7.4675L7.04194 0.161521C6.88332 -0.000602072 6.62338 -0.00322932 6.46148 0.155445C6.29947 0.314065 6.29673 0.573998 6.4554 0.735956L13.8517 8.28906L13.6676 8.72808H7.96383C6.99722 8.72808 6.05951 8.98665 5.23554 9.47805C4.24688 8.85435 3.54267 8.04927 3.1407 7.08195C2.87026 6.43089 2.72789 5.69209 2.7176 4.88618C2.71476 4.66128 2.53156 4.48093 2.30726 4.48093C2.30551 4.48093 2.30365 4.48093 2.3019 4.48098C2.07519 4.48388 1.89375 4.66998 1.8967 4.89669C1.90836 5.80774 2.0718 6.64895 2.38258 7.397C2.88296 8.60121 3.7748 9.58309 5.03335 10.3154C5.1686 10.3941 5.33686 10.389 5.46718 10.3023C6.20784 9.80963 7.07116 9.54915 7.96383 9.54915H13.8675L21.6147 12.3986V14.5306C21.6147 16.2381 20.2255 17.6273 18.5181 17.6273C18.2914 17.6273 18.1076 17.8111 18.1076 18.0378V25.6697C18.1076 25.8965 18.2914 26.0803 18.5181 26.0803C19.2028 26.0803 19.6958 26.3258 19.9834 26.8101C20.0582 26.936 20.1108 27.0638 20.1479 27.179H17.2478C16.5306 27.179 15.9472 26.5956 15.9472 25.8784V17.907C15.9472 17.6802 15.7635 17.4964 15.5367 17.4964H8.79217C8.64735 17.4964 8.51314 17.5729 8.43919 17.6974C7.01068 20.1033 3.48 21.2449 3.44469 21.2561C3.27392 21.31 3.15778 21.4685 3.15778 21.6475V25.6696C3.15778 25.8963 3.34157 26.0801 3.56828 26.0801C4.25306 26.0801 4.74611 26.3257 5.03368 26.81C5.10845 26.9359 5.1611 27.0637 5.19821 27.1789H2.29812C1.58094 27.1789 0.997527 26.5955 0.997527 25.8783V21.5284C0.997527 20.7529 1.24022 20.006 1.69933 19.3684C1.90245 19.0864 2.09916 18.7833 2.284 18.4676C2.39861 18.272 2.33282 18.0205 2.1372 17.9059C1.94169 17.7912 1.69008 17.857 1.57552 18.0527C1.4036 18.3462 1.22112 18.6275 1.0331 18.8886C0.472735 19.6668 0.176514 20.5795 0.176514 21.5283V25.8783C0.176514 27.0481 1.12829 27.9999 2.29812 27.9999H5.69515C5.92421 27.9999 6.11353 27.8037 6.10538 27.5748C6.10461 27.553 6.0074 25.5249 3.97874 25.2826V21.9397C4.35 21.8039 5.03702 21.5282 5.81381 21.1003V25.1155C5.81381 26.2854 6.76558 27.2372 7.93542 27.2372H11.3325C11.5617 27.2372 11.7509 27.041 11.7427 26.812C11.742 26.7903 11.6447 24.7622 9.61609 24.5199V21.1767C10.3998 20.8896 12.5952 19.9783 14.0716 18.3173H15.1261V25.8783C15.1261 27.0481 16.0778 27.9999 17.2477 27.9999H20.6448C20.8738 27.9999 21.0631 27.8037 21.055 27.5748C21.0548 27.5693 21.0484 27.4365 21.0067 27.2372H23.13C23.3591 27.2372 23.5484 27.0409 23.5403 26.812C23.5395 26.7903 23.4423 24.7622 21.4137 24.5199V21.7312C21.4137 21.5044 21.2299 21.3207 21.0032 21.3207C20.7764 21.3207 20.5926 21.5044 20.5926 21.7312V24.9069C20.5926 25.1336 20.7764 25.3174 21.0032 25.3174C22.0999 25.3174 22.4963 25.9616 22.6395 26.4162H20.7004C20.41 25.9063 19.8832 25.3967 18.9285 25.2826V18.4269C19.5348 18.3634 20.1002 18.1608 20.5926 17.8521V20.0893C20.5926 20.316 20.7764 20.4998 21.0032 20.4998C21.2299 20.4998 21.4137 20.316 21.4137 20.0893V17.1663C22.0481 16.4699 22.4356 15.5447 22.4356 14.5305V8.62398H23.9874C25.1211 8.62398 26.1861 8.14982 26.9094 7.323C27.4259 6.73242 27.7252 6.03872 27.8037 5.25689C27.8042 5.25235 27.8046 5.24775 27.8051 5.24315ZM9.0821 20.4933C8.91127 20.5472 8.79518 20.7057 8.79518 20.8848V24.9069C8.79518 25.1337 8.97893 25.3174 9.20569 25.3174C10.3024 25.3174 10.6988 25.9617 10.842 26.4162H7.93547C7.21834 26.4162 6.63488 25.8327 6.63488 25.1156V20.6059C7.50893 20.0308 8.3977 19.2739 9.02014 18.3174H12.914C11.286 19.7821 9.10684 20.4855 9.0821 20.4933ZM14.4851 8.90148L14.892 7.93115L21.6146 10.4576V11.5237L14.4851 8.90148ZM26.2914 6.7825C25.7241 7.43105 24.8843 7.80302 23.9874 7.80302H22.0251C21.7983 7.80302 21.6146 7.98676 21.6146 8.21353V9.58051L15.2098 7.17347L17.1617 2.5187C17.5943 1.4874 18.5964 0.821013 19.7147 0.821013C20.8824 0.821013 21.9999 1.37711 22.7039 2.30869L23.749 3.69149C23.7929 3.74957 23.8514 3.79489 23.9186 3.82286L26.2864 4.8095C26.3808 5.17255 26.5868 5.49926 26.8738 5.74085C26.7573 6.12345 26.5631 6.47194 26.2914 6.7825Z" fill="black"/>
</g>
<defs>
<clipPath id="clip0">
<rect width="28" height="28" fill="white"/>
</clipPath>
</defs>
</svg>
