<svg width="28" height="28" viewBox="0 0 28 28" fill="none" xmlns="http://www.w3.org/2000/svg">
<g clip-path="url(#clip0)">
<path d="M15.8594 27.9453H11.3754C10.6265 27.9453 10.0172 27.3361 10.0172 26.5871V16.4733H7.40118C6.65222 16.4733 6.04297 15.8639 6.04297 15.1151V10.7813C6.04297 10.0324 6.65222 9.42313 7.40118 9.42313H10.0172V7.25293C10.0172 5.10111 10.6929 3.27036 11.971 1.95892C13.2549 0.64151 15.0491 -0.0546875 17.1597 -0.0546875L20.5794 -0.0491333C21.3271 -0.0478516 21.9352 0.561401 21.9352 1.30908V5.33289C21.9352 6.08185 21.3262 6.6911 20.5775 6.6911L18.275 6.69196C17.5728 6.69196 17.394 6.83273 17.3558 6.87589C17.2928 6.94745 17.2178 7.14975 17.2178 7.70837V9.42291H20.4044C20.6443 9.42291 20.8767 9.48209 21.0765 9.5936C21.5074 9.83435 21.7752 10.2896 21.7752 10.7816L21.7735 15.1153C21.7735 15.8639 21.1643 16.4731 20.4153 16.4731H17.2178V26.5871C17.2178 27.3361 16.6083 27.9453 15.8594 27.9453V27.9453ZM11.6587 26.3038H15.5761V15.7385C15.5761 15.2384 15.9831 14.8316 16.4829 14.8316H20.1321L20.1335 11.0646H16.4827C15.9829 11.0646 15.5761 10.6579 15.5761 10.1578V7.70837C15.5761 7.06708 15.6413 6.33777 16.1253 5.78961C16.7102 5.12695 17.632 5.05048 18.2746 5.05048L20.2938 5.04962V1.59192L17.1584 1.58679C13.7665 1.58679 11.6587 3.75806 11.6587 7.25293V10.1578C11.6587 10.6577 11.252 11.0646 10.7521 11.0646H7.68445V14.8316H10.7521C11.252 14.8316 11.6587 15.2384 11.6587 15.7385V26.3038ZM20.5762 1.59235H20.5764H20.5762Z" fill="black"/>
</g>
<defs>
<clipPath id="clip0">
<rect width="27.9453" height="28" fill="white"/>
</clipPath>
</defs>
</svg>
