<svg width="28" height="28" viewBox="0 0 28 28" fill="none" xmlns="http://www.w3.org/2000/svg">
<g clip-path="url(#clip0)">
<path d="M4.82525 19.3494L3.67072 16.6553C3.31144 15.8417 2.36058 15.4733 1.54692 15.8326C0.733255 16.1919 0.364905 17.1427 0.724185 17.9564C2.85079 22.6347 2.95439 23.1415 3.89752 24.0837L7.67752 27.8637C7.76502 27.9513 7.8837 28.0004 8.00745 28.0005H13.0666C13.3243 28.0005 13.5333 27.7915 13.5333 27.5338C13.596 26.5876 13.5442 25.6372 13.3788 24.7035C13.7919 24.7427 14.2079 24.7427 14.6211 24.7035C14.4199 25.5575 14.4666 26.082 14.4666 27.5333C14.4666 27.7911 14.6755 28 14.9333 28H19.9943C20.118 28 20.2367 27.9508 20.3242 27.8633L24.1042 24.0833C25.0459 23.1411 25.1211 22.6968 27.2775 17.9559C27.5099 17.4296 27.4439 16.8192 27.1043 16.3548C26.7646 15.8903 26.203 15.6424 25.631 15.7043C25.059 15.7662 24.5634 16.1285 24.331 16.6549L23.1746 19.3494C22.6329 18.9746 21.9596 18.8422 21.3163 18.984C21.5323 18.4544 21.7155 17.912 21.8651 17.36C22.7915 17.1733 25.0357 16.3599 25.0357 12.8333C25.0357 11.6382 24.8275 10.1654 23.6389 10.003C25.319 7.40275 25.9904 4.27794 25.5266 1.21707L25.3399 0.365406C25.2923 0.151077 25.1017 -0.00105405 24.8821 5.50011e-06H3.11772C2.89903 4.30294e-05 2.70971 0.151933 2.66225 0.365406L2.46625 1.25207C2.01078 4.30413 2.68499 7.41748 4.36232 10.0077C3.18538 10.1831 2.98145 11.6517 2.98145 12.8352C2.98145 16.3632 5.22752 17.1752 6.15479 17.3619C6.30523 17.9155 6.48928 18.4594 6.70592 18.9905C6.05647 18.8397 5.37353 18.97 4.82525 19.3494ZM12.5999 27.0667H8.19879L4.55879 23.4239C3.79672 22.6637 3.79765 22.4621 1.57398 17.57C1.47628 17.3487 1.50408 17.092 1.64691 16.8968C1.78973 16.7015 2.02588 16.5972 2.26641 16.6233C2.50693 16.6494 2.71528 16.8017 2.81298 17.0231C4.70345 21.4349 3.96845 20.3602 7.67565 24.0697C7.79282 24.1911 7.96633 24.2397 8.12949 24.197C8.29265 24.1543 8.42007 24.0269 8.46278 23.8637C8.50548 23.7006 8.45683 23.527 8.33552 23.4099C5.77912 20.8539 5.65825 20.783 5.26859 20.1861C5.79116 19.7523 6.54833 19.7511 7.07225 20.1833C8.04423 21.0746 9.16713 21.7857 10.3884 22.2833C11.4799 22.6459 12.5999 24.0604 12.5999 26.04V27.0667ZM13.0465 23.7183C12.613 22.6517 11.7579 21.8117 10.6838 21.3971C9.76673 21.0262 8.91574 20.5093 8.16378 19.8665C6.56032 17.0254 6.35405 13.6015 6.35172 10.339C7.34059 8.59647 9.93432 4.57707 13.9999 2.12474C18.0744 4.59527 20.6733 8.62074 21.6654 10.3679C21.6579 13.6813 21.4601 16.9479 19.8771 19.8352C19.114 20.4913 18.2491 21.0189 17.3165 21.3971C16.2415 21.8125 15.3859 22.6537 14.9524 23.7216C14.3207 23.8179 13.6779 23.8168 13.0465 23.7183ZM22.7313 20.1838C22.3435 20.7783 22.231 20.8409 19.6643 23.4075C19.4875 23.5907 19.49 23.8817 19.67 24.0617C19.85 24.2417 20.1411 24.2443 20.3242 24.0674C23.9959 20.3961 23.2955 21.4373 25.1869 17.0231C25.2846 16.8017 25.4929 16.6494 25.7334 16.6233C25.974 16.5972 26.2101 16.7015 26.3529 16.8968C26.4958 17.092 26.5236 17.3487 26.4259 17.57C24.2353 22.3893 24.2218 22.645 23.4439 23.4239L19.8011 27.0667H15.3999V26.04C15.384 25.0269 15.7113 24.0383 16.3286 23.2349C17.4229 21.8666 17.772 22.8396 20.9276 20.1833C21.4509 19.7504 22.2081 19.7506 22.7313 20.1838ZM24.1023 12.8333C24.1023 15.183 22.9632 16.0239 22.1162 16.3254C22.4315 14.6638 22.589 12.9762 22.5866 11.2849C23.0183 10.9783 23.4009 10.8505 23.6133 10.9531C23.7276 11.0082 24.1023 11.3078 24.1023 12.8333ZM24.5088 0.933339C25.1269 4.05245 24.435 7.28848 22.5955 9.88214C22.5511 6.39661 21.6304 4.00867 19.7796 2.59281C19.5748 2.43623 19.2819 2.4753 19.1253 2.68007C18.9687 2.88484 19.0078 3.17777 19.2126 3.33434C20.5617 4.36614 21.335 6.05454 21.5763 8.44434C19.7049 5.60234 16.8149 2.57507 13.7993 0.933339H24.5088ZM3.49199 0.933339H9.85685C8.81564 1.623 7.88695 2.46905 7.10352 3.44167C6.94244 3.64296 6.97503 3.93672 7.17632 4.09781C7.37761 4.25889 7.67137 4.22629 7.83245 4.02501C8.87556 2.73696 10.1895 1.69447 11.6811 0.971606C12.1551 1.15793 12.6191 1.36884 13.0713 1.60347C9.15405 4.12534 6.65225 7.89274 5.47812 9.98667C3.58099 7.3786 2.86086 4.09606 3.49199 0.933339ZM3.91479 12.8333C3.91479 11.3059 4.28812 11.0063 4.40479 10.9513C4.61292 10.8509 5.00352 10.9807 5.43145 11.2831C5.4291 12.9751 5.58676 14.6635 5.90232 16.3259C5.05532 16.0263 3.91479 15.1858 3.91479 12.8333Z" fill="black"/>
<path d="M8.60846 10.1431C9.09507 9.89846 9.65927 9.85847 10.1755 10.032L11.9857 10.6354C12.1441 10.6881 12.3186 10.6523 12.4434 10.5414C12.5682 10.4306 12.6244 10.2616 12.5909 10.0981C12.5573 9.9346 12.439 9.80142 12.2807 9.74873L10.4705 9.14673C9.71954 8.89449 8.89896 8.95279 8.19125 9.30867C8.04076 9.38241 7.94137 9.53119 7.93085 9.69845C7.92034 9.86571 8.00032 10.0258 8.1404 10.1178C8.28047 10.2098 8.45913 10.2196 8.60846 10.1435V10.1431Z" fill="black"/>
<path d="M15.8666 10.6596C15.9753 10.6596 15.8666 10.6853 17.8266 10.0324C18.3428 9.85845 18.9071 9.89845 19.3936 10.1435C19.543 10.2196 19.7216 10.2098 19.8617 10.1178C20.0018 10.0257 20.0818 9.86569 20.0712 9.69843C20.0607 9.53117 19.9613 9.38239 19.8108 9.30865C19.103 8.9528 18.2823 8.8945 17.5312 9.14671L15.7214 9.75011C15.5045 9.82218 15.3717 10.0408 15.4077 10.2665C15.4437 10.4923 15.638 10.6587 15.8666 10.6596Z" fill="black"/>
<path d="M12.1077 12.4507C12.0249 12.2071 11.7607 12.0764 11.5169 12.1585C11.5005 12.1637 9.9092 12.6826 8.68 11.7605C8.49516 11.6227 8.23742 11.6405 8.07333 11.8025C7.90948 11.972 7.69786 12.0876 7.46667 12.1338C7.20893 12.1338 7 12.3427 7 12.6005C7 12.8582 7.20893 13.0671 7.46667 13.0671C7.81514 13.0484 8.14994 12.9254 8.42754 12.7139C8.498 12.7559 8.56754 12.7932 8.6394 12.8291C8.57683 12.9241 8.49533 13.0051 8.4 13.0671C8.14227 13.0671 7.93333 13.2761 7.93333 13.5338C7.93333 14.1073 8.79527 14.3271 9.55407 13.1516C10.3059 13.3052 11.0844 13.2675 11.8179 13.0419C12.0608 12.9582 12.1903 12.6939 12.1077 12.4507Z" fill="black"/>
<path d="M19.3199 11.7574C18.0968 12.6744 16.5162 12.1666 16.4835 12.1554C16.2396 12.0722 15.9744 12.2025 15.8911 12.4464C15.8079 12.6903 15.9381 12.9556 16.1821 13.0388C16.9155 13.2648 17.694 13.3025 18.4459 13.1485C18.6829 13.5167 19.0894 13.9974 19.5999 13.9974C19.8599 13.9987 20.0725 13.7906 20.0769 13.5307C20.0795 13.4078 20.0325 13.2891 19.9466 13.2013C19.8606 13.1135 19.7429 13.064 19.62 13.064C19.5166 13.0047 19.4284 12.9221 19.3624 12.8228C19.4324 12.7868 19.5024 12.7504 19.5724 12.7084C19.8497 12.9208 20.1845 13.0447 20.5333 13.064C20.791 13.064 20.9999 12.8551 20.9999 12.5974C20.9999 12.3396 20.791 12.1307 20.5333 12.1307C20.3034 12.0843 20.093 11.9693 19.9299 11.8008C19.7657 11.6366 19.5057 11.6181 19.3199 11.7574Z" fill="black"/>
<path d="M12.341 16.2535C13.345 16.9252 14.6549 16.9252 15.659 16.2535C15.7977 16.1609 15.8765 16.0014 15.8657 15.835C15.8549 15.6686 15.7562 15.5206 15.6067 15.4468C15.4572 15.3729 15.2797 15.3844 15.141 15.4769C14.4503 15.9385 13.5496 15.9385 12.859 15.4769C12.6445 15.3339 12.3547 15.3918 12.2117 15.6062C12.0686 15.8206 12.1265 16.1104 12.341 16.2535Z" fill="black"/>
<path d="M16.7999 19.041C16.7985 18.8847 16.7326 18.7359 16.6177 18.6299C16.5028 18.5238 16.3492 18.47 16.1933 18.481C15.8064 18.481 14.6612 17.7344 13.9999 17.7344C13.3298 17.7344 12.2005 18.481 11.8089 18.481C11.6526 18.4694 11.4985 18.523 11.3831 18.6291C11.2678 18.7352 11.2015 18.8843 11.2 19.041C11.2 19.6995 12.5183 20.5344 13.9999 20.5344C15.4816 20.5344 16.7999 19.699 16.7999 19.041ZM13.9999 18.6677C14.5022 18.8148 14.9902 19.0066 15.4583 19.2408C14.5453 19.721 13.4545 19.721 12.5416 19.2408C13.0094 19.0061 13.4975 18.8143 13.9999 18.6677Z" fill="black"/>
<path d="M14.4665 21.4648H13.5332C13.2755 21.4648 13.0665 21.6738 13.0665 21.9315C13.0665 22.1892 13.2755 22.3982 13.5332 22.3982H14.4665C14.7243 22.3982 14.9332 22.1892 14.9332 21.9315C14.9332 21.6738 14.7243 21.4648 14.4665 21.4648Z" fill="black"/>
<path d="M6.06652 5.6013C6.32425 5.6013 6.53319 5.39237 6.53319 5.13464C6.53319 4.8769 6.32425 4.66797 6.06652 4.66797C5.80879 4.66797 5.59985 4.8769 5.59985 5.13464C5.59985 5.39237 5.80879 5.6013 6.06652 5.6013Z" fill="black"/>
</g>
<defs>
<clipPath id="clip0">
<rect width="28" height="28" fill="white"/>
</clipPath>
</defs>
</svg>
