<svg width="32" height="32" viewBox="0 0 28 28" fill="none" xmlns="http://www.w3.org/2000/svg">
<path d="M0.120605 14.5664V17.7005C0.120605 23.3784 4.73974 27.998 10.4182 27.998H17.5817C18.808 27.998 20.0039 27.7782 21.1424 27.3578C21.4715 27.7469 21.9586 27.998 22.5066 27.998C23.3058 27.998 23.9846 27.472 24.2138 26.748C24.889 27.0972 25.7401 26.9893 26.3055 26.4247C26.644 26.0867 26.8303 25.6367 26.8303 25.1581C26.8303 24.8662 26.7609 24.5846 26.6297 24.3325C27.3532 24.1024 27.8793 23.4241 27.8793 22.6254C27.8793 22.0774 27.6281 21.5902 27.239 21.2612C27.2552 21.2173 27.2686 21.1721 27.2843 21.1282L27.3098 21.0548C27.3116 21.0498 27.3125 21.0449 27.3143 21.0404C27.4043 20.7785 27.4844 20.5144 27.5529 20.2471C27.5592 20.2238 27.5636 20.2001 27.5695 20.1768C27.6308 19.9292 27.6863 19.6807 27.7288 19.4291C27.7436 19.3436 27.7521 19.2572 27.7647 19.1712C27.7924 18.9765 27.8224 18.7826 27.839 18.586C27.8645 18.291 27.8793 17.9959 27.8793 17.7005V16.3573V14.5664H0.120605ZM1.01605 17.7005V17.319C1.38273 17.4358 1.62942 17.6964 1.91999 18.0067C2.35249 18.4687 2.89155 19.0436 3.92489 19.0436C4.95823 19.0436 5.49683 18.4687 5.92978 18.0067C6.32422 17.5854 6.63628 17.2527 7.28145 17.2527C7.92617 17.2527 8.23823 17.5854 8.63312 18.0067C9.06561 18.4687 9.60512 19.0436 10.638 19.0436C11.6709 19.0436 12.2104 18.4687 12.6434 18.0067C13.0382 17.5854 13.3503 17.2527 13.9955 17.2527C14.6411 17.2527 14.9536 17.5854 15.348 18.0067C15.7814 18.4687 16.3209 19.0436 17.3543 19.0436C18.3876 19.0436 18.9267 18.4687 19.3596 18.0067C19.7545 17.5854 20.0666 17.2527 20.7117 17.2527C21.0766 17.2527 21.3341 17.3611 21.5611 17.5294C21.2042 17.7528 20.9289 18.094 20.799 18.5028C20.1234 18.1526 19.2728 18.261 18.7073 18.826C18.3688 19.164 18.1826 19.614 18.1826 20.0926C18.183 20.385 18.2524 20.6666 18.3836 20.9182C17.8042 21.1022 17.3565 21.5764 17.1994 22.1674C16.6581 22.1172 16.363 21.8092 16.0017 21.4237C15.5683 20.9616 15.0293 20.3868 13.9955 20.3868C12.9617 20.3868 12.4226 20.9616 11.9901 21.4237C11.5952 21.845 11.2836 22.1777 10.638 22.1777C9.9924 22.1777 9.68078 21.845 9.28589 21.4237C8.8534 20.9616 8.31479 20.3868 7.28145 20.3868C6.24811 20.3868 5.70905 20.9616 5.27611 21.4237C4.88167 21.845 4.57005 22.1777 3.92489 22.1777C3.27927 22.1777 2.96721 21.845 2.57232 21.4241C2.28131 21.1143 1.9482 20.7781 1.46914 20.5744C1.17723 19.6677 1.01605 18.7029 1.01605 17.7005ZM17.5817 27.1026H10.4182C6.95417 27.1026 3.92936 25.2145 2.29832 22.4181C2.67754 22.7646 3.16824 23.0731 3.92489 23.0731C4.95823 23.0731 5.49683 22.4982 5.92978 22.0362C6.32422 21.6149 6.63628 21.2822 7.28145 21.2822C7.92617 21.2822 8.23823 21.6149 8.63312 22.0362C9.06561 22.4982 9.60512 23.0731 10.638 23.0731C11.6709 23.0731 12.2104 22.4982 12.6434 22.0362C13.0382 21.6149 13.3503 21.2822 13.9955 21.2822C14.6411 21.2822 14.9536 21.6149 15.348 22.0362C15.7577 22.4727 16.2668 23.0041 17.1935 23.0619C17.3453 23.6632 17.7966 24.1463 18.3831 24.333C18.2519 24.5846 18.1826 24.8662 18.1826 25.1581C18.1826 25.6363 18.3688 26.0863 18.7073 26.4247C18.9459 26.6629 19.2365 26.8151 19.5418 26.8908C18.9016 27.0265 18.247 27.1026 17.5817 27.1026ZM26.0884 23.5208H25.9577C25.8986 23.5208 25.8341 23.5128 25.7643 23.4975C25.5516 23.451 25.3371 23.5629 25.2538 23.7639C25.1706 23.9645 25.244 24.196 25.4276 24.3128C25.488 24.3513 25.5382 24.3907 25.5798 24.4324L25.6725 24.5255C25.8417 24.6947 25.9348 24.9195 25.9348 25.1586C25.9348 25.3977 25.8417 25.6229 25.6725 25.7921C25.3241 26.1409 24.7555 26.1413 24.4063 25.7926L24.3141 25.6999C24.2716 25.6573 24.2313 25.6063 24.1941 25.5472C24.0772 25.3632 23.8458 25.2907 23.6447 25.373C23.4442 25.4559 23.3318 25.6712 23.3783 25.8834C23.3945 25.9537 23.4021 26.0169 23.4021 26.0764V26.2071C23.4021 26.701 23.0005 27.1026 22.5066 27.1026C22.0128 27.1026 21.6112 26.701 21.6112 26.2071V26.0764C21.6112 26.0169 21.6188 25.9537 21.6345 25.883C21.681 25.6708 21.5691 25.4554 21.3681 25.3726C21.3126 25.3498 21.2544 25.3386 21.1971 25.3386C21.0475 25.3386 20.9033 25.4133 20.8187 25.5463C20.7816 25.605 20.7413 25.6564 20.6987 25.699L20.607 25.7912C20.2586 26.14 19.6896 26.1404 19.3404 25.7912C19.1711 25.622 19.078 25.3972 19.078 25.1577C19.078 24.9182 19.1711 24.6938 19.3408 24.5242L19.4321 24.4324C19.4747 24.3898 19.5248 24.3504 19.5853 24.3119C19.7688 24.1955 19.8418 23.9641 19.759 23.763C19.6757 23.562 19.4612 23.4501 19.2486 23.4966C19.1792 23.5128 19.1147 23.5208 19.0556 23.5208H18.9249C18.431 23.5208 18.0294 23.1192 18.0294 22.6254C18.0294 22.1315 18.431 21.7299 18.9249 21.7299H19.0556C19.1147 21.7299 19.1792 21.738 19.249 21.7532C19.4617 21.7998 19.6761 21.6878 19.7594 21.4868C19.8427 21.2858 19.7693 21.0548 19.5857 20.9379C19.5253 20.8994 19.4751 20.86 19.4335 20.8184L19.3408 20.7252C19.1716 20.556 19.0784 20.3313 19.0784 20.0922C19.0784 19.8531 19.1716 19.6279 19.3408 19.4586C19.6891 19.1103 20.2577 19.1094 20.607 19.4582L20.6992 19.5509C20.7417 19.5934 20.782 19.6449 20.8192 19.7031C20.9356 19.8876 21.1671 19.9601 21.3681 19.8777C21.5691 19.7949 21.6815 19.5795 21.6349 19.3673C21.6188 19.297 21.6112 19.2339 21.6112 19.1743V19.0436C21.6112 18.5498 22.0128 18.1482 22.5066 18.1482C23.0005 18.1482 23.4021 18.5498 23.4021 19.0436V19.1743C23.4021 19.2339 23.3945 19.297 23.3788 19.3678C23.3322 19.58 23.4442 19.7953 23.6456 19.8782C23.8453 19.9601 24.0781 19.8876 24.1945 19.7036C24.2317 19.6453 24.272 19.5939 24.3145 19.5513L24.4063 19.4591C24.7546 19.1108 25.3237 19.1099 25.6729 19.4591C25.8422 19.6283 25.9353 19.8531 25.9353 20.0926C25.9353 20.3322 25.8422 20.5565 25.6725 20.7261L25.5811 20.8179C25.5386 20.8605 25.4885 20.8999 25.428 20.9384C25.2444 21.0548 25.1715 21.2862 25.2543 21.4873C25.3371 21.6883 25.552 21.7998 25.7647 21.7537C25.8341 21.7384 25.899 21.7304 25.9581 21.7304L26.2724 21.7496C26.678 21.8343 26.9838 22.1947 26.9838 22.6254C26.9838 23.1192 26.5822 23.5208 26.0884 23.5208ZM26.9838 17.7005C26.9838 17.9633 26.9691 18.2243 26.948 18.484C26.9355 18.629 26.9158 18.7732 26.8965 18.9178C26.8836 19.0181 26.871 19.1179 26.8549 19.2173C26.8307 19.3619 26.8003 19.5061 26.7689 19.6503C26.6906 19.3422 26.537 19.057 26.306 18.8265C26.118 18.6384 25.8972 18.5063 25.6631 18.4195C25.8162 18.2834 25.9527 18.141 26.0786 18.0067C26.3696 17.696 26.6158 17.4336 26.9838 17.3172V17.7005ZM26.9838 16.4012C26.2353 16.5391 25.7902 17.0047 25.4253 17.3942C25.03 17.8155 24.7175 18.1482 24.0714 18.1482C24.0638 18.1482 24.0575 18.1468 24.0499 18.1464C23.7526 17.6369 23.2145 17.289 22.5904 17.2594C22.1771 16.8274 21.6475 16.3573 20.7117 16.3573C19.6779 16.3573 19.1389 16.9322 18.7064 17.3942C18.3115 17.8155 17.9999 18.1482 17.3543 18.1482C16.7087 18.1482 16.3961 17.8155 16.0017 17.3942C15.5683 16.9322 15.0293 16.3573 13.9955 16.3573C12.9617 16.3573 12.4226 16.9322 11.9901 17.3942C11.5952 17.8155 11.2836 18.1482 10.638 18.1482C9.9924 18.1482 9.68078 17.8155 9.28589 17.3942C8.8534 16.9322 8.31479 16.3573 7.28145 16.3573C6.24811 16.3573 5.70905 16.9322 5.27611 17.3942C4.88167 17.8155 4.57005 18.1482 3.92489 18.1482C3.27972 18.1482 2.96766 17.8155 2.57277 17.3942C2.20788 17.0047 1.76419 16.5391 1.0156 16.4012V15.4618H26.9838V16.4012Z" fill="#002823"/>
<path d="M22.5067 20.8359C21.519 20.8359 20.7158 21.6391 20.7158 22.6268C20.7158 23.6145 21.519 24.4177 22.5067 24.4177C23.4944 24.4177 24.2976 23.6145 24.2976 22.6268C24.2976 21.6391 23.4944 20.8359 22.5067 20.8359ZM22.5067 23.5223C22.0129 23.5223 21.6113 23.1207 21.6113 22.6268C21.6113 22.133 22.0129 21.7314 22.5067 21.7314C23.0005 21.7314 23.4021 22.133 23.4021 22.6268C23.4021 23.1207 23.0005 23.5223 22.5067 23.5223Z" fill="#002823"/>
<path d="M16.8806 6.72163L14 0L11.1194 6.72163C10.951 7.11383 10.866 7.52932 10.866 7.956V8.30029C10.866 10.0285 12.2723 11.4343 14 11.4343C15.7278 11.4343 17.1341 10.0285 17.1341 8.30029V7.956C17.1341 7.52887 17.049 7.11338 16.8806 6.72163ZM16.2386 8.30029C16.2386 9.53466 15.2344 10.5389 14 10.5389C12.7656 10.5389 11.7614 9.53466 11.7614 8.30029V7.956C11.7614 7.6511 11.8223 7.35426 11.9423 7.07443L14 2.27353L16.0577 7.07488C16.1777 7.35471 16.2386 7.6511 16.2386 7.956V8.30029Z" fill="#002823"/>
<path d="M14.4477 18.5977H13.5522V19.4931H14.4477V18.5977Z" fill="#002823"/>
<path d="M7.73187 18.5977H6.83643V19.4931H7.73187V18.5977Z" fill="#002823"/>
</svg>
