<svg width="28" height="28" viewBox="0 0 28 28" fill="none" xmlns="http://www.w3.org/2000/svg">
<path d="M1.75 14.8594V25.3594C1.75 26.3254 2.53575 27.1094 3.5 27.1094H12.25V14.8594H1.75Z" fill="black"/>
<path d="M26.25 7.85694H20.713C21.1103 7.58569 21.4515 7.31619 21.6895 7.07469C23.1017 5.65544 23.1017 3.34544 21.6895 1.92619C20.3175 0.543688 17.927 0.547188 16.5568 1.92619C15.7973 2.68744 13.7847 5.78669 14.063 7.85694H13.937C14.2135 5.78669 12.201 2.68744 11.4432 1.92619C10.0712 0.547188 7.68075 0.547188 6.3105 1.92619C4.9 3.34544 4.9 5.65544 6.30875 7.07469C6.5485 7.31619 6.88975 7.58569 7.287 7.85694H1.75C0.78575 7.85694 0 8.64269 0 9.60694V12.2319C0 12.7149 0.392 13.1069 0.875 13.1069H12.25V9.60694H15.75V13.1069H27.125C27.608 13.1069 28 12.7149 28 12.2319V9.60694C28 8.64269 27.216 7.85694 26.25 7.85694ZM12.1467 7.79919C12.1467 7.79919 12.0732 7.85694 11.823 7.85694C10.6138 7.85694 8.3055 6.60044 7.55125 5.84094C6.818 5.10244 6.818 3.89844 7.55125 3.15994C7.9065 2.80294 8.37725 2.60694 8.87775 2.60694C9.3765 2.60694 9.84725 2.80294 10.2025 3.15994C11.382 4.34644 12.5545 7.37744 12.1467 7.79919ZM16.1753 7.85694C15.9268 7.85694 15.8533 7.80094 15.8533 7.79919C15.4455 7.37744 16.618 4.34644 17.7975 3.15994C18.5028 2.44769 19.7365 2.44419 20.4488 3.15994C21.1838 3.89844 21.1838 5.10244 20.4488 5.84094C19.6945 6.60044 17.3862 7.85694 16.1753 7.85694Z" fill="black"/>
<path d="M15.75 14.8594V27.1094H24.5C25.466 27.1094 26.25 26.3254 26.25 25.3594V14.8594H15.75Z" fill="black"/>
</svg>
