<svg width="28" height="28" viewBox="0 0 28 28" fill="none" xmlns="http://www.w3.org/2000/svg">
<g clip-path="url(#clip0)">
<path d="M14.8268 12.6875C14.6002 12.6875 14.4166 12.8711 14.4166 13.0977V13.571C14.4166 13.8008 14.2297 13.9877 14 13.9877C13.7703 13.9877 13.5834 13.8008 13.5834 13.571V13.0977C13.5834 12.8711 13.3998 12.6875 13.1732 12.6875C12.9466 12.6875 12.7631 12.8711 12.7631 13.0977V13.571C12.7631 14.2531 13.3179 14.8081 14 14.8081C14.6822 14.8081 15.2371 14.2532 15.2371 13.571V13.0977C15.237 12.8711 15.0533 12.6875 14.8268 12.6875Z" fill="black"/>
<path d="M18.9892 11.2915C18.8439 11.1177 18.5851 11.0948 18.4115 11.2402C17.7636 11.7825 16.8178 11.7818 16.1707 11.2402C15.9971 11.0948 15.7384 11.1177 15.593 11.2915C15.4476 11.4652 15.4705 11.7238 15.6443 11.8692C16.5969 12.6667 17.9866 12.6656 18.9381 11.8692C19.1117 11.7238 19.1346 11.4652 18.9892 11.2915Z" fill="black"/>
<path d="M12.4072 11.2915C12.2618 11.1177 12.003 11.0948 11.8294 11.2402C11.1815 11.7825 10.2357 11.7818 9.58865 11.2402C9.41508 11.0948 9.15629 11.1177 9.01094 11.2915C8.86552 11.4652 8.88849 11.7238 9.06223 11.8692C9.52292 12.2549 10.1078 12.4672 10.7091 12.4672C11.3104 12.4672 11.8953 12.2549 12.356 11.8692C12.5296 11.7238 12.5526 11.4651 12.4072 11.2915Z" fill="black"/>
<path d="M14.0274 15.4453C13.4627 15.4453 13.0032 15.9047 13.0032 16.4696V16.9009C13.0032 17.4656 13.4626 17.9251 14.0274 17.9251C14.5921 17.9251 15.0516 17.4656 15.0516 16.9009V16.4696C15.0515 15.9048 14.5921 15.4453 14.0274 15.4453ZM14.2312 16.9008C14.2312 17.0133 14.1398 17.1047 14.0274 17.1047C13.9149 17.1047 13.8235 17.0133 13.8235 16.9008V16.4695C13.8235 16.3571 13.9149 16.2656 14.0274 16.2656C14.1398 16.2656 14.2312 16.3571 14.2312 16.4695V16.9008Z" fill="black"/>
<path d="M24.2659 23.9828C24.0293 23.1257 23.4396 22.3933 22.648 21.9737C22.3393 21.8099 22.0238 21.6574 21.7074 21.5154C23.126 18.2632 24.2936 13.8302 24.0278 10.3067C24.4474 9.4114 25.0239 8.84462 24.9712 7.76772C24.9709 7.76225 24.8445 5.17061 24.8442 5.16514C24.8207 4.61126 24.6334 4.08386 24.3022 3.63958C24.2102 3.5162 24.1596 3.35602 24.1596 3.18857V0.946052C24.1596 0.42499 23.7356 0.00105234 23.2146 0.00105234H20.9618C20.3738 0.00105234 19.8954 0.479459 19.8954 1.06746V2.06928C19.4478 1.71425 18.9729 1.39952 18.4752 1.13062C18.276 1.023 18.0271 1.09721 17.9194 1.29654C17.8117 1.49583 17.886 1.74465 18.0853 1.85233C18.7345 2.20304 19.3426 2.63792 19.8953 3.14651V3.88184C19.4627 4.47602 19.5136 4.85397 19.3876 5.10099C19.0969 5.67078 18.4353 6.18151 17.9504 6.5227C17.162 7.09162 17.2622 7.96787 17.8065 8.46137C15.9402 7.63483 13.8469 6.29154 12.4514 4.77976C12.2085 4.51753 11.7781 4.56538 11.6011 4.87978C11.4277 5.18822 10.9689 5.92628 10.1976 6.64351C9.97217 6.43936 8.6752 5.63944 8.52563 4.8194C8.46432 4.4845 8.30228 4.15276 8.10502 3.88179V3.14657C10.4316 1.00654 13.5611 0.344654 16.3799 1.15512C16.5974 1.21779 16.8248 1.09201 16.8874 0.874248C16.95 0.656591 16.8243 0.42931 16.6065 0.366748C13.7346 -0.459034 10.577 0.110318 8.10502 2.06857V1.06746C8.10502 0.479459 7.62662 0.00105234 7.03862 0.00105234H4.7856C4.26454 0.00105234 3.8406 0.42499 3.8406 0.946052C3.79833 3.0909 3.94254 3.31167 3.69798 3.63958C3.36548 4.08572 3.17795 4.61558 3.15581 5.17181C3.14678 5.39816 3.32299 5.58897 3.54928 5.59799C3.77492 5.60669 3.96638 5.43081 3.97546 5.20451C4.0162 4.18164 4.66092 4.12586 4.66092 3.18862V0.946052C4.66092 0.877255 4.71681 0.821365 4.7856 0.821365H7.0384C7.17178 0.821365 7.28449 0.934076 7.28449 1.06746C7.28449 4.77008 7.18868 3.92286 7.5325 4.50233C7.79801 4.94934 7.66238 5.0439 7.88184 5.47396C8.30277 6.29886 9.28206 6.99586 9.57207 7.18983C9.59936 7.21395 9.71431 7.28526 9.77277 7.40519C9.85147 7.57527 9.73302 7.7442 9.73444 7.73873C9.67997 7.83165 9.60488 7.89202 9.52061 7.92735C9.27698 8.0294 9.06534 7.92445 8.84916 7.8107C8.06067 7.37911 7.69416 6.93012 7.22559 6.4649C6.78077 6.01405 6.02252 6.21601 5.84309 6.7426L5.53181 7.66135C5.22819 8.34401 5.55724 8.72021 6.28863 10.9172C6.37334 11.1595 6.26118 11.4228 6.03002 11.5305C5.82231 11.6273 5.57431 11.5454 5.46537 11.3438L4.75104 10.0222V10.0221C4.23293 8.95744 3.81036 8.58316 3.84831 7.80775L3.87938 7.17337C3.89042 6.94708 3.71602 6.75474 3.48978 6.74364C3.26387 6.73369 3.07115 6.90699 3.06005 7.13323L3.02899 7.76766C2.97643 8.84495 3.55327 9.41233 3.9724 10.3067C3.70678 13.8295 4.87283 18.2603 6.29284 21.5154C5.9762 21.6574 5.6606 21.8099 5.35211 21.9736C4.56067 22.3933 3.97098 23.1256 3.73424 23.9826L3.09472 26.2982C2.98206 26.7062 3.06448 27.1333 3.3208 27.47C3.57712 27.8069 3.96677 28 4.39005 28H17.2912C17.5177 28 17.7013 27.8164 17.7013 27.5898C17.7013 27.3632 17.5177 27.1796 17.2912 27.1796H7.36609V25.1708C7.36609 24.9442 7.1825 24.7607 6.95593 24.7607C6.72936 24.7607 6.54577 24.9442 6.54577 25.1708V27.1796H4.38999C4.04404 27.1796 3.79324 26.8504 3.88539 26.5168L4.52491 24.2012C4.70182 23.5606 5.14342 23.0128 5.73634 22.6984C7.61595 21.7015 9.8186 21.1208 10.7779 20.8975C10.7779 20.9031 10.7779 21.2444 10.7779 21.237C10.7779 21.493 10.8413 21.7443 10.95 21.9589C11.1685 22.3882 12.0795 23.4726 13.0902 24.1945C13.6343 24.5831 14.3656 24.5833 14.9098 24.1945C15.6804 23.644 16.3864 22.9133 16.9191 22.1738C17.2161 21.7616 17.2326 21.3894 17.2221 20.8973C18.8599 21.278 20.7614 21.9015 22.2637 22.6983C22.8567 23.0128 23.2983 23.5605 23.4752 24.2011L24.1147 26.5167C24.2068 26.8502 23.9563 27.1796 23.61 27.1796H21.4545V25.1708C21.4545 24.9442 21.2709 24.7606 21.0444 24.7606C20.8178 24.7606 20.6342 24.9442 20.6342 25.1708V27.1796H19.2052C18.9786 27.1796 18.7951 27.3632 18.7951 27.5898C18.7951 27.8164 18.9786 28 19.2052 28H23.6101C24.4981 28 25.1421 27.155 24.9056 26.2983L24.2659 23.9828ZM18.428 7.18978C19.1612 6.70027 20.0972 5.87777 20.2721 5.01174C20.3983 4.38595 20.7156 4.3194 20.7156 4.02162V1.06746C20.7156 0.934076 20.8283 0.821365 20.9617 0.821365H23.2144C23.2832 0.821365 23.3391 0.877255 23.3391 0.946052V3.18857C23.3391 4.1503 23.947 4.08036 24.0254 5.21851C24.0295 5.27326 24.0301 5.26976 24.0299 5.25455C24.0352 5.38307 24.0594 5.92065 24.1518 7.80791C24.1678 8.13445 24.094 8.45897 23.9386 8.74657L22.5346 11.3438C22.4256 11.5454 22.1774 11.6272 21.9701 11.5306C21.7382 11.4224 21.6269 11.1587 21.7114 10.9172L22.5082 8.63725C22.6234 8.3077 22.6002 7.95808 22.4682 7.6614C22.4663 7.65588 22.1523 6.72679 22.1401 6.70071C21.8932 6.17183 21.1897 6.04413 20.7744 6.46495C20.4666 6.77711 20.4809 6.76196 20.4694 6.77459C19.7951 7.52195 19.0038 7.88776 18.9701 7.90307C18.7058 8.02371 18.379 7.98997 18.2339 7.67901C18.168 7.53743 18.4063 7.21882 18.428 7.18978ZM21.2911 9.63338C21.108 9.49497 20.337 9.4639 18.592 8.78742C18.8421 8.80503 19.087 8.75143 19.3107 8.64928C19.4099 8.60411 20.2999 8.18389 21.0723 7.33104C21.3028 7.11732 21.3548 7.00559 21.3915 7.03983L21.6978 7.94397C21.7148 7.99385 21.8091 8.15108 21.7338 8.3666L21.2911 9.63338ZM6.30231 7.94397L6.60861 7.03988C6.67385 6.97874 6.97748 7.49783 7.74994 8.07495C7.25545 8.22206 7.02511 8.22463 6.92268 8.26898C6.42524 8.48472 6.57055 9.04445 6.54649 9.16783C6.18839 8.14063 6.19058 8.27166 6.30231 7.94397ZM10.7779 20.0555C10.1267 20.1997 8.63292 20.5662 7.04824 21.1966C5.69216 18.0918 4.83324 14.5501 4.75766 11.7589C5.09825 12.3571 5.90008 12.6025 6.54594 12.178C6.61714 12.607 6.06398 15.6264 8.7225 18.1848C9.3303 18.7697 10.025 19.2416 10.7779 19.589V20.0555H10.7779ZM16.0746 21.9325C15.6094 22.5294 15.0465 23.0889 14.4331 23.5271C14.1903 23.7004 13.8693 23.7114 13.6166 23.5596C13.0185 23.2 11.9187 22.029 11.6911 21.6046C11.5673 21.3736 11.5982 21.3322 11.5982 19.9105C13.1159 20.4053 14.8351 20.4211 16.4019 19.9104C16.4019 21.5748 16.4778 21.4153 16.0746 21.9325ZM13.856 19.4654C13.8555 19.4654 13.8503 19.4653 13.8498 19.4653V19.4653C13.8469 19.4653 13.844 19.4652 13.8412 19.4652V19.4651C10.3168 19.3912 7.36614 16.6378 7.36614 13.128C7.36691 8.36392 7.3668 9.11582 7.3668 9.01246C7.80173 8.92862 8.229 8.7994 8.64167 8.6268C9.80668 9.1891 10.7319 8.2103 10.6121 7.37539C11.3339 6.73571 11.8296 6.06141 12.1138 5.61762C13.9192 7.47574 17.1062 9.43126 20.6338 10.2862L20.6343 13.1279C20.6341 16.7681 17.4518 19.576 13.856 19.4654ZM17.2222 20.0552V19.589C17.9753 19.2416 18.67 18.7697 19.2778 18.1848C21.9376 15.6252 21.3828 12.6094 21.4544 12.1781C22.0916 12.5975 22.8965 12.3651 23.2425 11.7588C23.1669 14.55 22.3081 18.0914 20.952 21.1961C19.3627 20.5634 17.8691 20.1982 17.2222 20.0552Z" fill="black"/>
</g>
<defs>
<clipPath id="clip0">
<rect width="28" height="28" fill="white"/>
</clipPath>
</defs>
</svg>
