<svg width="28" height="28" viewBox="0 0 28 28" fill="none" xmlns="http://www.w3.org/2000/svg">
<path d="M22.2202 6.17422C22.0825 6.01967 21.9134 5.89633 21.7242 5.81246C21.535 5.72859 21.3301 5.68614 21.1231 5.68794C20.7645 5.67716 20.4099 5.76608 20.0989 5.94481C19.7878 6.12354 19.5324 6.38508 19.3611 6.70032C19.248 4.12257 18.8479 2.72475 17.3151 2.66219C17.1169 2.64909 16.918 2.67733 16.7313 2.74511C16.5445 2.81289 16.3738 2.91874 16.2301 3.05594C15.8894 3.43105 15.6645 3.89677 15.5826 4.39688C15.2186 2.29382 14.5875 1.0395 13.3984 1.0395C13.1396 1.03358 12.883 1.0873 12.6483 1.19651C12.4137 1.30572 12.2073 1.46749 12.0452 1.66929C11.5099 2.31263 11.2525 3.43394 11.2722 5.05991C10.9596 4.41022 10.622 3.99241 10.2353 3.74413C10.0448 3.62108 9.83069 3.53917 9.60671 3.50365C9.38273 3.46813 9.15381 3.47978 8.93459 3.53785C7.26771 3.93554 7.65621 6.14732 8.30218 9.80919C8.55309 11.2295 8.8309 12.8096 9.05315 14.5911C7.94781 13.7161 6.72609 13.2958 5.87056 13.547C5.62532 13.6132 5.40456 13.7492 5.23507 13.9384C5.06558 14.1276 4.95464 14.3619 4.91571 14.6129C4.60684 16.2649 5.27403 17.7608 10.19 22.6894V26.5786C10.19 26.6801 10.2303 26.7775 10.3021 26.8493C10.3739 26.921 10.4713 26.9614 10.5728 26.9614H19.3593C19.4609 26.9614 19.5582 26.921 19.63 26.8493C19.7018 26.7775 19.7422 26.6801 19.7422 26.5786V21.9376C20.9206 20.9969 21.8181 16.9472 22.6297 8.97204C22.6566 8.70582 22.678 8.49604 22.6935 8.35516C22.8278 7.14 22.5104 6.49841 22.2202 6.17422V6.17422ZM21.9321 8.27072C21.9161 8.41313 21.8947 8.62532 21.8664 8.8946C20.8217 19.1726 19.7465 21.1297 19.1988 21.3817C19.1322 21.4123 19.0759 21.4613 19.0363 21.523C18.9968 21.5846 18.9758 21.6563 18.9759 21.7295V26.1958H10.9556V22.5317C10.9556 22.4814 10.9458 22.4317 10.9265 22.3853C10.9073 22.3388 10.8791 22.2966 10.8436 22.2611C5.68746 17.1041 5.44684 15.9408 5.66843 14.7543C5.68134 14.6422 5.72826 14.5368 5.80288 14.4522C5.8775 14.3676 5.97623 14.3079 6.08581 14.2811C6.74206 14.0884 8.08321 14.5655 9.27321 15.8305C9.32816 15.889 9.40008 15.9287 9.47882 15.944C9.55756 15.9594 9.63914 15.9496 9.71203 15.9161C9.78492 15.8826 9.84544 15.8271 9.88504 15.7573C9.92465 15.6875 9.94133 15.6071 9.93275 15.5273C9.69409 13.2976 9.34059 11.2897 9.05621 9.67619C8.50934 6.5671 8.14665 4.51369 9.11134 4.28313C9.23043 4.24905 9.35543 4.24086 9.47795 4.25913C9.60046 4.27739 9.71765 4.32167 9.82162 4.38901C10.7566 4.98904 11.3807 7.58669 11.8199 9.7825C11.8393 9.88195 11.8974 9.96964 11.9814 10.0263C12.0654 10.083 12.1684 10.1041 12.2679 10.085C12.3674 10.0659 12.4553 10.0081 12.5122 9.92425C12.5692 9.84044 12.5906 9.73747 12.5717 9.63791C11.6447 4.63247 12.0938 2.8081 12.6337 2.15885C12.7243 2.04366 12.8409 1.95156 12.974 1.89008C13.1071 1.8286 13.2528 1.79949 13.3993 1.80513C14.9852 1.80513 15.193 7.3535 15.3319 11.025C15.3338 11.1265 15.376 11.2232 15.4491 11.2936C15.5222 11.3641 15.6203 11.4026 15.7219 11.4007C15.8234 11.3988 15.92 11.3567 15.9905 11.2836C16.0609 11.2104 16.0994 11.1123 16.0976 11.0108C16.0976 10.5495 16.0964 10.1036 16.0941 9.67291C16.0818 6.65569 16.0722 4.27263 16.763 3.60697C16.8318 3.54098 16.9142 3.49074 17.0043 3.45973C17.0945 3.42872 17.1903 3.41768 17.2852 3.42738C18.5631 3.47922 18.6259 5.418 18.6462 9.79475L18.6497 10.5026C18.6503 10.6036 18.6907 10.7002 18.7621 10.7714C18.8336 10.8427 18.9303 10.8829 19.0312 10.8833C19.1327 10.8833 19.2301 10.8429 19.3019 10.7711C19.3737 10.6993 19.414 10.602 19.414 10.5004C19.414 6.45357 20.7003 6.45357 21.1231 6.45357C21.2225 6.45117 21.3211 6.47064 21.4121 6.5106C21.5031 6.55056 21.5842 6.61002 21.6497 6.68479C21.9126 6.97857 22.013 7.54207 21.9321 8.27072V8.27072Z" fill="black"/>
<path d="M20.2195 14.6767C20.1698 14.6687 20.1191 14.6707 20.0702 14.6824C20.0213 14.6941 19.9752 14.7154 19.9345 14.745C19.8939 14.7746 19.8595 14.8119 19.8333 14.8549C19.8071 14.8978 19.7897 14.9455 19.782 14.9952C19.565 16.3715 19.3401 17.527 19.1135 18.4295C18.7197 19.9989 18.4391 20.3178 18.4084 20.3489C18.3732 20.3848 18.3454 20.4273 18.3267 20.4739C18.3079 20.5206 18.2985 20.5704 18.299 20.6207C18.2995 20.671 18.3099 20.7207 18.3296 20.767C18.3493 20.8132 18.3779 20.8552 18.4138 20.8904C18.4497 20.9256 18.4922 20.9534 18.5388 20.9721C18.5855 20.9909 18.6354 21.0003 18.6857 20.9998C18.736 20.9993 18.7856 20.989 18.8319 20.9692C18.8782 20.9495 18.9201 20.9209 18.9553 20.885C19.2504 20.5847 19.5534 19.8212 19.8564 18.6161C20.088 17.6921 20.3175 16.5142 20.538 15.1142C20.5458 15.0645 20.5438 15.0138 20.532 14.965C20.5202 14.9161 20.4989 14.8701 20.4694 14.8294C20.4398 14.7888 20.4025 14.7544 20.3596 14.7282C20.3167 14.702 20.2691 14.6845 20.2195 14.6767V14.6767Z" fill="black"/>
</svg>
