<svg width="32" height="32" viewBox="0 0 28 28" fill="none" xmlns="http://www.w3.org/2000/svg">
<path d="M19.4801 15.8801C19.4797 15.8769 19.4792 15.8731 19.4787 15.8695C19.4374 15.5741 19.1664 15.3657 18.8693 15.4027C18.5696 15.4402 18.357 15.7135 18.3944 16.0132C18.3948 16.0163 18.3953 16.0202 18.3958 16.0238C18.4339 16.2963 18.6676 16.4949 18.9367 16.4949C18.9593 16.4949 18.9822 16.4935 19.0053 16.4906C19.3049 16.4531 19.5175 16.1798 19.4801 15.8801Z" fill="#002823"/>
<path d="M27.7863 22.6498L26.8215 21.884C26.7821 21.8527 26.7417 21.8234 26.7008 21.7954L24.9867 15.7956C23.9693 12.2341 21.6487 9.2418 18.4526 7.3698L15.1018 5.40728L16.5142 2.97199C16.8706 2.35063 16.8689 1.60962 16.5099 0.989789C16.1507 0.370016 15.5087 0 14.7924 0H13.191C12.4751 0 11.8333 0.369687 11.4741 0.988914C11.115 1.60814 11.1127 2.34883 11.4682 2.97019L12.8713 5.42314L9.5477 7.3698C6.35154 9.2418 4.03093 12.2341 3.01353 15.7956L1.29973 21.7944C1.2592 21.8222 1.21917 21.8512 1.18018 21.8822L0.213963 22.6489C0.0832598 22.7526 0.00708008 22.9112 0.00708008 23.0781V25.1016C0.00708008 26.6998 1.30728 28 2.90552 28H25.0947C26.693 28 27.9932 26.6998 27.9932 25.1016V23.0781C27.9932 22.9113 27.917 22.7535 27.7863 22.6498ZM12.4176 2.42709C12.2581 2.14818 12.259 1.81568 12.4203 1.5377C12.5815 1.25973 12.8696 1.09375 13.191 1.09375H14.7924C15.114 1.09375 15.4022 1.25989 15.5634 1.53809C15.7246 1.81634 15.7254 2.149 15.5654 2.42791L14.1636 4.87501C14.0543 4.84072 13.9373 4.84176 13.8285 4.8778L12.4176 2.42709ZM4.06517 16.0961C5.00497 12.8065 7.14834 10.0426 10.1004 8.31359L13.8699 6.1058L15.5453 8.18486C16.6259 9.52569 17.4845 11.5203 18.0282 13.9531C18.0851 14.2077 18.311 14.3808 18.5614 14.3808C18.6009 14.3808 18.6411 14.3765 18.6812 14.3675C18.976 14.3016 19.1615 14.0092 19.0956 13.7145C18.5154 11.1188 17.5822 8.96935 16.3969 7.49853L16.2974 7.37516L17.8997 8.31359C20.8518 10.0426 22.9952 12.8065 23.935 16.0961L25.459 21.4308C25.022 21.4447 24.5881 21.5967 24.2229 21.8875C23.8596 22.177 23.3516 22.1773 22.987 21.8881L22.9815 21.8838C22.2165 21.2766 21.1488 21.2778 20.3848 21.8861C20.0208 22.1761 19.5122 22.1761 19.1482 21.8862C19.147 21.8851 19.1457 21.8842 19.1445 21.8831C18.3808 21.2777 17.3153 21.2778 16.5502 21.8848L16.5438 21.8899C16.1805 22.1782 15.6731 22.1782 15.3104 21.8905L15.302 21.8838C14.537 21.2767 13.4692 21.2778 12.7037 21.8874C12.3403 22.1768 11.8323 22.1771 11.4685 21.8885L11.4608 21.8824C10.6968 21.2761 9.63 21.2762 8.86602 21.883L8.85913 21.8885C8.49507 22.1775 7.98703 22.177 7.62188 21.8863C6.85795 21.2778 5.79012 21.2768 5.02373 21.885L5.0176 21.8899C4.65431 22.1782 4.14681 22.1782 3.78462 21.8907L3.77406 21.8823C3.41017 21.5935 2.97749 21.4426 2.54157 21.429L4.06517 16.0961ZM26.8994 25.1016C26.8994 26.0967 26.0898 26.9062 25.0947 26.9062H2.90552C1.91042 26.9062 1.10083 26.0967 1.10083 25.1016V23.3414L1.86017 22.7388C2.22335 22.4505 2.73085 22.4505 3.09315 22.738L3.1037 22.7464C3.86742 23.3526 4.9341 23.3525 5.69895 22.7455L5.70503 22.7405C6.06903 22.4517 6.57707 22.4522 6.94206 22.7429C7.70615 23.3516 8.77425 23.3525 9.53971 22.7446L9.5466 22.7391C9.91006 22.4506 10.4176 22.4506 10.7807 22.7388L10.7884 22.745C11.5534 23.3522 12.6214 23.3512 13.3869 22.7415C13.7503 22.4522 14.2583 22.4516 14.6215 22.7399L14.63 22.7466C15.3937 23.3525 16.4603 23.3526 17.2251 22.7455L17.2314 22.7404C17.5953 22.4516 18.1034 22.4521 18.4667 22.7415C18.4679 22.7424 18.4691 22.7433 18.4703 22.7443C19.2353 23.3511 20.3023 23.3501 21.0664 22.7415C21.4299 22.452 21.9379 22.4516 22.3024 22.7408L22.3079 22.7452C23.073 23.3523 24.1407 23.3512 24.9061 22.7416C25.2695 22.4521 25.7776 22.4517 26.1416 22.7405L26.8994 23.3421V25.1016Z" fill="#002823"/>
<path d="M8.87974 24.9713H3.21865C3.05787 24.9713 2.927 24.8405 2.927 24.6797C2.927 24.3777 2.68211 24.1328 2.38013 24.1328C2.07814 24.1328 1.83325 24.3777 1.83325 24.6797C1.83325 25.4436 2.45472 26.0651 3.21865 26.0651H8.87974C9.18172 26.0651 9.42661 25.8202 9.42661 25.5182C9.42661 25.2162 9.18178 24.9713 8.87974 24.9713Z" fill="#002823"/>
<path d="M11.518 25.1329C11.4163 25.0306 11.2752 24.9727 11.1313 24.9727C10.987 24.9727 10.8464 25.0306 10.7447 25.1329C10.6424 25.2346 10.5845 25.3752 10.5845 25.5195C10.5845 25.6634 10.6424 25.8045 10.7447 25.9062C10.8464 26.0078 10.987 26.0664 11.1313 26.0664C11.2752 26.0664 11.4163 26.0079 11.518 25.9062C11.6197 25.8039 11.6782 25.6634 11.6782 25.5195C11.6782 25.3757 11.6197 25.2346 11.518 25.1329Z" fill="#002823"/>
</svg>
