<svg width="28" height="28" viewBox="0 0 28 28" fill="none" xmlns="http://www.w3.org/2000/svg">
<path d="M24.5 13.5625H27.5625V13.125C27.5625 11.4362 26.1883 10.0625 24.5 10.0625H23.5795C24.164 9.22381 24.5 8.35231 24.5 7.4375V6.5625V5.25C24.5 2.59656 22.3409 0.4375 19.6875 0.4375H19.25V2.625C19.25 5.131 21.1759 7.19337 23.625 7.41519V7.4375C23.625 9.20719 22.0141 10.8784 19.6875 12.4902V11.8125C19.6875 9.15906 17.5284 7 14.875 7H14.4375V9.1875C14.4375 11.2801 15.8143 13.1001 17.7257 13.7458C16.2833 14.6103 14.6978 15.4595 13.1132 16.2999C13.0397 15.134 12.5772 13.9812 11.8856 12.8717C12.3865 12.2111 12.6875 11.3907 12.6875 10.5V10.0625C12.6875 7.18463 10.7765 4.907 7.161 3.47594C4.50625 2.42506 1.89612 2.198 1.75 2.1875H0.4375V3.5C0.4375 10.8596 3.15656 14.4375 8.75 14.4375C9.70594 14.4375 10.5827 14.0945 11.2656 13.5262C11.872 14.5482 12.25 15.5925 12.25 16.625V16.7576C9.65781 18.1322 7.15969 19.4757 5.25 20.8731V20.5625C5.25 18.8742 3.87581 17.5 2.1875 17.5H1.75V19.6875C1.75 20.8526 2.42988 21.8964 3.43525 22.4101C2.38 23.4859 1.75 24.6085 1.75 25.8125H2.625C2.625 24.0446 4.51194 22.3313 7.12381 20.6592C7.79975 24.5818 11.2669 27.5625 15.3125 27.5625H19.25V27.125C19.25 22.5413 15.5212 18.8125 10.9375 18.8125H10.2747C11.1886 18.3102 12.1297 17.8115 13.0651 17.3158C13.8521 16.8989 14.6423 16.4797 15.4206 16.0571C15.9832 19.1218 18.6992 21.4375 21.875 21.4375H26.6875V21C26.6875 17.3814 23.7436 14.4375 20.125 14.4375H18.2687C19.6 13.6329 20.8154 12.8078 21.8133 11.9516C22.3405 12.9216 23.3656 13.5625 24.5 13.5625ZM20.125 2.625V1.33656C22.0911 1.55488 23.625 3.22656 23.625 5.25V6.53844C21.6589 6.32012 20.125 4.64844 20.125 2.625ZM8.75 13.5625C3.67588 13.5625 1.3125 10.3648 1.3125 3.5V3.06163L1.71369 3.06119C1.81431 3.0695 11.8125 3.97294 11.8125 10.0625V10.5C11.8125 11.0841 11.6449 11.6287 11.3601 12.0938C10.8067 11.333 10.1609 10.5963 9.47406 9.89494L9.62456 7.02275L8.75044 6.97725L8.64019 9.07725C7.94763 8.42187 7.23887 7.80325 6.5625 7.23188V5.25H5.6875V6.50037C5.58862 6.41856 5.49106 6.33763 5.39525 6.25844C4.55831 5.56544 3.83556 4.96694 3.37181 4.50362L2.75319 5.12225C3.24581 5.61488 3.98344 6.22519 4.83744 6.93262C4.86456 6.95494 4.89213 6.97812 4.91925 7.00044H2.625V7.87544H5.96838C6.61281 8.41925 7.28788 9.00637 7.94719 9.62544H3.9375V10.5004H8.84363C9.56244 11.2324 10.2314 11.9989 10.7835 12.7842C10.2419 13.2663 9.5305 13.5625 8.75 13.5625ZM22.8721 10.9375H24.5C25.5566 10.9375 26.4403 11.6904 26.6433 12.6875H24.5C23.6132 12.6875 22.8204 12.1406 22.4853 11.3365C22.6201 11.2044 22.7487 11.0714 22.8721 10.9375ZM15.3125 9.1875V7.89906C17.2786 8.11738 18.8125 9.78906 18.8125 11.8125V13.0725C18.8007 13.0799 18.7889 13.0878 18.7771 13.0952C16.8232 12.8599 15.3125 11.1716 15.3125 9.1875ZM2.625 19.6875V18.4192C3.62206 18.6226 4.375 19.5059 4.375 20.5625V21.5512C4.29187 21.6199 4.21269 21.6895 4.13263 21.7586C3.24975 21.4677 2.625 20.6325 2.625 19.6875ZM10.9375 19.6875C14.8916 19.6875 18.1348 22.7894 18.3623 26.6875H15.3125C11.7482 26.6875 8.68612 24.1019 8.015 20.6727C8.65812 21.4248 9.54887 22.0071 10.5547 22.5343L11.4061 24.6623L12.2185 24.3377L11.7307 23.1179C11.8996 23.198 12.0676 23.2776 12.2386 23.3581C12.5427 23.5007 12.8485 23.646 13.1534 23.793L13.5756 25.4809L14.4239 25.2691L14.1859 24.3162C15.1327 24.8229 16.0261 25.3951 16.7528 26.1218L17.3714 25.5032C16.5813 24.7131 15.6389 24.1041 14.6484 23.5712L15.5076 23.1416L15.1161 22.3589L13.6802 23.0764C13.3236 22.9022 12.9658 22.7329 12.6096 22.5658C12.3751 22.4556 12.1424 22.3462 11.9131 22.2368L13.3494 21.3754L12.8993 20.6251L10.9865 21.7726C9.93038 21.2205 9.023 20.6176 8.46912 19.8354C8.55313 19.7859 8.63713 19.7369 8.722 19.6875H10.9375ZM25.7959 20.5625H21.875C19.1319 20.5625 16.7864 18.5697 16.2877 15.9281C17.2721 16.7051 18.5255 17.1714 19.8441 17.6575C21.4069 18.2337 23.0239 18.83 24.1907 19.9968L24.8093 19.3782C23.5064 18.0753 21.7984 17.4458 20.1469 16.8368C18.942 16.3927 17.7971 15.9648 16.9264 15.3125H20.125C23.114 15.3125 25.5714 17.6299 25.7959 20.5625Z" fill="black"/>
</svg>
