<svg width="28" height="28" viewBox="0 0 28 28" fill="none" xmlns="http://www.w3.org/2000/svg">
<g clip-path="url(#clip0)">
<path d="M27.7023 11.3779L14.4298 1.66005C14.1739 1.47269 13.8262 1.47269 13.5704 1.66005L0.297805 11.3779C-0.0263824 11.6153 -0.09682 12.0705 0.140578 12.3947C0.377977 12.7188 0.83325 12.7892 1.15738 12.5519L14 3.1487L26.8427 12.5518C26.9722 12.6467 27.1227 12.6924 27.2719 12.6924C27.4959 12.6924 27.7169 12.5893 27.8594 12.3946C28.0969 12.0705 28.0264 11.6153 27.7023 11.3779Z" fill="black"/>
<path d="M23.458 25.5263H23.958V25.0263V13.4463C23.958 13.3206 24.0599 13.2188 24.1855 13.2188C24.3111 13.2188 24.413 13.3206 24.4131 13.4463C24.4131 13.4463 24.4131 13.4464 24.4131 13.4464V25.7539C24.4131 25.8795 24.3112 25.9814 24.1856 25.9814H16.9105C16.7918 25.9814 16.6934 25.8895 16.6844 25.7719L16.6846 25.7718L16.6832 25.7581L16.6832 25.758C16.6831 25.7577 16.683 25.7567 16.683 25.7539V18.7052C16.683 17.2255 15.48 16.0224 14.0002 16.0224C12.5205 16.0224 11.3174 17.2255 11.3174 18.7052V25.7539C11.3174 25.7572 11.3173 25.7587 11.3172 25.7594L11.3171 25.7594L11.3161 25.7721C11.307 25.8896 11.2086 25.9814 11.0899 25.9814H3.81491C3.68929 25.9814 3.5874 25.8795 3.5874 25.7539V13.4463C3.5874 13.3207 3.68929 13.2188 3.81491 13.2188C3.94053 13.2188 4.04242 13.3207 4.04242 13.4463V25.0263V25.5263H4.54242H10.3624H10.8624V25.0263V18.7052C10.8624 16.9755 12.2706 15.5674 14.0002 15.5674C15.7299 15.5674 17.1381 16.9754 17.1381 18.7052V25.0263V25.5263H17.6381H23.458Z" fill="black" stroke="black"/>
</g>
<defs>
<clipPath id="clip0">
<rect width="28" height="28" fill="white"/>
</clipPath>
</defs>
</svg>
