<svg width="32" height="32" viewBox="0 0 28 28" fill="none" xmlns="http://www.w3.org/2000/svg">
<path d="M17.5 20.5625C17.384 20.5625 17.2727 20.6086 17.1906 20.6906C17.1086 20.7727 17.0625 20.884 17.0625 21C17.0625 21.116 17.1086 21.2273 17.1906 21.3094C17.2727 21.3914 17.384 21.4375 17.5 21.4375H19.25C19.366 21.4375 19.4773 21.3914 19.5594 21.3094C19.6414 21.2273 19.6875 21.116 19.6875 21C19.6875 20.884 19.6414 20.7727 19.5594 20.6906C19.4773 20.6086 19.366 20.5625 19.25 20.5625H17.5Z" fill="#002823"/>
<path d="M25.8273 18.5106C25.7298 18.5734 25.6613 18.6723 25.6367 18.7856C25.6121 18.8988 25.6334 19.0173 25.696 19.1148C26.1666 19.8909 26.3173 20.8194 26.1163 21.7045C25.9153 22.5895 25.3784 23.3619 24.6188 23.8586C23.8592 24.3554 22.9364 24.5376 22.045 24.3669C21.1536 24.1963 20.3633 23.686 19.841 22.9438C19.8009 22.884 19.7466 22.835 19.6831 22.8012C19.6195 22.7674 19.5486 22.7498 19.4765 22.75H17.2965L16.5527 21.6322C16.5104 21.5756 16.4555 21.5297 16.3923 21.498C16.3291 21.4664 16.2594 21.4499 16.1887 21.4499C16.1181 21.4499 16.0484 21.4664 15.9852 21.498C15.922 21.5297 15.8671 21.5756 15.8247 21.6322L15.3124 22.4L14.8014 21.6335C14.7591 21.5769 14.7042 21.531 14.641 21.4993C14.5778 21.4677 14.5081 21.4512 14.4374 21.4512C14.3668 21.4512 14.2971 21.4677 14.2339 21.4993C14.1707 21.531 14.1157 21.5769 14.0734 21.6335L13.5624 22.4L13.0514 21.6335C13.0091 21.5769 12.9542 21.531 12.891 21.4993C12.8278 21.4677 12.7581 21.4512 12.6874 21.4512C12.6168 21.4512 12.5471 21.4677 12.4839 21.4993C12.4207 21.531 12.3657 21.5769 12.3234 21.6335L11.7805 22.4486L10.6229 21L12.0229 19.25H19.4765C19.5484 19.25 19.6192 19.2323 19.6826 19.1984C19.746 19.1645 19.8001 19.1155 19.8401 19.0557C20.1596 18.577 20.5924 18.1845 21.1 17.9131C21.6076 17.6417 22.1743 17.4998 22.7499 17.5C22.8435 17.5 22.9359 17.5074 23.0277 17.5144C23.1434 17.5235 23.258 17.4863 23.3462 17.411C23.4345 17.3356 23.4892 17.2283 23.4983 17.1126C23.5074 16.9969 23.4702 16.8823 23.3948 16.7941C23.3194 16.7059 23.2121 16.6512 23.0964 16.6421C22.9818 16.6333 22.8667 16.625 22.7499 16.625C22.0706 16.6245 21.4006 16.7825 20.793 17.0862C20.1855 17.39 19.6571 17.8313 19.2499 18.375H11.8124C11.7468 18.375 11.682 18.3897 11.6229 18.4181C11.5637 18.4465 11.5117 18.4878 11.4707 18.5391L9.72073 20.7266C9.65861 20.8042 9.62476 20.9006 9.62476 21C9.62476 21.0994 9.65861 21.1958 9.72073 21.2734L11.4707 23.4609C11.5137 23.5147 11.5688 23.5575 11.6314 23.586C11.6941 23.6144 11.7626 23.6277 11.8314 23.6247C11.9001 23.6218 11.9672 23.6026 12.0271 23.5688C12.0871 23.535 12.1382 23.4876 12.1764 23.4303L12.6874 22.6625L13.1984 23.429C13.2407 23.4856 13.2957 23.5315 13.3589 23.5632C13.4221 23.5948 13.4918 23.6113 13.5624 23.6113C13.6331 23.6113 13.7028 23.5948 13.766 23.5632C13.8292 23.5315 13.8841 23.4856 13.9264 23.429L14.4374 22.6625L14.9484 23.429C14.9907 23.4856 15.0457 23.5315 15.1089 23.5632C15.1721 23.5948 15.2418 23.6113 15.3124 23.6113C15.3831 23.6113 15.4528 23.5948 15.516 23.5632C15.5792 23.5315 15.6341 23.4856 15.6764 23.429L16.1874 22.6625L16.6984 23.429C16.7382 23.4891 16.7923 23.5385 16.8558 23.5727C16.9193 23.6069 16.9903 23.6249 17.0624 23.625H19.2499C19.9328 24.5207 20.9349 25.1185 22.0475 25.2939C23.16 25.4694 24.2974 25.209 25.2229 24.5669C26.1483 23.9249 26.7904 22.9507 27.0157 21.8471C27.2409 20.7435 27.0318 19.5956 26.4319 18.6423C26.4009 18.594 26.3606 18.5522 26.3134 18.5194C26.2662 18.4866 26.213 18.4635 26.1569 18.4512C26.1007 18.439 26.0427 18.4379 25.9862 18.4481C25.9296 18.4583 25.8756 18.4796 25.8273 18.5106Z" fill="#002823"/>
<path d="M19.25 24.9375C19.134 24.9375 19.0227 24.9836 18.9406 25.0656C18.8586 25.1477 18.8125 25.259 18.8125 25.375V26.25H12.25V24.9375C12.25 24.8215 12.2039 24.7102 12.1219 24.6281C12.0398 24.5461 11.9285 24.5 11.8125 24.5C11.6965 24.5 11.5852 24.5461 11.5031 24.6281C11.4211 24.7102 11.375 24.8215 11.375 24.9375V26.25H5.25V18.375H10.5C10.616 18.375 10.7273 18.3289 10.8094 18.2469C10.8914 18.1648 10.9375 18.0535 10.9375 17.9375C10.9375 17.8215 10.8914 17.7102 10.8094 17.6281C10.7273 17.5461 10.616 17.5 10.5 17.5H4.8125C4.69647 17.5 4.58519 17.5461 4.50314 17.6281C4.42109 17.7102 4.375 17.8215 4.375 17.9375V26.25H3.0625V16.1875C3.0625 16.0715 3.01641 15.9602 2.93436 15.8781C2.85231 15.7961 2.74103 15.75 2.625 15.75C2.50897 15.75 2.39769 15.7961 2.31564 15.8781C2.23359 15.9602 2.1875 16.0715 2.1875 16.1875V26.6875C2.1875 26.8035 2.23359 26.9148 2.31564 26.9969C2.39769 27.0789 2.50897 27.125 2.625 27.125H19.25C19.366 27.125 19.4773 27.0789 19.5594 26.9969C19.6414 26.9148 19.6875 26.8035 19.6875 26.6875V25.375C19.6875 25.259 19.6414 25.1477 19.5594 25.0656C19.4773 24.9836 19.366 24.9375 19.25 24.9375Z" fill="#002823"/>
<path d="M18.8123 14.875V16.625C18.8123 16.741 18.8584 16.8523 18.9404 16.9344C19.0225 17.0164 19.1338 17.0625 19.2498 17.0625C19.3658 17.0625 19.4771 17.0164 19.5591 16.9344C19.6412 16.8523 19.6873 16.741 19.6873 16.625V14.875H20.5623C20.633 14.875 20.7027 14.8579 20.7653 14.8252C20.828 14.7924 20.8818 14.7449 20.9221 14.6868C20.9624 14.6287 20.988 14.5617 20.9967 14.4916C21.0054 14.4214 20.997 14.3501 20.9722 14.2839L19.553 10.5H23.2612C23.7901 10.5 24.3095 10.6403 24.7663 10.9066C25.2232 11.173 25.6013 11.5558 25.8619 12.016C26.1224 12.4761 26.2563 12.9972 26.2496 13.526C26.243 14.0549 26.0961 14.5724 25.8241 15.0259L23.2428 19.3292C23.0832 19.2791 22.9171 19.2524 22.7498 19.25C22.3442 19.2487 21.9507 19.3878 21.6362 19.6439C21.3217 19.8999 21.1055 20.257 21.0245 20.6544C20.9436 21.0518 21.0027 21.465 21.192 21.8237C21.3812 22.1824 21.6889 22.4645 22.0626 22.6219C22.4364 22.7794 22.8531 22.8026 23.242 22.6875C23.6309 22.5724 23.9679 22.3261 24.1958 21.9906C24.4236 21.6551 24.5282 21.251 24.4917 20.8471C24.4553 20.4431 24.28 20.0643 23.9958 19.775L26.5744 15.4774C26.9263 14.8911 27.1163 14.2219 27.125 13.5381C27.1337 12.8543 26.9608 12.1805 26.6239 11.5854C26.287 10.9903 25.7982 10.4953 25.2074 10.1509C24.6166 9.80645 23.9451 9.62498 23.2612 9.625H19.2248L18.3472 7.28394C18.3159 7.20049 18.2599 7.12859 18.1867 7.07785C18.1134 7.0271 18.0264 6.99994 17.9373 7H9.18729V6.125H9.62479C9.74082 6.125 9.8521 6.07891 9.93414 5.99686C10.0162 5.91481 10.0623 5.80353 10.0623 5.6875V3.9375C10.0623 3.82147 10.0162 3.71019 9.93414 3.62814C9.8521 3.54609 9.74082 3.5 9.62479 3.5H5.24978C5.13375 3.5 5.02247 3.54609 4.94043 3.62814C4.85838 3.71019 4.81228 3.82147 4.81228 3.9375V5.6875C4.81228 5.80353 4.85838 5.91481 4.94043 5.99686C5.02247 6.07891 5.13375 6.125 5.24978 6.125H5.68728V7H3.93729C3.84817 6.99994 3.76116 7.0271 3.6879 7.07785C3.61464 7.12859 3.55863 7.20049 3.52735 7.28394L0.902348 14.2839C0.877528 14.3501 0.869127 14.4214 0.877864 14.4916C0.886601 14.5617 0.912216 14.6287 0.952514 14.6868C0.992812 14.7449 1.04659 14.7924 1.10925 14.8252C1.17191 14.8579 1.24158 14.875 1.31229 14.875H18.8123ZM23.6248 21C23.6248 21.1731 23.5735 21.3422 23.4773 21.4861C23.3812 21.63 23.2445 21.7422 23.0846 21.8084C22.9247 21.8746 22.7488 21.8919 22.5791 21.8582C22.4093 21.8244 22.2534 21.7411 22.1311 21.6187C22.0087 21.4963 21.9254 21.3404 21.8916 21.1707C21.8578 21.001 21.8752 20.825 21.9414 20.6652C22.0076 20.5053 22.1198 20.3686 22.2637 20.2725C22.4076 20.1763 22.5767 20.125 22.7498 20.125C22.7546 20.125 22.759 20.125 22.7638 20.125L22.3748 20.7734C22.344 20.8226 22.3233 20.8776 22.3139 20.9349C22.3046 20.9923 22.3067 21.0509 22.3203 21.1074C22.3338 21.164 22.3585 21.2172 22.3928 21.2641C22.4272 21.311 22.4706 21.3505 22.5204 21.3805C22.5702 21.4104 22.6255 21.4301 22.683 21.4384C22.7405 21.4468 22.7991 21.4436 22.8554 21.429C22.9116 21.4144 22.9644 21.3888 23.0107 21.3536C23.0569 21.3184 23.0957 21.2743 23.1247 21.224L23.5123 20.5782C23.5854 20.7069 23.6241 20.8521 23.6248 21ZM6.82828 7.875H8.8701L8.34772 14H5.3666L6.82828 7.875ZM19.931 14H17.4075L15.9458 7.875H17.6341L19.931 14ZM16.508 14H13.5268L13.0045 7.875H15.0463L16.508 14ZM12.1264 7.875L12.6483 14H9.22622L9.74816 7.875H12.1264ZM5.68728 4.375H9.18729V5.25H5.68728V4.375ZM8.31229 6.125V7H6.56228V6.125H8.31229ZM4.24047 7.875H5.92878L4.4671 14H1.9436L4.24047 7.875Z" fill="#002823"/>
<path d="M6.125 20.5625V21.4375C6.125 21.5535 6.17109 21.6648 6.25314 21.7469C6.33519 21.8289 6.44647 21.875 6.5625 21.875C6.67853 21.875 6.78981 21.8289 6.87186 21.7469C6.95391 21.6648 7 21.5535 7 21.4375V20.5625C7 20.4465 6.95391 20.3352 6.87186 20.2531C6.78981 20.1711 6.67853 20.125 6.5625 20.125C6.44647 20.125 6.33519 20.1711 6.25314 20.2531C6.17109 20.3352 6.125 20.4465 6.125 20.5625Z" fill="#002823"/>
</svg>
