<svg width="32" height="32" viewBox="0 0 28 28" fill="none" xmlns="http://www.w3.org/2000/svg">
<path d="M18.5619 5.43934C18.6076 5.46785 18.6437 5.50936 18.6657 5.55855C18.6876 5.60773 18.6944 5.66235 18.6851 5.7154C18.6692 5.78798 18.6343 5.85505 18.5841 5.90977C18.5338 5.96449 18.4699 6.00491 18.3989 6.0269C18.3018 6.05631 18.2202 6.12313 18.1723 6.21264C18.1244 6.30215 18.114 6.40703 18.1434 6.50421C18.1729 6.60139 18.2397 6.6829 18.3292 6.73082C18.4187 6.77873 18.5236 6.78913 18.6208 6.75971C18.8268 6.6973 19.0118 6.57979 19.1559 6.41987C19.2999 6.25995 19.3976 6.06371 19.4382 5.85234C19.4739 5.6607 19.4541 5.46287 19.3813 5.28204C19.3085 5.10122 19.1857 4.94491 19.0272 4.83143C18.9539 4.77543 18.7866 4.63215 18.8102 4.50899C18.8222 4.46856 18.8434 4.43142 18.872 4.40044C18.9006 4.36945 18.936 4.34545 18.9754 4.33027C19.0242 4.31697 19.0699 4.29411 19.1098 4.26303C19.1497 4.23195 19.1831 4.19326 19.208 4.1492C19.2329 4.10514 19.2488 4.05659 19.2548 4.00634C19.2608 3.9561 19.2568 3.90516 19.243 3.85648C19.2292 3.8078 19.2058 3.76234 19.1743 3.72273C19.1429 3.68311 19.1038 3.65014 19.0595 3.62571C19.0152 3.60127 18.9665 3.58587 18.9162 3.58038C18.8659 3.5749 18.815 3.57944 18.7664 3.59374C18.5904 3.64765 18.4319 3.74761 18.3073 3.88329C18.1828 4.01896 18.0968 4.18543 18.0581 4.36549C18.0153 4.58993 18.0251 5.02765 18.5619 5.43934Z" fill="#002823"/>
<path d="M21.0312 5.43934C21.0769 5.46781 21.1131 5.50931 21.135 5.55851C21.157 5.60771 21.1637 5.66235 21.1544 5.7154C21.1385 5.78793 21.1037 5.85496 21.0535 5.90968C21.0033 5.9644 20.9396 6.00484 20.8687 6.0269C20.7715 6.05631 20.69 6.12313 20.6421 6.21264C20.5941 6.30215 20.5838 6.40703 20.6132 6.50421C20.6426 6.60139 20.7094 6.6829 20.7989 6.73082C20.8884 6.77873 20.9933 6.78913 21.0905 6.75971C21.2964 6.69726 21.4814 6.57974 21.6255 6.41982C21.7695 6.25991 21.8671 6.06368 21.9077 5.85234C21.9435 5.66072 21.9238 5.46288 21.851 5.28205C21.7782 5.10122 21.6554 4.9449 21.4969 4.83143C21.4239 4.77543 21.2563 4.63215 21.2797 4.50899C21.2918 4.46854 21.313 4.4314 21.3416 4.40041C21.3703 4.36943 21.4057 4.34544 21.4451 4.33027C21.4939 4.31697 21.5396 4.29411 21.5795 4.26303C21.6195 4.23195 21.6528 4.19326 21.6777 4.1492C21.7026 4.10514 21.7185 4.05659 21.7245 4.00634C21.7305 3.9561 21.7265 3.90516 21.7127 3.85648C21.6989 3.8078 21.6756 3.76234 21.6441 3.72273C21.6126 3.68311 21.5735 3.65014 21.5292 3.62571C21.4849 3.60127 21.4362 3.58587 21.3859 3.58038C21.3356 3.5749 21.2847 3.57944 21.2362 3.59374C21.0601 3.64761 20.9015 3.74756 20.777 3.88324C20.6525 4.01892 20.5665 4.18542 20.5279 4.36549C20.4848 4.58993 20.4933 5.02765 21.0312 5.43934Z" fill="#002823"/>
<path d="M24.7637 11.6342H22.7361V10.8384C22.7361 10.7368 22.6958 10.6395 22.624 10.5677C22.5522 10.4959 22.4548 10.4556 22.3533 10.4556C22.345 10.4556 22.3365 10.4556 22.3336 10.4192C22.6639 10.1041 22.9265 9.72498 23.1054 9.30499C23.2843 8.88501 23.3758 8.43297 23.3742 7.97647C23.3742 7.87494 23.3339 7.77757 23.2621 7.70578C23.1903 7.63399 23.0929 7.59366 22.9914 7.59366H16.9749C16.9246 7.59363 16.8748 7.60351 16.8284 7.62274C16.7819 7.64197 16.7397 7.67016 16.7041 7.70572C16.6686 7.74127 16.6404 7.78348 16.6212 7.82994C16.6019 7.8764 16.5921 7.92619 16.5921 7.97647C16.5921 8.436 16.6845 8.89084 16.8639 9.31394C17.0432 9.73705 17.3058 10.1198 17.636 10.4394C17.6294 10.4556 17.6209 10.4556 17.6128 10.4556C17.5625 10.4555 17.5127 10.4654 17.4662 10.4846C17.4198 10.5039 17.3776 10.5321 17.342 10.5676C17.3065 10.6032 17.2783 10.6454 17.259 10.6918C17.2398 10.7383 17.2299 10.7881 17.23 10.8384V11.6342H15.5858V9.66544C15.5859 9.61516 15.576 9.56537 15.5568 9.51891C15.5375 9.47245 15.5093 9.43024 15.4738 9.39468C15.4382 9.35913 15.396 9.33093 15.3496 9.31171C15.3031 9.29248 15.2533 9.2826 15.203 9.28262H12.8652V7.87891C12.8652 7.77738 12.8249 7.68001 12.7531 7.60822C12.6813 7.53643 12.584 7.49609 12.4824 7.49609H11.7168C11.6153 7.49609 11.5179 7.53643 11.4461 7.60822C11.3743 7.68001 11.334 7.77738 11.334 7.87891C11.334 7.98043 11.3743 8.0778 11.4461 8.1496C11.5179 8.22139 11.6153 8.26172 11.7168 8.26172H12.0996V9.28262H9.60302V7.87891C9.60302 7.77738 9.56269 7.68001 9.4909 7.60822C9.41911 7.53643 9.32174 7.49609 9.22021 7.49609C9.11868 7.49609 9.02131 7.53643 8.94952 7.60822C8.87773 7.68001 8.8374 7.77738 8.8374 7.87891V9.28262H6.33927V8.26172H6.72208C6.82361 8.26172 6.92098 8.22139 6.99277 8.1496C7.06457 8.0778 7.1049 7.98043 7.1049 7.87891C7.1049 7.77738 7.06457 7.68001 6.99277 7.60822C6.92098 7.53643 6.82361 7.49609 6.72208 7.49609H5.95646C5.85495 7.49615 5.75761 7.5365 5.68583 7.60828C5.61405 7.68006 5.5737 7.7774 5.57365 7.87891V9.28262H3.23608C3.1858 9.2826 3.13601 9.29248 3.08955 9.31171C3.0431 9.33093 3.00088 9.35913 2.96533 9.39468C2.92978 9.43024 2.90158 9.47245 2.88235 9.51891C2.86312 9.56537 2.85324 9.61516 2.85327 9.66544V22.6264C2.85327 22.7279 2.8936 22.8253 2.96539 22.8971C3.03719 22.9689 3.13456 23.0092 3.23608 23.0092H3.58193V24.0386C3.58193 24.1402 3.62226 24.2375 3.69405 24.3093C3.76584 24.3811 3.86321 24.4214 3.96474 24.4214H24.0351C24.1366 24.4214 24.2339 24.3811 24.3057 24.3093C24.3775 24.2375 24.4179 24.1402 24.4179 24.0386V23.0092H24.7637C24.8652 23.0092 24.9626 22.9689 25.0344 22.8971C25.1062 22.8253 25.1465 22.7279 25.1465 22.6264V12.017C25.1466 11.9667 25.1367 11.9169 25.1174 11.8705C25.0982 11.824 25.07 11.7818 25.0345 11.7462C24.9989 11.7107 24.9567 11.6825 24.9102 11.6633C24.8638 11.644 24.814 11.6342 24.7637 11.6342ZM24.3809 16.9389H15.5858V12.3998H24.3809V16.9389ZM24.0351 22.2436H15.5858V17.7045H24.3809V22.2436H24.0351ZM3.6189 22.2436V12.3998H14.8202V22.2436H3.6189ZM18.1638 9.86713C17.7431 9.46572 17.4692 8.93478 17.3859 8.35928H22.5812C22.4978 8.93483 22.2238 9.46577 21.8029 9.86713C21.6899 9.97526 21.612 10.1149 21.5793 10.2679C21.5467 10.4209 21.5608 10.5802 21.6198 10.7251C21.6872 10.8941 21.8108 11.0346 21.9698 11.123V11.6342H17.9965V11.123C18.1555 11.0346 18.2791 10.894 18.3465 10.7251C18.4056 10.5802 18.4198 10.421 18.3872 10.268C18.3546 10.115 18.2768 9.97531 18.1638 9.86713ZM3.6189 10.0482H14.8202V11.6342H3.6189V10.0482ZM4.34755 23.6558V23.0092H23.6522V23.6558H4.34755Z" fill="#002823"/>
<path d="M19.9836 15.543C20.3461 15.5426 20.6936 15.3984 20.9499 15.1421C21.2063 14.8858 21.3504 14.5383 21.3508 14.1758C21.3508 14.0743 21.3105 13.9769 21.2387 13.9051C21.1669 13.8333 21.0695 13.793 20.968 13.793H18.9993C18.949 13.7929 18.8992 13.8028 18.8527 13.8221C18.8063 13.8413 18.7641 13.8695 18.7285 13.905C18.693 13.9406 18.6648 13.9828 18.6455 14.0293C18.6263 14.0757 18.6164 14.1255 18.6165 14.1758C18.6169 14.5383 18.761 14.8858 19.0173 15.1421C19.2737 15.3984 19.6212 15.5426 19.9836 15.543ZM20.4474 14.5586C20.391 14.627 20.3202 14.6821 20.24 14.7199C20.1598 14.7578 20.0722 14.7774 19.9835 14.7774C19.8949 14.7774 19.8073 14.7578 19.7271 14.7199C19.6469 14.6821 19.5761 14.627 19.5197 14.5586H20.4474Z" fill="#002823"/>
<path d="M20.968 19.0977H18.9993C18.949 19.0976 18.8992 19.1075 18.8527 19.1267C18.8063 19.146 18.7641 19.1742 18.7285 19.2097C18.693 19.2453 18.6648 19.2875 18.6455 19.3339C18.6263 19.3804 18.6164 19.4302 18.6165 19.4805C18.6165 19.8431 18.7605 20.1908 19.0169 20.4472C19.2733 20.7036 19.621 20.8477 19.9836 20.8477C20.3462 20.8477 20.694 20.7036 20.9504 20.4472C21.2068 20.1908 21.3508 19.8431 21.3508 19.4805C21.3508 19.3789 21.3105 19.2816 21.2387 19.2098C21.1669 19.138 21.0695 19.0977 20.968 19.0977ZM19.9836 20.082C19.895 20.0821 19.8074 20.0624 19.7272 20.0246C19.6469 19.9868 19.5761 19.9317 19.5197 19.8633H20.4474C20.391 19.9317 20.3202 19.9868 20.24 20.0246C20.1598 20.0624 20.0723 20.082 19.9836 20.082Z" fill="#002823"/>
<path d="M6.53295 14.1055C6.27866 14.1057 6.03484 14.2068 5.85501 14.3866C5.67518 14.5664 5.57402 14.8102 5.57373 15.0645V19.399C5.57373 19.6534 5.67479 19.8974 5.85468 20.0773C6.03457 20.2572 6.27855 20.3582 6.53295 20.3582C6.78735 20.3582 7.03133 20.2572 7.21122 20.0773C7.39111 19.8974 7.49217 19.6534 7.49217 19.399V15.0645C7.49188 14.8102 7.39072 14.5664 7.21089 14.3866C7.03105 14.2068 6.78724 14.1057 6.53295 14.1055ZM6.72654 19.3992C6.72654 19.4506 6.70615 19.4998 6.66984 19.5361C6.63353 19.5724 6.58429 19.5928 6.53295 19.5928C6.4816 19.5928 6.43236 19.5724 6.39606 19.5361C6.35975 19.4998 6.33936 19.4506 6.33936 19.3992V15.0645C6.33936 15.0131 6.35975 14.9639 6.39606 14.9276C6.43236 14.8913 6.4816 14.8709 6.53295 14.8709C6.58429 14.8709 6.63353 14.8913 6.66984 14.9276C6.70615 14.9639 6.72654 15.0131 6.72654 15.0645V19.3992Z" fill="#002823"/>
<path d="M9.21925 14.1055C8.965 14.1058 8.72124 14.2069 8.54146 14.3867C8.36167 14.5665 8.26054 14.8102 8.26025 15.0645V19.399C8.26025 19.6534 8.36131 19.8974 8.5412 20.0773C8.72109 20.2572 8.96507 20.3582 9.21947 20.3582C9.47387 20.3582 9.71785 20.2572 9.89774 20.0773C10.0776 19.8974 10.1787 19.6534 10.1787 19.399V15.0645C10.1783 14.8102 10.0771 14.5664 9.89727 14.3866C9.7174 14.2068 9.47357 14.1057 9.21925 14.1055ZM9.41307 19.3992C9.41307 19.4506 9.39267 19.4998 9.35636 19.5361C9.32006 19.5724 9.27082 19.5928 9.21947 19.5928C9.16817 19.5928 9.11898 19.5723 9.08272 19.536C9.04646 19.4997 9.0261 19.4505 9.0261 19.3992V15.0645C9.0261 15.0131 9.04649 14.9639 9.0828 14.9276C9.11911 14.8913 9.16835 14.8709 9.21969 14.8709C9.27104 14.8709 9.32028 14.8913 9.35658 14.9276C9.39289 14.9639 9.41329 15.0131 9.41329 15.0645L9.41307 19.3992Z" fill="#002823"/>
<path d="M11.9064 14.1055C11.6521 14.1057 11.4082 14.2068 11.2284 14.3866C11.0486 14.5664 10.9474 14.8102 10.9471 15.0645V19.399C10.9452 19.5262 10.9686 19.6525 11.0159 19.7705C11.0633 19.8886 11.1336 19.996 11.2229 20.0866C11.3121 20.1772 11.4185 20.2492 11.5358 20.2983C11.6531 20.3474 11.7791 20.3727 11.9062 20.3727C12.0334 20.3727 12.1593 20.3474 12.2767 20.2983C12.394 20.2492 12.5004 20.1772 12.5896 20.0866C12.6789 19.996 12.7492 19.8886 12.7965 19.7705C12.8439 19.6525 12.8673 19.5262 12.8654 19.399V15.0645C12.8651 14.8102 12.764 14.5664 12.5842 14.3866C12.4044 14.2068 12.1606 14.1057 11.9064 14.1055ZM12.0997 19.3992C12.1006 19.4252 12.0962 19.451 12.0869 19.4753C12.0776 19.4995 12.0635 19.5216 12.0454 19.5403C12.0274 19.559 12.0057 19.5738 11.9818 19.584C11.9579 19.5941 11.9322 19.5993 11.9062 19.5993C11.8803 19.5993 11.8546 19.5941 11.8307 19.584C11.8067 19.5738 11.7851 19.559 11.7671 19.5403C11.749 19.5216 11.7349 19.4995 11.7256 19.4753C11.7162 19.451 11.7119 19.4252 11.7128 19.3992V15.0645C11.7144 15.0143 11.7356 14.9667 11.7717 14.9318C11.8078 14.8969 11.856 14.8774 11.9062 14.8774C11.9565 14.8774 12.0047 14.8969 12.0408 14.9318C12.0769 14.9667 12.098 15.0143 12.0997 15.0645V19.3992Z" fill="#002823"/>
</svg>
