<svg width="28" height="28" viewBox="0 0 28 28" fill="none" xmlns="http://www.w3.org/2000/svg">
<g clip-path="url(#clip0)">
<path d="M9.18607 19.1649C10.3392 20.7907 11.4905 22.2449 12.2535 23.1814C12.3646 23.3177 12.4686 23.4442 12.5694 23.566H10.2669C10.0092 23.566 9.80027 23.7749 9.80027 24.0326C9.80027 24.2903 10.0092 24.4993 10.2669 24.4993H17.7335C17.9913 24.4993 18.2002 24.2903 18.2002 24.0326C18.2002 23.7749 17.9913 23.566 17.7335 23.566H15.431C15.5318 23.4442 15.6359 23.3177 15.7475 23.1814C16.51 22.2481 17.6608 20.7907 18.8144 19.1649C19.959 17.5841 20.9892 15.9237 21.8972 14.1963C22.8501 12.3249 23.3336 10.7714 23.3336 9.57859C23.3368 7.10009 22.3533 4.72226 20.6003 2.97007C20.4832 2.84866 20.3098 2.79988 20.1466 2.84248C19.9834 2.88508 19.8559 3.0124 19.813 3.17553C19.7702 3.33866 19.8187 3.51219 19.94 3.62944C21.5178 5.20685 22.4031 7.34738 22.4003 9.57853C22.4003 10.623 21.9513 12.0341 21.0656 13.7725C20.1781 15.4599 19.1712 17.0818 18.0528 18.6259C16.9151 20.2307 15.7778 21.6685 15.0242 22.5925C14.7736 22.8996 14.5482 23.1712 14.3559 23.4008C14.2661 23.5033 14.1365 23.562 14.0003 23.562C13.8641 23.562 13.7345 23.5032 13.6447 23.4008C13.4524 23.1712 13.2271 22.8996 12.9764 22.5925C12.2228 21.669 11.0855 20.2312 9.94776 18.6259C8.82935 17.0818 7.82249 15.4599 6.93496 13.7725C6.04831 12.0341 5.60031 10.623 5.60031 9.57853C5.60004 6.19834 7.62151 3.14578 10.7337 1.82671C12.8248 0.94985 15.1806 0.94985 17.2717 1.82671C17.4253 1.89179 17.6019 1.87008 17.735 1.76962C17.8682 1.66921 17.9376 1.50537 17.9172 1.33983C17.8968 1.17429 17.7897 1.03221 17.6361 0.967132C12.8839 -1.03728 7.40648 1.18927 5.40059 5.94087C4.91414 7.09183 4.66466 8.32903 4.66701 9.57853C4.66701 10.7713 5.1505 12.3249 6.10344 14.1986C7.01136 15.9252 8.04162 17.5849 9.18607 19.1649Z" fill="black"/>
<path d="M14.0002 5.36689C14.258 5.36689 14.4669 5.15799 14.4669 4.90024C14.4669 4.6425 14.258 4.43359 14.0002 4.43359C11.7739 4.43354 9.85754 6.00625 9.42315 8.18982C8.98877 10.3734 10.1574 12.5597 12.2143 13.4117C14.2711 14.2638 16.6434 13.5441 17.8803 11.693C19.1173 9.84188 18.8743 7.37475 17.3 5.80046C17.1828 5.67916 17.0094 5.63049 16.8462 5.6732C16.6831 5.71591 16.5556 5.84333 16.5129 6.00647C16.4702 6.16966 16.5189 6.34312 16.6402 6.46032C17.8996 7.71972 18.0941 9.69335 17.1046 11.1743C16.1151 12.6552 14.2173 13.231 12.5718 12.5495C10.9263 11.868 9.99136 10.1189 10.3387 8.37204C10.6861 6.62515 12.2192 5.36695 14.0002 5.36689Z" fill="black"/>
<path d="M27.8243 25.6986L24.9543 20.5652C24.6948 20.1091 24.2092 19.8288 23.6845 19.8321H20.3586C20.1008 19.8321 19.8919 20.041 19.8919 20.2987C19.8919 20.5565 20.1008 20.7654 20.3586 20.7654H23.6845C23.8713 20.7618 24.0456 20.8592 24.1404 21.0202L27.0095 26.1535C27.0877 26.2871 27.086 26.4527 27.0053 26.5847C26.91 26.7422 26.7376 26.8366 26.5536 26.8321H1.44685C1.26299 26.8365 1.09084 26.7421 0.99557 26.5847C0.914851 26.4527 0.913265 26.2871 0.991359 26.1535L3.86044 21.0202C3.9551 20.8592 4.12923 20.7618 4.31588 20.7654H7.64182C7.89956 20.7654 8.10847 20.5565 8.10847 20.2987C8.10847 20.041 7.89956 19.8321 7.64182 19.8321H4.31593C3.79093 19.8286 3.30498 20.1089 3.04521 20.5652L0.175638 25.6986C-0.0636204 26.1212 -0.058097 26.6396 0.19013 27.0571C0.451647 27.5016 0.931203 27.7719 1.44685 27.7655H26.5536C27.0691 27.7717 27.5485 27.5015 27.8099 27.0571C28.0581 26.6396 28.0636 26.1212 27.8243 25.6986Z" fill="black"/>
<path d="M22.867 22.1641H21.0003C20.9082 22.1642 20.8181 22.1915 20.7413 22.2425L19.3413 23.1758C19.1269 23.3189 19.069 23.6087 19.212 23.8231C19.3551 24.0376 19.6449 24.0954 19.8593 23.9524L21.1403 23.0975H22.867C23.1247 23.0975 23.3336 22.8885 23.3336 22.6308C23.3336 22.373 23.1247 22.1641 22.867 22.1641Z" fill="black"/>
<path d="M20.0669 25.4315C20.0669 25.6892 20.2758 25.8981 20.5335 25.8981H24.2669C24.5247 25.8981 24.7336 25.6892 24.7336 25.4315C24.7336 25.1738 24.5247 24.9648 24.2669 24.9648H20.5335C20.2758 24.9648 20.0669 25.1738 20.0669 25.4315Z" fill="black"/>
<path d="M8.40006 24.0308C8.6058 24.0311 8.78741 23.8965 8.84719 23.6996C8.90696 23.5028 8.83073 23.29 8.65955 23.1758L7.25955 22.2425C7.18266 22.1914 7.09237 22.1641 7.00006 22.1641H5.1334C4.87566 22.1641 4.66675 22.373 4.66675 22.6307C4.66675 22.8885 4.87571 23.0974 5.1334 23.0974H6.86005L8.14248 23.9523C8.21877 24.0033 8.3084 24.0306 8.40006 24.0308Z" fill="black"/>
<path d="M3.7335 24.9648C3.47575 24.9648 3.26685 25.1738 3.26685 25.4315C3.26685 25.6892 3.47575 25.8981 3.7335 25.8981H7.46686C7.72461 25.8981 7.93351 25.6892 7.93351 25.4315C7.93351 25.1738 7.72461 24.9648 7.46686 24.9648H3.7335Z" fill="black"/>
</g>
<defs>
<clipPath id="clip0">
<rect width="28" height="28" fill="white"/>
</clipPath>
</defs>
</svg>
