<svg width="28" height="28" viewBox="0 0 28 28" fill="none" xmlns="http://www.w3.org/2000/svg">
<g clip-path="url(#clip0)">
<path d="M24.5818 3.34766H3.42396C1.53528 3.34766 0 4.88293 0 6.77162V21.2322C0 23.1209 1.53528 24.6562 3.42396 24.6562H24.576C26.4647 24.6562 28 23.1209 28 21.2322V6.77741C28.0058 4.88873 26.4705 3.34766 24.5818 3.34766ZM26.4415 21.2322C26.4415 22.2577 25.6073 23.0919 24.5818 23.0919H3.42396C2.39851 23.0919 1.56425 22.2577 1.56425 21.2322V6.77741C1.56425 5.75196 2.39851 4.9177 3.42396 4.9177H24.576C25.6015 4.9177 26.4358 5.75196 26.4358 6.77741V21.2322H26.4415Z" fill="black"/>
<path d="M17.6586 13.8236L24.5065 7.68253C24.8251 7.39285 24.8541 6.9004 24.5644 6.57597C24.2747 6.25732 23.7823 6.22836 23.4579 6.51803L14.0144 14.9939L12.1721 13.3486C12.1663 13.3428 12.1605 13.337 12.1605 13.3312C12.12 13.2906 12.0794 13.2559 12.0331 13.2211L4.53628 6.51224C4.21184 6.22256 3.71939 6.25153 3.42972 6.57597C3.14004 6.9004 3.16901 7.39285 3.49345 7.68253L10.4225 13.8758L3.52241 20.3355C3.20957 20.631 3.19218 21.1235 3.48765 21.4421C3.64408 21.6043 3.85264 21.6912 4.06121 21.6912C4.2524 21.6912 4.44358 21.6217 4.59421 21.4826L11.5986 14.9302L13.4988 16.6277C13.6495 16.7609 13.8348 16.8247 14.0202 16.8247C14.2056 16.8247 14.3968 16.7552 14.5417 16.6219L16.4941 14.8723L23.4579 21.4884C23.6085 21.6333 23.8055 21.7028 23.9967 21.7028C24.2052 21.7028 24.408 21.6217 24.5644 21.4595C24.8599 21.1466 24.8483 20.6484 24.5354 20.3529L17.6586 13.8236Z" fill="black"/>
</g>
<defs>
<clipPath id="clip0">
<rect width="28" height="28" fill="white"/>
</clipPath>
</defs>
</svg>
