<svg width="32" height="32" viewBox="0 0 28 28" fill="none" xmlns="http://www.w3.org/2000/svg">
<g clip-path="url(#clip0)">
<path d="M17.7339 18.1422C16.9607 18.1422 16.3338 17.5153 16.3338 16.7422H15.4005C15.4005 18.0308 16.4453 19.0755 17.7339 19.0755C19.0227 19.0755 20.0672 18.0308 20.0672 16.7422H19.1339C19.1339 17.5153 18.507 18.1422 17.7339 18.1422Z" fill="#002823"/>
<path d="M10.2672 18.1422C9.49402 18.1422 8.86717 17.5153 8.86717 16.7422H7.93384C7.93384 18.0308 8.9786 19.0755 10.2672 19.0755C11.556 19.0755 12.6005 18.0308 12.6005 16.7422H11.6672C11.6672 17.5153 11.0403 18.1422 10.2672 18.1422Z" fill="#002823"/>
<path d="M9.33386 -0.0585937H3.73386C3.47615 -0.0585937 3.2672 0.150358 3.2672 0.408073V1.73242C3.27312 2.64115 3.12957 3.54463 2.84246 4.40687C2.50544 5.39762 2.33363 6.43714 2.33386 7.48373V16.6621C2.31108 17.6777 3.08787 18.5333 4.10118 18.6081C4.13468 18.6081 4.1684 18.6104 4.20144 18.6104C4.53093 18.6097 4.85405 18.5206 5.13751 18.3529C5.16622 22.6221 7.95779 26.3805 12.0368 27.6413C13.3153 28.0414 14.6857 28.0414 15.9643 27.6413C20.044 26.3803 22.836 22.6205 22.8636 18.3506C23.1472 18.5185 23.4708 18.6074 23.8005 18.6081C23.8338 18.6081 23.8673 18.6081 23.9008 18.6058C24.9127 18.5306 25.6888 17.6766 25.6672 16.6621V7.48373C25.6674 6.43737 25.4956 5.39808 25.1586 4.40733C24.8715 3.54509 24.7279 2.64137 24.7339 1.73242V0.408073C24.7339 0.150358 24.5249 -0.0585938 24.2672 -0.0585938H18.6672C18.4095 -0.0585938 18.2005 0.150358 18.2005 0.408073V2.9196L17.9373 3.0513C17.087 1.69688 15.5999 0.874512 14.0005 0.874512C12.4011 0.874512 10.9141 1.69688 10.0637 3.0513L9.80053 2.9196V0.408073C9.80053 0.150358 9.59158 -0.0585937 9.33386 -0.0585937ZM7.93386 10.5945C7.5155 10.9486 7.12927 11.339 6.77973 11.7612L6.0672 12.6348V10.6187C6.06765 10.4801 6.1228 10.3473 6.22032 10.2486L7.04063 9.42832C7.19034 9.27861 7.41524 9.23373 7.61075 9.31462C7.80626 9.39551 7.93386 9.58623 7.93386 9.79792V10.5945ZM21.9339 18.2519C21.9462 22.1505 19.4103 25.5996 15.6856 26.751C14.5882 27.0922 13.4129 27.0922 12.3155 26.751C8.5908 25.5996 6.05512 22.1505 6.0672 18.2519V14.108L7.50229 12.3548C7.63764 12.1887 7.78552 12.0333 7.93386 11.8779V12.5414C7.93386 13.5723 8.76967 14.4081 9.80053 14.4081C10.8314 14.4081 11.6672 13.5723 11.6672 12.5414V9.64798C11.6672 9.635 11.6699 9.62292 11.6699 9.6097C13.193 9.17266 14.8081 9.17266 16.3311 9.6097C16.3311 9.62246 16.3339 9.635 16.3339 9.64753V12.5414C16.3339 13.5723 17.1697 14.4081 18.2005 14.4081C19.2314 14.4081 20.0672 13.5723 20.0672 12.5414V11.8774C20.2155 12.0328 20.3637 12.1882 20.499 12.3543L21.9339 14.108V18.2519ZM12.0555 8.36716C12.4109 7.83441 12.6008 7.20847 12.6005 6.56817V6.32549C12.5983 6.10788 12.5741 5.89095 12.5288 5.67813C13.5017 5.49766 14.4996 5.49766 15.4725 5.67813C15.427 5.89095 15.4028 6.10788 15.4005 6.32549V6.56817C15.4001 7.20892 15.5899 7.83555 15.9456 8.36852C15.9889 8.43643 16.0285 8.50684 16.0645 8.57884C14.7055 8.27259 13.2955 8.27259 11.9365 8.57884C11.9723 8.50615 12.0122 8.43552 12.0555 8.36716ZM21.9339 12.6348L21.2213 11.7639C20.8716 11.341 20.4856 10.9498 20.0672 10.5945V9.79792C20.0672 9.58623 20.1946 9.39528 20.3901 9.31416C20.5856 9.23327 20.8107 9.27816 20.9604 9.42787L21.7807 10.2482C21.8785 10.3466 21.9334 10.4797 21.9339 10.6182V12.6348ZM18.8759 3.62803C19.0347 3.54873 19.1348 3.38581 19.1339 3.20807V0.87474H23.8005V1.73242C23.7946 2.74369 23.955 3.7488 24.2752 4.70788C24.5791 5.60179 24.7341 6.53945 24.7339 7.48373V16.6621C24.7496 17.1785 24.365 17.6196 23.8513 17.6747C23.5952 17.6886 23.3446 17.5966 23.1584 17.42C22.972 17.2434 22.8667 16.998 22.8672 16.7414V10.6182C22.8663 10.2322 22.7129 9.86218 22.4406 9.58828L21.6203 8.76797C21.2038 8.35143 20.5772 8.22679 20.033 8.45215C19.4887 8.67774 19.1339 9.20866 19.1339 9.79792V12.5414C19.1339 13.0568 18.716 13.4747 18.2005 13.4747C17.6851 13.4747 17.2672 13.0568 17.2672 12.5414V9.64798C17.2677 9.00723 17.0781 8.3806 16.7221 7.84763C16.4692 7.46891 16.3341 7.02367 16.3339 6.56817V6.32549C16.3309 5.44889 16.8267 4.64681 17.6122 4.25762L18.8759 3.62803ZM14.0005 1.80807C15.2506 1.80488 16.4182 2.43151 17.1063 3.4749C16.5474 3.775 16.0896 4.23346 15.7902 4.79287C14.6092 4.55247 13.3919 4.55247 12.2109 4.79287C11.9117 4.23346 11.4537 3.775 10.895 3.4749C11.5831 2.43151 12.7505 1.80488 14.0005 1.80807ZM10.3891 4.25762C11.1743 4.64681 11.6702 5.44889 11.6672 6.32549V6.56817C11.6674 7.02458 11.5323 7.47074 11.2789 7.85059C10.9237 8.38265 10.7341 9.00814 10.7339 9.64798V12.5414C10.7339 13.0568 10.316 13.4747 9.80053 13.4747C9.2851 13.4747 8.8672 13.0568 8.8672 12.5414V9.79792C8.8672 9.20866 8.51241 8.67774 7.96804 8.45215C7.4239 8.22679 6.79728 8.35143 6.38074 8.76797L5.56043 9.58828C5.28813 9.86218 5.135 10.2322 5.13386 10.6182V16.7414C5.13432 16.998 5.02905 17.2434 4.84288 17.42C4.65649 17.5966 4.40584 17.6886 4.14972 17.6747C3.63611 17.6196 3.2517 17.1785 3.2672 16.6621V7.48373C3.26697 6.53945 3.42192 5.60156 3.72589 4.70742C4.04627 3.74857 4.20645 2.74346 4.20053 1.73242V0.87474H8.8672V3.20807C8.8672 3.3849 8.967 3.54668 9.12537 3.62575L10.3891 4.25762Z" fill="#002823"/>
</g>
<defs>
<clipPath id="clip0">
<rect width="28" height="28" fill="white"/>
</clipPath>
</defs>
</svg>
