<svg width="28" height="28" viewBox="0 0 28 28" fill="none" xmlns="http://www.w3.org/2000/svg">
<path d="M25.2 8.16694H10.732C11.0257 7.77669 11.2 7.29184 11.2 6.76695C11.2 5.48037 10.1533 4.43359 8.86665 4.43359H4.2C2.91342 4.43359 1.86665 5.48031 1.86665 6.76695C1.86665 7.30759 2.05198 7.80541 2.36173 8.20145C1.02512 8.41244 0 9.57187 0 10.9669C0 12.5112 1.25579 13.7669 2.8 13.7669H3.68698L3.33463 17.4668C3.3343 17.4702 3.33391 17.4736 3.33364 17.4769L2.8023 23.0559C2.77758 23.3125 2.96565 23.5403 3.2223 23.565C3.23772 23.5665 3.25265 23.5669 3.26709 23.5669C3.50509 23.5669 3.70809 23.3858 3.73095 23.1445L4.24298 17.7684L9.94738 13.7669H18.0526L23.757 17.7684L24.269 23.1445C24.2919 23.3858 24.4949 23.5669 24.7329 23.5669C24.7474 23.5669 24.7623 23.5664 24.7776 23.565C25.0343 23.5403 25.2224 23.3125 25.1976 23.0559L24.6663 17.4769C24.6661 17.4735 24.6656 17.4702 24.6653 17.4668L24.313 13.7669H25.2C26.7442 13.7669 28 12.5112 28 10.9669C28 9.42273 26.7442 8.16694 25.2 8.16694ZM4.2 5.36695H8.86665C9.47494 5.36695 9.99365 5.75714 10.1864 6.3003H8.86665C8.60858 6.3003 8.4 6.50937 8.4 6.76695C8.4 7.02452 8.60858 7.23359 8.86665 7.23359H10.1864C9.9937 7.7767 9.47494 8.16694 8.86665 8.16694H4.2C3.59171 8.16694 3.073 7.77675 2.88028 7.23359H4.2C4.45807 7.23359 4.66665 7.02452 4.66665 6.76695C4.66665 6.50937 4.45807 6.3003 4.2 6.3003H2.88028C3.073 5.75719 3.59171 5.36695 4.2 5.36695ZM4.35936 16.5467L4.6241 13.7669H8.32212L4.35936 16.5467ZM23.6406 16.5467L19.6779 13.7669H23.3759L23.6406 16.5467ZM25.2 12.8336H23.811C23.806 12.8335 23.8009 12.8336 23.7958 12.8336H4.20279C4.19869 12.8336 4.19464 12.8336 4.19059 12.8336H2.8C1.93162 12.8336 1.20006 12.2379 0.992359 11.4336H5.1333C5.39137 11.4336 5.59995 11.2246 5.59995 10.967C5.59995 10.7094 5.39142 10.5003 5.13335 10.5003H0.992414C1.20012 9.69601 1.93167 9.1003 2.80005 9.1003H4.20005H8.8667H25.2C26.0684 9.1003 26.7999 9.69601 27.0076 10.5003H22.8667C22.6086 10.5003 22.4001 10.7094 22.4001 10.9669C22.4001 11.2245 22.6086 11.4336 22.8667 11.4336H27.0076C26.7999 12.2379 26.0684 12.8336 25.2 12.8336Z" fill="black"/>
</svg>
