<svg width="28" height="28" viewBox="0 0 28 28" fill="none" xmlns="http://www.w3.org/2000/svg">
<path d="M0.874977 8.74996H27.125C27.608 8.74996 27.9999 8.35792 27.9999 7.87498C27.9999 7.39196 27.6079 7 27.125 7H0.874977C0.391958 7 0 7.39203 0 7.87498C0 8.35792 0.392031 8.74996 0.874977 8.74996Z" fill="black"/>
<path d="M27.125 13.125H0.874977C0.391958 13.125 0 13.517 0 14C0 14.4829 0.392031 14.8749 0.874977 14.8749H27.125C27.608 14.8749 27.9999 14.4829 27.9999 14C27.9999 13.517 27.608 13.125 27.125 13.125Z" fill="black"/>
<path d="M27.125 19.25H9.62498C9.14196 19.25 8.75 19.642 8.75 20.125C8.75 20.608 9.14203 21 9.62498 21H27.125C27.608 21 27.9999 20.6079 27.9999 20.125C28 19.642 27.608 19.25 27.125 19.25Z" fill="black"/>
</svg>
