<svg width="28" height="28" viewBox="0 0 28 28" fill="none" xmlns="http://www.w3.org/2000/svg">
<g clip-path="url(#clip0)">
<path d="M26.6 12.1344H19.6V9.33437C19.6 9.07664 19.3911 8.86771 19.1333 8.86771C18.8756 8.86771 18.6667 9.07664 18.6667 9.33437V10.7344H15.4V8.63437C15.8994 8.728 16.404 8.79158 16.9111 8.82477C18.3802 8.83303 19.673 7.85649 20.0667 6.44104L20.7989 3.81464C20.8969 3.47392 20.8511 3.10795 20.6722 2.80185C20.4933 2.49576 20.1969 2.27624 19.852 2.19437C15.7376 0.909167 11.3291 0.909167 7.21467 2.19437C6.86964 2.27662 6.57335 2.4966 6.39481 2.80308C6.21626 3.10956 6.17104 3.4758 6.26967 3.81651L7 6.44104C7.45862 8.08016 9.09899 9.09245 10.7697 8.76737C11.0675 8.71277 11.3661 8.67031 11.6648 8.63344V10.7344H7.69113L6.24447 8.92651C5.9796 8.59353 5.577 8.39997 5.15153 8.40104H3.73333C2.96013 8.40104 2.33333 9.02784 2.33333 9.80104V10.8202C1.77597 11.0173 1.40245 11.5432 1.4 12.1344V14.9344C1.4 15.7076 2.0268 16.3344 2.8 16.3344H3.1094L1.0346 23.389C0.426222 23.5535 0.00273601 24.1042 0 24.7344V25.201C0 25.9742 0.626801 26.601 1.4 26.601H5.6C6.3732 26.601 7 25.9742 7 25.201V24.7344C6.9984 24.189 6.68025 23.6942 6.18473 23.4664L7.322 19.601H9.7286C10.5766 19.6009 11.3181 19.0292 11.5337 18.209L12.0265 16.3344H14V21.4677C14 22.2409 14.6268 22.8677 15.4 22.8677H16.3333C17.1065 22.8677 17.7333 22.2409 17.7333 21.4677V16.3344H18.2C18.9732 16.3344 19.6 15.7076 19.6 14.9344H26.6C27.3732 14.9344 28 14.3076 28 13.5344C28 12.7612 27.3732 12.1344 26.6 12.1344ZM10.6031 7.85084C9.408 8.08512 8.23294 7.36365 7.90113 6.19184L7.16893 3.56544C7.1434 3.45851 7.16378 3.34577 7.22513 3.25455C7.28648 3.16332 7.3832 3.10193 7.49187 3.08524C11.4258 1.85624 15.6409 1.85624 19.5748 3.08524C19.6835 3.10193 19.7802 3.16332 19.8415 3.25455C19.9029 3.34577 19.9233 3.45851 19.8977 3.56544L19.1655 6.19184C18.8345 7.36423 17.6588 8.08607 16.4635 7.85084C14.5264 7.49384 12.5403 7.49384 10.6031 7.85084ZM12.6 8.54897C13.2216 8.51071 13.845 8.51071 14.4667 8.54897V10.7344H12.6V8.54897ZM3.26667 9.80104C3.26667 9.54331 3.4756 9.33437 3.73333 9.33437H5.15153C5.29338 9.33443 5.42749 9.399 5.516 9.50984L6.49553 10.7344H3.26667V9.80104ZM4.0824 16.3344H7.30987L5.25093 23.3344H2.02347L4.0824 16.3344ZM6.06667 25.201C6.06667 25.4588 5.85773 25.6677 5.6 25.6677H1.4C1.14227 25.6677 0.933333 25.4588 0.933333 25.201V24.7344C0.933333 24.4766 1.14227 24.2677 1.4 24.2677H5.6C5.85773 24.2677 6.06667 24.4766 6.06667 24.7344V25.201ZM10.6311 17.9719C10.5232 18.3819 10.1526 18.6677 9.7286 18.6677H7.5964L8.2824 16.3344H9.39073L8.90027 17.5612C8.83157 17.7173 8.85349 17.8985 8.95743 18.0337C9.06138 18.1689 9.2308 18.2366 9.3993 18.2103C9.56781 18.184 9.70856 18.0679 9.7664 17.9075L10.3959 16.3344H11.06L10.6311 17.9719ZM16.8 21.4677C16.8 21.7254 16.5911 21.9344 16.3333 21.9344H15.4C15.1423 21.9344 14.9333 21.7254 14.9333 21.4677V16.3344H16.8V21.4677ZM18.2 15.401H2.8C2.54227 15.401 2.33333 15.1921 2.33333 14.9344V12.1344C2.33333 11.8766 2.54227 11.6677 2.8 11.6677H18.6667V14.9344C18.6667 15.1921 18.4577 15.401 18.2 15.401ZM26.6 14.001H19.6V13.0677H26.6C26.8577 13.0677 27.0667 13.2766 27.0667 13.5344C27.0667 13.7921 26.8577 14.001 26.6 14.001Z" fill="black"/>
<path d="M10.5246 5.97696C10.3902 6.05827 10.227 6.07649 10.078 6.02681C9.92908 5.97713 9.80945 5.86456 9.75083 5.71889C9.69546 5.60816 9.59836 5.52398 9.48091 5.48485C9.36345 5.44573 9.23527 5.45488 9.12456 5.51029C8.3261 5.90929 9.55529 7.50436 10.9418 6.81183C11.0923 6.73808 11.1916 6.5893 11.2022 6.42204C11.2127 6.25478 11.1327 6.09473 10.9926 6.00272C10.8525 5.91071 10.6739 5.90088 10.5246 5.97696Z" fill="black"/>
<path d="M4.6666 12.6016H3.73327C3.47554 12.6016 3.2666 12.8105 3.2666 13.0682C3.2666 13.326 3.47554 13.5349 3.73327 13.5349H4.6666C4.92434 13.5349 5.13327 13.326 5.13327 13.0682C5.13327 12.8105 4.92434 12.6016 4.6666 12.6016Z" fill="black"/>
<path d="M12.1333 12.6016H6.53332C6.27558 12.6016 6.06665 12.8105 6.06665 13.0682C6.06665 13.326 6.27558 13.5349 6.53332 13.5349H12.1333C12.3911 13.5349 12.6 13.326 12.6 13.0682C12.6 12.8105 12.3911 12.6016 12.1333 12.6016Z" fill="black"/>
</g>
<defs>
<clipPath id="clip0">
<rect width="28" height="28" fill="white"/>
</clipPath>
</defs>
</svg>
