<svg width="28" height="28" viewBox="0 0 28 28" fill="none" xmlns="http://www.w3.org/2000/svg">
<g clip-path="url(#clip0)">
<path d="M25.1021 7.29388L24.3547 5.78243C24.1718 5.41103 23.8333 5.1401 23.4308 5.04297L22.3643 4.78615C21.3777 3.11003 19.9159 1.76439 18.164 0.919768C18.0287 0.639976 17.7624 0.446321 17.4546 0.403718L16.3875 0.268799L16.385 0.268361H16.3842L14.5187 0.0324855C14.1743 -0.0108285 13.8258 -0.0108285 13.4814 0.0324855L10.5455 0.403663C10.2376 0.446266 9.97142 0.639922 9.83606 0.919768C8.08413 1.76439 6.62234 3.11003 5.63579 4.78609L4.56935 5.04292C4.16672 5.14015 3.82809 5.41125 3.64509 5.78281L2.89815 7.29383C2.73326 7.62207 2.77679 8.01666 3.00933 8.30104C3.18346 8.51936 3.44739 8.64673 3.72669 8.64717C3.80473 8.64706 3.8825 8.63733 3.95819 8.61824L4.19976 8.55721V17.6664C4.19926 17.8332 4.24384 17.997 4.32871 18.1406L9.28998 26.7524C9.41932 26.986 9.6424 27.1531 9.90294 27.2116L12.8863 27.8781C13.6199 28.0407 14.3803 28.0407 15.1139 27.8781L18.0972 27.2116C18.3555 27.1541 18.5771 26.9895 18.7066 26.7588L23.6674 18.1479C23.7545 18.0025 23.8005 17.836 23.8004 17.6665V8.55704L24.042 8.61802C24.3931 8.70815 24.7644 8.58411 24.9909 8.30104C25.2234 8.01666 25.267 7.62213 25.1021 7.29388ZM21.0322 4.46529L20.3422 4.29914C19.8851 4.18905 19.4242 4.09602 18.9619 4.01027L18.504 2.16384C19.4873 2.76072 20.3459 3.54224 21.0322 4.46529ZM10.6622 1.32977L13.5981 0.958597C13.865 0.924854 14.1351 0.924854 14.402 0.958597L17.3357 1.33049L17.9606 3.8508C15.3342 3.4654 12.6655 3.46545 10.0391 3.85096L10.6622 1.32977ZM9.49611 2.1639L9.0383 4.01038C8.57607 4.09619 8.11509 4.18916 7.65794 4.29919L6.96798 4.46534C7.65433 3.54229 8.51285 2.76078 9.49611 2.1639ZM22.863 17.6748L17.894 26.3005L14.9107 26.9671C14.3109 27.1001 13.6893 27.1001 13.0895 26.9671L10.1021 26.293L5.13309 17.6664V9.34884H5.64624V14.226C5.6452 14.8513 5.95551 15.4361 6.47386 15.7858L9.29813 17.6899C9.9147 18.1072 10.7507 17.964 11.1931 17.3652L12.8894 15.0723C13.1488 14.7187 13.561 14.5098 13.9995 14.5097C14.4379 14.5096 14.8503 14.7183 15.1098 15.0717L16.8084 17.3668C17.25 17.9651 18.0852 18.108 18.7006 17.6906L21.5263 15.7858C22.0447 15.4362 22.355 14.8514 22.3539 14.226V9.34889H22.8666L22.863 17.6748ZM6.57963 14.226V9.34878H21.4206V14.2259C21.4214 14.5408 21.2656 14.8354 21.0049 15.0119L18.1779 16.9174C17.976 17.0535 17.7027 17.0064 17.5581 16.8105L15.8591 14.5149C15.4234 13.9245 14.7332 13.5762 13.9995 13.5763C13.2657 13.5765 12.5757 13.9251 12.1402 14.5156L10.4434 16.8089C10.2986 17.0063 10.0236 17.0539 9.82091 16.9167L6.99527 15.0119C6.73456 14.8354 6.57875 14.5408 6.57963 14.226ZM22.867 8.41545H5.13309V8.30788L7.549 7.70061C11.7843 6.63985 16.2159 6.63985 20.4512 7.70061L22.8671 8.30788L22.867 8.41545ZM23.5212 7.52369C23.4977 7.51078 23.4731 7.49995 23.4477 7.49142L20.6791 6.7955C16.2942 5.69717 11.7061 5.69717 7.32116 6.7955L4.5525 7.49142C4.52822 7.49968 4.50465 7.51007 4.48217 7.52232L3.73489 7.70766L4.48141 6.19708C4.54189 6.07332 4.65428 5.98286 4.78811 5.95027L7.8767 5.20649C11.902 4.24215 16.0982 4.24215 20.1235 5.20649L23.2121 5.95027C23.3457 5.98276 23.458 6.07299 23.5183 6.19659L24.2708 7.71308L23.5212 7.52369Z" fill="black"/>
<path d="M15.7274 2.66996L16.2274 2.77092C16.3908 2.80395 16.5594 2.74735 16.6697 2.62238C16.78 2.49742 16.8153 2.32307 16.7622 2.16501C16.7092 2.00696 16.5758 1.88927 16.4125 1.85624L15.9125 1.75528C14.6506 1.49824 13.3498 1.49824 12.0879 1.75528L11.5879 1.85624C11.3353 1.90732 11.172 2.15353 11.2231 2.40609C11.2742 2.6587 11.5204 2.822 11.7729 2.77092L12.2729 2.66996C13.4127 2.43797 14.5876 2.43797 15.7274 2.66996Z" fill="black"/>
<path d="M22.149 16.4715C21.9867 16.3618 21.7733 16.365 21.6144 16.4795L19.3958 18.0801C18.8862 18.4536 18.2186 18.5341 17.6348 18.2922L16.7457 17.9358L15.821 16.4633C15.429 15.8349 14.7408 15.4531 14.0002 15.4531C13.2596 15.4532 12.5714 15.8351 12.1795 16.4635L11.2548 17.9358L10.3625 18.2936C9.77897 18.5337 9.11253 18.4526 8.60375 18.0794L6.38609 16.4795C6.22722 16.3649 6.01371 16.3617 5.85144 16.4715C5.68918 16.5813 5.61278 16.7807 5.66008 16.9708C5.98609 18.2855 6.76602 19.4428 7.86227 20.2385L7.95983 20.3093C8.34922 20.5933 8.81868 20.7464 9.3006 20.7466C10.1011 20.7466 10.8456 20.3359 11.2726 19.6588L11.9612 18.5661L11.9672 18.5563L12.9698 16.96C13.1909 16.6035 13.5807 16.3865 14.0002 16.3865C14.4198 16.3865 14.8095 16.6033 15.0307 16.9598L16.0333 18.5563L16.0397 18.5663L16.7288 19.6603C17.074 20.2035 17.6271 20.581 18.2587 20.7045C18.882 20.827 19.5283 20.6836 20.0412 20.3089L20.1378 20.239C21.2342 19.4432 22.0143 18.2857 22.3404 16.9708C22.3876 16.7807 22.3112 16.5813 22.149 16.4715ZM9.56579 19.7878C9.19565 19.8607 8.81184 19.7757 8.50711 19.5533L8.4096 19.4824C7.93714 19.1405 7.53134 18.7149 7.21234 18.2266L8.05685 18.8357C8.73511 19.3322 9.60391 19.4893 10.413 19.2619C10.2058 19.5363 9.90372 19.7238 9.56579 19.7878ZM19.5904 19.4829L19.4938 19.5528C19.1889 19.7753 18.805 19.8605 18.4346 19.7878C18.0964 19.7239 17.7942 19.5362 17.5869 19.2614C18.3958 19.489 19.2644 19.3323 19.9427 18.8364L20.7881 18.2266C20.4691 18.7151 20.0631 19.1409 19.5904 19.4829Z" fill="black"/>
<path d="M13.4224 18.2848C13.2611 18.2425 13.0895 18.2895 12.9723 18.4081L12.0444 19.3462C11.9272 19.4647 11.8821 19.6368 11.9261 19.7976C11.9702 19.9584 12.0966 20.0835 12.2579 20.1257C12.4192 20.168 12.5908 20.121 12.708 20.0025L13.6359 19.0643C13.7531 18.9458 13.7982 18.7737 13.7542 18.6129C13.7102 18.4521 13.5837 18.327 13.4224 18.2848Z" fill="black"/>
<path d="M13.4224 20.5504C13.2611 20.5081 13.0895 20.5551 12.9723 20.6737L12.0444 21.6121C11.9272 21.7306 11.8821 21.9027 11.9261 22.0635C11.9702 22.2243 12.0966 22.3493 12.2579 22.3916C12.4192 22.4339 12.5908 22.3869 12.708 22.2683L13.6359 21.33C13.7531 21.2115 13.7982 21.0393 13.7542 20.8786C13.7102 20.7178 13.5837 20.5927 13.4224 20.5504Z" fill="black"/>
<path d="M12.9723 23.0018L12.0444 23.9401C11.8632 24.1234 11.8648 24.4188 12.0481 24.6001C12.2313 24.7813 12.5268 24.7797 12.708 24.5964L13.6359 23.6581C13.8172 23.4748 13.8155 23.1794 13.6323 22.9981C13.449 22.8169 13.1536 22.8185 12.9723 23.0018Z" fill="black"/>
<path d="M15.0278 18.4081C14.9106 18.2895 14.739 18.2425 14.5778 18.2848C14.4165 18.3271 14.2901 18.4521 14.246 18.6129C14.2019 18.7737 14.247 18.9458 14.3643 19.0643L15.2922 20.0025C15.4094 20.121 15.581 20.168 15.7422 20.1257C15.9035 20.0835 16.0299 19.9584 16.074 19.7976C16.118 19.6368 16.073 19.4648 15.9557 19.3462L15.0278 18.4081Z" fill="black"/>
<path d="M15.2921 22.2683C15.4734 22.4516 15.7688 22.4532 15.9521 22.272C16.1353 22.0908 16.1369 21.7953 15.9557 21.6121L15.0278 20.6737C14.9106 20.5552 14.739 20.5081 14.5778 20.5504C14.4165 20.5927 14.2901 20.7178 14.246 20.8785C14.2019 21.0393 14.247 21.2114 14.3643 21.33L15.2921 22.2683Z" fill="black"/>
<path d="M15.0278 23.0018C14.9106 22.8833 14.739 22.8363 14.5778 22.8785C14.4165 22.9208 14.2901 23.0459 14.246 23.2067C14.2019 23.3675 14.247 23.5395 14.3643 23.6581L15.2922 24.5964C15.4094 24.715 15.581 24.762 15.7422 24.7197C15.9034 24.6774 16.0299 24.5524 16.074 24.3916C16.1181 24.2308 16.073 24.0587 15.9557 23.9402L15.0278 23.0018Z" fill="black"/>
<path d="M7.46641 11.6642C7.59111 11.6644 7.71066 11.6145 7.79822 11.5257L8.26215 11.0565C8.44339 10.8733 8.44175 10.5778 8.25848 10.3966C8.07522 10.2153 7.77979 10.217 7.59854 10.4002L7.13461 10.8694C7.00221 11.0033 6.96327 11.2036 7.03579 11.3773C7.10831 11.551 7.27812 11.6642 7.46641 11.6642Z" fill="black"/>
<path d="M7.47755 12.6039C7.47826 12.7277 7.52808 12.8461 7.61608 12.9331C7.70407 13.0201 7.82302 13.0686 7.94678 13.0679C8.07055 13.0673 8.189 13.0174 8.27601 12.9294L10.1318 11.0526C10.249 10.9341 10.2941 10.762 10.2501 10.6012C10.2061 10.4404 10.0796 10.3153 9.91829 10.2731C9.75701 10.2308 9.58544 10.2778 9.46824 10.3963L7.61247 12.2731C7.5254 12.3611 7.47684 12.4801 7.47755 12.6039Z" fill="black"/>
</g>
<defs>
<clipPath id="clip0">
<rect width="28" height="28" fill="white"/>
</clipPath>
</defs>
</svg>
