<svg width="28" height="20" viewBox="0 0 28 20" fill="none" xmlns="http://www.w3.org/2000/svg">
<path d="M8.89618 13.9889C8.46927 13.9765 8.0561 14.1406 7.75409 14.4426C7.45209 14.7446 7.28798 15.1577 7.30047 15.5847C7.30047 15.8784 7.53861 16.1166 7.83237 16.1166C8.12614 16.1166 8.36428 15.8784 8.36428 15.5847C8.35039 15.4388 8.40271 15.2944 8.50682 15.1914C8.61092 15.0883 8.7558 15.0374 8.9015 15.0528C9.19526 15.0513 9.43221 14.812 9.43075 14.5182C9.42928 14.2244 9.18994 13.9875 8.89618 13.9889Z" fill="black"/>
<path d="M14.215 13.9889C13.7881 13.9765 13.3749 14.1406 13.0729 14.4426C12.7709 14.7446 12.6068 15.1577 12.6193 15.5847C12.6193 15.8784 12.8575 16.1166 13.1512 16.1166C13.445 16.1166 13.6831 15.8784 13.6831 15.5847C13.6692 15.4388 13.7216 15.2944 13.8257 15.1914C13.9298 15.0883 14.0746 15.0374 14.2203 15.0528C14.4104 15.0518 14.5855 14.9495 14.6797 14.7845C14.7738 14.6195 14.7728 14.4167 14.677 14.2526C14.5812 14.0885 14.4051 13.988 14.215 13.9889Z" fill="black"/>
<path d="M20.1409 14.2103C19.7397 14.0641 19.2958 14.0897 18.9141 14.2813C18.5324 14.4728 18.2465 14.8133 18.1239 15.2224C18.0314 15.5012 18.1825 15.8022 18.4613 15.8947C18.7401 15.9872 19.0411 15.8362 19.1336 15.5574C19.1664 15.4146 19.2615 15.294 19.3927 15.229C19.524 15.1639 19.6775 15.1613 19.811 15.2217C19.9917 15.2806 20.19 15.2387 20.3314 15.1117C20.4728 14.9847 20.5357 14.792 20.4964 14.606C20.4571 14.4201 20.3216 14.2693 20.1409 14.2103Z" fill="black"/>
<path d="M14.7471 12.4389C14.7949 11.2686 14.1978 10.1661 13.1915 9.56673C12.1852 8.96734 10.9315 8.96734 9.92517 9.56673C8.91888 10.1661 8.32178 11.2686 8.36958 12.4389C6.92927 12.6772 5.83427 13.8624 5.71054 15.317C5.58682 16.7717 6.46592 18.1248 7.8453 18.6029C9.22469 19.081 10.7526 18.5622 11.5557 17.343C12.3587 18.5612 13.8855 19.0796 15.2643 18.6023C16.643 18.125 17.5225 16.7736 17.4005 15.3197C17.2785 13.8658 16.1861 12.6797 14.7471 12.4389ZM11.5557 10.2634C12.1285 10.2632 12.6771 10.494 13.0775 10.9036C13.4779 11.3131 13.6963 11.8668 13.6833 12.4394C12.8137 12.5868 12.0437 13.0871 11.5557 13.8218C11.3095 13.4521 10.9893 13.1375 10.6153 12.8979C10.8525 12.8441 11.0217 12.6343 11.0238 12.391C11.0099 12.2452 11.0622 12.1008 11.1663 11.9977C11.2704 11.8946 11.4153 11.8438 11.561 11.8591C11.8548 11.8576 12.0917 11.6183 12.0903 11.3245C12.0888 11.0308 11.8495 10.7938 11.5557 10.7953C11.1288 10.7828 10.7156 10.9469 10.4136 11.2489C10.1116 11.5509 9.94749 11.9641 9.95998 12.391C9.95998 12.7277 10.218 12.5729 9.43073 12.4394C9.41771 11.8672 9.63574 11.314 10.0356 10.9045C10.4354 10.4951 10.9834 10.264 11.5557 10.2634ZM8.89617 17.71C7.72112 17.71 6.76855 16.7575 6.76855 15.5824C6.76855 14.4074 7.72112 13.4548 8.89617 13.4548C10.0712 13.4548 11.0238 14.4074 11.0238 15.5824C11.0238 16.7575 10.0712 17.71 8.89617 17.71ZM14.2152 17.71C13.0402 17.71 12.0876 16.7575 12.0876 15.5824C12.0876 14.4074 13.0402 13.4548 14.2152 13.4548C15.3903 13.4548 16.3428 14.4074 16.3428 15.5824C16.3428 16.7575 15.3903 17.71 14.2152 17.71Z" fill="black"/>
<path d="M25.2211 12.7527C25.3097 11.5848 24.7515 10.4621 23.7667 9.828C22.782 9.19385 21.529 9.15008 20.5024 9.71398C19.4758 10.2779 18.8405 11.3588 18.8475 12.5301C17.3997 12.7179 16.264 13.8642 16.0896 15.3137C15.9152 16.7631 16.7465 18.1461 18.1083 18.6721C19.4702 19.198 21.0153 18.7329 21.8604 17.5425C22.6204 18.7879 24.1283 19.3593 25.5228 18.9304C26.9173 18.5016 27.8435 17.1816 27.7723 15.7243C27.7011 14.2671 26.6508 13.0436 25.2211 12.7527ZM22.1076 10.4671C22.68 10.487 23.2202 10.7368 23.6061 11.16C23.992 11.5833 24.1909 12.1443 24.1579 12.7161C23.2837 12.833 22.4967 13.3062 21.9834 14.0234C21.7502 13.6453 21.4412 13.3197 21.0758 13.0672C21.3148 13.0218 21.4911 12.8179 21.5017 12.5749C21.4929 12.4286 21.5503 12.2862 21.6579 12.1868C21.7655 12.0874 21.9121 12.0416 22.0572 12.0621C22.3508 12.0708 22.596 11.8399 22.6048 11.5463C22.6136 11.2527 22.3826 11.0075 22.089 10.9987C21.6628 10.9713 21.2441 11.1209 20.9318 11.4122C20.6194 11.7035 20.441 12.1107 20.4386 12.5377C20.4268 12.8742 20.69 12.7286 19.908 12.5676C19.9149 11.9954 20.1521 11.4501 20.566 11.0548C20.9799 10.6596 21.5356 10.4477 22.1076 10.4671ZM19.1897 17.8164C18.0154 17.7754 17.0967 16.7902 17.1377 15.6158C17.1787 14.4415 18.1639 13.5228 19.3383 13.5638C20.5126 13.6048 21.4313 14.59 21.3903 15.7644C21.3493 16.9387 20.3641 17.8574 19.1897 17.8164ZM24.5055 18.0021C23.3312 17.9611 22.4125 16.9758 22.4535 15.8015C22.4945 14.6272 23.4797 13.7084 24.6541 13.7494C25.8284 13.7905 26.7471 14.7757 26.7061 15.95C26.6651 17.1244 25.6799 18.0431 24.5055 18.0021Z" fill="black"/>
<path d="M3.31292 14.0673C2.88644 14.0443 2.46935 14.1982 2.16001 14.4927C1.85066 14.7872 1.67643 15.1962 1.6784 15.6233C1.67117 15.9169 1.90338 16.1609 2.19705 16.1681C2.49072 16.1753 2.73466 15.9431 2.74189 15.6494C2.73159 15.5033 2.78745 15.3603 2.89407 15.2598C3.00068 15.1593 3.14677 15.112 3.29204 15.1309C3.58575 15.1367 3.82853 14.9033 3.83429 14.6096C3.84005 14.3158 3.60663 14.0731 3.31292 14.0673Z" fill="black"/>
<path d="M9.20165 12.6606C9.27826 11.4919 8.70848 10.375 7.71725 9.75106C6.72602 9.12708 5.47263 9.09621 4.45188 9.67064C3.43114 10.2451 2.80708 11.3325 2.82606 12.5036C1.38031 12.7064 0.256462 13.8643 0.0969633 15.3154C-0.0625359 16.7666 0.782985 18.141 2.15018 18.6529C3.51737 19.1648 5.05763 18.6838 5.89046 17.4847C6.66324 18.7223 8.17685 19.2781 9.5669 18.835C10.957 18.3918 11.8695 17.0623 11.7833 15.6059C11.6971 14.1494 10.6343 12.9369 9.20165 12.6606ZM6.06476 10.4072C6.63735 10.4212 7.18014 10.6654 7.57036 11.0847C7.96058 11.504 8.16528 12.0628 8.13816 12.635C7.26518 12.7609 6.48309 13.2421 5.97715 13.9646C5.74015 13.5889 5.42778 13.2665 5.05977 13.0178C5.29828 12.9699 5.47252 12.7642 5.48063 12.5211C5.47034 12.375 5.5262 12.2319 5.63281 12.1314C5.73942 12.031 5.88551 11.9837 6.03079 12.0026C6.3245 12.0084 6.56727 11.7749 6.57303 11.4812C6.5788 11.1875 6.34537 10.9447 6.05166 10.939C5.62518 10.916 5.2081 11.0699 4.89875 11.3643C4.5894 11.6588 4.41518 12.0678 4.41715 12.4949C4.40886 12.8315 4.67056 12.6831 3.88687 12.5303C3.88794 11.958 4.11953 11.4102 4.52934 11.0107C4.93914 10.6113 5.49261 10.3937 6.06476 10.4072ZM3.22271 17.7862C2.04801 17.7572 1.11919 16.7815 1.14812 15.6068C1.17705 14.4321 2.15278 13.5033 3.32747 13.5322C4.50216 13.5611 5.43099 14.5369 5.40206 15.7116C5.37313 16.8863 4.3974 17.8151 3.22271 17.7862ZM8.54014 17.9171C7.36544 17.8882 6.43662 16.9124 6.46555 15.7378C6.49448 14.5631 7.4702 13.6342 8.6449 13.6632C9.81959 13.6921 10.7484 14.6678 10.7195 15.8425C10.6906 17.0172 9.71483 17.946 8.54014 17.9171Z" fill="black"/>
<path d="M18.9886 8.34368C19.7744 7.47514 20.0213 6.24593 19.6319 5.1413C19.2424 4.03667 18.2791 3.23414 17.1223 3.05053C15.9655 2.86692 14.8011 3.33174 14.0887 4.26148C12.8296 3.52262 11.2297 3.73234 10.2035 4.77074C9.17735 5.80915 8.98663 7.41147 9.74037 8.66173C10.4941 9.91199 12.0001 10.4914 13.3975 10.0687C13.2348 11.5186 14.076 12.8943 15.4407 13.4101C16.8055 13.9259 18.3463 13.4505 19.1832 12.2554C20.0201 11.0603 19.94 9.44981 18.9886 8.34368ZM17.9291 4.62945C18.3693 4.99596 18.6431 5.52445 18.6886 6.09541C18.7341 6.66637 18.5475 7.23155 18.1709 7.66316C17.4085 7.21976 16.4966 7.11128 15.6514 7.3634C15.6989 6.92177 15.6543 6.47509 15.5203 6.05161C15.737 6.16215 16.0013 6.10917 16.1586 5.92363C16.2413 5.80269 16.3739 5.72526 16.5198 5.71271C16.6658 5.70015 16.8097 5.7538 16.9118 5.85884C17.1384 6.04575 17.4737 6.01354 17.6606 5.7869C17.8475 5.56027 17.8153 5.22502 17.5887 5.03812C17.2687 4.75526 16.8462 4.61687 16.4208 4.65559C15.9955 4.69431 15.6049 4.90671 15.3413 5.2427C15.1258 5.50138 15.423 5.54759 14.9037 4.94112C15.2599 4.4932 15.7816 4.20768 16.3509 4.14903C16.9201 4.09039 17.4891 4.26356 17.9291 4.62945ZM11.1193 8.64838C10.2165 7.89624 10.0944 6.55465 10.8465 5.65187C11.5986 4.74907 12.9402 4.62695 13.843 5.37909C14.7458 6.13123 14.8679 7.47281 14.1158 8.3756C13.3637 9.27839 12.0221 9.40052 11.1193 8.64838ZM15.2059 12.053C14.3031 11.3009 14.181 9.95932 14.9331 9.05654C15.6853 8.15375 17.0268 8.03162 17.9296 8.78376C18.8324 9.5359 18.9545 10.8775 18.2024 11.7803C17.4503 12.6831 16.1087 12.8052 15.2059 12.053Z" fill="black"/>
</svg>
