<svg width="28" height="28" viewBox="0 0 28 28" fill="none" xmlns="http://www.w3.org/2000/svg">
<path d="M2.14369 6.49917L2.26838 6.54686C2.74963 6.73104 4.03719 7.22017 4.03719 7.82917C4.03719 7.98142 3.77732 8.12273 3.40982 8.30648C2.94126 8.54054 2.29901 8.86167 2.29901 9.56648C2.29901 10.8221 3.27244 10.9665 3.91776 11.064C4.19159 11.09 4.46007 11.1563 4.71444 11.2609C4.93626 11.372 4.98307 11.4565 4.98307 11.4687C4.98307 11.4731 4.93932 11.8857 3.41113 12.65C2.79863 12.9562 1.49313 14.1672 1.88819 15.3515C1.9391 15.5438 2.03934 15.7194 2.17901 15.861C2.31867 16.0026 2.49291 16.1052 2.68444 16.1587C3.66051 16.419 4.95113 15.3275 5.20051 15.1061L5.37551 14.9477C5.89024 14.4447 6.52455 14.0809 7.21869 13.8907C7.54813 13.7809 7.79182 13.812 7.94144 13.9839C8.04283 14.1354 8.10114 14.3117 8.11016 14.4937C8.11917 14.6758 8.07855 14.8569 7.99263 15.0177C7.74606 15.4487 7.56708 15.915 7.46194 16.4002C7.40719 16.6781 7.44944 16.9663 7.58162 17.2167C7.7138 17.4671 7.92792 17.6646 8.18819 17.7762C8.37958 17.8769 8.59189 17.9314 8.80813 17.9354C8.95214 17.9357 9.09476 17.9072 9.22769 17.8519C9.82794 17.6029 10.174 16.8767 10.5402 15.7851C10.6091 15.524 10.739 15.2831 10.9192 15.082C11.0993 14.8809 11.3247 14.7254 11.5766 14.6284C12.0837 14.4704 12.6918 14.6437 13.338 15.1284C14.4668 15.9745 15.5776 16.1723 16.1021 15.6197C16.4718 15.2304 16.6219 14.4184 15.2403 12.7607C14.4742 11.8419 14.5324 11.4403 14.5928 11.3104C14.745 10.9827 15.4542 10.8729 15.774 10.8729H17.5122C18.3504 10.8729 19.253 10.4642 19.253 9.56692C19.253 8.66961 18.3504 8.26054 17.5122 8.26054H15.7709C15.0635 8.26054 13.9671 8.06498 13.8363 7.71061C13.8127 7.64673 13.7462 7.28579 14.752 6.42436C16.5173 4.91148 17.2996 3.79236 17.2129 2.90204C17.1844 2.66682 17.0968 2.44263 16.9584 2.25033C16.8199 2.05804 16.6351 1.90387 16.4211 1.80217C15.6506 1.36467 14.2388 1.71467 12.7898 4.12923C12.414 4.75573 12.008 5.11404 11.6151 5.16654C11.4793 5.17697 11.3427 5.1597 11.2138 5.11578C11.0848 5.07186 10.9661 5.00221 10.8648 4.91104C10.8565 4.90273 10.8473 4.89486 10.8386 4.88742C10.3066 4.44379 10.1635 4.32436 9.21194 2.42167C8.77838 1.55542 8.24944 1.34717 7.88238 1.32529C7.66588 1.31618 7.45087 1.36513 7.25964 1.46705C7.06841 1.56897 6.90791 1.72017 6.79476 1.90498C6.6615 2.10016 6.58183 2.3269 6.56371 2.56253C6.54559 2.79816 6.58966 3.03441 6.69151 3.24767C7.04369 3.95161 7.36919 4.75267 6.77332 5.34767C6.29207 5.82629 5.85719 5.55067 4.78488 4.47836C4.42741 4.12363 3.99784 3.84991 3.5253 3.67577C3.05277 3.50162 2.54831 3.43112 2.04613 3.46904C1.83536 3.49414 1.63381 3.56999 1.45878 3.69008C1.28375 3.81017 1.14046 3.97092 1.04119 4.15854C0.944751 4.34276 0.888948 4.54553 0.877551 4.75316C0.866155 4.96078 0.899431 5.16844 0.975132 5.36211C1.20099 5.87934 1.62048 6.28753 2.14369 6.49917V6.49917ZM1.82388 4.54792C1.84532 4.50417 1.91138 4.37598 2.18613 4.32917C2.55085 4.3165 2.91433 4.37811 3.2545 4.51025C3.59467 4.64239 3.90442 4.84231 4.16495 5.09786C5.02813 5.96104 6.21113 7.14404 7.39063 5.96673C8.48438 4.87298 7.77476 3.46029 7.47244 2.85523C7.44096 2.77904 7.42927 2.69612 7.43845 2.6142C7.44763 2.53227 7.47738 2.454 7.52495 2.38667C7.55759 2.33339 7.60233 2.28855 7.65554 2.25579C7.70874 2.22303 7.76892 2.20327 7.83119 2.19811C8.01932 2.20948 8.24332 2.43917 8.43013 2.81061C9.41757 4.78461 9.63063 5.01561 10.2676 5.54848C10.4609 5.72597 10.6892 5.86088 10.938 5.94446C11.1867 6.02804 11.4502 6.05844 11.7114 6.03367C12.3939 5.94967 13.0086 5.45967 13.5379 4.57767C14.6483 2.72704 15.6288 2.35867 15.9879 2.56123C16.2798 2.72661 16.3292 2.87404 16.3379 2.98429C16.3624 3.24067 16.2019 4.02379 14.1784 5.75761C13.156 6.63261 12.7741 7.37111 13.0112 8.01204C13.4049 9.07954 15.3737 9.13336 15.7674 9.13336H17.5056C17.5139 9.13336 18.3714 9.15873 18.3714 9.56473C18.3714 9.97073 17.5126 9.99567 17.5056 9.99567H15.7709C15.6139 9.99567 14.227 10.0224 13.7983 10.9372C13.5034 11.5672 13.7545 12.3464 14.5656 13.3198C15.5224 14.4678 15.5076 14.9709 15.4656 15.016C15.3842 15.1035 14.7454 15.0899 13.8608 14.4267C12.7474 13.5924 11.861 13.6199 11.3133 13.7919C10.9284 13.9294 10.582 14.1568 10.3027 14.4551C10.0235 14.7535 9.81944 15.1142 9.70763 15.5073C9.58076 15.887 9.24476 16.8959 8.89257 17.0416C8.86151 17.0552 8.77707 17.0897 8.58019 16.9917C8.48505 16.962 8.40539 16.8961 8.35841 16.8082C8.31143 16.7203 8.30089 16.6175 8.32907 16.5219C8.42537 16.1312 8.57587 15.756 8.77619 15.4071C8.94202 15.0926 9.01389 14.737 8.98325 14.3827C8.95261 14.0284 8.82075 13.6905 8.60338 13.409C8.47472 13.2611 8.315 13.1434 8.13562 13.0643C7.95624 12.9852 7.76162 12.9467 7.56563 12.9514C7.35357 12.9536 7.14323 12.9898 6.94263 13.0586C6.13234 13.2867 5.39145 13.7126 4.78663 14.298L4.61863 14.4499C4.06869 14.9394 3.25582 15.4071 2.90888 15.3139C2.87169 15.3039 2.78507 15.2807 2.71638 15.0746C2.51382 14.4665 3.45269 13.6068 3.80051 13.4327C5.20313 12.7327 5.85676 12.1079 5.85676 11.4687C5.84348 11.2477 5.76493 11.0357 5.63105 10.8593C5.49718 10.683 5.31399 10.5504 5.10469 10.4782C4.76872 10.3298 4.41139 10.2355 4.04594 10.1987C3.31707 10.0897 3.17401 10.028 3.17401 9.56648C3.17401 9.41423 3.43388 9.27248 3.80094 9.08917C4.26994 8.85467 4.91219 8.53398 4.91219 7.82917C4.91219 6.61686 3.33719 6.01748 2.57944 5.72917L2.45957 5.68542C2.16591 5.56174 1.92798 5.3344 1.79107 5.04667C1.75893 4.96637 1.74519 4.87988 1.75087 4.79357C1.75654 4.70726 1.78149 4.62332 1.82388 4.54792V4.54792Z" fill="black"/>
<path d="M20.569 17.1932C20.3882 17.0921 20.2471 16.9326 20.1687 16.7408C20.1608 16.723 20.1521 16.7055 20.1425 16.6883C19.4862 15.5626 18.655 15.4003 18.2455 15.4165C17.9279 15.4277 17.6188 15.5221 17.3492 15.6903C17.0796 15.8585 16.859 16.0947 16.7094 16.3751C16.5686 16.6336 16.5005 16.9254 16.5123 17.2195C16.5241 17.5136 16.6153 17.799 16.7763 18.0454C17.0896 18.5306 17.0979 18.6628 17.094 18.6881C16.9986 18.8776 16.0138 19.165 14.9708 19.4695L14.399 19.6375C12.7837 20.1135 12.3795 20.9793 12.2819 21.4536C12.2254 21.7269 12.2445 22.0105 12.337 22.2739C12.4295 22.5373 12.5919 22.7705 12.8069 22.9485C13.0707 23.1534 13.3858 23.2815 13.7177 23.3189C14.0496 23.3563 14.3854 23.3014 14.6881 23.1603C16.0492 22.5998 16.87 22.7263 16.9671 22.8698C16.9894 22.9026 16.9785 23.1957 16.3918 23.8003C15.3501 24.8744 15.5093 25.7717 16.0059 26.2529C16.3133 26.5387 16.7194 26.6944 17.139 26.6874C17.3598 26.6904 17.5789 26.6494 17.7836 26.5667C17.9884 26.484 18.1745 26.3612 18.3312 26.2057C18.4485 26.0849 18.5591 25.9563 18.6694 25.8281C19.3256 25.0647 19.8423 24.4605 22.1628 25.8281C24.1915 27.0243 24.9466 26.4927 25.2166 26.0696C25.6305 25.4204 25.2393 24.3323 24.3805 23.7413C24.0877 23.5542 23.8226 23.327 23.593 23.0662C23.5961 23.0601 23.6805 22.9218 24.276 22.7162C24.6415 22.6026 25.0184 22.5293 25.3999 22.4974C26.1436 22.4099 27.0676 22.2984 27.1223 21.1219C27.1661 20.1594 26.8099 19.7552 26.5028 19.5863C26.2946 19.4862 26.0633 19.4436 25.8331 19.463C25.6028 19.4824 25.382 19.563 25.1934 19.6966C24.9265 19.8415 24.6266 19.9149 24.3229 19.9096C24.0193 19.9043 23.7221 19.8205 23.4605 19.6664C23.3251 19.6113 23.2051 19.5244 23.1105 19.4131C23.1253 19.2722 23.5436 18.9174 23.7938 18.7056C24.0126 18.5188 24.2414 18.3259 24.4501 18.1106C25.5911 16.9338 25.9175 15.8654 25.3251 15.2524C25.0723 15.0201 24.7444 14.8864 24.4012 14.8757C24.058 14.865 23.7224 14.9781 23.4556 15.1943C23.1743 15.3841 22.8431 15.6624 22.4883 15.9568C21.9878 16.4052 21.4455 16.8046 20.8687 17.1494C20.8252 17.1787 20.7757 17.1978 20.7238 17.2054C20.672 17.213 20.6191 17.2088 20.569 17.1932V17.1932ZM23.044 16.6301C23.3791 16.3506 23.6958 16.0863 23.94 15.9218C24.0213 15.8667 24.4409 15.6055 24.692 15.8632C24.8421 16.0185 24.622 16.6743 23.817 17.5034C23.6381 17.688 23.4272 17.8665 23.2233 18.0398C22.6817 18.4987 22.1703 18.9323 22.2363 19.5098C22.2985 20.0553 22.8694 20.3493 23.0571 20.446C23.4599 20.6742 23.916 20.7917 24.379 20.7863C24.8419 20.7809 25.2952 20.6529 25.6926 20.4154C25.7483 20.3773 25.8118 20.3521 25.8784 20.3415C25.9451 20.3309 26.0132 20.3352 26.078 20.3541C26.173 20.4066 26.267 20.6258 26.2456 21.083C26.2276 21.4741 26.1296 21.5306 25.2936 21.6303C24.8504 21.67 24.4129 21.758 23.989 21.8928C23.4088 22.0923 22.8077 22.3719 22.729 22.9314C22.648 23.5269 23.2356 24.0208 23.8835 24.4662C24.4221 24.8368 24.5905 25.4252 24.4772 25.6037C24.3897 25.7411 23.8175 25.7931 22.606 25.0787C19.8769 23.4704 18.9078 24.2107 18.004 25.2624C17.9055 25.3775 17.8066 25.493 17.7021 25.6011C17.5538 25.7348 17.3625 25.8109 17.1629 25.8155C16.9633 25.8201 16.7687 25.7528 16.6145 25.626C16.2448 25.2677 16.831 24.6053 17.0191 24.4111C18.0158 23.3834 17.9344 22.7394 17.6907 22.3802C17.5405 22.1994 17.3478 22.0585 17.13 21.9701C16.9121 21.8817 16.6758 21.8486 16.4421 21.8736C15.7227 21.9035 15.0149 22.0657 14.3543 22.3522C14.1984 22.4322 14.0234 22.4674 13.8487 22.4539C13.674 22.4403 13.5065 22.3786 13.3647 22.2756C13.271 22.1996 13.2002 22.0991 13.1602 21.9852C13.1202 21.8714 13.1126 21.7487 13.1381 21.6308C13.2365 21.1495 13.7856 20.7313 14.6448 20.4779L15.2136 20.3108C16.9662 19.7989 17.6911 19.5876 17.9116 18.9961C18.0866 18.5267 17.8084 18.0336 17.5087 17.5716C17.4318 17.4564 17.3884 17.322 17.3833 17.1835C17.3782 17.045 17.4116 16.9078 17.4798 16.7872C17.555 16.6437 17.6666 16.5224 17.8035 16.4357C17.9403 16.3489 18.0976 16.2996 18.2595 16.2928C18.5001 16.3186 18.7298 16.4073 18.9253 16.55C19.1209 16.6927 19.2754 16.8843 19.3733 17.1057C19.5462 17.5088 19.8641 17.8323 20.2641 18.0122C20.4283 18.0707 20.6031 18.0932 20.7767 18.0781C20.9504 18.063 21.1187 18.0107 21.2703 17.9247C21.9033 17.553 22.4975 17.1189 23.044 16.6288V16.6301Z" fill="black"/>
<path d="M18.8125 13.125C18.8125 13.4711 18.9151 13.8095 19.1074 14.0973C19.2997 14.385 19.573 14.6093 19.8928 14.7418C20.2126 14.8743 20.5644 14.9089 20.9039 14.8414C21.2434 14.7739 21.5552 14.6072 21.7999 14.3624C22.0447 14.1177 22.2114 13.8059 22.2789 13.4664C22.3464 13.1269 22.3118 12.7751 22.1793 12.4553C22.0468 12.1355 21.8225 11.8622 21.5348 11.6699C21.247 11.4776 20.9086 11.375 20.5625 11.375C20.0984 11.375 19.6533 11.5594 19.3251 11.8876C18.9969 12.2158 18.8125 12.6609 18.8125 13.125ZM20.5625 12.25C20.7356 12.25 20.9047 12.3013 21.0486 12.3975C21.1925 12.4936 21.3047 12.6303 21.3709 12.7902C21.4371 12.95 21.4545 13.126 21.4207 13.2957C21.3869 13.4654 21.3036 13.6214 21.1812 13.7437C21.0589 13.8661 20.9029 13.9494 20.7332 13.9832C20.5635 14.017 20.3875 13.9996 20.2277 13.9334C20.0678 13.8672 19.9311 13.755 19.835 13.6111C19.7388 13.4672 19.6875 13.2981 19.6875 13.125C19.6875 12.8929 19.7797 12.6704 19.9438 12.5063C20.1079 12.3422 20.3304 12.25 20.5625 12.25Z" fill="black"/>
<path d="M13.5625 17.9375C13.5625 17.6779 13.4855 17.4242 13.3413 17.2083C13.1971 16.9925 12.9921 16.8242 12.7523 16.7249C12.5124 16.6256 12.2485 16.5996 11.9939 16.6502C11.7393 16.7009 11.5055 16.8259 11.3219 17.0094C11.1384 17.193 11.0134 17.4268 10.9627 17.6814C10.9121 17.936 10.9381 18.1999 11.0374 18.4398C11.1367 18.6796 11.305 18.8846 11.5208 19.0288C11.7367 19.173 11.9904 19.25 12.25 19.25C12.5981 19.25 12.9319 19.1117 13.1781 18.8656C13.4242 18.6194 13.5625 18.2856 13.5625 17.9375V17.9375ZM11.8125 17.9375C11.8125 17.851 11.8382 17.7664 11.8862 17.6944C11.9343 17.6225 12.0026 17.5664 12.0826 17.5333C12.1625 17.5002 12.2505 17.4915 12.3354 17.5084C12.4202 17.5253 12.4982 17.567 12.5594 17.6281C12.6205 17.6893 12.6622 17.7673 12.6791 17.8522C12.696 17.937 12.6873 18.025 12.6542 18.1049C12.6211 18.1849 12.565 18.2532 12.4931 18.3013C12.4211 18.3493 12.3365 18.375 12.25 18.375C12.134 18.375 12.0227 18.3289 11.9406 18.2469C11.8586 18.1648 11.8125 18.0535 11.8125 17.9375Z" fill="black"/>
<path d="M18.8125 7.4375C19.0721 7.4375 19.3259 7.36052 19.5417 7.2163C19.7575 7.07208 19.9258 6.8671 20.0251 6.62727C20.1244 6.38744 20.1504 6.12354 20.0998 5.86894C20.0491 5.61434 19.9241 5.38048 19.7406 5.19692C19.557 5.01337 19.3232 4.88836 19.0686 4.83772C18.814 4.78708 18.5501 4.81307 18.3102 4.91241C18.0704 5.01175 17.8654 5.17997 17.7212 5.39581C17.577 5.61165 17.5 5.86541 17.5 6.125C17.5 6.4731 17.6383 6.80693 17.8844 7.05308C18.1306 7.29922 18.4644 7.4375 18.8125 7.4375V7.4375ZM18.8125 5.6875C18.899 5.6875 18.9836 5.71316 19.0556 5.76123C19.1275 5.8093 19.1836 5.87763 19.2167 5.95758C19.2498 6.03752 19.2585 6.12548 19.2416 6.21035C19.2247 6.29522 19.183 6.37317 19.1219 6.43436C19.0607 6.49554 18.9827 6.53721 18.8979 6.55409C18.813 6.57097 18.725 6.56231 18.6451 6.5292C18.5651 6.49608 18.4968 6.44001 18.4487 6.36806C18.4007 6.29611 18.375 6.21153 18.375 6.125C18.375 6.00897 18.4211 5.89769 18.5031 5.81564C18.5852 5.73359 18.6965 5.6875 18.8125 5.6875Z" fill="black"/>
<path d="M8.3125 24.0625C8.65862 24.0625 8.99696 23.9599 9.28475 23.7676C9.57253 23.5753 9.79684 23.302 9.92929 22.9822C10.0617 22.6624 10.0964 22.3106 10.0289 21.9711C9.96135 21.6316 9.79468 21.3198 9.54994 21.0751C9.30519 20.8303 8.99337 20.6637 8.65391 20.5961C8.31444 20.5286 7.96257 20.5633 7.6428 20.6957C7.32303 20.8282 7.04972 21.0525 6.85743 21.3403C6.66514 21.628 6.5625 21.9664 6.5625 22.3125C6.5625 22.7766 6.74687 23.2218 7.07506 23.5499C7.40325 23.8781 7.84837 24.0625 8.3125 24.0625ZM8.3125 21.4375C8.48556 21.4375 8.65473 21.4888 8.79862 21.585C8.94252 21.6811 9.05467 21.8178 9.12089 21.9777C9.18712 22.1375 9.20445 22.3135 9.17069 22.4832C9.13693 22.6529 9.05359 22.8089 8.93122 22.9312C8.80885 23.0536 8.65294 23.1369 8.4832 23.1707C8.31347 23.2045 8.13754 23.1871 7.97765 23.1209C7.81777 23.0547 7.68111 22.9425 7.58496 22.7986C7.48882 22.6547 7.4375 22.4856 7.4375 22.3125C7.4375 22.0804 7.52969 21.8579 7.69378 21.6938C7.85788 21.5297 8.08044 21.4375 8.3125 21.4375V21.4375Z" fill="black"/>
<path d="M21.4375 8.3125H22.3125V9.1875H21.4375V8.3125Z" fill="black"/>
<path d="M6.125 18.8125H7V19.6875H6.125V18.8125Z" fill="black"/>
<path d="M11.8125 24.5H12.6875V25.375H11.8125V24.5Z" fill="black"/>
<path d="M16.625 12.25H17.5V13.125H16.625V12.25Z" fill="black"/>
<path d="M9.19005 8.31401L9.18742 7.43901C8.89721 7.42802 8.60785 7.47708 8.33747 7.58312C8.0671 7.68917 7.82154 7.84991 7.61618 8.05527C7.41082 8.26063 7.25008 8.50619 7.14404 8.77656C7.038 9.04693 6.98893 9.33629 6.99992 9.62651H7.87492C7.8657 9.4515 7.89342 9.2765 7.95628 9.1129C8.01914 8.94931 8.11574 8.80078 8.23979 8.67698C8.36384 8.55318 8.51256 8.45687 8.67628 8.39434C8.84 8.3318 9.01505 8.30443 9.19005 8.31401V8.31401Z" fill="black"/>
<path d="M12.25 10.9375H11.375C11.3825 11.0547 11.3648 11.1721 11.3233 11.2819C11.2818 11.3916 11.2172 11.4913 11.1341 11.5741C11.0509 11.657 10.951 11.7211 10.841 11.7622C10.7311 11.8033 10.6136 11.8205 10.4965 11.8125L10.5 12.6875C10.7316 12.6943 10.9622 12.6536 11.1776 12.5681C11.393 12.4825 11.5886 12.3539 11.7525 12.19C11.9164 12.0261 12.045 11.8305 12.1306 11.6151C12.2161 11.3997 12.2567 11.1692 12.25 10.9375V10.9375Z" fill="black"/>
<path d="M17.9375 20.5593V21.4343C18.0544 21.4267 18.1715 21.4442 18.2811 21.4854C18.3907 21.5267 18.4903 21.5909 18.5731 21.6737C18.6559 21.7566 18.7201 21.8561 18.7614 21.9657C18.8027 22.0753 18.8201 22.1924 18.8125 22.3093H19.6875C19.6943 22.0777 19.6536 21.8471 19.5681 21.6317C19.4825 21.4163 19.3539 21.2207 19.19 21.0568C19.0261 20.8929 18.8305 20.7643 18.6151 20.6787C18.3997 20.5932 18.1692 20.5525 17.9375 20.5593Z" fill="black"/>
</svg>
