<svg width="32" height="32" viewBox="0 0 28 28" fill="none" xmlns="http://www.w3.org/2000/svg">
<path d="M26.6452 17.6129H25.2903V18.5161H24.5659L24.0479 15.1489C23.9454 14.4832 23.3827 14 22.7089 14H13.8717C13.1979 14 12.6352 14.4832 12.5327 15.1489L12.0147 18.5161H11.2903V17.6129H9.93548C9.18852 17.6129 8.58064 18.2208 8.58064 18.9677C8.58064 19.7147 9.18852 20.3226 9.93548 20.3226H11.2903V19.4194H11.8756L11.7934 19.9532C10.9462 20.5208 10.3871 21.4864 10.3871 22.5806V25.2903H11.2903V26.1935C11.2903 26.5241 11.3861 26.8299 11.5414 27.0968H7.67742V12.4952C10.5145 11.8729 12.6452 9.34342 12.6452 6.32258C12.6452 2.83613 9.80903 0 6.32258 0C2.83613 0 0 2.83613 0 6.32258C0 9.34342 2.13071 11.8729 4.96774 12.4952V27.0968H1.80645V28H4.96774H7.67742H26.1935V27.0968H25.0392C25.1946 26.8299 25.2903 26.5241 25.2903 26.1935V25.2903H26.1935V22.5806C26.1935 21.4864 25.6345 20.5208 24.7872 19.9532L24.705 19.4194H25.2903V20.3226H26.6452C27.3921 20.3226 28 19.7147 28 18.9677C28 18.2208 27.3921 17.6129 26.6452 17.6129ZM10.3871 19.4194H9.93548C9.68664 19.4194 9.48387 19.2166 9.48387 18.9677C9.48387 18.7189 9.68664 18.5161 9.93548 18.5161H10.3871V19.4194ZM6.77419 27.0968H5.87097V14.4516H6.77419V27.0968ZM6.77419 13.5484H5.87097V12.6221C6.0209 12.633 6.16994 12.6452 6.32258 12.6452C6.47523 12.6452 6.62426 12.633 6.77419 12.6221V13.5484ZM6.32258 11.7419C3.33426 11.7419 0.903226 9.3109 0.903226 6.32258C0.903226 3.33426 3.33426 0.903226 6.32258 0.903226C9.3109 0.903226 11.7419 3.33426 11.7419 6.32258C11.7419 9.3109 9.3109 11.7419 6.32258 11.7419ZM13.4251 15.2857C13.4594 15.064 13.6473 14.9032 13.8717 14.9032H22.7089C22.9334 14.9032 23.1212 15.064 23.1551 15.2862L23.8063 19.5196C23.5584 19.4564 23.2996 19.4194 23.0323 19.4194H13.5484C13.281 19.4194 13.0223 19.4564 12.7739 19.5192L13.4251 15.2857ZM11.2903 24.3871V23.0323H15.3548V24.3871H11.2903ZM14 26.1935C14 26.6917 13.5949 27.0968 13.0968 27.0968C12.5986 27.0968 12.1935 26.6917 12.1935 26.1935V25.2903H14V26.1935ZM14.6521 27.0968C14.8075 26.8299 14.9032 26.5241 14.9032 26.1935V25.2903H21.6774V26.1935C21.6774 26.5241 21.7732 26.8299 21.9285 27.0968H14.6521ZM16.2581 24.3871V22.5806C16.2581 22.3318 16.4608 22.129 16.7097 22.129H19.871C20.1198 22.129 20.3226 22.3318 20.3226 22.5806V24.3871H16.2581ZM24.3871 26.1935C24.3871 26.6917 23.982 27.0968 23.4839 27.0968C22.9857 27.0968 22.5806 26.6917 22.5806 26.1935V25.2903H24.3871V26.1935ZM25.2903 24.3871H21.2258V23.0323H25.2903V24.3871ZM25.2447 22.129H21.1427C20.9557 21.6047 20.459 21.2258 19.871 21.2258H16.7097C16.1217 21.2258 15.6249 21.6047 15.4379 22.129H11.3359C11.5459 21.0998 12.4577 20.3226 13.5484 20.3226H23.0323C24.1225 20.3226 25.0347 21.0998 25.2447 22.129ZM26.6452 19.4194H26.1935V18.5161H26.6452C26.894 18.5161 27.0968 18.7189 27.0968 18.9677C27.0968 19.2166 26.894 19.4194 26.6452 19.4194Z" fill="#002823"/>
<path d="M7.22579 3.16016H4.51611V9.03112H5.41934V6.77306H7.22579C8.22205 6.77306 9.03224 5.96287 9.03224 4.96661C9.03224 3.97035 8.22205 3.16016 7.22579 3.16016ZM7.22579 5.86983H5.41934V4.06338H7.22579C7.72392 4.06338 8.12902 4.46848 8.12902 4.96661C8.12902 5.46474 7.72392 5.86983 7.22579 5.86983Z" fill="#002823"/>
<path d="M20.3226 17.6133H14.4517V18.5165H20.3226V17.6133Z" fill="#002823"/>
<path d="M22.1291 17.6133H21.2258V18.5165H22.1291V17.6133Z" fill="#002823"/>
<path d="M27.9999 27.0977H27.0967V28.0009H27.9999V27.0977Z" fill="#002823"/>
<path d="M0.903226 27.0977H0V28.0009H0.903226V27.0977Z" fill="#002823"/>
</svg>
