<svg width="28" height="28" viewBox="0 0 28 28" fill="none" xmlns="http://www.w3.org/2000/svg">
<path d="M22.4065 20.0149L17.9484 17.7861C17.5279 17.5756 17.2666 17.1528 17.2666 16.6824V15.1046C17.3735 14.9739 17.4859 14.8251 17.6021 14.6608C18.1803 13.8441 18.6437 12.9351 18.9807 11.9546C19.6391 11.6527 20.0666 11.0017 20.0666 10.2667V8.4C20.0666 7.9506 19.8986 7.5152 19.5999 7.175V4.6928C19.6261 4.43613 19.7287 2.90827 18.6237 1.6478C17.6651 0.5544 16.1097 0 13.9999 0C11.8901 0 10.3347 0.5544 9.3762 1.64733C8.27113 2.9078 8.3738 4.43613 8.39993 4.6928V7.175C8.10127 7.5152 7.93327 7.9506 7.93327 8.4V10.2667C7.93327 10.8346 8.19133 11.3643 8.63187 11.7175C9.05933 13.4101 9.95394 14.6855 10.2666 15.0948V16.639C10.2666 17.0907 10.0202 17.5051 9.624 17.7217L5.46087 19.9925C4.10707 20.7312 3.2666 22.1471 3.2666 23.6889V25.2C3.2666 27.4148 10.2876 28 13.9999 28C17.7123 28 24.7333 27.4148 24.7333 25.2V23.7799C24.7333 22.1755 23.8415 20.7326 22.4065 20.0149ZM23.7999 25.2C23.7999 25.8333 20.341 27.0667 13.9999 27.0667C7.65887 27.0667 4.19993 25.8333 4.19993 25.2V23.6889C4.19993 22.4891 4.8542 21.3864 5.90747 20.8124L10.0706 18.5416C10.7673 18.1613 11.1999 17.4319 11.1999 16.639V14.7635L11.0912 14.6337C11.08 14.6202 9.9362 13.2365 9.49987 11.3367L9.4574 11.1519L9.29827 11.0493C9.02807 10.8747 8.8666 10.5821 8.8666 10.2667V8.4C8.8666 8.1382 8.97767 7.89413 9.17927 7.71167L9.33327 7.57307V4.66667L9.32907 4.60553C9.32767 4.59293 9.169 3.29933 10.0781 2.2624C10.8513 1.3804 12.1711 0.933333 13.9999 0.933333C15.8223 0.933333 17.1392 1.37713 17.9134 2.25307C18.822 3.2802 18.6717 4.59433 18.6708 4.60553L18.6666 7.57307L18.8206 7.71213C19.0222 7.89413 19.1333 8.1382 19.1333 8.4V10.2667C19.1333 10.6741 18.8663 11.0306 18.4697 11.1529L18.2373 11.2243L18.1626 11.4553C17.8504 12.4264 17.4057 13.3233 16.8401 14.1213C16.7015 14.3178 16.5666 14.4919 16.4495 14.6249L16.3333 14.7574V16.6824C16.3333 17.5084 16.792 18.2509 17.5307 18.6205L21.9888 20.8493C23.106 21.4079 23.7999 22.5307 23.7999 23.7799V25.2Z" fill="black"/>
</svg>
