<svg width="28" height="28" viewBox="0 0 28 28" fill="none" xmlns="http://www.w3.org/2000/svg">
<g clip-path="url(#clip0)">
<path d="M22.1288 17.3465C21.5556 16.7497 20.8642 16.4305 20.1314 16.4305C19.4045 16.4305 18.7072 16.7438 18.1103 17.3406L16.2429 19.2021C16.0892 19.1194 15.9356 19.0426 15.7879 18.9658C15.5751 18.8594 15.3742 18.7589 15.2028 18.6526C13.4536 17.5416 11.8639 16.0937 10.3392 14.2204C9.60051 13.2866 9.10411 12.5007 8.74362 11.7029C9.22821 11.2596 9.67734 10.7987 10.1146 10.3555C10.2801 10.19 10.4456 10.0186 10.6111 9.85316C11.8521 8.61215 11.8521 7.00474 10.6111 5.76372L8.99773 4.1504C8.81454 3.9672 8.62543 3.7781 8.44814 3.58899C8.09357 3.2226 7.72126 2.84438 7.33714 2.4898C6.76391 1.92248 6.0784 1.62109 5.35743 1.62109C4.63646 1.62109 3.93912 1.92248 3.34816 2.4898C3.34225 2.49571 3.34226 2.49571 3.33635 2.50162L1.32708 4.52862C0.570656 5.28504 0.139256 6.20694 0.0447028 7.27658C-0.0971274 9.00218 0.411098 10.6096 0.801131 11.6615C1.75848 14.244 3.18861 16.6374 5.32197 19.2021C7.91037 22.2929 11.0247 24.7335 14.5823 26.4532C15.9415 27.0974 17.7557 27.8597 19.7827 27.9897C19.9068 27.9956 20.0369 28.0015 20.155 28.0015C21.5202 28.0015 22.6666 27.511 23.5649 26.536C23.5708 26.5241 23.5826 26.5182 23.5885 26.5064C23.8958 26.1341 24.2504 25.7973 24.6227 25.4368C24.8768 25.1945 25.1368 24.9404 25.3909 24.6744C25.976 24.0657 26.2833 23.3566 26.2833 22.6297C26.2833 21.8969 25.9701 21.1937 25.3732 20.6027L22.1288 17.3465ZM24.2445 23.5693C24.2386 23.5693 24.2386 23.5753 24.2445 23.5693C24.014 23.8175 23.7776 24.0421 23.5235 24.2903C23.1394 24.6567 22.7494 25.0408 22.383 25.4722C21.7861 26.1105 21.0828 26.4119 20.161 26.4119C20.0723 26.4119 19.9778 26.4119 19.8891 26.4059C18.134 26.2937 16.5029 25.6082 15.2796 25.0231C11.9348 23.4039 8.99773 21.105 6.55707 18.1916C4.5419 15.7628 3.19452 13.5171 2.30217 11.106C1.75257 9.63451 1.55165 8.48805 1.64029 7.40659C1.69939 6.71517 1.96532 6.14194 2.45582 5.65144L4.47099 3.63627C4.76056 3.36443 5.06786 3.21669 5.36925 3.21669C5.74155 3.21669 6.04294 3.44125 6.23205 3.63036C6.23795 3.63627 6.24386 3.64218 6.24977 3.64809C6.61026 3.98493 6.95302 4.3336 7.3135 4.7059C7.4967 4.89501 7.6858 5.08412 7.87491 5.27914L9.48823 6.89246C10.1146 7.51887 10.1146 8.09801 9.48823 8.72443C9.31685 8.89581 9.15138 9.06719 8.98 9.23266C8.4836 9.74088 8.01083 10.2136 7.4967 10.6746C7.48488 10.6864 7.47306 10.6923 7.46715 10.7041C6.95893 11.2124 7.05348 11.7088 7.15985 12.0456C7.16576 12.0634 7.17167 12.0811 7.17758 12.0988C7.59716 13.1153 8.18812 14.0726 9.08638 15.2132L9.09229 15.2191C10.7233 17.2283 12.443 18.7944 14.34 19.994C14.5823 20.1477 14.8305 20.2718 15.0669 20.39C15.2796 20.4964 15.4806 20.5968 15.6519 20.7032C15.6756 20.715 15.6992 20.7327 15.7228 20.7446C15.9238 20.845 16.1129 20.8923 16.3079 20.8923C16.7984 20.8923 17.1057 20.585 17.2062 20.4845L19.2272 18.4634C19.4282 18.2625 19.7473 18.0202 20.1196 18.0202C20.486 18.0202 20.7874 18.2507 20.9706 18.4516C20.9765 18.4575 20.9765 18.4575 20.9824 18.4634L24.2386 21.7196C24.8473 22.3224 24.8473 22.9429 24.2445 23.5693Z" fill="black"/>
<path d="M15.1319 6.66076C16.6802 6.92078 18.0867 7.65357 19.2095 8.77639C20.3324 9.89921 21.0592 11.3057 21.3252 12.854C21.3902 13.244 21.727 13.5159 22.1111 13.5159C22.1584 13.5159 22.1998 13.51 22.2471 13.5041C22.6844 13.4331 22.974 13.0195 22.903 12.5822C22.5839 10.7088 21.6975 9.00096 20.3442 7.64766C18.9909 6.29436 17.283 5.40792 15.4097 5.08881C14.9723 5.01789 14.5646 5.30746 14.4878 5.73886C14.4109 6.17026 14.6946 6.58984 15.1319 6.66076Z" fill="black"/>
<path d="M27.9674 12.3514C27.4415 9.26658 25.9877 6.45953 23.7539 4.2257C21.5201 1.99188 18.713 0.538116 15.6282 0.0121628C15.1968 -0.0646619 14.789 0.230818 14.7122 0.662218C14.6413 1.09953 14.9309 1.50729 15.3682 1.58411C18.122 2.05097 20.6336 3.35699 22.6311 5.34852C24.6285 7.34597 25.9286 9.85754 26.3955 12.6114C26.4605 13.0014 26.7973 13.2733 27.1815 13.2733C27.2287 13.2733 27.2701 13.2674 27.3174 13.2615C27.7488 13.1965 28.0443 12.7828 27.9674 12.3514Z" fill="black"/>
</g>
<defs>
<clipPath id="clip0">
<rect width="28" height="28" fill="white"/>
</clipPath>
</defs>
</svg>
