<svg width="32" height="32" viewBox="0 0 28 28" fill="none" xmlns="http://www.w3.org/2000/svg">
<path d="M27.5532 25.8675C26.7981 25.8675 26.1055 25.5162 25.653 24.9039C25.5688 24.7899 25.4354 24.7227 25.2937 24.7227C25.1513 24.7228 25.0179 24.7903 24.9338 24.9046C24.49 25.5075 23.7806 25.8675 23.0361 25.8675C22.2921 25.8675 21.5818 25.5073 21.136 24.9039C21.0517 24.7899 20.9184 24.7227 20.7766 24.7227C20.6348 24.7227 20.5015 24.7899 20.4172 24.9039C19.9714 25.5073 19.261 25.8675 18.5171 25.8675C17.7634 25.8675 17.0715 25.5162 16.6188 24.9039C16.5345 24.7899 16.4012 24.7227 16.2595 24.7227C16.1178 24.7227 15.9844 24.7899 15.9002 24.9039C15.4543 25.5073 14.744 25.8675 14 25.8675C13.2555 25.8675 12.5461 25.5075 12.1023 24.9046C12.0182 24.7905 11.885 24.723 11.7433 24.7227C11.601 24.7227 11.4679 24.7896 11.3836 24.9032C10.9289 25.516 10.2361 25.8675 9.48294 25.8675C8.7385 25.8675 8.02903 25.5075 7.58526 24.9046C7.50114 24.7903 7.36775 24.7228 7.22585 24.7227C7.0837 24.7227 6.95031 24.7899 6.86608 24.9039C6.42028 25.5073 5.70914 25.8675 4.96374 25.8675C4.22121 25.8675 3.51162 25.5073 3.06546 24.9038C2.98117 24.7899 2.8479 24.7227 2.70611 24.7227C2.56432 24.7227 2.43106 24.79 2.34682 24.9039C1.89447 25.5162 1.20191 25.8675 0.446809 25.8675C0.200051 25.8675 0 26.0675 0 26.3143C0 26.5611 0.200051 26.7611 0.446809 26.7611C1.29098 26.7611 2.10322 26.4257 2.70635 25.8445C3.30942 26.4257 4.12089 26.7611 4.96386 26.7611C5.80899 26.7611 6.6217 26.4259 7.22501 25.8449C7.82683 26.4258 8.63842 26.7611 9.48306 26.7611C10.3394 26.7611 11.1385 26.4328 11.7428 25.8457C12.3446 26.4261 13.1559 26.7611 14.0002 26.7611C14.8438 26.7611 15.6554 26.4262 16.2584 25.8457C16.8615 26.4328 17.6601 26.7611 18.5172 26.7611C19.3613 26.7611 20.1735 26.4257 20.7767 25.8445C21.3798 26.4257 22.192 26.7611 23.0362 26.7611C23.8808 26.7611 24.6924 26.4259 25.2942 25.845C25.8973 26.4258 26.7093 26.7611 27.5532 26.7611C27.7999 26.7611 28 26.5611 28 26.3143C28 26.0675 27.7999 25.8675 27.5532 25.8675Z" fill="#002823"/>
<path d="M0.446809 22.9363C1.29098 22.9363 2.10322 22.6009 2.70635 22.0197C3.04688 22.3479 3.45389 22.5976 3.89546 22.7529C3.9169 22.762 3.93936 22.769 3.96236 22.7748C4.28305 22.8798 4.62072 22.9363 4.96386 22.9363C5.30755 22.9363 5.64563 22.88 5.96668 22.7751C5.9889 22.7695 6.01065 22.7628 6.03138 22.754C6.47491 22.5989 6.88353 22.349 7.22501 22.0201C7.82683 22.601 8.63842 22.9363 9.48306 22.9363C10.3394 22.9363 11.1385 22.608 11.7428 22.0209C12.0828 22.3488 12.4897 22.5983 12.9316 22.7534C12.9533 22.7626 12.976 22.7697 12.9993 22.7755C13.3197 22.8801 13.657 22.9363 14.0002 22.9363C14.3427 22.9363 14.6797 22.8802 15 22.7757C15.0237 22.7699 15.047 22.7626 15.0691 22.7531C15.5108 22.598 15.9179 22.3487 16.2584 22.0208C16.8615 22.608 17.6601 22.9363 18.5172 22.9363C19.3613 22.9363 20.1735 22.6009 20.7767 22.0197C21.3798 22.6009 22.192 22.9363 23.0362 22.9363C23.8808 22.9363 24.6924 22.6011 25.2942 22.0202C25.8973 22.601 26.7093 22.9363 27.5532 22.9363C27.7999 22.9363 28 22.7363 28 22.4895C28 22.2427 27.7999 22.0427 27.5532 22.0427C26.7981 22.0427 26.1055 21.6914 25.653 21.0791C25.5688 20.9651 25.4354 20.8979 25.2937 20.8979C25.1513 20.898 25.0179 20.9655 24.9338 21.0798C24.4901 21.6828 23.7806 22.0427 23.0362 22.0427C22.2922 22.0427 21.5819 21.6825 21.136 21.0791C21.0518 20.9651 20.9184 20.8979 20.7767 20.8979C20.6349 20.8979 20.5015 20.9651 20.4173 21.0791C19.9714 21.6825 19.2611 22.0427 18.5172 22.0427C17.7636 22.0427 17.0717 21.6915 16.619 21.0791C16.5347 20.9651 16.4013 20.8979 16.2596 20.8979C16.1179 20.8979 15.9845 20.9651 15.9003 21.0791C15.7433 21.2916 15.553 21.4731 15.3405 21.6201V7.09672C15.3405 5.34463 16.766 3.91913 18.5181 3.91913C20.2703 3.91913 21.6957 5.34463 21.6957 7.09672C21.6957 7.8358 22.297 8.43714 23.0361 8.43714C23.7753 8.43714 24.3766 7.8358 24.3766 7.09672C24.3766 3.86635 21.7485 1.23828 18.5181 1.23828C15.2878 1.23828 12.6597 3.86635 12.6597 7.09672V11.9617H6.30429V7.09672C6.30429 5.34463 7.72973 3.91913 9.48187 3.91913C10.2465 3.91913 10.9864 4.19675 11.5652 4.70087C11.7512 4.86309 12.0335 4.84361 12.1956 4.65744C12.3577 4.47139 12.3382 4.18912 12.1521 4.02708C11.4106 3.38123 10.4623 3.02552 9.48193 3.02552C7.23705 3.02552 5.41073 4.85183 5.41073 7.09672V11.9617H4.51712V7.09672C4.51712 4.35909 6.74431 2.1319 9.48193 2.1319C10.575 2.1319 11.6127 2.4822 12.4829 3.14484C12.6791 3.29437 12.9595 3.25637 13.1091 3.06007C13.2585 2.86377 13.2206 2.58341 13.0243 2.43388C11.9972 1.65167 10.7723 1.23828 9.48193 1.23828C6.25157 1.23828 3.6235 3.86635 3.6235 7.09672V21.6188C3.41189 21.472 3.22226 21.2909 3.06564 21.079C2.98134 20.9651 2.84808 20.8979 2.70629 20.8979C2.5645 20.8979 2.43123 20.9652 2.347 21.0791C1.89447 21.6914 1.20191 22.0427 0.446809 22.0427C0.200051 22.0427 0 22.2427 0 22.4895C0 22.7363 0.200051 22.9363 0.446809 22.9363ZM12.1024 21.0798C12.0183 20.9657 11.8852 20.8982 11.7434 20.8979C11.6011 20.8979 11.468 20.9648 11.3837 21.0784C10.929 21.6913 10.2362 22.0427 9.48306 22.0427C8.73862 22.0427 8.02915 21.6828 7.58538 21.0798C7.50126 20.9655 7.36787 20.898 7.22597 20.8979C7.08382 20.8979 6.95043 20.9651 6.8662 21.0791C6.70874 21.2922 6.51775 21.4742 6.30429 21.6215V19.1107H12.6597V21.62C12.4479 21.473 12.2585 21.2918 12.1024 21.0798ZM12.6597 14.6425V16.4298H6.30429V14.6425H12.6597ZM5.41067 16.4298H4.51706V14.6425H5.41067V16.4298ZM4.51706 17.3234H12.6597V18.217H4.51706V17.3234ZM13.5533 7.09672C13.5533 4.35909 15.7805 2.1319 18.5181 2.1319C21.2558 2.1319 23.4829 4.35909 23.4829 7.09672C23.4829 7.34312 23.2825 7.54352 23.0361 7.54352C22.7897 7.54352 22.5893 7.34312 22.5893 7.09672C22.5893 4.85183 20.763 3.02552 18.5181 3.02552C16.2732 3.02552 14.4469 4.85183 14.4469 7.09672V21.9984C14.3006 22.0271 14.1511 22.0427 14.0001 22.0427C13.849 22.0427 13.6996 22.0272 13.5533 21.9984V7.09672ZM12.6597 12.8553V13.7489H4.51706V12.8553H12.6597ZM4.51706 19.1106H5.41067V21.9986C5.26436 22.0272 5.11489 22.0427 4.96386 22.0427C4.81284 22.0427 4.66337 22.027 4.51706 21.9983V19.1106Z" fill="#002823"/>
</svg>
