<svg width="28" height="28" viewBox="0 0 28 28" fill="none" xmlns="http://www.w3.org/2000/svg">
<g clip-path="url(#clip0)">
<path d="M11.5564 16.7831C11.5765 16.9919 11.751 17.1519 11.9608 17.1539C12.053 17.1548 12.1459 17.1552 12.2397 17.1552C13.435 17.1552 14.7496 17.0725 15.7696 16.6005C15.9096 16.5357 16.0014 16.3978 16.0073 16.2437C16.013 16.0895 15.9318 15.9451 15.797 15.87C15.3853 15.6406 15.0502 15.4035 14.8011 15.1653C14.7248 15.0923 14.6232 15.0516 14.5176 15.0516H11.7225C11.5937 15.0516 11.4723 15.1121 11.3949 15.215C11.3174 15.318 11.2928 15.4514 11.3284 15.5752C11.4398 15.9624 11.5165 16.3687 11.5564 16.7831V16.7831ZM14.3584 15.8719C14.4517 15.9538 14.5525 16.035 14.6605 16.1152C13.9386 16.2898 13.112 16.332 12.3284 16.3348C12.3057 16.179 12.2784 16.0246 12.2464 15.872H14.3584V15.8719ZM28 17.2674C28 16.6064 27.5384 16.0512 26.9206 15.9071C27.0112 15.7221 27.0622 15.5141 27.0622 15.2945C27.0622 14.5245 26.4357 13.8979 25.6657 13.8979H23.157C23.1343 13.8268 23.1052 13.7572 23.0701 13.6896C23.3569 13.3611 23.5139 12.9454 23.5139 12.5052C23.5139 12.0233 23.3262 11.5703 22.9855 11.2296C22.6447 10.8888 22.1917 10.7011 21.7098 10.7011C21.228 10.7011 20.775 10.8888 20.4342 11.2296L19.4936 12.1702C18.9722 12.6916 18.279 12.9787 17.5417 12.9787C16.9005 12.9787 16.2733 13.1341 15.7096 13.4297C15.4866 13.273 15.2186 13.1858 14.9384 13.1858H8.31955C8.1568 13.1858 7.99717 13.215 7.84509 13.2724C7.79674 13.2907 7.749 13.311 7.70093 13.3304V8.30752C7.70093 6.18434 5.97362 4.45703 3.85049 4.45703C3.24346 4.45703 2.66246 4.59435 2.12363 4.86516C1.92123 4.96688 1.83958 5.21341 1.9413 5.41581C2.04291 5.61821 2.28944 5.69986 2.49189 5.59814C2.91545 5.3853 3.37258 5.2774 3.85049 5.2774C5.5213 5.2774 6.88062 6.63671 6.88062 8.30758V13.5002C6.88062 13.5731 6.88636 13.6452 6.89719 13.7164C5.85375 14.3005 4.92127 15.1569 4.20957 16.2003C4.1597 16.2628 4.11474 16.3314 4.07553 16.4046C3.56065 17.2085 3.19195 18.0824 2.98463 18.9784C1.61924 17.7484 0.820312 15.9804 0.820312 14.1282V8.30752C0.820312 7.74938 0.973164 7.20415 1.2623 6.73066C1.38037 6.53734 1.31939 6.28491 1.12607 6.16684C0.932859 6.04882 0.680312 6.10974 0.562297 6.30312C0.194414 6.90539 0 7.5985 0 8.30752V14.1282C0 16.3849 1.05284 18.5307 2.82778 19.9175C2.81887 20.0042 2.81121 20.0911 2.80536 20.178C2.79426 20.3247 2.80711 20.4713 2.8437 20.6137C2.93841 20.9827 3.18642 21.2951 3.52412 21.471C4.69443 22.0805 6.01448 22.4026 7.34152 22.4026H9.38224C9.38897 22.4027 9.39548 22.4027 9.40291 22.4026H14.4055C15.286 23.1389 16.3933 23.5426 17.5415 23.5426H19.2977C19.7231 23.5426 20.1276 23.3381 20.3797 22.9953C20.4665 22.8772 20.5318 22.7466 20.5755 22.6097H22.1257C22.3523 22.6097 22.5358 22.4261 22.5358 22.1996C22.5358 21.9731 22.3523 21.7894 22.1257 21.7894H20.5768C20.0953 20.234 20.4186 18.3168 21.4217 16.7807C21.4385 16.7572 21.4547 16.7327 21.4703 16.7076C21.8228 16.1836 22.2389 15.732 22.7069 15.365C22.9263 15.193 23.0775 14.9658 23.1565 14.7183H25.6656C25.9833 14.7183 26.2419 14.9768 26.2419 15.2946C26.2419 15.6124 25.9833 15.8709 25.6656 15.8709H22.4109C22.1844 15.8709 22.0008 16.0545 22.0008 16.281C22.0008 16.5075 22.1844 16.6912 22.4109 16.6912H26.6034C26.9212 16.6912 27.1797 16.9497 27.1797 17.2675C27.1797 17.5853 26.9211 17.8438 26.6034 17.8438H22.411C22.1844 17.8438 22.0008 18.0274 22.0008 18.2539C22.0008 18.4804 22.1844 18.6641 22.411 18.6641H25.503C25.8208 18.6641 26.0792 18.9226 26.0792 19.2404C26.0792 19.3943 26.0193 19.539 25.9104 19.6479C25.8016 19.7567 25.6569 19.8167 25.503 19.8167C25.5029 19.8167 25.5029 19.8167 25.5029 19.8167H23.681H22.1887C21.9621 19.8167 21.7785 20.0003 21.7785 20.2268C21.7785 20.4533 21.9622 20.637 22.1887 20.637H23.681C23.9988 20.637 24.2573 20.8955 24.2573 21.2133C24.2573 21.4455 24.1191 21.654 23.9052 21.7445C23.6966 21.8327 23.5989 22.0734 23.6872 22.282C23.7534 22.4384 23.9053 22.5325 24.0651 22.5325C24.1184 22.5325 24.1726 22.522 24.2248 22.5C24.7429 22.2808 25.0776 21.7757 25.0776 21.2133C25.0776 21.0079 25.0331 20.8127 24.9531 20.637H25.503H25.503C25.876 20.637 26.2267 20.4917 26.4905 20.228C26.7543 19.9642 26.8996 19.6135 26.8996 19.2404C26.8996 19.0312 26.8533 18.8326 26.7705 18.6542C27.462 18.5712 28 17.9809 28 17.2674ZM22.2007 14.7195C21.6628 15.1413 21.1863 15.6587 20.7845 16.2573C20.7811 16.2624 20.7778 16.2676 20.7746 16.2729C20.7674 16.2847 20.7597 16.2964 20.7514 16.3077C20.7476 16.3131 20.7438 16.3185 20.7402 16.3239C19.6003 18.0644 19.2387 20.2561 19.7967 22.0439C19.846 22.2019 19.8169 22.3759 19.7188 22.5093C19.6207 22.6426 19.4633 22.7223 19.2977 22.7223H17.5416C16.5421 22.7223 15.5795 22.3544 14.8313 21.6864C14.7561 21.6193 14.6589 21.5823 14.5581 21.5823H9.39646C9.39405 21.5823 9.39138 21.5823 9.38897 21.5823H7.34152C6.14589 21.5823 4.95688 21.2922 3.90305 20.7435C3.77163 20.675 3.67511 20.5534 3.63825 20.4098C3.63825 20.4098 3.63825 20.4098 3.63825 20.4097C3.62398 20.3543 3.61895 20.2972 3.62359 20.2366C3.63366 20.087 3.64897 19.9375 3.6692 19.7882C3.66931 19.7876 3.66942 19.787 3.66948 19.7864C3.80904 18.7599 4.18698 17.7474 4.77515 16.8332C4.78215 16.8224 4.78866 16.8111 4.79456 16.7996C4.81261 16.7647 4.83306 16.7333 4.85537 16.7063C4.86347 16.6964 4.87113 16.6862 4.87834 16.6756C5.70626 15.4564 6.86273 14.5204 8.13487 14.0399C8.19405 14.0176 8.25617 14.0062 8.3195 14.0062H14.9383C15.1106 14.0062 15.2781 14.0966 15.3752 14.242C15.5479 14.5007 16.301 15.0596 17.3689 15.4376C18.3312 15.7784 19.2067 15.8517 19.8337 15.6441C19.9164 15.6168 19.9881 15.5638 20.0387 15.4929C20.4753 14.8807 20.9856 14.3437 21.5555 13.8968C21.7648 13.7327 22.0607 13.7543 22.2451 13.9366C22.2459 13.9374 22.2465 13.9382 22.2473 13.939C22.2484 13.9401 22.2498 13.9409 22.2509 13.9421C22.2644 13.9558 22.2773 13.9702 22.2894 13.9856C22.3641 14.0809 22.3999 14.1941 22.4001 14.3067C22.4001 14.3072 22.4 14.3077 22.4 14.3082C22.4 14.31 22.4003 14.3118 22.4003 14.3136C22.3986 14.4667 22.3303 14.6178 22.2007 14.7195V14.7195ZM22.4846 13.1102C22.0338 12.8828 21.4724 12.9196 21.0494 13.2512C20.4549 13.7174 19.9198 14.2708 19.457 14.8979C19.0107 14.9974 18.346 14.9132 17.6427 14.6643C17.0757 14.4636 16.6386 14.2147 16.3651 14.0283C16.7368 13.8774 17.1357 13.799 17.5416 13.799C18.498 13.799 19.3973 13.4265 20.0736 12.7502L21.0142 11.8096C21.2 11.6238 21.4471 11.5215 21.7098 11.5215C21.9726 11.5215 22.2196 11.6238 22.4055 11.8096C22.5913 11.9954 22.6936 12.2425 22.6936 12.5052C22.6936 12.7274 22.6196 12.938 22.4846 13.1102V13.1102ZM14.3014 18.0797C13.537 18.1886 12.7868 18.2012 12.2891 18.2012C12.1563 18.2012 12.0292 18.2002 11.9073 18.1989C11.9059 18.1988 11.9043 18.1988 11.9028 18.1988C11.7032 18.1988 11.5323 18.3427 11.4986 18.5399C11.4113 19.0513 11.2615 19.524 11.0534 19.9449C10.9905 20.072 10.9978 20.2226 11.0726 20.343C11.1474 20.4635 11.2792 20.5368 11.421 20.5368H14.3334C14.5128 20.5368 14.6713 20.4203 14.7248 20.249C14.961 19.4936 14.847 18.7599 14.758 18.3898C14.7086 18.1842 14.5113 18.0498 14.3014 18.0797V18.0797ZM14.0106 19.7165H12.0386C12.1179 19.4932 12.1849 19.2613 12.2391 19.0214C12.2557 19.0214 12.2723 19.0215 12.289 19.0215C12.7272 19.0215 13.3528 19.012 14.0243 18.9405C14.0509 19.1629 14.0586 19.4336 14.0106 19.7165ZM18.6915 16.7903C18.3956 16.7681 18.084 16.7186 17.7652 16.643C17.6273 16.6105 17.4817 16.6514 17.3811 16.7516C17.0153 17.1161 16.553 17.4146 16.0071 17.6386C15.8184 17.7161 15.7153 17.9204 15.7651 18.1183C15.8928 18.6249 16.0523 19.6311 15.6853 20.6788C15.6241 20.8536 15.6876 21.0479 15.8404 21.1526C16.3404 21.4956 16.9286 21.6768 17.5416 21.6768H18.1431C18.2611 21.6768 18.3734 21.626 18.4513 21.5373C18.5292 21.4487 18.5651 21.3307 18.5499 21.2137C18.3854 19.9501 18.5562 18.6128 19.0437 17.3467C19.0904 17.2256 19.0769 17.0896 19.0075 16.9799C18.9381 16.8703 18.8209 16.7999 18.6915 16.7903V16.7903ZM17.6898 20.8565H17.5416C17.1959 20.8565 16.8614 20.7777 16.5597 20.6266C16.8103 19.7015 16.7427 18.8378 16.6346 18.2568C17.0719 18.0461 17.4604 17.7891 17.7942 17.4895C17.8981 17.5109 18.0013 17.5297 18.1036 17.546C17.7526 18.636 17.6116 19.7641 17.6898 20.8565V20.8565ZM9.88192 19.2119C8.85052 18.3614 7.24998 17.7239 5.80437 17.5878C5.64009 17.5724 5.48368 17.6562 5.40537 17.8007C5.08769 18.3864 4.86724 19.0059 4.75027 19.6418C4.71477 19.8348 4.82087 20.0259 5.00347 20.0978C5.74416 20.3891 6.53078 20.5369 7.34158 20.5369H9.09781C9.19062 20.5369 9.28069 20.5054 9.35331 20.4475C9.59246 20.2571 9.80011 20.0202 9.97041 19.7432C10.0776 19.5688 10.0399 19.3421 9.88192 19.2119V19.2119ZM8.94562 19.7165H7.34152C6.75248 19.7165 6.17876 19.6274 5.63117 19.4513C5.719 19.1053 5.84276 18.7659 6.00108 18.4369C7.06519 18.5876 8.21931 19.0334 9.04991 19.6105C9.01627 19.6476 8.98149 19.6829 8.94562 19.7165ZM9.74679 15.0516H8.49767C8.44348 15.0516 8.38983 15.0623 8.33979 15.0832C7.80183 15.3075 7.29345 15.6245 6.82894 16.0255C6.71207 16.1263 6.66176 16.2842 6.69867 16.4341C6.73564 16.584 6.85355 16.7004 7.00388 16.7354C8.05334 16.9798 9.08474 17.4068 9.90812 17.9377C9.97555 17.9812 10.0529 18.0032 10.1304 18.0032C10.1961 18.0032 10.262 17.9874 10.3222 17.9555C10.4532 17.8861 10.5367 17.7515 10.5404 17.6032C10.5602 16.8067 10.4084 15.9675 10.124 15.3007C10.0595 15.1497 9.91107 15.0516 9.74679 15.0516V15.0516ZM8.0202 16.166C8.20247 16.0541 8.38988 15.956 8.58162 15.8719H9.46515C9.57026 16.1771 9.64534 16.5145 9.6862 16.8605C9.16841 16.5883 8.60333 16.3528 8.0202 16.166Z" fill="black"/>
</g>
<defs>
<clipPath id="clip0">
<rect width="28" height="28" fill="white"/>
</clipPath>
</defs>
</svg>
