<svg width="32" height="32" viewBox="0 0 28 28" fill="none" xmlns="http://www.w3.org/2000/svg">
<g clip-path="url(#clip0)">
<path d="M27.8667 27.2257L23.0484 22.4074C23.2411 21.7126 23.319 20.8257 23.0964 20.1061C23.3747 19.9348 23.6476 19.7688 23.8894 19.6216C25.4269 18.6858 25.4312 18.6741 25.5032 18.4789C26.3167 16.2731 25.0137 14.0758 24.6139 13.4787C24.7727 12.6353 24.704 11.681 24.251 10.6732C25.8654 9.02751 26.5553 6.7454 26.0512 4.70016C26.0109 4.53646 25.8831 4.40868 25.7194 4.36835C24.1814 3.98925 22.4703 4.28623 21.0072 5.18225C20.3182 4.97446 19.6468 4.92838 19.0098 5.0437C18.5696 3.71791 17.4267 3.00747 17.0529 2.86125C16.8655 2.78784 16.7213 2.83386 16.6332 2.88544C16.2234 3.1257 15.6856 3.25868 15.1656 3.3873C14.343 3.59079 13.4948 3.80112 13.1194 4.47514C12.6902 4.43227 12.2343 4.42217 11.787 4.43215C11.3956 3.71397 10.8995 3.05041 10.3089 2.45965C8.29173 0.442776 5.47123 -0.423794 2.94825 0.198044C2.78455 0.238379 2.65678 0.366218 2.61644 0.529857C1.9946 3.05295 2.86123 5.87333 4.87811 7.89033C4.91216 7.92437 4.94669 7.95787 4.98128 7.99138C3.31538 7.7161 1.64035 7.96525 0.239022 8.72073C0.0906833 8.80074 -0.00111405 8.9564 0.000760597 9.12499C0.0297269 11.7235 1.57432 14.2375 4.03156 15.6858C4.15262 15.7573 4.27677 15.8253 4.40141 15.891C4.61959 16.2043 4.88313 16.5093 5.19995 16.7817C5.16342 16.8886 5.13204 17.0002 5.10797 17.1171C4.88283 18.211 5.27197 19.4631 6.26439 20.8388C6.3014 20.8901 6.33635 20.94 6.37015 20.9892L4.48752 22.8718C4.3104 23.049 4.3104 23.3361 4.48752 23.5132C4.57611 23.6017 4.69222 23.6461 4.80827 23.6461C4.92431 23.6461 5.04042 23.6018 5.12901 23.5132L6.84456 21.7977C6.98262 22.0836 7.07115 22.331 7.15382 22.5626C7.32314 23.037 7.48309 23.4851 7.97479 23.9769C8.65033 24.6525 9.54756 24.7508 10.4975 24.8549C10.8111 24.8892 11.1353 24.9248 11.4566 24.9826C11.5752 25.0039 11.6981 25.0274 11.8246 25.0517C12.3838 25.1588 13.0509 25.2866 13.7341 25.2866C14.8234 25.2866 15.9531 24.9614 16.7491 23.7093C16.9187 23.7234 17.089 23.7323 17.2613 23.7323C17.4803 23.7323 17.7024 23.7185 17.9294 23.686C18.187 24.0457 18.6237 24.2276 19.2319 24.2276C19.2715 24.2276 19.3118 24.2268 19.3529 24.2253C19.9066 24.2045 20.5285 24.0546 21.13 23.9096C21.4961 23.8214 21.8419 23.738 22.1314 23.6948C22.3337 23.6646 22.5091 23.5369 22.6653 23.3073L27.2253 27.8673C27.3139 27.9558 27.43 28.0001 27.546 28.0001C27.6621 28.0001 27.7782 27.9559 27.8668 27.8673C28.0438 27.69 28.0438 27.4029 27.8667 27.2257ZM24.6904 18.0551C24.4848 18.1974 23.9219 18.54 23.4178 18.8468C22.7363 19.2616 22.1256 19.6357 21.6336 19.9519C21.6436 19.9164 21.6536 19.8808 21.6636 19.8454C21.8416 19.2128 22.0256 18.5586 22.3128 17.9854C22.5846 17.4428 22.7402 16.9197 22.7816 16.4194C23.3085 16.0382 23.8606 15.4178 24.235 14.6327C24.6422 15.4374 25.1142 16.7633 24.6904 18.0551ZM25.2291 5.19065C25.5145 6.74764 25.0051 8.44171 23.8632 9.75687C23.555 8.85698 23.5017 8.05796 23.5108 7.55029L24.2031 6.858C24.3802 6.68088 24.3802 6.39369 24.2031 6.21663C24.0259 6.03951 23.7388 6.03951 23.5617 6.21663L23.3106 6.46771C23.1166 6.30069 22.6794 5.95067 22.0839 5.63222C23.0999 5.1612 24.204 5.00367 25.2291 5.19065ZM21.2324 6.22824C21.8736 6.50248 22.3789 6.8765 22.6275 7.07921C22.5686 7.68091 22.53 9.21365 23.3576 10.9036C23.9665 12.1473 23.802 13.218 23.5568 13.8971C23.3441 14.4859 23.0097 14.9648 22.6743 15.3116C22.6582 15.2569 22.6405 15.2026 22.6212 15.1487C22.3226 14.3143 21.7031 13.7786 21.2783 13.493C21.6573 13.327 22.0309 13.0079 22.1874 12.4387C22.5258 11.2081 21.7452 10.3737 20.9187 9.49019C20.3106 8.84017 19.6214 8.10343 19.1105 7.03633C18.9487 6.69847 18.7561 6.39545 18.537 6.12906C19.3513 5.77844 20.2553 5.81019 21.2324 6.22824ZM8.43983 19.2202C7.39196 18.3132 6.94803 16.4732 7.28129 14.4185C7.40423 13.6604 7.32967 13.0591 7.26394 12.5286C7.17601 11.8195 7.10653 11.2593 7.50141 10.4587C8.42217 8.59169 10.3452 7.69192 11.8427 7.62836C12.313 7.60816 12.7313 7.67347 13.0653 7.80996C11.9452 8.01684 10.8432 8.62531 10.1113 9.48535C9.34673 10.3837 9.06729 11.4748 9.32448 12.5576C9.37776 12.782 9.44911 12.9883 9.53426 13.1791C9.00791 13.634 8.56875 14.477 8.39604 15.4037C8.24432 16.2178 8.17242 17.8018 9.39493 19.2643C9.55204 19.4522 9.72577 19.6283 9.91378 19.7923C9.35967 19.7761 8.86047 19.5844 8.43983 19.2202ZM15.4693 5.6939C16.3556 5.64492 17.5633 5.9055 18.2924 7.42807C18.8637 8.62107 19.6359 9.44653 20.2563 10.1098C21.1075 11.0197 21.5079 11.4886 21.3129 12.1982C21.2114 12.5674 20.9168 12.6863 20.7191 12.7244C20.4132 11.9458 19.8929 11.4157 19.2368 11.2245C19.1863 10.7568 19.0457 10.3245 18.814 9.93C18.1098 8.73114 16.5616 7.96719 14.4394 7.76472C14.12 7.30411 13.6107 6.98354 12.9699 6.82734C13.5199 6.19317 14.6036 5.7421 15.4693 5.6939ZM14.1184 8.64762C16.0654 8.78919 17.4552 9.40776 18.0317 10.3894C18.3411 10.9159 18.4237 11.556 18.2817 12.3013C17.9989 11.6608 17.5762 11.085 17.0408 10.6292C16.2573 9.96248 15.3207 9.63907 14.4043 9.71883C12.5301 9.88181 11.9299 11.0329 11.7389 11.7045C11.4997 12.5457 11.6534 13.539 12.0765 14.2457C11.2971 13.9686 10.4623 13.4228 10.207 12.3479C9.96519 11.3298 10.3971 10.5489 10.8021 10.0731C11.5886 9.149 12.9525 8.56278 14.1184 8.64762ZM13.4861 14.0006C13.4861 13.4504 13.9337 13.0028 14.4839 13.0028C15.0341 13.0028 15.4817 13.4504 15.4817 14.0006C15.4817 14.5508 15.0341 14.9984 14.4839 14.9984C13.9337 14.9984 13.4861 14.5508 13.4861 14.0006ZM13.1729 15.4115C13.1768 15.4119 13.1805 15.4123 13.1839 15.4127C13.1931 15.4146 13.2025 15.4156 13.2117 15.4169C13.5493 15.7204 13.9953 15.9055 14.4839 15.9055C15.5343 15.9055 16.3888 15.0509 16.3888 14.0006C16.3888 12.9502 15.5343 12.0957 14.4839 12.0957C13.6422 12.0957 12.9267 12.6447 12.6755 13.4033C12.5218 12.9742 12.4717 12.444 12.6114 11.9526C12.8341 11.1695 13.4812 10.7096 14.4828 10.6224C15.1563 10.5642 15.8556 10.8116 16.4528 11.32C17.2028 11.9583 17.6943 12.9324 17.7677 13.9255C17.9256 16.0655 16.8773 16.8324 15.2548 17.3255C13.5044 17.8573 12.451 17.1558 11.9791 16.6903C11.4551 16.1734 11.1546 15.4779 11.1465 14.8312C11.901 15.223 12.6972 15.3625 13.1729 15.4115ZM10.0909 18.6825C9.10684 17.5052 9.16526 16.227 9.28777 15.5698C9.42118 14.8539 9.73231 14.2722 10.0274 13.961C10.1119 14.06 10.2012 14.1518 10.294 14.2379C10.0872 15.2796 10.4922 16.4977 11.3421 17.3361C12.0651 18.0493 13.0143 18.4191 14.0617 18.419C14.5314 18.419 15.021 18.3446 15.5186 18.1934C17.0783 17.7195 18.837 16.8101 18.6787 13.9789C18.9642 13.3454 19.1446 12.7498 19.219 12.1947C19.7109 12.4801 19.9267 13.124 20.0155 13.5212C20.384 15.1676 19.7661 17.6676 18.0942 19.0015C16.9376 19.9243 15.3674 20.4063 13.7852 20.3236C12.2418 20.243 10.8953 19.6448 10.0909 18.6825ZM15.3833 4.26796C15.885 4.14387 16.4013 4.01616 16.8689 3.78745C17.1702 3.96959 17.8517 4.46208 18.1415 5.31069C18.0371 5.35683 17.934 5.40805 17.8322 5.46381C17.1556 4.97507 16.3306 4.73723 15.4188 4.78821C15.1695 4.80206 14.9209 4.83731 14.6773 4.89101C14.5277 4.80514 14.3563 4.73366 14.1685 4.6747C14.4584 4.49715 14.9118 4.38461 15.3833 4.26796ZM13.3218 5.40914C12.7148 5.75244 12.2224 6.21088 11.9505 6.71922C11.9019 6.71982 11.8536 6.71994 11.8042 6.72206C10.0393 6.79692 7.77287 7.85731 6.68788 10.0575C6.55719 10.3225 6.46612 10.5705 6.4042 10.8056C6.33405 10.5081 6.31573 10.199 6.35014 9.87546C6.56645 7.84225 8.77938 5.95533 9.24097 5.58215C10.4072 5.39142 12.1584 5.24393 13.3218 5.40914ZM3.43705 1.01866C5.58347 0.596981 7.94643 1.38022 9.6673 3.10115C10.0906 3.52439 10.4595 3.98876 10.7695 4.48591C9.87345 4.55811 9.15201 4.67652 8.97422 4.70711C8.90268 4.71939 8.83514 4.74872 8.77726 4.7925C8.74721 4.81524 8.55327 4.96382 8.27286 5.21303L5.51949 2.45972C5.3423 2.28259 5.05518 2.28259 4.87805 2.45972C4.70093 2.63684 4.70093 2.92402 4.87805 3.10109L7.61758 5.84055C7.12044 6.35318 6.55683 7.02521 6.12566 7.79333C5.91546 7.62255 5.71203 7.44132 5.51955 7.24883C3.79862 5.52803 3.01544 3.16513 3.43705 1.01866ZM0.917524 9.39307C2.30622 8.72866 3.97544 8.6082 5.59078 9.05255C5.5236 9.28954 5.47462 9.53143 5.44837 9.77689C5.44801 9.78045 5.44789 9.78396 5.44752 9.78753C4.88356 10.0762 4.5925 10.4946 4.41943 10.9306L3.29428 10.2674C3.07851 10.1403 2.80052 10.212 2.67322 10.4278C2.54599 10.6436 2.61783 10.9216 2.8336 11.0489L4.175 11.8395C4.05569 12.4151 3.96075 12.7828 3.61853 13.026C3.50333 13.1078 3.43161 13.2443 3.42665 13.3855C3.42351 13.4734 3.47527 13.8345 3.6299 14.3152C2.0307 13.0601 1.02758 11.2605 0.917524 9.39307ZM4.367 13.5805C4.83554 13.1271 4.95872 12.5303 5.06896 11.9959C5.17026 11.5052 5.25818 11.143 5.49221 10.8759C5.61376 11.5017 5.90457 12.0897 6.36284 12.6333C6.36314 12.6356 6.36338 12.6378 6.36368 12.6401C6.42482 13.1333 6.48801 13.6432 6.38582 14.2732C6.32407 14.6539 6.28718 15.0292 6.27346 15.3957C6.06864 15.5204 5.84586 15.7114 5.64678 15.9626C4.8281 15.1722 4.47234 14.0621 4.367 13.5805ZM11.9953 24.1607C11.8654 24.1358 11.7391 24.1116 11.6172 24.0897C11.2652 24.0264 10.9251 23.9891 10.5963 23.9531C9.7753 23.8631 9.06626 23.7855 8.61629 23.3354C8.26881 22.9879 8.1651 22.6973 8.00811 22.2576C7.83431 21.7707 7.61806 21.1648 6.99997 20.308C6.1741 19.1632 5.82705 18.123 5.99643 17.2998C6.05896 16.996 6.18353 16.7602 6.31397 16.5832C6.46806 17.9851 6.99943 19.1732 7.84611 19.9061C8.26512 20.2688 8.74648 20.5089 9.26836 20.6228C9.4554 21.4028 9.88451 22.1418 10.4501 22.6541C11.1648 23.3018 12.057 23.5779 13.0293 23.4526C14.0572 23.3202 14.89 23.4485 15.6952 23.5725C15.7028 23.5737 15.7103 23.5748 15.7179 23.576C14.7394 24.6852 13.2902 24.4087 11.9953 24.1607ZM15.8334 22.676C15.0062 22.5486 14.0685 22.4041 12.9136 22.553C11.363 22.7529 10.5355 21.5547 10.2335 20.691C10.5024 20.6733 10.7775 20.6269 11.0567 20.5499C11.8437 20.9417 12.7592 21.1784 13.7379 21.2295C13.8697 21.2364 14.0012 21.2398 14.1328 21.2398C15.7982 21.2398 17.4294 20.6924 18.6599 19.7106C20.3165 18.3888 21.0461 16.217 21.0236 14.4347C21.3 14.6648 21.6084 15.0048 21.77 15.462C21.9874 16.0775 21.8972 16.7899 21.5017 17.5791C21.1758 18.2297 20.9799 18.9261 20.7904 19.5997C20.4899 20.6677 20.2305 21.59 19.5548 22.0536C18.1316 23.0302 17.1173 22.8738 15.8334 22.676ZM21.9086 22.8116C21.6031 22.8624 21.2692 22.9429 20.9175 23.0277C20.376 23.1582 19.6528 23.3325 19.1615 23.3196C19.4513 23.1874 19.7523 23.0182 20.068 22.8015C20.5722 22.4556 20.9013 21.9613 21.1472 21.4036C21.3158 21.2445 21.7623 20.9445 22.2866 20.6113C22.4332 21.4498 22.1132 22.5473 21.9086 22.8116Z" fill="#002823"/>
</g>
<defs>
<clipPath id="clip0">
<rect width="28" height="28" fill="white"/>
</clipPath>
</defs>
</svg>
