<svg width="28" height="28" viewBox="0 0 28 28" fill="none" xmlns="http://www.w3.org/2000/svg">
<g clip-path="url(#clip0)">
<path d="M26.8775 7.34902L25.4727 6.52273V5.43518C25.4727 5.20895 25.2894 5.02588 25.0634 5.02588C24.8372 5.02588 24.6539 5.20895 24.6539 5.43518V6.01965L21.8076 4.34571V2.88731H24.6539V3.52946C24.6539 3.75547 24.8372 3.93876 25.0632 3.93876C25.2894 3.93876 25.4727 3.75547 25.4727 3.52946V2.86638H25.5797C25.963 2.86638 26.2746 2.5547 26.2746 2.17147V0.694912C26.2746 0.311888 25.963 0 25.5797 0H20.8815C20.4983 0 20.1866 0.311888 20.1866 0.694912V2.17147C20.1866 2.5547 20.4983 2.86638 20.8815 2.86638H20.9888V3.88557L14.9426 0.329618C14.3612 -0.01239 13.6387 -0.01239 13.0572 0.329618L1.12237 7.34902C0.430021 7.75618 0 8.50792 0 9.31113C0 10.1398 0.430021 10.8793 1.15035 11.2893C1.63506 11.5653 2.18086 11.6511 2.70317 11.5492C2.76747 12.0664 3.03749 12.5206 3.42863 12.8273C2.97832 13.1805 2.68822 13.729 2.68822 14.3445C2.68822 14.9597 2.97832 15.5083 3.42863 15.8614C2.97832 16.2145 2.68822 16.7631 2.68822 17.3786C2.68822 17.9938 2.97832 18.5424 3.42863 18.8957C2.97832 19.2488 2.68822 19.7974 2.68822 20.4126C2.68822 21.0281 2.97832 21.5767 3.42863 21.9298C2.97832 22.2829 2.68822 22.8315 2.68822 23.4469C2.68822 23.894 2.84138 24.3055 3.09773 24.6327C2.36714 24.8549 1.83416 25.5346 1.83416 26.337V27.0727C1.83416 27.5737 2.24153 27.9813 2.74269 27.9813H25.2576C25.7585 27.9813 26.1659 27.5737 26.1659 27.0727V26.337C26.1659 25.5346 25.6329 24.8549 24.9023 24.6327C25.1587 24.3057 25.3118 23.894 25.3118 23.4469C25.3118 22.8315 25.0217 22.2829 24.5714 21.9298C25.0217 21.5767 25.3118 21.0281 25.3118 20.4126C25.3118 19.7974 25.0217 19.2488 24.5714 18.8957C25.0217 18.5424 25.3118 17.9938 25.3118 17.3786C25.3118 16.7631 25.0217 16.2145 24.5714 15.8614C25.0217 15.5083 25.3118 14.9597 25.3118 14.3445C25.3118 13.729 25.0217 13.1805 24.5714 12.8273C24.9623 12.5206 25.2324 12.0666 25.2967 11.5495C25.4377 11.577 25.5804 11.5913 25.7231 11.5913C26.1093 11.5913 26.4957 11.4909 26.8497 11.2895C27.57 10.8795 28 10.1398 28 9.31113C27.9998 8.50792 27.5698 7.75618 26.8775 7.34902ZM21.0052 0.818812H25.456V2.04778H21.0052V0.818812ZM18.7075 7.79207L22.1468 9.83451C22.1103 9.86505 5.88998 9.86484 5.85345 9.83429L9.29212 7.79207H18.7075ZM10.6708 6.97326L13.9999 4.99619L17.329 6.97326H10.6708ZM6.54345 11.3102C6.54345 11.1152 6.51376 10.9272 6.45971 10.7494H21.5403C21.4861 10.927 21.4564 11.1152 21.4564 11.3102C21.4564 11.9257 21.7465 12.4742 22.1968 12.8273C22.1857 12.8361 22.175 12.8455 22.1641 12.8545H5.83572C5.82483 12.8455 5.81414 12.8361 5.80304 12.8273C6.25335 12.474 6.54345 11.9257 6.54345 11.3102ZM22.275 23.4469C22.275 22.8471 22.7541 22.3579 23.3497 22.3397C23.3613 22.3399 23.3726 22.3406 23.3841 22.3406C23.3956 22.3406 23.407 22.3399 23.4185 22.3397C24.0141 22.3581 24.493 22.8471 24.493 23.4469C24.493 24.0583 23.9955 24.5558 23.3841 24.5558C22.7725 24.5558 22.275 24.0583 22.275 23.4469ZM23.3497 13.2371C23.3613 13.2373 23.3726 13.2379 23.3841 13.2379C23.3956 13.2379 23.407 13.2373 23.4185 13.2371C24.0141 13.2554 24.493 13.7444 24.493 14.3445C24.493 14.9446 24.0137 15.4337 23.4176 15.4517C23.4065 15.4515 23.3954 15.4508 23.3841 15.4508C23.3728 15.4508 23.3617 15.4515 23.3504 15.4517C22.7546 15.4337 22.275 14.9446 22.275 14.3445C22.275 13.7444 22.7541 13.2554 23.3497 13.2371ZM22.275 11.3102C22.275 10.8603 22.545 10.4737 22.931 10.3002L24.4894 11.2256C24.4915 11.2536 24.493 11.2818 24.493 11.3102C24.493 11.9103 24.0139 12.3993 23.4183 12.4176C23.407 12.4174 23.3956 12.4166 23.3841 12.4166C23.3724 12.4166 23.361 12.4174 23.3497 12.4176C22.7541 12.399 22.275 11.9103 22.275 11.3102ZM23.3504 16.2714C23.3617 16.2714 23.3728 16.2722 23.3841 16.2722C23.3954 16.2722 23.4065 16.2716 23.4176 16.2714C24.0137 16.2893 24.493 16.7785 24.493 17.3786C24.493 17.9784 24.0141 18.4676 23.4185 18.4858C23.407 18.4855 23.3956 18.4849 23.3841 18.4849C23.3726 18.4849 23.3613 18.4855 23.3497 18.4858C22.7541 18.4674 22.275 17.9784 22.275 17.3786C22.275 16.7785 22.7546 16.2893 23.3504 16.2714ZM23.3497 19.3054C23.3613 19.3056 23.3726 19.3063 23.3841 19.3063C23.3956 19.3063 23.407 19.3056 23.4183 19.3054C24.0139 19.3238 24.493 19.8128 24.493 20.4126C24.493 21.0127 24.0141 21.5017 23.4185 21.52C23.407 21.5198 23.3956 21.5192 23.3841 21.5192C23.3726 21.5192 23.3613 21.5198 23.3497 21.52C22.7541 21.5017 22.275 21.0127 22.275 20.4126C22.275 19.8128 22.7541 19.3238 23.3497 19.3054ZM6.42254 13.6731H8.86082V15.8123H5.86242C6.27834 15.4583 6.54345 14.9322 6.54345 14.3445C6.54345 14.1082 6.50051 13.8822 6.42254 13.6731ZM6.3922 16.6309H8.86082V18.7359H5.98205C6.32855 18.3873 6.54345 17.9077 6.54345 17.3786C6.54345 17.1135 6.4894 16.861 6.3922 16.6309ZM6.34158 19.5545H8.86082V21.6935H6.05404C6.35803 21.3528 6.54345 20.9044 6.54345 20.4126C6.54345 20.1046 6.47082 19.813 6.34158 19.5545ZM18.3202 24.5558H17.4997V17.8329C17.4997 15.9033 15.9296 14.3334 13.9999 14.3334C12.0703 14.3334 10.5004 15.9033 10.5004 17.8329C10.5004 18.0592 10.6834 18.2424 10.9097 18.2424C11.1357 18.2424 11.319 18.0592 11.319 17.8329C11.319 16.3549 12.5217 15.152 13.9999 15.152C15.4782 15.152 16.6809 16.3549 16.6809 17.8329V24.5558H11.319V19.6761C11.319 19.4501 11.1357 19.2668 10.9097 19.2668C10.6834 19.2668 10.5004 19.4501 10.5004 19.6761V24.5558H9.67963V13.6731H18.3202V24.5558ZM19.139 24.5558V22.5123H21.6993C21.5448 22.7892 21.4562 23.1077 21.4562 23.4469C21.4562 23.8594 21.5869 24.242 21.8084 24.5558H19.139ZM22.1374 15.8123H19.139V13.6731H21.5773C21.4993 13.8822 21.4564 14.1082 21.4564 14.3445C21.4564 14.9322 21.7215 15.4583 22.1374 15.8123ZM21.6076 16.6309C21.5104 16.861 21.4564 17.1135 21.4564 17.3786C21.4564 17.9077 21.6713 18.3871 22.0178 18.7359H19.139V16.6309H21.6076ZM21.6583 19.5545C21.529 19.813 21.4564 20.1046 21.4564 20.4126C21.4564 20.9042 21.6418 21.3528 21.9458 21.6935H19.139V19.5545H21.6583ZM6.30056 22.5123H8.86082V24.5558H6.19119C6.41293 24.242 6.54345 23.8596 6.54345 23.4469C6.54345 23.1077 6.45501 22.7892 6.30056 22.5123ZM4.58155 13.2371C4.59287 13.2373 4.60419 13.2379 4.61573 13.2379C4.62748 13.2379 4.6388 13.2373 4.65012 13.2371C5.2457 13.2554 5.72485 13.7444 5.72485 14.3445C5.72485 14.9446 5.24527 15.4337 4.64948 15.4517C4.63837 15.4515 4.62705 15.4508 4.61573 15.4508C4.60462 15.4508 4.59351 15.4515 4.58219 15.4517C3.9864 15.4337 3.50682 14.9446 3.50682 14.3445C3.50682 13.7444 3.98597 13.2554 4.58155 13.2371ZM3.50682 11.3102C3.50682 11.2816 3.50874 11.2534 3.51087 11.2254L5.06925 10.3C5.45505 10.4734 5.72485 10.8603 5.72485 11.3102C5.72485 11.9103 5.2457 12.3993 4.65012 12.4176C4.6388 12.4174 4.62748 12.4166 4.61573 12.4166C4.60419 12.4166 4.59287 12.4174 4.58155 12.4176C3.98597 12.399 3.50682 11.9103 3.50682 11.3102ZM4.58219 16.2714C4.5933 16.2714 4.60462 16.2722 4.61573 16.2722C4.62705 16.2722 4.63816 16.2716 4.64948 16.2714C5.24527 16.2893 5.72485 16.7785 5.72485 17.3786C5.72485 17.9784 5.2457 18.4676 4.65012 18.4858C4.6388 18.4855 4.62748 18.4849 4.61573 18.4849C4.60419 18.4849 4.59287 18.4855 4.58155 18.4858C3.98597 18.4674 3.50682 17.9784 3.50682 17.3786C3.50682 16.7785 3.98618 16.2893 4.58219 16.2714ZM4.58155 19.3054C4.59287 19.3056 4.6044 19.3063 4.61573 19.3063C4.62726 19.3063 4.6388 19.3056 4.65012 19.3054C5.2457 19.3238 5.72485 19.8128 5.72485 20.4126C5.72485 21.0127 5.2457 21.5017 4.65012 21.52C4.6388 21.5198 4.62748 21.5192 4.61573 21.5192C4.60419 21.5192 4.59287 21.5198 4.58155 21.52C3.98597 21.5017 3.50682 21.0127 3.50682 20.4126C3.50682 19.8128 3.98597 19.3238 4.58155 19.3054ZM4.58155 22.3395C4.59287 22.3397 4.60419 22.3404 4.61573 22.3404C4.62748 22.3404 4.6388 22.3397 4.65012 22.3395C5.2457 22.3579 5.72485 22.8469 5.72485 23.4469C5.72485 24.0583 5.22733 24.5558 4.61594 24.5558H4.61573C4.00434 24.5558 3.50682 24.0583 3.50682 23.4469C3.50682 22.8471 3.98597 22.3579 4.58155 22.3395ZM25.3471 26.337V27.0727C25.3471 27.1223 25.3069 27.1624 25.2574 27.1624H2.74248C2.69292 27.1624 2.65276 27.1223 2.65276 27.0727V26.337C2.65276 25.8064 3.08449 25.3746 3.61491 25.3746H24.3849C24.9153 25.3746 25.3471 25.8064 25.3471 26.337ZM26.4445 10.5779C25.9832 10.8405 25.4355 10.8355 24.9792 10.5645L18.8694 6.93609L14.2091 4.16797C14.08 4.09128 13.9198 4.09128 13.791 4.16797L9.16181 6.91729L3.02061 10.5645C2.56432 10.8353 2.01659 10.8405 1.55538 10.5779C1.09396 10.3154 0.818812 9.84177 0.818812 9.31113C0.818812 8.79673 1.09417 8.31523 1.53744 8.05461L13.4723 1.03542C13.7978 0.84402 14.202 0.84402 14.5276 1.03542L26.4624 8.05461C26.9057 8.31544 27.181 8.79673 27.181 9.31113C27.181 9.84177 26.9059 10.3154 26.4445 10.5779Z" fill="black"/>
</g>
<defs>
<clipPath id="clip0">
<rect width="28" height="28" fill="white"/>
</clipPath>
</defs>
</svg>
