<svg width="32" height="32" viewBox="0 0 28 28" fill="#002823" xmlns="http://www.w3.org/2000/svg">
<path d="M2.97 28.0002H22.5691L24.8283 13.6328H0.710938L2.97 28.0002ZM21.8677 27.1799H3.67133L1.67032 14.4531H23.8687L21.8677 27.1799Z" fill="#002823"/>
<path d="M11.3159 3.37167C11.3159 4.17319 11.9681 4.82538 12.7696 4.82538C13.5711 4.82538 14.2233 4.17319 14.2233 3.37167C14.2233 2.56995 13.5711 1.91797 12.7696 1.91797C11.9681 1.91797 11.3159 2.56995 11.3159 3.37167ZM13.403 3.37167C13.403 3.72095 13.1189 4.00507 12.7696 4.00507C12.4203 4.00507 12.1362 3.72095 12.1362 3.37167C12.1362 3.0224 12.4203 2.73828 12.7696 2.73828C13.1189 2.73828 13.403 3.0224 13.403 3.37167Z" fill="#002823"/>
<path d="M3.31191 10.2043L3.8919 9.62427L3.31384 9.04599C3.00472 8.73709 3.00472 8.23679 3.31384 7.92767L6.13494 5.10657C6.76449 4.47702 6.7647 3.45782 6.13494 2.82828L5.55666 2.25L4.97668 2.82999L5.55495 3.40826C5.86385 3.71716 5.86385 4.21747 5.55495 4.52637L2.73363 7.34769C2.10409 7.97723 2.10409 8.99643 2.73363 9.62598L3.31191 10.2043Z" fill="#002823"/>
<path d="M7.76869 6.74142L4.94758 9.56253C4.31804 10.1921 4.31782 11.2113 4.94758 11.841L5.52586 12.4191L6.10585 11.8391L5.52778 11.261C5.21867 10.9519 5.21846 10.4518 5.52778 10.1427L8.34889 7.32141C8.97694 6.69336 8.97694 5.67117 8.34889 5.04312L7.77061 4.46484L7.19041 5.04504L7.76869 5.62311C8.07695 5.93137 8.07695 6.43317 7.76869 6.74142Z" fill="#002823"/>
<path d="M8.40869 12.6231L8.9075 13.2745C10.336 12.1801 11.1552 10.5217 11.1552 8.7245V8.48033C11.1552 7.09584 10.8918 5.66905 10.3723 4.2397C10.2711 3.96156 10.2198 3.6689 10.2198 3.36983C10.2198 1.93278 11.4109 0.762343 12.8749 0.822371C14.1799 0.874709 15.2523 1.93727 15.3162 3.24122C15.3335 3.59691 15.2794 3.9434 15.1551 4.27153C14.6435 5.62248 14.3839 7.03837 14.3839 8.4799V8.7245C14.3839 10.5217 15.2032 12.1801 16.6317 13.2745L17.1305 12.6231C15.9064 11.6855 15.2043 10.2645 15.2043 8.7245V8.4799C15.2043 7.13792 15.4459 5.81987 15.9222 4.56206C16.0867 4.12797 16.1585 3.66997 16.1354 3.20106C16.0511 1.4767 14.6332 0.0716998 12.9078 0.00269958C10.9824 -0.0731366 9.39948 1.45854 9.39948 3.36983C9.39948 3.76481 9.46741 4.15169 9.60135 4.51997C10.088 5.85918 10.3349 7.19154 10.3349 8.48033V8.7245C10.3349 10.2645 9.63275 11.6853 8.40869 12.6231Z" fill="#002823"/>
<path d="M26.5137 3.16177C25.7983 2.74862 24.8846 2.99322 24.4715 3.70907L19.2544 12.7453L19.9649 13.1555L25.182 4.11923C25.3683 3.79623 25.7806 3.68557 26.1036 3.87228C26.4266 4.05856 26.537 4.47085 26.3505 4.79385L21.7598 12.7453L22.4703 13.1555L27.061 5.20401C27.4742 4.48858 27.2296 3.57492 26.5137 3.16177Z" fill="#002823"/>
<path d="M5.12769 15.179L5.94394 15.0977L7.07635 26.4577L6.2601 26.5391L5.12769 15.179Z" fill="#002823"/>
<path d="M18.4629 26.4538L19.5953 15.0938L20.4116 15.1751L19.2791 26.5352L18.4629 26.4538Z" fill="#002823"/>
<path d="M9.72363 15.151L10.5433 15.1211L10.956 26.4803L10.1361 26.5102L9.72363 15.151Z" fill="#002823"/>
<path d="M14.5813 26.4803L14.994 15.1211L15.8137 15.151L15.4012 26.5102L14.5813 26.4803Z" fill="#002823"/>
<path d="M21.4546 26.2867L20.6443 26.1594L21.4116 21.2794L22.2219 21.4069L21.4546 26.2867ZM22.3069 20.8667L21.4964 20.7391L21.624 19.9289L22.4342 20.0562L22.3069 20.8667ZM22.5193 19.5159L21.7088 19.3886L21.8363 18.5781L22.6466 18.7057L22.5193 19.5159Z" fill="#002823"/>
<path d="M14.3917 12.9184C13.7327 12.0216 13.2894 10.9697 13.1102 9.87683L13.9198 9.74396C14.0781 10.71 14.4699 11.6394 15.0526 12.4324L14.3917 12.9184ZM13.0399 9.30069C13.0245 9.11035 13.0166 8.9166 13.0166 8.72455V8.44705L13.8369 8.44919V8.72455C13.8369 8.89459 13.844 9.06635 13.8574 9.23468L13.0399 9.30069ZM13.8495 7.91962L13.0301 7.88287C13.0427 7.60175 13.0645 7.31784 13.095 7.03906L13.9104 7.12814C13.8818 7.38962 13.8613 7.65601 13.8495 7.91962Z" fill="#002823"/>
<path d="M21.4634 12.7285L20.7529 12.3184L22.5262 9.24692L23.2367 9.65707L21.4634 12.7285ZM23.5102 9.18326L22.7997 8.7731L23.2098 8.06281L23.9203 8.47296L23.5102 9.18326ZM24.1938 7.99936L23.4832 7.5892L23.8934 6.87891L24.6039 7.28906L24.1938 7.99936Z" fill="#002823"/>
</svg>
