<svg width="32" height="32" viewBox="0 0 28 28" fill="none" xmlns="http://www.w3.org/2000/svg">
<path d="M5.68749 16.2245L4.81249 16.1523C4.80243 16.2674 4.59374 18.9838 6.12499 20.6442C6.51736 21.057 6.99388 21.3806 7.52227 21.5932C8.05065 21.8058 8.61856 21.9023 9.1875 21.8762V21.0012C8.74057 21.0249 8.29375 20.9527 7.87705 20.7894C7.46035 20.6261 7.08343 20.3755 6.77162 20.0544C5.5033 18.6798 5.68399 16.249 5.68749 16.2245Z" fill="#002823"/>
<path d="M23.1875 14.4375H17.5V15.3125H23.1875V14.4375Z" fill="#002823"/>
<path d="M16.625 14.4375H15.75V15.3125H16.625V14.4375Z" fill="#002823"/>
<path d="M4.17725 12.6875H3.0625V18.375C3.06442 19.6907 3.55991 20.9578 4.45101 21.9258C5.34211 22.8937 6.56396 23.4921 7.875 23.6027V26.25H20.125V23.6027C21.436 23.4921 22.6579 22.8937 23.549 21.9258C24.4401 20.9578 24.9356 19.6907 24.9375 18.375V12.6875H20.7436L23.4806 9.95094C23.772 9.716 25.7443 8.12481 26.1218 7.74681C26.4042 7.48324 26.6293 7.16442 26.7832 6.81016C26.9372 6.45589 27.0166 6.07376 27.0166 5.6875C27.0166 5.30124 26.9372 4.9191 26.7832 4.56484C26.6293 4.21058 26.4042 3.89176 26.1218 3.62819C25.8586 3.34525 25.5399 3.11959 25.1856 2.96528C24.8313 2.81098 24.449 2.73134 24.0625 2.73134C23.676 2.73134 23.2937 2.81098 22.9394 2.96528C22.5851 3.11959 22.2664 3.34525 22.0032 3.62819C21.6248 4.00663 20.027 5.98675 19.7973 6.27156L13.3814 12.6875H11.5728C12.5749 12.1138 13.4079 11.2859 13.9878 10.2873C14.5676 9.28866 14.8736 8.15473 14.875 7V2.1875C14.875 2.07147 14.8289 1.96019 14.7469 1.87814C14.6648 1.79609 14.5535 1.75 14.4375 1.75H13.5625C12.097 1.75259 10.6744 2.24524 9.52114 3.14956C8.36788 4.05388 7.5502 5.31793 7.19819 6.74056C6.65898 5.63864 5.8217 4.70992 4.78136 4.0598C3.74102 3.40967 2.53927 3.06417 1.3125 3.0625C1.19647 3.0625 1.08519 3.10859 1.00314 3.19064C0.921094 3.27269 0.875 3.38397 0.875 3.5V7C0.876384 8.15473 1.18243 9.28866 1.76224 10.2873C2.34206 11.2859 3.1751 12.1138 4.17725 12.6875ZM19.25 25.375H12.25V24.5H11.375V25.375H10.5V24.5H9.625V25.375H8.75V23.625H19.25V25.375ZM22.6218 4.24681C22.8058 4.04854 23.0287 3.89037 23.2766 3.7822C23.5245 3.67404 23.792 3.61821 24.0625 3.61821C24.333 3.61821 24.6005 3.67404 24.8484 3.7822C25.0963 3.89037 25.3192 4.04854 25.5032 4.24681C25.7035 4.42954 25.8636 4.65204 25.973 4.90011C26.0825 5.14817 26.1391 5.41635 26.1391 5.6875C26.1391 5.95865 26.0825 6.22683 25.973 6.47489C25.8636 6.72296 25.7035 6.94546 25.5032 7.12819C25.2464 7.385 23.9627 8.43456 23.2186 9.03744L20.7126 6.53144C21.3154 5.78725 22.365 4.50362 22.6218 4.24681ZM20.125 7.18112L22.5689 9.625L21.875 10.3189L19.4311 7.875L20.125 7.18112ZM18.8125 8.49362L21.2564 10.9375L19.6875 12.5064L17.2436 10.0625L18.8125 8.49362ZM16.625 10.6811L18.6314 12.6875H14.6186L16.625 10.6811ZM24.0625 13.5625V18.375C24.0612 19.5349 23.5999 20.647 22.7797 21.4672C21.9595 22.2874 20.8474 22.7487 19.6875 22.75H8.3125C7.15257 22.7487 6.04051 22.2874 5.22031 21.4672C4.40012 20.647 3.93877 19.5349 3.9375 18.375V13.5625H24.0625ZM7.875 8.3125C7.87674 6.80461 8.47651 5.35899 9.54275 4.29275C10.609 3.22651 12.0546 2.62674 13.5625 2.625H14V7C13.9983 8.50789 13.3985 9.95352 12.3323 11.0198C11.266 12.086 9.82039 12.6858 8.3125 12.6875H7.875V12.4766C8.69531 11.8794 11.8436 9.37037 12.2474 5.73562L11.3776 5.63938C11.0766 8.34706 8.98056 10.4326 7.875 11.3588V8.3125ZM1.75 3.95412C3.17784 4.06602 4.5111 4.71181 5.48409 5.76279C6.45707 6.81377 6.99833 8.19278 7 9.625V11.4503C5.58812 10.3902 4.5146 8.94273 3.90994 7.28394L3.09006 7.59019C3.81296 9.61625 5.18825 11.3449 7 12.5046V12.6709C5.57216 12.559 4.2389 11.9132 3.26591 10.8622C2.29293 9.81123 1.75167 8.43222 1.75 7V3.95412Z" fill="#002823"/>
<path d="M24.6283 4.50403L23.7534 5.37891L24.3721 5.99763L25.247 5.12275L24.6283 4.50403Z" fill="#002823"/>
<path d="M23.3158 5.81653L22.4409 6.69141L23.0596 7.31013L23.9345 6.43525L23.3158 5.81653Z" fill="#002823"/>
</svg>
