<svg width="32" height="32" viewBox="0 0 28 28" fill="none" xmlns="http://www.w3.org/2000/svg">
<path d="M8.47032 5.15878C8.57184 5.15878 8.66921 5.11845 8.74101 5.04666C8.8128 4.97487 8.85313 4.8775 8.85313 4.77597V4.17375H16.2204V6.1285H16.0382C14.9324 6.12977 13.8722 6.56962 13.0903 7.35154C12.3084 8.13346 11.8686 9.1936 11.8673 10.2994C11.8673 10.3497 11.8771 10.3995 11.8964 10.4459C11.9156 10.4924 11.9438 10.5346 11.9793 10.5702C12.0149 10.6057 12.0571 10.6339 12.1036 10.6531C12.15 10.6724 12.1998 10.6822 12.2501 10.6822H20.9581C21.0596 10.6822 21.157 10.6419 21.2288 10.5701C21.3006 10.4983 21.3409 10.4009 21.3409 10.2994C21.3396 9.19357 20.8998 8.13339 20.1178 7.35146C19.3358 6.56953 18.2756 6.12972 17.1698 6.1285H16.986V3.79094C16.9861 3.74066 16.9762 3.69087 16.957 3.64441C16.9377 3.59795 16.9095 3.55574 16.874 3.52018C16.8384 3.48463 16.7962 3.45643 16.7498 3.43721C16.7033 3.41798 16.6535 3.4081 16.6032 3.40812H8.85313V2.80722C8.85313 2.70569 8.8128 2.60832 8.74101 2.53653C8.66921 2.46474 8.57184 2.42441 8.47032 2.42441H3.74072V1.42188C3.74072 1.32035 3.70039 1.22298 3.6286 1.15119C3.55681 1.07939 3.45944 1.03906 3.35791 1.03906C3.25638 1.03906 3.15901 1.07939 3.08722 1.15119C3.01543 1.22298 2.9751 1.32035 2.9751 1.42188V6.16153C2.9751 6.26306 3.01543 6.36043 3.08722 6.43222C3.15901 6.50401 3.25638 6.54434 3.35791 6.54434C3.45944 6.54434 3.55681 6.50401 3.6286 6.43222C3.70039 6.36043 3.74072 6.26306 3.74072 6.16153V5.15878H8.47032ZM20.5538 9.91659H12.6543C12.7494 9.08542 13.1467 8.31819 13.7706 7.76088C14.3946 7.20358 15.2016 6.89509 16.0382 6.89412H16.5949H16.6032C16.6032 6.89412 16.6089 6.89412 16.6118 6.89412H17.1698C18.0064 6.89509 18.8135 7.20357 19.4374 7.76087C20.0614 8.31817 20.4587 9.0854 20.5538 9.91659ZM8.0875 3.19003V4.39316H3.74072V3.19003H8.0875Z" fill="#002823"/>
<path d="M16.603 11.8125C16.5527 11.8125 16.503 11.8224 16.4565 11.8416C16.41 11.8608 16.3678 11.889 16.3323 11.9246C16.2967 11.9601 16.2685 12.0023 16.2493 12.0488C16.2301 12.0952 16.2202 12.145 16.2202 12.1953V12.8516C16.2202 12.9531 16.2605 13.0505 16.3323 13.1223C16.4041 13.194 16.5015 13.2344 16.603 13.2344C16.7046 13.2344 16.8019 13.194 16.8737 13.1223C16.9455 13.0505 16.9858 12.9531 16.9858 12.8516V12.1953C16.9859 12.145 16.976 12.0952 16.9568 12.0488C16.9375 12.0023 16.9093 11.9601 16.8738 11.9246C16.8382 11.889 16.796 11.8608 16.7496 11.8416C16.7031 11.8224 16.6533 11.8125 16.603 11.8125Z" fill="#002823"/>
<path d="M16.603 23.7003C16.7045 23.7003 16.8019 23.6599 16.8737 23.5881C16.9454 23.5163 16.9858 23.419 16.9858 23.3175V22.0859C16.9858 21.9844 16.9455 21.887 16.8737 21.8152C16.8019 21.7435 16.7046 21.7031 16.603 21.7031C16.5015 21.7031 16.4041 21.7435 16.3323 21.8152C16.2605 21.887 16.2202 21.9844 16.2202 22.0859V23.3175C16.2207 23.4189 16.2612 23.516 16.3328 23.5877C16.4045 23.6594 16.5016 23.6999 16.603 23.7003Z" fill="#002823"/>
<path d="M16.603 18.2148C16.5016 18.2153 16.4045 18.2558 16.3328 18.3275C16.2612 18.3992 16.2207 18.4963 16.2202 18.5977V19.8292C16.2202 19.9307 16.2605 20.0281 16.3323 20.0999C16.4041 20.1717 16.5015 20.212 16.603 20.212C16.7046 20.212 16.8019 20.1717 16.8737 20.0999C16.9455 20.0281 16.9858 19.9307 16.9858 19.8292V18.5977C16.9858 18.4961 16.9454 18.3988 16.8737 18.327C16.8019 18.2553 16.7045 18.2149 16.603 18.2148Z" fill="#002823"/>
<path d="M16.9858 15.1094C16.9858 15.0078 16.9455 14.9105 16.8737 14.8387C16.8019 14.7669 16.7046 14.7266 16.603 14.7266C16.5015 14.7266 16.4041 14.7669 16.3323 14.8387C16.2605 14.9105 16.2202 15.0078 16.2202 15.1094V16.3412C16.2202 16.4427 16.2605 16.5401 16.3323 16.6118C16.4041 16.6836 16.5015 16.724 16.603 16.724C16.7046 16.724 16.8019 16.6836 16.8737 16.6118C16.9455 16.5401 16.9858 16.4427 16.9858 16.3412V15.1094Z" fill="#002823"/>
<path d="M16.603 25.1914C16.5527 25.1914 16.503 25.2013 16.4565 25.2205C16.41 25.2397 16.3678 25.2679 16.3323 25.3035C16.2967 25.339 16.2685 25.3812 16.2493 25.4277C16.2301 25.4741 16.2202 25.5239 16.2202 25.5742V26.2305C16.2202 26.332 16.2605 26.4294 16.3323 26.5012C16.4041 26.573 16.5015 26.6133 16.603 26.6133C16.7046 26.6133 16.8019 26.573 16.8737 26.5012C16.9455 26.4294 16.9858 26.332 16.9858 26.2305V25.5742C16.9859 25.5239 16.976 25.4741 16.9568 25.4277C16.9375 25.3812 16.9093 25.339 16.8738 25.3035C16.8382 25.2679 16.796 25.2397 16.7496 25.2205C16.7031 25.2013 16.6533 25.1914 16.603 25.1914Z" fill="#002823"/>
<path d="M21.313 12.7311L21.1424 12.0967C21.1145 12.0004 21.0499 11.9188 20.9625 11.8696C20.8752 11.8204 20.772 11.8074 20.6751 11.8335C20.5783 11.8596 20.4955 11.9226 20.4447 12.0091C20.3938 12.0955 20.379 12.1985 20.4032 12.2958L20.5739 12.9301C20.6014 13.0269 20.6659 13.1089 20.7535 13.1584C20.841 13.208 20.9446 13.2211 21.0417 13.1949C21.1388 13.1687 21.2217 13.1054 21.2725 13.0185C21.3233 12.9317 21.3378 12.8283 21.313 12.7309V12.7311Z" fill="#002823"/>
<path d="M23.2487 19.9225L22.9075 18.6538C22.8793 18.5566 22.8145 18.474 22.7268 18.4235C22.6391 18.3729 22.5352 18.3583 22.437 18.3826C22.3551 18.405 22.2828 18.4538 22.2314 18.5214C22.18 18.589 22.1523 18.6717 22.1526 18.7566C22.1543 18.7891 22.1594 18.8214 22.1679 18.8529L22.5089 20.1216C22.5212 20.171 22.5432 20.2175 22.5737 20.2584C22.6041 20.2992 22.6424 20.3335 22.6863 20.3594C22.7302 20.3852 22.7788 20.4021 22.8293 20.4089C22.8797 20.4157 22.9311 20.4125 22.9802 20.3992C23.0294 20.386 23.0755 20.3631 23.1157 20.3318C23.1559 20.3006 23.1895 20.2616 23.2145 20.2172C23.2395 20.1728 23.2553 20.1239 23.2612 20.0733C23.267 20.0227 23.2627 19.9715 23.2485 19.9225H23.2487Z" fill="#002823"/>
<path d="M24.2156 23.5162L23.8744 22.2475C23.8467 22.1504 23.7824 22.0679 23.6951 22.0173C23.6077 21.9668 23.5042 21.952 23.4062 21.9762C23.3239 21.9979 23.2512 22.0465 23.1996 22.1143C23.1481 22.1821 23.1207 22.2651 23.1219 22.3503C23.1218 22.3828 23.1262 22.4152 23.135 22.4465L23.476 23.7153C23.504 23.8116 23.5686 23.8931 23.656 23.9423C23.7434 23.9915 23.8466 24.0044 23.9434 23.9783C24.0402 23.9523 24.123 23.8893 24.1739 23.8029C24.2248 23.7165 24.2398 23.6136 24.2156 23.5162Z" fill="#002823"/>
<path d="M22.2424 16.6165C22.2677 16.5729 22.284 16.5247 22.2904 16.4747C22.2967 16.4248 22.2931 16.374 22.2796 16.3255L21.9383 15.0568C21.9253 15.0082 21.9027 14.9627 21.8721 14.9229C21.8414 14.883 21.8032 14.8496 21.7597 14.8245C21.7161 14.7994 21.668 14.7832 21.6182 14.7767C21.5683 14.7702 21.5177 14.7735 21.4691 14.7866C21.4206 14.7997 21.3751 14.8222 21.3352 14.8528C21.2954 14.8835 21.2619 14.9217 21.2369 14.9653C21.2118 15.0088 21.1955 15.0569 21.189 15.1068C21.1825 15.1566 21.1859 15.2073 21.199 15.2558L21.5402 16.5246C21.5524 16.5737 21.5745 16.6198 21.605 16.6602C21.6356 16.7006 21.674 16.7344 21.7179 16.7595C21.7619 16.7846 21.8104 16.8006 21.8607 16.8065C21.911 16.8124 21.962 16.808 22.0105 16.7936C22.0589 16.7808 22.1043 16.7585 22.1441 16.7281C22.1839 16.6977 22.2173 16.6598 22.2424 16.6165Z" fill="#002823"/>
<path d="M25.0126 26.4762L24.8418 25.8418C24.8189 25.7565 24.7672 25.6817 24.6954 25.6302C24.6236 25.5787 24.5362 25.5537 24.448 25.5594C24.4224 25.5607 24.3969 25.5646 24.3721 25.571C24.3686 25.5721 24.3658 25.5745 24.3623 25.5756C24.33 25.5854 24.2991 25.5995 24.2706 25.6176C24.2629 25.6224 24.2555 25.6266 24.2487 25.6318C24.2211 25.6516 24.1962 25.675 24.1748 25.7014C24.1687 25.7092 24.1634 25.7173 24.1579 25.7254C24.14 25.751 24.1253 25.7787 24.1142 25.8079C24.1107 25.8169 24.1083 25.8258 24.1057 25.835C24.0972 25.8648 24.0923 25.8955 24.0912 25.9265C24.0912 25.9328 24.0884 25.9385 24.0884 25.9451C24.0884 25.9516 24.0899 25.9536 24.0901 25.958C24.0913 25.9732 24.0934 25.9883 24.0963 26.0032C24.0973 26.016 24.0991 26.0287 24.1015 26.0413C24.1015 26.0441 24.1039 26.0463 24.1048 26.0492L24.2732 26.6746C24.3011 26.7709 24.3657 26.8525 24.4531 26.9017C24.5404 26.9509 24.6437 26.9639 24.7405 26.9378C24.8373 26.9117 24.9201 26.8487 24.9709 26.7622C25.0218 26.6758 25.0367 26.5728 25.0124 26.4755L25.0126 26.4762Z" fill="#002823"/>
<path d="M18.753 13.227C18.8537 13.2147 18.9454 13.1629 19.008 13.083C19.0706 13.0031 19.0989 12.9016 19.0868 12.8009L19.0076 12.1492C18.9953 12.0484 18.9436 11.9566 18.8636 11.894C18.7837 11.8314 18.6822 11.8031 18.5813 11.8153C18.4805 11.8275 18.3887 11.8793 18.3261 11.9593C18.2635 12.0392 18.2352 12.1407 18.2474 12.2415L18.3266 12.893C18.338 12.9858 18.3828 13.0712 18.4528 13.1332C18.5227 13.1953 18.6129 13.2296 18.7064 13.2298C18.7219 13.2299 18.7375 13.2289 18.753 13.227Z" fill="#002823"/>
<path d="M20.0617 23.9889C20.1625 23.9764 20.2542 23.9245 20.3169 23.8447C20.3795 23.7648 20.4081 23.6634 20.3964 23.5626L20.2411 22.2982C20.2297 22.2015 20.1818 22.1128 20.1072 22.0503C20.0327 21.9877 19.937 21.956 19.8398 21.9616C19.7427 21.9672 19.6513 22.0096 19.5844 22.0803C19.5175 22.151 19.4801 22.2446 19.4798 22.3419C19.4795 22.358 19.4802 22.3741 19.482 22.3901L19.6351 23.6544C19.6467 23.7473 19.6918 23.8327 19.7619 23.8947C19.8319 23.9567 19.9222 23.9911 20.0158 23.9913C20.0311 23.9917 20.0465 23.9909 20.0617 23.9889Z" fill="#002823"/>
<path d="M19.1889 16.8123C19.2896 16.7998 19.3813 16.7479 19.4439 16.6681C19.5066 16.5882 19.5352 16.4868 19.5235 16.386L19.3682 15.1216C19.3622 15.0718 19.3464 15.0236 19.3218 14.9798C19.2971 14.9361 19.2641 14.8976 19.2246 14.8666C19.185 14.8357 19.1398 14.8127 19.0914 14.7992C19.0431 14.7857 18.9925 14.7819 18.9427 14.7879C18.8928 14.794 18.8446 14.8098 18.8009 14.8344C18.7571 14.8591 18.7187 14.8921 18.6877 14.9316C18.6567 14.9711 18.6338 15.0164 18.6203 15.0647C18.6068 15.1131 18.6029 15.1636 18.609 15.2135L18.7621 16.4779C18.7737 16.5707 18.8187 16.6562 18.8888 16.7182C18.9589 16.7802 19.0491 16.8145 19.1427 16.8148C19.1581 16.815 19.1736 16.8142 19.1889 16.8123Z" fill="#002823"/>
<path d="M19.6261 20.3986C19.7265 20.3855 19.8177 20.3334 19.88 20.2536C19.9422 20.1737 19.9705 20.0726 19.9586 19.972L19.8055 18.7055C19.7941 18.6085 19.7461 18.5196 19.6713 18.4568C19.5966 18.3941 19.5007 18.3622 19.4032 18.3678C19.3057 18.3734 19.2141 18.416 19.147 18.4869C19.0799 18.5578 19.0423 18.6516 19.0421 18.7492C19.0417 18.7652 19.0424 18.7812 19.0443 18.7971L19.1996 20.0637C19.2104 20.1565 19.2549 20.2421 19.3246 20.3043C19.3944 20.3664 19.4846 20.4008 19.578 20.4008C19.5955 20.4008 19.6106 20.3986 19.6261 20.3986Z" fill="#002823"/>
<path d="M20.678 25.8809C20.6725 25.8305 20.6572 25.7816 20.6327 25.7372C20.6082 25.6928 20.5752 25.6537 20.5354 25.6221C20.4957 25.5906 20.4501 25.5672 20.4013 25.5534C20.3525 25.5397 20.3014 25.5357 20.2511 25.5419C20.2007 25.548 20.1521 25.5641 20.108 25.5892C20.0639 25.6142 20.0253 25.6478 19.9943 25.688C19.9633 25.7282 19.9406 25.7741 19.9275 25.8231C19.9144 25.8721 19.9112 25.9232 19.918 25.9735L19.9974 26.6251C20.0087 26.7179 20.0535 26.8033 20.1235 26.8653C20.1934 26.9272 20.2835 26.9615 20.377 26.9615C20.3926 26.9616 20.4083 26.9606 20.4238 26.9587C20.5246 26.9464 20.6163 26.8946 20.6789 26.8146C20.7415 26.7347 20.7698 26.6332 20.7576 26.5324L20.678 25.8809Z" fill="#002823"/>
<path d="M12.634 12.9301L12.8044 12.2958C12.8287 12.1985 12.8138 12.0955 12.763 12.0091C12.7121 11.9226 12.6294 11.8596 12.5326 11.8335C12.4357 11.8074 12.3325 11.8204 12.2451 11.8696C12.1577 11.9188 12.0932 12.0004 12.0653 12.0967L11.8949 12.7311C11.8701 12.8286 11.8846 12.9319 11.9354 13.0187C11.9862 13.1056 12.0691 13.1689 12.1662 13.1951C12.2633 13.2213 12.3669 13.2082 12.4544 13.1587C12.542 13.1091 12.6065 13.0271 12.634 12.9304V12.9301Z" fill="#002823"/>
<path d="M9.8022 21.9765C9.70422 21.9519 9.60055 21.9666 9.51316 22.0172C9.42577 22.0678 9.36154 22.1505 9.33408 22.2477L8.99261 23.5165C8.96662 23.6145 8.98031 23.7188 9.03071 23.8069C9.08112 23.8949 9.16417 23.9595 9.26189 23.9868C9.29495 23.9943 9.32864 23.9987 9.36251 23.9999C9.44672 23.9993 9.52844 23.9712 9.59519 23.9199C9.66193 23.8685 9.71005 23.7968 9.7322 23.7155L10.0735 22.4468C10.0801 22.415 10.0844 22.3829 10.0864 22.3505C10.0867 22.2656 10.059 22.183 10.0076 22.1154C9.95626 22.0478 9.88407 21.9989 9.8022 21.9765Z" fill="#002823"/>
<path d="M9.1175 25.9447C9.1175 25.9432 9.1175 25.9416 9.1175 25.9401C9.11734 25.8617 9.09288 25.7853 9.0475 25.7213C9.04313 25.715 9.03919 25.7089 9.03438 25.703C9.01281 25.6759 8.98764 25.6519 8.95957 25.6317C8.95235 25.6264 8.94447 25.622 8.9366 25.6172C8.90896 25.5997 8.87909 25.5859 8.84778 25.5763C8.84363 25.575 8.84035 25.5722 8.83619 25.5708C8.81105 25.5644 8.78533 25.5605 8.75941 25.5592C8.68441 25.5549 8.60977 25.5726 8.54475 25.6102C8.47973 25.6479 8.4272 25.7038 8.39366 25.771C8.38193 25.7936 8.37262 25.8173 8.36588 25.8419C8.36598 25.844 8.36598 25.8461 8.36588 25.8482L8.19722 26.4754C8.18308 26.5242 8.17882 26.5754 8.18469 26.626C8.19056 26.6765 8.20644 26.7254 8.23141 26.7697C8.25638 26.814 8.28993 26.8529 8.3301 26.8841C8.37028 26.9153 8.41627 26.9382 8.46539 26.9514C8.51452 26.9647 8.56578 26.968 8.6162 26.9612C8.66661 26.9544 8.71516 26.9376 8.75901 26.9118C8.80286 26.886 8.84113 26.8517 8.87159 26.811C8.90204 26.7702 8.92407 26.7238 8.93638 26.6744L9.10679 26.0401C9.11453 26.0097 9.11857 25.9785 9.11882 25.9471L9.1175 25.9447Z" fill="#002823"/>
<path d="M10.7689 18.3792C10.6709 18.3542 10.567 18.3686 10.4796 18.4193C10.3921 18.47 10.328 18.553 10.301 18.6504L9.95972 19.9192C9.93336 20.0172 9.94685 20.1217 9.99726 20.2099C10.0477 20.298 10.1309 20.3627 10.2288 20.3897C10.2616 20.3984 10.2954 20.4028 10.3294 20.4028C10.4136 20.4023 10.4953 20.3742 10.5621 20.3228C10.6288 20.2715 10.6769 20.1997 10.6991 20.1184L11.0403 18.8497C11.0491 18.8184 11.0536 18.786 11.0535 18.7534C11.0546 18.6682 11.0273 18.5851 10.9757 18.5172C10.9241 18.4494 10.8513 18.4008 10.7689 18.3792Z" fill="#002823"/>
<path d="M11.7381 14.7852C11.6398 14.7605 11.5358 14.775 11.448 14.8256C11.3602 14.8763 11.2956 14.959 11.2678 15.0564L10.9265 16.3252C10.9136 16.3737 10.9103 16.4243 10.9169 16.4741C10.9235 16.5239 10.9399 16.5719 10.965 16.6154C10.9902 16.6589 11.0237 16.697 11.0636 16.7275C11.1035 16.758 11.149 16.7804 11.1975 16.7933C11.2296 16.8027 11.2628 16.8078 11.2962 16.8086H11.2982C11.3821 16.808 11.4636 16.7799 11.53 16.7285C11.5965 16.6771 11.6442 16.6054 11.6659 16.5243L12.0091 15.2555C12.0344 15.1572 12.0202 15.053 11.9695 14.9651C11.9188 14.8772 11.8358 14.8126 11.7381 14.7852Z" fill="#002823"/>
<path d="M14.6267 11.8154C14.5768 11.8092 14.5262 11.813 14.4777 11.8264C14.4292 11.8398 14.3839 11.8627 14.3443 11.8937C14.3047 11.9247 14.2716 11.9632 14.2469 12.007C14.2222 12.0508 14.2064 12.0991 14.2004 12.149L14.121 12.8006C14.1087 12.9014 14.1369 13.0029 14.1995 13.0829C14.262 13.1629 14.3538 13.2147 14.4546 13.227C14.4701 13.2289 14.4857 13.2299 14.5014 13.2298C14.5948 13.2297 14.685 13.1954 14.7549 13.1334C14.8248 13.0714 14.8696 12.9859 14.8809 12.8932L14.9605 12.2417C14.9728 12.1409 14.9445 12.0394 14.8819 11.9595C14.8193 11.8795 14.7275 11.8277 14.6267 11.8154Z" fill="#002823"/>
<path d="M14.2646 14.7874C14.1639 14.7765 14.0629 14.8053 13.9831 14.8679C13.9034 14.9304 13.8514 15.0217 13.8381 15.1221L13.6849 16.3865C13.6727 16.4871 13.7008 16.5884 13.7631 16.6684C13.8254 16.7483 13.9169 16.8002 14.0174 16.8128C14.0334 16.8148 14.0495 16.8156 14.0656 16.8153C14.1591 16.815 14.2494 16.7807 14.3195 16.7187C14.3895 16.6567 14.4346 16.5712 14.4462 16.4784L14.5993 15.214C14.6111 15.1131 14.5825 15.0117 14.5198 14.9318C14.4571 14.8519 14.3654 14.8 14.2646 14.7874Z" fill="#002823"/>
<path d="M13.8294 18.3737C13.7286 18.362 13.6272 18.3906 13.5473 18.4532C13.4674 18.5159 13.4155 18.6076 13.4029 18.7083L13.2476 19.9749C13.2362 20.0757 13.2649 20.177 13.3275 20.2568C13.3901 20.3366 13.4816 20.3886 13.5823 20.4015C13.5976 20.4015 13.6127 20.4037 13.6282 20.4037C13.7218 20.4034 13.8121 20.369 13.8821 20.3069C13.9522 20.2449 13.9972 20.1594 14.0088 20.0666L14.1619 18.8C14.1645 18.7842 14.166 18.7681 14.1663 18.7521C14.1652 18.659 14.1305 18.5695 14.0686 18.4999C14.0067 18.4304 13.9218 18.3856 13.8294 18.3737Z" fill="#002823"/>
<path d="M13.392 21.9595C13.2912 21.9481 13.19 21.9768 13.1102 22.0394C13.0303 22.102 12.9784 22.1935 12.9655 22.2942L12.8123 23.5585C12.8002 23.6591 12.8284 23.7605 12.8907 23.8403C12.9531 23.9202 13.0445 23.9722 13.145 23.9849C13.161 23.9869 13.1771 23.9877 13.1932 23.9873C13.2866 23.9872 13.3767 23.9529 13.4464 23.8908C13.5162 23.8287 13.5607 23.7432 13.5716 23.6504L13.7269 22.386C13.7287 22.3701 13.7295 22.354 13.7291 22.3379C13.7284 22.2447 13.6938 22.1549 13.6318 22.0853C13.5698 22.0156 13.4845 21.9709 13.392 21.9595Z" fill="#002823"/>
<path d="M12.9561 25.5457C12.8553 25.5336 12.7538 25.562 12.6738 25.6246C12.5939 25.6872 12.5421 25.779 12.5297 25.8797L12.4505 26.5312C12.4383 26.6319 12.4666 26.7334 12.5292 26.8134C12.5918 26.8933 12.6836 26.945 12.7844 26.9573C12.7998 26.9592 12.8154 26.9602 12.831 26.9601C12.9244 26.96 13.0146 26.9257 13.0845 26.8637C13.1545 26.8017 13.1993 26.7162 13.2107 26.6235L13.2899 25.9718C13.3021 25.8711 13.2737 25.7696 13.2112 25.6897C13.1486 25.6098 13.0568 25.558 12.9561 25.5457Z" fill="#002823"/>
</svg>
