<svg width="32" height="32" viewBox="0 0 28 28" fill="none" xmlns="http://www.w3.org/2000/svg">
<g clip-path="url(#clip0)">
<path d="M25.8059 10.6585H21.3518L23.716 8.28603C23.8786 8.12367 24.0967 8.03352 24.3302 8.03224C25.3086 8.02754 26.2282 7.64366 26.9199 6.95174C27.6356 6.23567 28.0188 5.28377 27.9994 4.27098C27.9797 3.25883 27.5591 2.32167 26.8148 1.63231C25.4038 0.325363 23.1986 0.331772 21.7945 1.64641C21.0451 2.34795 20.6296 3.299 20.6245 4.32417C20.6234 4.5583 20.5332 4.77684 20.3734 4.93684L14.555 10.6585H1.6998C0.762421 10.6585 0 11.4214 0 12.3592V13.9599V13.9609V15.7507C0 17.1941 0.340088 18.6222 0.985016 19.9016C0.90448 20.0317 0.864746 20.187 0.877777 20.3489C0.993134 21.7776 1.73996 23.0561 2.92685 23.8568C3.18021 24.0277 3.4498 24.1727 3.73007 24.2907C3.37375 24.6158 3.14987 25.0836 3.14987 25.603C3.14987 26.5824 3.94647 27.3794 4.92572 27.3794C4.98767 27.3794 5.10153 27.3794 7.19183 26.952C7.67462 27.3658 8.36655 27.4895 8.96255 27.2688C9.15546 27.3465 9.36331 27.3873 9.57373 27.3873H17.9324C18.8356 27.3873 19.5704 26.6521 19.5704 25.7484V24.8818C20.2636 24.7856 20.9419 24.6109 21.5977 24.3586C21.8092 24.2772 21.9147 24.0399 21.8333 23.8286C21.7522 23.6171 21.5146 23.5114 21.3033 23.593C20.3435 23.9621 19.3307 24.1492 18.2928 24.1492H13.2688C13.4386 24.0625 13.6044 23.9651 13.7652 23.8566C14.9513 23.0564 15.6981 21.7778 15.8141 20.3491C15.8141 20.3489 15.8141 20.3489 15.8141 20.3489C15.8421 20.0043 15.6308 19.6911 15.3003 19.5871C13.9331 19.159 12.4688 19.3724 11.2823 20.1729C10.7657 20.5217 10.3223 20.9722 9.98239 21.4905C9.96295 21.4446 9.9418 21.3993 9.9183 21.3548C10.3186 20.6512 10.5295 19.8567 10.5295 19.0409C10.5295 17.6079 9.88712 16.2732 8.76752 15.3792C8.50198 15.1664 8.11682 15.1664 7.85193 15.3787C6.73169 16.2732 6.08932 17.6079 6.08932 19.0409C6.08932 19.8845 6.31406 20.7024 6.74023 21.4223C6.72934 21.4454 6.71951 21.4689 6.70969 21.4924C6.37045 20.9705 5.93466 20.5273 5.40936 20.1729C4.31284 19.4329 2.97791 19.1951 1.70258 19.5017C1.12515 18.3443 0.820526 17.0546 0.820526 15.7507V14.37H2.9198C3.14645 14.37 3.32996 14.1865 3.32996 13.9599C3.32996 13.7332 3.14645 13.5497 2.9198 13.5497H0.820312V12.359C0.820312 11.8736 1.21487 11.4786 1.6998 11.4786H25.8059C26.2908 11.4786 26.6856 11.8736 26.6856 12.359V13.5497H4.78622C4.55957 13.5497 4.37607 13.7332 4.37607 13.9599C4.37607 14.1865 4.55957 14.37 4.78622 14.37H26.6852V15.7507C26.6852 18.6474 25.2229 21.3027 22.7735 22.8534C22.5821 22.9747 22.5253 23.2281 22.6464 23.4195C22.7246 23.5428 22.8575 23.6103 22.9933 23.6103C23.0683 23.6103 23.1443 23.5896 23.2123 23.5466C25.9007 21.8445 27.5057 18.9302 27.5057 15.7507V13.9652C27.5057 13.9635 27.5059 13.9616 27.5059 13.9599V12.359C27.5059 11.4214 26.7433 10.6585 25.8059 10.6585V10.6585ZM8.34583 21.2247C9.80295 21.2247 9.12042 23.1484 8.96063 23.9371C8.55795 23.7884 8.10315 23.7929 7.70303 23.9478C7.55862 23.1636 6.89404 21.2247 8.34583 21.2247ZM11.1469 22.3841C11.755 22.6526 11.8905 23.4439 11.4508 23.9245C11.086 24.3236 10.4338 24.6222 9.98495 24.9204C9.91382 24.7495 9.81619 24.5897 9.694 24.4477C9.79355 23.96 9.96124 23.1305 10.0531 22.6344C10.2934 22.3085 10.789 22.2264 11.1469 22.3841ZM11.779 26.5591C11.7162 26.5517 11.4169 26.5038 10.011 26.2188C10.0578 26.0919 10.0901 25.9595 10.1071 25.8241C10.6899 25.4376 11.2791 25.0576 11.8486 24.6513C13.0252 24.754 12.9462 26.5433 11.779 26.5591ZM6.33179 22.317C6.43475 22.3663 6.54712 22.4341 6.61591 22.5276C6.724 23.1813 6.84683 23.8324 6.96796 24.4838C6.86734 24.6073 6.78467 24.7431 6.72122 24.8871C6.23907 24.5549 5.47195 24.2144 5.13208 23.7132C4.604 22.9344 5.47772 21.9175 6.33179 22.317V22.317ZM3.97018 25.603C3.97018 25.117 4.42499 24.5778 4.94901 24.6521C5.30447 24.9068 5.99255 25.3823 6.5798 25.7856C6.59518 25.9345 6.62915 26.0802 6.68042 26.219C5.90753 26.3758 3.97018 27.0748 3.97018 25.603V25.603ZM7.62933 26.2346C6.87396 25.3825 8.07047 24.105 8.96448 24.8754C9.95633 25.7298 8.50711 27.2329 7.62933 26.2346ZM18.7501 24.9698V25.7486C18.7501 26.2 18.3833 26.567 17.9324 26.567H13.256C13.4362 26.2891 13.5416 25.9582 13.5416 25.603C13.5416 25.3836 13.5008 25.1695 13.4245 24.9698H18.7501ZM11.7411 20.853C12.7007 20.2056 13.8814 20.024 14.9904 20.3506C14.8769 21.5022 14.266 22.5293 13.3064 23.1768C13.0541 23.3471 12.7877 23.4853 12.5096 23.5904C12.573 23.2552 12.5378 22.9034 12.4079 22.5881L13.8278 21.6302C14.0156 21.5035 14.0649 21.2485 13.9383 21.0607C13.8116 20.8729 13.5565 20.8233 13.369 20.9502L11.9296 21.9214C11.6713 21.6951 11.3466 21.5454 11.0063 21.4984C11.2225 21.254 11.4696 21.0365 11.7411 20.853ZM8.3093 16.064C9.19989 16.8013 9.70917 17.8824 9.70917 19.0409C9.70917 19.6207 9.58014 20.187 9.33383 20.7035C9.14584 20.577 8.935 20.4886 8.71133 20.4422C8.71667 20.4158 8.71945 20.3882 8.71945 20.36V17.7442C8.71945 17.5175 8.53595 17.334 8.3093 17.334C8.08286 17.334 7.89914 17.5175 7.89914 17.7442V20.36C7.89914 20.394 7.90384 20.4269 7.91153 20.4583C7.69235 20.5136 7.48663 20.6108 7.3042 20.743C7.04529 20.2162 6.90942 19.6365 6.90942 19.0411C6.90964 17.8824 7.41849 16.8017 8.3093 16.064ZM4.9505 20.8528C5.20172 21.0227 5.42816 21.2164 5.62875 21.4332C5.28717 21.4924 4.96652 21.6514 4.71359 21.8885L3.32291 20.95C3.13492 20.8233 2.88007 20.8729 2.7536 21.0607C2.62692 21.2485 2.67627 21.5033 2.86404 21.63L4.25964 22.5716C4.14001 22.8983 4.12015 23.2578 4.20047 23.5955C3.91443 23.4892 3.64014 23.3486 3.38528 23.1768C2.42526 22.5289 1.8143 21.5018 1.70151 20.3504C2.81085 20.0242 3.99133 20.2058 4.9505 20.8528ZM15.7248 10.6585L20.9511 5.51939C21.2672 5.20302 21.4426 4.77983 21.4448 4.32823C21.4486 3.53099 21.772 2.79121 22.355 2.24519C23.4466 1.22322 25.1607 1.21852 26.2575 2.2343C26.8366 2.77071 27.1639 3.49959 27.179 4.28679C27.1942 5.07442 26.8962 5.81505 26.3397 6.37175C25.8018 6.90987 25.0868 7.2083 24.3263 7.21193C23.8749 7.21428 23.4522 7.38966 23.1356 7.70668L20.1938 10.6585H15.7248Z" fill="#002823"/>
</g>
<defs>
<clipPath id="clip0">
<rect width="28" height="28" fill="white"/>
</clipPath>
</defs>
</svg>
