<svg width="28" height="28" viewBox="0 0 28 28" fill="none" xmlns="http://www.w3.org/2000/svg">
<g clip-path="url(#clip0)">
<path d="M11.5714 16.4944C11.1097 16.4944 10.6793 16.2459 10.4477 15.8463C10.3341 15.6504 10.4009 15.3996 10.5968 15.2859C10.7927 15.1725 11.0437 15.2391 11.1572 15.4352C11.2426 15.5826 11.4013 15.6743 11.5714 15.6743C11.7414 15.6743 11.9002 15.5826 11.9854 15.435C12.0988 15.2391 12.3498 15.1723 12.5457 15.2857C12.7418 15.3991 12.8087 15.6501 12.6953 15.846C12.4637 16.2459 12.033 16.4944 11.5714 16.4944Z" fill="black"/>
<path d="M15.4542 15.2859C15.6501 15.1725 15.9009 15.2391 16.0145 15.4352C16.1 15.5826 16.2587 15.6743 16.4285 15.6743C16.5986 15.6743 16.7573 15.5826 16.8427 15.435C16.9562 15.2391 17.2072 15.1723 17.4031 15.2857C17.5992 15.3994 17.6658 15.6501 17.5524 15.846C17.3208 16.2459 16.8901 16.4944 16.4285 16.4944C15.9671 16.4944 15.5364 16.2462 15.3049 15.8465C15.1914 15.6504 15.2583 15.3996 15.4542 15.2859Z" fill="black"/>
<path d="M1.97929 20.8638C1.97502 20.8386 1.9701 20.8082 1.96455 20.7732C1.94746 20.6653 1.92396 20.5111 1.89619 20.325C1.84385 19.9751 1.77293 19.4889 1.69624 18.9559C1.59797 18.2717 1.40785 16.9321 1.39183 16.7599C1.17543 14.4395 1.24122 12.0976 1.59819 9.38993C1.60887 9.30982 1.70756 8.69651 1.79771 8.15199C1.84513 7.86637 1.89235 7.58482 1.92887 7.37504C1.94746 7.2678 1.96327 7.17894 1.97523 7.11677C1.97566 7.11464 1.97609 7.1125 1.9763 7.11015C0.764206 6.67009 -0.0272636 5.51717 0.00114822 4.22176C0.0357552 2.64438 1.29677 1.35645 2.87202 1.28958C4.12107 1.23596 5.27698 1.96741 5.7651 3.11242H10.1689C10.2014 2.93084 10.249 2.74862 10.3123 2.56705C10.8348 1.07126 12.3041 0.0396803 13.9684 0.000160217C13.9748 -5.34056e-05 13.9812 -5.34056e-05 13.9878 0.000160217C15.6665 0.0401076 17.1488 1.08152 17.6763 2.59161C17.7369 2.76507 17.7831 2.93896 17.8155 3.11264H22.2356C22.3591 2.82275 22.527 2.55508 22.735 2.31647C22.8839 2.14578 23.1431 2.12805 23.3137 2.27695C23.4844 2.42584 23.5022 2.68475 23.3533 2.85565C23.1943 3.03765 23.0679 3.24273 22.9771 3.46533C22.8613 3.74923 22.5885 3.93273 22.2824 3.93273H17.8647C17.8553 4.07394 17.8358 4.21386 17.8078 4.35207C17.9839 4.41231 18.1571 4.48345 18.3269 4.56548C18.4914 4.64495 18.657 4.72783 18.8191 4.81136C19.1673 4.99102 19.356 5.35738 19.2996 5.74489C19.243 6.13326 18.9567 6.43147 18.5707 6.50432C18.2678 6.56157 17.9743 6.62544 17.6882 6.69423C18.1289 6.98304 18.5395 7.30433 18.9144 7.6551C19.9009 8.57859 20.571 9.51895 20.9062 10.4503C21.3185 11.5956 21.2209 12.7017 20.6174 13.7414C20.6133 13.8674 20.6063 13.9935 20.5956 14.1195C20.5668 14.4573 20.5238 14.7865 20.4822 15.105C20.4805 15.1193 20.4785 15.1336 20.4766 15.1479C20.4617 15.2635 20.4467 15.3786 20.4326 15.494C20.3878 15.8588 20.3521 16.2152 20.3459 16.5822C20.3027 19.1147 18.4884 21.4694 16.0655 22.4749V22.8733C16.0655 23.028 16.1576 23.1673 16.2999 23.2279L18.2116 24.0425H22.2824C22.5885 24.0425 22.8613 24.226 22.9771 24.5099C23.324 25.3601 24.1736 25.9051 25.0939 25.866C26.2384 25.8175 27.1547 24.8814 27.1797 23.7351C27.2006 22.7783 26.6065 21.9285 25.7014 21.6207C25.3963 21.5168 25.1915 21.2312 25.1915 20.9099V20.8766C25.1915 20.8392 25.1966 20.8029 25.206 20.7683C25.262 20.465 25.7689 16.9361 25.7924 16.6838C26.0028 14.4261 25.9383 12.1424 25.5895 9.49716C25.5683 9.33695 25.2613 7.46156 25.2109 7.22316C25.1983 7.18385 25.1915 7.14177 25.1915 7.0984V7.06507C25.1915 6.74379 25.3963 6.45817 25.7014 6.35435C26.6065 6.04652 27.2006 5.19674 27.1797 4.23971C27.1545 3.09341 26.2382 2.15753 25.0939 2.10904C24.9751 2.10391 24.8559 2.1084 24.7392 2.12207C24.5141 2.14835 24.3107 1.9877 24.284 1.76297C24.2575 1.53803 24.4184 1.33423 24.6433 1.30774C24.8031 1.28873 24.9663 1.28275 25.1287 1.28958C26.7039 1.35645 27.9652 2.64459 27.9995 4.22198C28.028 5.51738 27.2367 6.67009 26.0244 7.11036C26.0248 7.1125 26.0252 7.11464 26.0257 7.11699C26.0374 7.17894 26.0534 7.26802 26.072 7.37504C26.1086 7.58503 26.1558 7.86637 26.203 8.15199C26.2931 8.69651 26.392 9.30982 26.4025 9.39014C26.7599 12.0976 26.8255 14.4395 26.6091 16.7599C26.5931 16.9321 26.4029 18.2717 26.3045 18.9561C26.228 19.4889 26.1571 19.9751 26.1047 20.325C26.0769 20.5111 26.0534 20.6653 26.0364 20.7732C26.0308 20.8082 26.0259 20.8388 26.0216 20.8638C27.2354 21.3032 28.028 22.4568 27.9998 23.753C27.9652 25.3304 26.7041 26.6186 25.1287 26.6854C23.8801 26.7386 22.7237 26.0076 22.2358 24.8626H19.8716C20.3168 25.2516 20.5843 25.8188 20.5843 26.4316V27.5544C20.5843 27.7809 20.4008 27.9644 20.1744 27.9644H7.79131C7.56487 27.9644 7.38116 27.7809 7.38116 27.5544V26.4316C7.38116 25.8188 7.64882 25.2516 8.09401 24.8626H5.7651C5.29364 25.9687 4.19883 26.6882 2.99955 26.6882C2.95747 26.6882 2.91474 26.6873 2.87223 26.6854C1.29677 26.6186 0.0357552 25.3304 0.00114822 23.753C-0.02705 22.4617 0.766983 21.3032 1.97929 20.8638ZM25.212 20.7482C25.2252 20.7081 25.2447 20.6707 25.269 20.6369C25.2434 20.6722 25.2242 20.7102 25.212 20.7482ZM16.9023 2.86206C16.4877 1.67539 15.3134 0.855931 13.9782 0.820256C12.6574 0.855504 11.4962 1.66535 11.0866 2.8377C10.7812 3.71227 10.9593 4.61248 11.5583 5.33559C12.0086 5.13308 12.4325 4.96987 12.7978 4.84298C13.7151 4.52447 14.6217 4.33669 15.4648 4.18139C15.9831 4.0859 16.5043 4.07906 17.0125 4.15704C17.0901 3.7394 17.0557 3.30148 16.9023 2.86206ZM18.4186 5.69853C18.4335 5.69576 18.4793 5.68721 18.488 5.62654C18.4966 5.5678 18.4579 5.54772 18.4434 5.54024C18.2874 5.45992 18.1283 5.38045 17.97 5.30397C17.453 5.05404 16.8786 4.92522 16.3033 4.92522C16.0722 4.92522 15.841 4.94594 15.6133 4.98803C15.1792 5.06792 14.7278 5.15743 14.2696 5.26873C15.1177 5.45778 15.9235 5.74104 16.6737 6.11382C17.2242 5.95488 17.8046 5.81432 18.4186 5.69853ZM20.1346 10.7281C19.8439 9.92014 19.2449 9.08765 18.3539 8.25388C17.8239 7.75743 17.2144 7.32484 16.5423 6.96788C15.6699 6.50282 14.7086 6.17278 13.6854 5.98671C13.3434 5.92476 12.9014 5.85384 12.4662 5.84273C11.8811 6.07878 11.3293 6.352 10.8171 6.65898C11.814 6.96083 12.7623 7.31288 13.645 7.70979C17.5705 9.4726 19.4183 11.7195 20.1451 12.8391C20.4046 12.1623 20.4004 11.4661 20.1346 10.7281ZM9.8737 7.24217C8.73445 8.07316 7.73022 9.21326 7.50612 10.7159C7.4023 11.4114 7.49416 12.1279 7.76525 12.7925C8.11196 12.1679 8.72398 11.2237 9.69596 10.21C10.3447 9.53348 11.2148 8.77063 12.3385 8.05201C11.5575 7.74696 10.7327 7.47587 9.8737 7.24217ZM17.7927 20.3562C18.8871 19.2841 19.5025 17.9389 19.5258 16.5683C19.5307 16.2878 19.5512 16.0129 19.579 15.7431C18.0582 15.275 16.6782 14.7258 15.473 14.1078C15.2715 14.0046 15.1918 13.7572 15.2952 13.5558C15.3986 13.3543 15.6458 13.2749 15.8472 13.378C16.431 13.6773 17.0303 13.9465 17.6391 14.1911C18.299 14.4564 18.9845 14.7399 19.6753 14.9118C19.7396 14.6427 19.7544 14.3302 19.7783 14.0497C19.7832 13.992 19.7873 13.9345 19.7907 13.8768C19.7907 13.8768 19.7909 13.8728 19.7909 13.8707L19.7883 13.8657C19.7849 13.858 19.428 13.0726 18.456 12.0192C17.5579 11.0457 15.9361 9.63773 13.309 8.45811C13.297 8.45255 13.2846 8.44742 13.2726 8.44208C11.9843 9.19574 11.0144 10.0246 10.3165 10.7479C8.92393 12.1909 8.30828 13.5022 8.18309 13.7897C8.43474 13.6147 8.68254 13.4299 8.92415 13.2364L9.0519 13.1343C9.71605 12.6032 10.4026 12.0542 11.0042 11.4424C11.51 10.9278 12.3504 10.9071 12.8774 11.3965C12.9364 11.4512 12.9975 11.5054 13.0592 11.5578C13.4124 11.8579 13.8054 12.1525 14.2275 12.4336C14.4159 12.559 14.467 12.8137 14.3416 13.0021C14.216 13.1907 13.9614 13.2415 13.7729 13.1161C13.3243 12.8173 12.9056 12.5033 12.5282 12.1826C12.4575 12.1226 12.3872 12.0602 12.3195 11.9974C12.1146 11.8071 11.7869 11.816 11.5889 12.0175C10.9531 12.6641 10.2469 13.2287 9.56395 13.7747L9.43663 13.8766C9.05553 14.1819 8.65968 14.4671 8.25722 14.7273C8.26875 14.8185 8.2805 14.9091 8.29225 14.9988C8.35805 15.5038 8.4262 16.0259 8.43538 16.5683C8.45867 17.9389 9.07411 19.2841 10.1685 20.3564C11.2206 21.3872 12.6083 22.0398 13.9806 22.1502C15.3529 22.0396 16.7408 21.387 17.7927 20.3562ZM8.20125 27.1443H19.7642V26.4316C19.7642 25.9236 19.4621 25.4667 18.9947 25.2676L15.9786 23.9825C15.5332 23.7926 15.2454 23.3574 15.2454 22.8733V22.7567C14.8445 22.8661 14.4315 22.9389 14.0111 22.9703C14.0011 22.9712 13.9908 22.9714 13.9806 22.9714C13.9705 22.9714 13.9603 22.9712 13.9503 22.9703C13.5311 22.9391 13.1197 22.8665 12.72 22.7578V22.8733C12.72 23.3574 12.4323 23.7928 11.9869 23.9825L8.9705 25.2676C8.50331 25.4667 8.20125 25.9236 8.20125 26.4316V27.1443ZM0.82103 23.7353C0.846237 24.8814 1.76246 25.8175 2.90705 25.8662C3.82605 25.9044 4.6767 25.3601 5.02383 24.5099C5.13962 24.226 5.41241 24.0425 5.71832 24.0425H9.75364L11.6653 23.2279C11.8078 23.1673 11.8997 23.0282 11.8997 22.8733V22.4766C9.47487 21.472 7.65865 19.1161 7.6155 16.5822C7.60695 16.0861 7.54479 15.6095 7.47899 15.1047C7.45635 14.9309 7.43349 14.7536 7.41256 14.5737C7.41213 14.5715 7.41149 14.5694 7.41128 14.5671C7.38735 14.3569 7.36513 14.1443 7.35253 13.9332C7.35039 13.8984 7.3489 13.8636 7.3474 13.8288C7.34676 13.8123 7.34569 13.7961 7.34505 13.7801C6.764 12.8057 6.53286 11.6815 6.69479 10.5948C6.90179 9.20707 7.67446 7.95844 8.99144 6.88392C9.56886 6.41267 10.1943 6.02303 10.8027 5.70323C10.4013 5.1679 10.1706 4.5627 10.1249 3.93273H5.71832C5.4122 3.93273 5.13962 3.74923 5.02362 3.46533C4.6767 2.61511 3.82563 2.07016 2.90684 2.10904C1.76225 2.15753 0.846237 3.09362 0.82103 4.23971C0.800095 5.19674 1.39418 6.04652 2.29908 6.35435C2.60435 6.45817 2.80921 6.74379 2.80921 7.06507V7.0984C2.80921 7.14198 2.80259 7.18385 2.78999 7.22316C2.73936 7.46134 2.43238 9.33695 2.41123 9.49738C2.06239 12.1424 1.99787 14.4261 2.20829 16.6838C2.23179 16.9368 2.74021 20.4746 2.79511 20.7696C2.80451 20.8042 2.80943 20.8403 2.80943 20.8768C2.80943 21.2133 2.59367 21.516 2.27281 21.6298C1.38392 21.9451 0.800522 22.7913 0.82103 23.7353ZM2.693 20.591C2.73829 20.6376 2.77183 20.6937 2.79084 20.7551C2.77396 20.6972 2.74021 20.6395 2.693 20.591Z" fill="black"/>
</g>
<defs>
<clipPath id="clip0">
<rect width="28" height="28" fill="white" transform="matrix(-1 0 0 1 28 0)"/>
</clipPath>
</defs>
</svg>
