<svg width="32" height="32" viewBox="0 0 28 28" fill="none" xmlns="http://www.w3.org/2000/svg">
<path d="M19.3938 9.32031C18.7352 9.39381 18.1088 9.59413 17.5322 9.91575L17.9318 10.6321C18.4126 10.3639 18.9351 10.1968 19.4847 10.1355L19.3938 9.32031Z" fill="#002823"/>
<path d="M20.607 7.17083C21.7207 5.86938 22.334 4.20809 22.334 2.49298V0.948061H20.7891C19.0916 0.948061 17.4776 1.53502 16.1865 2.61171C15.867 2.01135 15.4577 1.4578 14.9671 0.967256L13.9998 0L13.0326 0.967201C12.5421 1.45775 12.1329 2.01124 11.8133 2.61149C10.5223 1.53491 8.90838 0.948061 7.21093 0.948061H5.66602V2.49298C5.66602 4.20803 6.27928 5.86932 7.39293 7.17072C7.62421 7.44099 7.87396 7.69238 8.13975 7.92355C8.10671 7.92305 6.75413 7.92278 6.75413 7.92278V9.20914C6.75413 10.7499 7.31156 12.2369 8.32377 13.3962C8.53617 13.6395 8.76548 13.8649 9.00917 14.0712H8.30195V15.1592C8.30195 17.9273 10.554 20.1794 13.3221 20.1794H13.5898V21.6931H14.4101V20.1794H14.6778C17.446 20.1794 19.698 17.9273 19.698 15.1592V14.0712H18.9908C19.2346 13.8649 19.4639 13.6394 19.6762 13.3962C20.6884 12.2369 21.2458 10.7499 21.2458 9.20914V7.92278C21.2458 7.92278 19.8932 7.92305 19.8602 7.92355C20.126 7.69238 20.3758 7.44098 20.607 7.17083ZM13.6126 1.54722L13.9999 1.15997L14.3871 1.54722C15.9186 3.07863 16.507 5.25092 16.0055 7.30011C15.715 6.76412 15.3469 6.26843 14.9094 5.83093L14.41 5.33147V3.1186H13.5897V5.33147L13.0903 5.83093C12.6528 6.26843 12.2847 6.76406 11.9942 7.30006C11.4928 5.25092 12.0811 3.07868 13.6126 1.54722ZM13.5897 8.6143V12.1212L13.2307 12.4803C13.0543 12.6566 12.8928 12.8437 12.7466 13.04C11.5402 10.8933 11.8887 8.19255 13.6702 6.411L13.9998 6.0814L14.3294 6.411C16.1108 8.19244 16.4593 10.8931 15.2531 13.0398C15.1069 12.8434 14.9454 12.6564 14.7693 12.4803L14.4099 12.1209V8.6143H13.5897ZM6.48622 2.49292V1.76826H7.21088C8.79063 1.76826 10.2888 2.34204 11.4595 3.38963C11.3097 3.78262 11.1953 4.19086 11.1186 4.61058C11.0518 4.97551 11.0144 5.34241 11.006 5.70843L9.44437 4.14673L8.86441 4.72674L11.0899 6.95224C11.1715 7.4651 11.3111 7.96937 11.5079 8.45648C11.4819 8.54064 11.4576 8.62546 11.4352 8.71077C8.54531 8.05359 6.48622 5.49723 6.48622 2.49292ZM7.57439 9.20908V8.74298H8.04049C9.20462 8.74298 10.3095 9.09566 11.2503 9.7652C11.248 9.7903 11.2459 9.8154 11.244 9.84056C11.1861 10.589 11.2611 11.3364 11.4595 12.0484L9.57376 10.1626L8.9938 10.7426L12.2064 13.9552C12.1064 14.1751 12.0228 14.4022 11.9558 14.6348C9.43332 14.0929 7.57439 11.8235 7.57439 9.20908ZM9.12226 15.1591V14.8914H9.38995C10.2531 14.8914 11.0732 15.1476 11.7756 15.6345C11.7655 15.7654 11.7604 15.8974 11.7604 16.0301C11.7604 16.3779 11.7955 16.7202 11.8641 17.0532L11.4179 16.6069L10.838 17.1869L11.4179 17.7669L11.9141 17.2707C11.9645 17.4701 12.0271 17.6657 12.1016 17.8565L11.8046 18.1535L12.3845 18.7335L12.4854 18.6326C12.6384 18.884 12.8145 19.1233 13.0125 19.3475C10.8407 19.1887 9.12226 17.3708 9.12226 15.1591ZM14.41 18.7617V16.4342H13.5899V18.7617C12.9368 18.0012 12.5806 17.0431 12.5806 16.0301C12.5806 14.9082 13.0175 13.8536 13.8107 13.0603L14 12.871L14.1893 13.0603C14.9825 13.8536 15.4194 14.9082 15.4194 16.0301C15.4193 17.043 15.0631 18.0012 14.41 18.7617ZM18.8778 15.1591C18.8777 17.3657 17.1673 19.1803 15.0026 19.3466L17.805 16.5443L17.225 15.9643L16.136 17.0533C16.2046 16.7204 16.2397 16.3781 16.2397 16.0302C16.2397 15.8975 16.2346 15.7656 16.2245 15.6346C16.9269 15.1478 17.7469 14.8916 18.6101 14.8916H18.8778V15.1591H18.8778ZM19.9594 8.74298H20.4257V8.74304V9.20914C20.4257 11.8235 18.5667 14.0929 16.0443 14.6349C15.9774 14.4021 15.8936 14.175 15.7937 13.955L18.0934 11.6553L17.5134 11.0753L16.5402 12.0485C16.7386 11.3364 16.8137 10.5889 16.7558 9.84045C16.7539 9.8154 16.7518 9.79041 16.7495 9.76542C17.6903 9.09577 18.7953 8.74298 19.9594 8.74298ZM16.5646 8.71088C16.5421 8.62551 16.5179 8.54069 16.4918 8.45648C16.6886 7.96937 16.8282 7.46516 16.9098 6.9523L19.1353 4.7268L18.5553 4.14673L16.9937 5.70838C16.9853 5.34236 16.9479 4.97546 16.8811 4.61053C16.8044 4.19086 16.6901 3.78273 16.5403 3.3898C17.711 2.3421 19.2092 1.76826 20.7892 1.76826H21.5138V2.49292C21.5138 5.4974 19.4546 8.05376 16.5646 8.71088Z" fill="#002823"/>
<path d="M19.9285 3.95703C19.855 4.19804 19.7625 4.43555 19.6536 4.66283L20.3932 5.01742C20.5201 4.7529 20.6277 4.47662 20.7131 4.19618L19.9285 3.95703Z" fill="#002823"/>
<path d="M20.1418 2.71094C20.1308 2.96272 20.1003 3.2157 20.0515 3.46316L20.8562 3.62208C20.9131 3.33426 20.9484 3.03983 20.9612 2.74692L20.1418 2.71094Z" fill="#002823"/>
<path d="M19.4128 5.10547C19.2747 5.33177 19.1173 5.54855 18.9452 5.74958C18.5719 6.18588 18.1304 6.55234 17.6331 6.83885L18.0426 7.54962C18.6209 7.21635 19.1343 6.79023 19.5684 6.28295C19.7689 6.04867 19.9522 5.79634 20.113 5.53274L19.4128 5.10547Z" fill="#002823"/>
<path d="M9.05475 5.74845C8.76868 5.41415 8.52778 5.04277 8.33851 4.64453L7.59766 4.99661C7.81788 5.4602 8.09843 5.89256 8.43153 6.28177C8.86558 6.78894 9.37882 7.21506 9.95714 7.54827L10.3666 6.83761C9.86932 6.55099 9.42793 6.18464 9.05475 5.74845Z" fill="#002823"/>
<path d="M16.1635 23.1972V22.3769H15.6642V20.8633H14.844V22.3769H13.1559V20.8633H12.3356V22.3769H11.8933V23.1972H12.3356V23.8033H11.8933V24.6235H12.3356V28.0003H15.6643V24.6235H16.1636V23.8033H15.6643V23.1972H16.1635ZM14.844 27.18H14.41V25.1293H13.5898V27.18H13.1558V24.6235H14.8439V27.18H14.844ZM14.844 23.8032H13.1559V23.1971H14.844V23.8032Z" fill="#002823"/>
<path d="M10.4506 15.6426L9.87061 16.2227L10.4506 16.8027L11.0306 16.2227L10.4506 15.6426Z" fill="#002823"/>
<path d="M14.4099 14.1914H13.5896V15.5859H14.4099V14.1914Z" fill="black"/>
</svg>
