<svg width="28" height="28" viewBox="0 0 28 28" fill="none" xmlns="http://www.w3.org/2000/svg">
<path d="M7.875 16.625C7.5269 16.625 7.19306 16.7633 6.94692 17.0094C6.70078 17.2556 6.5625 17.5894 6.5625 17.9375V18.8125C6.5625 19.1606 6.70078 19.4944 6.94692 19.7406C7.19306 19.9867 7.5269 20.125 7.875 20.125C8.2231 20.125 8.55694 19.9867 8.80308 19.7406C9.04922 19.4944 9.1875 19.1606 9.1875 18.8125V17.9375C9.1875 17.5894 9.04922 17.2556 8.80308 17.0094C8.55694 16.7633 8.2231 16.625 7.875 16.625ZM8.3125 18.8125C8.3125 18.9285 8.26641 19.0398 8.18436 19.1219C8.10231 19.2039 7.99103 19.25 7.875 19.25C7.75897 19.25 7.64769 19.2039 7.56564 19.1219C7.48359 19.0398 7.4375 18.9285 7.4375 18.8125V17.9375C7.4375 17.8215 7.48359 17.7102 7.56564 17.6281C7.64769 17.5461 7.75897 17.5 7.875 17.5C7.99103 17.5 8.10231 17.5461 8.18436 17.6281C8.26641 17.7102 8.3125 17.8215 8.3125 17.9375V18.8125Z" fill="black"/>
<path d="M12.6875 19.25H11.2293L12.5125 18.2875C12.5668 18.2467 12.6109 18.1939 12.6413 18.1332C12.6717 18.0724 12.6875 18.0054 12.6875 17.9375V17.0625C12.6875 16.9465 12.6414 16.8352 12.5594 16.7531C12.4773 16.6711 12.366 16.625 12.25 16.625H10.5C10.384 16.625 10.2727 16.6711 10.1906 16.7531C10.1086 16.8352 10.0625 16.9465 10.0625 17.0625V17.9375H10.9375V17.5H11.8125V17.7188L10.2375 18.9C10.1832 18.9408 10.1391 18.9936 10.1087 19.0543C10.0783 19.1151 10.0625 19.1821 10.0625 19.25V19.6875C10.0625 19.8035 10.1086 19.9148 10.1906 19.9969C10.2727 20.0789 10.384 20.125 10.5 20.125H12.6875V19.25Z" fill="black"/>
<path d="M12.6875 24.5H11.375V25.375H13.125C13.241 25.375 13.3523 25.3289 13.4344 25.2469C13.5164 25.1648 13.5625 25.0535 13.5625 24.9375V22.3125H12.6875V24.5Z" fill="black"/>
<path d="M10.5 24.5H9.625V25.375H10.5V24.5Z" fill="black"/>
<path d="M21.4375 10.9375C20.5508 10.9428 19.6991 11.2844 19.0546 11.8933C18.41 12.5023 18.0207 13.3332 17.9651 14.2182C17.9096 15.1032 18.192 15.9762 18.7553 16.661C19.3187 17.3458 20.1209 17.7912 21 17.9073V19.6875C21 19.8035 20.9539 19.9148 20.8719 19.9969C20.7898 20.0789 20.6785 20.125 20.5625 20.125H17.5C17.384 20.125 17.2727 20.0789 17.1906 19.9969C17.1086 19.9148 17.0625 19.8035 17.0625 19.6875V4.8125C17.0625 4.4644 16.9242 4.13056 16.6781 3.88442C16.4319 3.63828 16.0981 3.5 15.75 3.5H12.6875V3.0625C12.6875 2.94647 12.6414 2.83519 12.5594 2.75314C12.4773 2.67109 12.366 2.625 12.25 2.625H10.9375V1.3125C10.9375 1.19647 10.8914 1.08519 10.8094 1.00314C10.7273 0.921094 10.616 0.875 10.5 0.875H8.75C8.63397 0.875 8.52269 0.921094 8.44064 1.00314C8.35859 1.08519 8.3125 1.19647 8.3125 1.3125V2.625H7.4375V2.1875C7.4375 2.07147 7.39141 1.96019 7.30936 1.87814C7.22731 1.79609 7.11603 1.75 7 1.75H5.25C5.13397 1.75 5.02269 1.79609 4.94064 1.87814C4.85859 1.96019 4.8125 2.07147 4.8125 2.1875V5.6875C4.8125 5.80353 4.85859 5.91481 4.94064 5.99686C5.02269 6.07891 5.13397 6.125 5.25 6.125H7C7.11603 6.125 7.22731 6.07891 7.30936 5.99686C7.39141 5.91481 7.4375 5.80353 7.4375 5.6875V5.25H8.3125V7.02231C7.11764 7.13239 6.00688 7.68446 5.19768 8.57046C4.38847 9.45646 3.93909 10.6126 3.9375 11.8125V24.9375C3.93819 25.5174 4.16889 26.0734 4.57897 26.4835C4.98906 26.8936 5.54505 27.1243 6.125 27.125H13.125C13.7049 27.1243 14.2609 26.8936 14.671 26.4835C15.0811 26.0734 15.3118 25.5174 15.3125 24.9375V11.8125C15.3109 10.6126 14.8615 9.45646 14.0523 8.57046C13.2431 7.68446 12.1324 7.13239 10.9375 7.02231V5.25H12.25C12.366 5.25 12.4773 5.20391 12.5594 5.12186C12.6414 5.03981 12.6875 4.92853 12.6875 4.8125V4.375H15.75C15.866 4.375 15.9773 4.42109 16.0594 4.50314C16.1414 4.58519 16.1875 4.69647 16.1875 4.8125V19.6875C16.1875 20.0356 16.3258 20.3694 16.5719 20.6156C16.8181 20.8617 17.1519 21 17.5 21H20.5625C20.9106 21 21.2444 20.8617 21.4906 20.6156C21.7367 20.3694 21.875 20.0356 21.875 19.6875V17.9073C22.7541 17.7912 23.5563 17.3458 24.1197 16.661C24.683 15.9762 24.9654 15.1032 24.9099 14.2182C24.8543 13.3332 24.465 12.5023 23.8204 11.8933C23.1759 11.2844 22.3242 10.9428 21.4375 10.9375V10.9375ZM9.1875 1.75H10.0625V2.625H9.1875V1.75ZM6.5625 5.25H5.6875V2.625H6.5625V5.25ZM14.4375 13.125V14.875H4.8125V13.125H14.4375ZM13.125 26.25H6.125C5.7769 26.25 5.44306 26.1117 5.19692 25.8656C4.95078 25.6194 4.8125 25.2856 4.8125 24.9375V15.75H14.4375V24.9375C14.4375 25.2856 14.2992 25.6194 14.0531 25.8656C13.8069 26.1117 13.4731 26.25 13.125 26.25ZM14.4375 11.8125V12.25H13.5625V11.8125C13.5616 11.0006 13.2386 10.2221 12.6645 9.64801C12.0904 9.07388 11.3119 8.75093 10.5 8.75H10.0625V9.625H10.5C11.0799 9.62569 11.6359 9.85639 12.046 10.2665C12.4561 10.6766 12.6868 11.2326 12.6875 11.8125V12.25H4.8125V11.8125C4.81366 10.7686 5.22887 9.76772 5.96705 9.02955C6.70522 8.29137 7.70607 7.87616 8.75 7.875H10.5C11.5439 7.87616 12.5448 8.29137 13.283 9.02955C14.0211 9.76772 14.4363 10.7686 14.4375 11.8125V11.8125ZM10.0625 7H9.1875V5.25H10.0625V7ZM11.8125 4.375H7.4375V3.5H11.8125V4.375ZM21.4375 17.0625C20.9183 17.0625 20.4108 16.9085 19.9791 16.6201C19.5474 16.3317 19.211 15.9217 19.0123 15.442C18.8136 14.9624 18.7617 14.4346 18.8629 13.9254C18.9642 13.4162 19.2142 12.9485 19.5813 12.5813C19.9485 12.2142 20.4162 11.9642 20.9254 11.8629C21.4346 11.7617 21.9624 11.8136 22.442 12.0123C22.9217 12.211 23.3317 12.5474 23.6201 12.9791C23.9085 13.4108 24.0625 13.9183 24.0625 14.4375C24.0618 15.1335 23.785 15.8008 23.2929 16.2929C22.8008 16.785 22.1335 17.0618 21.4375 17.0625V17.0625Z" fill="black"/>
<path d="M21.4375 13.1262C21.2426 13.1269 21.0504 13.1718 20.8753 13.2574L20.4343 12.8164L19.8157 13.435L20.2562 13.8765C20.1706 14.0516 20.1257 14.2438 20.125 14.4387C20.125 14.6982 20.202 14.952 20.3462 15.1678C20.4904 15.3837 20.6954 15.5519 20.9352 15.6513C21.175 15.7506 21.4389 15.7766 21.6935 15.7259C21.9481 15.6753 22.182 15.5503 22.3656 15.3667C22.5491 15.1832 22.6741 14.9493 22.7248 14.6947C22.7754 14.4401 22.7494 14.1762 22.6501 13.9364C22.5507 13.6966 22.3825 13.4916 22.1667 13.3474C21.9508 13.2031 21.6971 13.1262 21.4375 13.1262ZM21.4375 14.8762C21.351 14.8762 21.2664 14.8505 21.1944 14.8024C21.1225 14.7544 21.0664 14.686 21.0333 14.6061C21.0002 14.5261 20.9915 14.4382 21.0084 14.3533C21.0253 14.2684 21.0669 14.1905 21.1281 14.1293C21.1893 14.0681 21.2673 14.0264 21.3521 14.0096C21.437 13.9927 21.525 14.0013 21.6049 14.0345C21.6849 14.0676 21.7532 14.1237 21.8013 14.1956C21.8493 14.2675 21.875 14.3521 21.875 14.4387C21.875 14.5547 21.8289 14.666 21.7469 14.748C21.6648 14.8301 21.5535 14.8762 21.4375 14.8762Z" fill="black"/>
</svg>
