<svg width="32" height="32" viewBox="0 0 28 28" fill="none" xmlns="http://www.w3.org/2000/svg">
<g clip-path="url(#clip0)">
<path d="M27.4531 11.2943H22.9688V10.1367C22.9688 9.83468 22.7239 9.58984 22.4219 9.58984H10.6094C10.3074 9.58984 10.0625 9.83468 10.0625 10.1367C10.0625 10.4388 10.3074 10.6836 10.6094 10.6836H21.875V14.8763C21.875 18.5594 19.9086 21.9825 16.7334 23.845H6.23536C3.06015 21.9825 1.09375 18.5594 1.09375 14.8763V10.6836H4.75781C5.0598 10.6836 5.30469 10.4388 5.30469 10.1368C5.30469 9.83473 5.0598 9.5899 4.75781 9.5899H0.546875C0.244891 9.5899 0 9.83473 0 10.1368V14.8763C0 16.9435 0.555625 18.9704 1.60683 20.7379C2.31574 21.9299 3.23559 22.9825 4.31277 23.8451H0.546875C0.244891 23.8451 0 24.0899 0 24.3919C0 26.3822 1.61913 28.0013 3.60938 28.0013H20.6719C22.6621 28.0013 24.2812 26.3822 24.2812 24.3919C24.2812 24.0899 24.0364 23.8451 23.7344 23.8451H18.656C19.6474 23.0512 20.5051 22.096 21.1881 21.0195H22.7318C25.6367 21.0195 28 18.6562 28 15.7513V11.8412C28 11.5391 27.7552 11.2943 27.4531 11.2943ZM23.1276 24.9388C22.8773 26.0639 21.8712 26.9076 20.6719 26.9076H3.60938C2.41002 26.9076 1.40405 26.0639 1.15363 24.9388H6.08885H16.8799H23.1276ZM22.9688 14.8763V14.5755H24.7188V15.7513C24.7188 16.8469 23.8274 17.7383 22.7318 17.7383H22.6076C22.8463 16.8083 22.9688 15.8468 22.9688 14.8763ZM26.9062 15.7513C26.9062 18.0531 25.0336 19.9258 22.7318 19.9258H21.801C21.9756 19.5692 22.1316 19.2041 22.2679 18.832H22.7318C24.4305 18.832 25.8125 17.45 25.8125 15.7513V14.0287C25.8125 13.7266 25.5676 13.4818 25.2656 13.4818H22.9688V12.388H26.9062V15.7513Z" fill="#002823"/>
<path d="M12.0066 3.02659L11.722 2.66932C11.3043 2.14497 11.3037 1.41199 11.7206 0.886886C11.9084 0.650307 11.8688 0.306323 11.6322 0.118581C11.3955 -0.0692706 11.0516 -0.0296222 10.8638 0.206956C10.1287 1.13314 10.1298 2.4259 10.8665 3.35078L11.151 3.70805C11.6969 4.39328 11.6977 5.35114 11.153 6.03741L10.8614 6.4048C10.6736 6.64138 10.7132 6.98536 10.9498 7.1731C11.0504 7.25289 11.1703 7.29167 11.2894 7.29167C11.4505 7.29167 11.6101 7.22079 11.7181 7.08473L12.0097 6.71734C12.8727 5.63004 12.8715 4.11235 12.0066 3.02659Z" fill="#002823"/>
<path d="M15.0378 4.25706L14.7533 3.89984C14.3356 3.37544 14.335 2.64246 14.7518 2.11735C14.9396 1.88078 14.9 1.53679 14.6634 1.34905C14.4268 1.1612 14.0829 1.20085 13.8951 1.43742C13.16 2.36361 13.1611 3.65637 13.8978 4.5813L14.1823 4.93857C14.7281 5.62386 14.7289 6.58177 14.1842 7.26799L13.8927 7.63532C13.7049 7.8719 13.7445 8.21589 13.981 8.40363C14.0816 8.48342 14.2015 8.52214 14.3207 8.52214C14.4818 8.52214 14.6414 8.45121 14.7494 8.3152L15.0409 7.94786C15.9039 6.86062 15.9027 5.34293 15.0378 4.25706Z" fill="#002823"/>
<path d="M8.97532 4.25706L8.69079 3.89984C8.27308 3.37549 8.27248 2.64246 8.68925 2.11735C8.87705 1.88077 8.83746 1.53679 8.60088 1.34899C8.36425 1.1612 8.02032 1.2009 7.83252 1.43737C7.09747 2.36356 7.09856 3.65637 7.83526 4.58124L8.11979 4.93852C8.66557 5.62381 8.66639 6.58171 8.12176 7.26787L7.83017 7.63521C7.64237 7.87179 7.68191 8.21577 7.91849 8.40357C8.01906 8.48336 8.13894 8.52213 8.2581 8.52213C8.41921 8.52213 8.57884 8.45126 8.68679 8.31525L8.97844 7.94786C9.84141 6.86062 9.84015 5.34293 8.97532 4.25706Z" fill="#002823"/>
<path d="M8.21843 9.75008C8.11671 9.64836 7.97562 9.58984 7.83179 9.58984C7.68796 9.58984 7.54686 9.64836 7.44515 9.75008C7.34348 9.85234 7.28491 9.99289 7.28491 10.1367C7.28491 10.2805 7.34343 10.4216 7.44515 10.5239C7.54686 10.6256 7.68796 10.6836 7.83179 10.6836C7.97562 10.6836 8.11671 10.6256 8.21843 10.5239C8.32064 10.4216 8.37866 10.2811 8.37866 10.1367C8.37866 9.99289 8.32064 9.8518 8.21843 9.75008Z" fill="#002823"/>
<path d="M19.7969 14.3281C19.4949 14.3281 19.25 14.573 19.25 14.875C19.25 16.9049 18.4266 18.8999 16.991 20.3483C16.7783 20.5628 16.7799 20.9091 16.9944 21.1217C17.1011 21.2274 17.2402 21.2802 17.3794 21.2802C17.5202 21.2801 17.6609 21.2261 17.7679 21.1182C19.4049 19.4666 20.3438 17.1911 20.3438 14.875C20.3438 14.573 20.0989 14.3281 19.7969 14.3281Z" fill="#002823"/>
<path d="M16.0717 21.833C15.9232 21.5699 15.5897 21.477 15.3267 21.6253L15.3142 21.6324C15.0511 21.7808 14.9582 22.1143 15.1065 22.3774C15.207 22.5556 15.3924 22.6557 15.5834 22.6557C15.6744 22.6557 15.7667 22.6329 15.8515 22.585L15.864 22.578C16.1271 22.4296 16.22 22.096 16.0717 21.833Z" fill="#002823"/>
</g>
<defs>
<clipPath id="clip0">
<rect width="28" height="28" fill="white"/>
</clipPath>
</defs>
</svg>
