<svg width="28" height="28" viewBox="0 0 28 28" fill="none" xmlns="http://www.w3.org/2000/svg">
<path d="M14 0C13.7419 0 13.5333 0.2086 13.5333 0.466667V6.6696C13.5333 6.92767 13.7419 7.13627 14 7.13627C14.2581 7.13627 14.4667 6.92767 14.4667 6.6696V0.941733C21.4569 1.18813 27.0667 6.95147 27.0667 14C27.0667 21.2049 21.2049 27.0667 14 27.0667C6.79513 27.0667 0.933333 21.2049 0.933333 14C0.933333 10.5187 2.28667 7.24313 4.74413 4.7768C4.9266 4.59387 4.92567 4.29893 4.7432 4.11693C4.56027 3.93587 4.26533 3.93587 4.08333 4.11787C1.44993 6.76013 0 10.2699 0 14C0 21.7196 6.2804 28 14 28C21.7196 28 28 21.7196 28 14C28 6.2804 21.7196 0 14 0Z" fill="black"/>
<path d="M13.3256 15.648C13.6121 16.0423 14.055 16.2901 14.5408 16.3279C14.5842 16.3316 14.6276 16.333 14.6705 16.333C15.1101 16.333 15.5329 16.1594 15.8461 15.8458C16.19 15.5019 16.3659 15.0264 16.3281 14.5406C16.2903 14.0548 16.0425 13.6119 15.6473 13.3244L9.60673 8.95503C9.42193 8.82157 9.16573 8.8421 9.00333 9.00357C8.84093 9.16597 8.82087 9.4217 8.9548 9.60697L13.3256 15.648ZM15.0989 14.08C15.2721 14.206 15.3808 14.4006 15.3976 14.6138C15.4144 14.8266 15.3369 15.0352 15.1862 15.1864C15.035 15.3372 14.8227 15.4142 14.6131 15.3978C14.4003 15.3815 14.2057 15.2723 14.0807 15.1006L11.4146 11.4153L15.0989 14.08Z" fill="black"/>
</svg>
