<svg width="32" height="32" viewBox="0 0 28 28" fill="none" xmlns="http://www.w3.org/2000/svg">
<g clip-path="url(#clip0)">
<path d="M13.9066 27.3824C12.9312 27.3824 11.9564 27.1858 11.0535 26.7931L6.73661 24.9165C5.17484 24.2371 3.52352 23.8069 1.82859 23.6374L0.410938 23.4957C0.177533 23.4724 0 23.2761 0 23.0417V18.5947C0 18.496 0.0321127 18.4 0.0913775 18.3211C0.197375 18.1793 2.73819 14.86 6.61939 15.7236C8.80226 16.2087 10.5598 17.1165 11.6498 17.7927C12.4412 18.2835 13.3688 18.5428 14.3324 18.5428H18.6494C19.3934 18.5428 20.0474 18.9365 20.4132 19.527L24.1312 15.2435C24.8521 14.2809 26.0314 13.6914 27.266 13.6914H27.5438C27.6981 13.6914 27.8417 13.7692 27.9257 13.8982C28.0101 14.0272 28.0234 14.1903 27.9615 14.3313L24.5988 21.9736C23.8636 23.645 22.3666 24.9076 20.5947 25.3506L20.0031 25.4984L16.5615 26.8751C15.7146 27.2137 14.8105 27.3824 13.9066 27.3824ZM0.912731 22.6286L1.91945 22.7294C3.70862 22.9083 5.45184 23.3628 7.10082 24.0797L11.4175 25.9563C12.9354 26.6163 14.6859 26.6422 16.2229 26.0274L19.6926 24.6395C19.712 24.6319 19.7315 24.6256 19.7516 24.6207L20.3733 24.4651C21.8737 24.0899 23.1412 23.021 23.7634 21.606L26.8305 14.6355C26.0452 14.7511 25.3225 15.1743 24.8411 15.8161L20.7223 20.563C20.7229 20.5807 20.7231 20.5982 20.7231 20.6162C20.7231 21.7595 19.7929 22.6897 18.6496 22.6897H12.6265C11.8436 22.6897 11.0697 22.8153 10.327 23.0628L10.1594 22.6373L10.0176 22.2036L10.0408 22.196C10.8744 21.9182 11.7451 21.777 12.6265 21.777H18.6496C19.2895 21.777 19.8106 21.2561 19.8106 20.616C19.8106 19.9758 19.2898 19.455 18.6496 19.455H14.3327C13.1988 19.455 12.1049 19.1482 11.1692 18.5678C10.1395 17.929 8.47957 17.0718 6.42201 16.6142C3.48279 15.9623 1.36779 18.218 0.912992 18.7561V22.6286H0.912731Z" fill="#002823"/>
<path d="M17.9701 13.5875C17.2684 13.5875 16.4815 13.3708 15.6152 12.9377C15.5103 12.885 15.4293 12.7936 15.3896 12.6831C15.3544 12.5842 14.5391 10.2389 15.8348 8.50458C16.7765 7.24383 18.5471 6.67599 21.1005 6.81827C21.3333 6.83107 21.519 7.01774 21.5305 7.25114C21.5396 7.43233 21.7278 11.7091 19.5471 13.133C19.0834 13.4361 18.5565 13.5875 17.9701 13.5875ZM16.1972 12.2054C17.3958 12.7675 18.3539 12.8226 19.0484 12.3691C20.3415 11.5245 20.6211 9.01734 20.6279 7.71247C18.6273 7.66365 17.2652 8.11453 16.5658 9.0505C15.7335 10.165 16.057 11.6981 16.1972 12.2054Z" fill="#002823"/>
<path d="M10.9919 7.60993C10.1829 7.60993 9.24951 7.43657 8.43495 6.84C7.05332 5.82754 6.41837 3.9 6.54735 1.11116C6.55831 0.878015 6.74316 0.69056 6.9763 0.676723C7.17367 0.665497 11.8454 0.416167 13.4174 2.77579C14.1494 3.87415 14.0894 5.3127 13.2396 7.05226C13.1879 7.158 13.0975 7.23972 12.9871 7.28018C12.9258 7.3029 12.0692 7.60993 10.9919 7.60993ZM12.8297 6.85201H12.8341H12.8297ZM7.44546 1.57457C7.40603 3.80836 7.91958 5.33097 8.97407 6.10376C10.2366 7.02876 11.9606 6.63558 12.5026 6.47763C13.1226 5.13203 13.1751 4.05769 12.6582 3.28176C11.6974 1.83957 8.87982 1.5576 7.44546 1.57457Z" fill="#002823"/>
<path d="M14.5554 19.2928C14.541 19.2928 14.5267 19.2921 14.5121 19.2907C14.269 19.2678 14.087 19.0576 14.0993 18.8135C14.1262 18.2767 14.1721 17.7676 14.2345 17.2851C14.4243 14.0561 14.3264 6.53653 9.57217 4.45626C9.34138 4.35522 9.2359 4.08631 9.33694 3.85525C9.43772 3.62472 9.70741 3.51951 9.93795 3.62028C12.7396 4.84605 14.5021 7.8978 15.0339 12.4455C15.0817 12.8531 15.1175 13.2549 15.1441 13.6462C16.3963 10.4822 18.3118 9.36427 18.4259 9.30031C18.6452 9.1763 18.9235 9.25514 19.0473 9.47419C19.1702 9.69349 19.0929 9.97102 18.8744 10.0948C18.8261 10.123 15.8887 11.8858 15.1514 17.322C15.0953 18.2519 15.0144 18.8448 15.0068 18.8991C14.9752 19.1268 14.7807 19.2928 14.5554 19.2928Z" fill="#002823"/>
</g>
<defs>
<clipPath id="clip0">
<rect width="28" height="28" fill="white"/>
</clipPath>
</defs>
</svg>
