<svg width="28" height="28" viewBox="0 0 28 28" fill="none" xmlns="http://www.w3.org/2000/svg">
<g clip-path="url(#clip0)">
<path d="M21.2795 10.6937C21.6057 11.078 22.1789 11.1325 22.5715 10.8163L24.1948 9.51707C24.5896 9.19834 24.659 8.62327 24.3516 8.21974L20.5244 3.24405C20.0811 2.67176 19.3988 2.33573 18.6748 2.33338H18.1895C18.1914 2.23298 18.1602 2.1345 18.1008 2.05332L16.701 0.186693C16.6198 0.0786 16.4957 0.0108817 16.3607 0.00126873C16.2257 -0.00834428 16.0932 0.0412161 15.9977 0.136919L13.9942 2.14027L11.9908 0.136919C11.8957 0.040148 11.7629 -0.00941238 11.6276 0.00148236C11.4926 0.0108817 11.3685 0.0786 11.2876 0.186693L9.88748 2.05332C9.82831 2.1345 9.79712 2.23298 9.79883 2.33338H9.31348C8.58951 2.33573 7.90699 2.67197 7.46372 3.24448L3.63754 8.2191C3.32949 8.62285 3.39892 9.19834 3.79391 9.5175L5.41786 10.8163C5.81007 11.1325 6.38301 11.0782 6.709 10.6941L8.39426 8.72816V14.9172L8.25498 16.7969L8.25434 16.8001L8.25455 16.8014L7.49918 26.9973C7.48017 27.2563 7.56968 27.5113 7.74635 27.7017C7.9228 27.8918 8.1706 27.9999 8.43015 28.0001H12.6456C13.1198 27.9999 13.5188 27.644 13.5729 27.1727L13.9942 23.3717L14.4156 27.1751C14.4705 27.6455 14.8692 28.0001 15.343 28.0001H19.5584C19.8179 27.9999 20.0657 27.8918 20.2424 27.7017C20.4191 27.5113 20.5086 27.2563 20.4896 26.9973L19.7338 16.8016L19.7342 16.8001L19.7335 16.7969L19.5943 14.9172V8.72816L21.2795 10.6937ZM16.2769 1.17726L17.1115 2.28959L15.4449 3.95627L14.6102 2.84394L16.2769 1.17726ZM11.7114 1.17726L13.3783 2.84394L12.5437 3.95627L10.877 2.28959L11.7114 1.17726ZM6.0002 10.0872L4.3771 8.7884L8.20328 3.81378C8.46924 3.46985 8.87897 3.26819 9.31348 3.2667H10.5345L12.2645 4.99661C12.3518 5.0842 12.4706 5.13333 12.5943 5.13333C12.6052 5.13333 12.6161 5.1329 12.6276 5.13205C12.7624 5.12265 12.8865 5.05493 12.9675 4.94684L13.5276 4.20001V6.53341C13.5276 6.79104 13.7365 7.00017 13.9942 7.00017C14.252 7.00017 14.4609 6.79104 14.4609 6.53341V4.1998L15.0208 4.94641C15.1018 5.05472 15.2259 5.12243 15.3609 5.13183C15.3722 5.1329 15.3831 5.13333 15.3942 5.13333C15.5179 5.13333 15.6367 5.0842 15.7241 4.99661L17.4542 3.2667H18.6748C19.1091 3.26819 19.5186 3.46964 19.7846 3.81314L23.6112 8.7884L21.9881 10.0872L19.4817 7.16338C19.3546 7.01534 19.1489 6.96193 18.9658 7.02965C18.7827 7.09716 18.6612 7.27169 18.6609 7.46672V14.4667H11.1942V12.6001C11.1942 12.3422 10.9853 12.1333 10.7277 12.1333C10.4698 12.1333 10.2609 12.3422 10.2609 12.6001V14.4667H9.32758V7.46672C9.32736 7.27169 9.20581 7.09716 9.02274 7.02965C8.83966 6.96193 8.63395 7.01534 8.50684 7.16338L6.0002 10.0872ZM9.29425 15.4H18.6943L18.7633 16.3333H9.22482L9.29425 15.4ZM15.3432 27.0698L14.4581 19.082C14.4564 19.067 14.4481 19.0553 14.4453 19.041C14.4319 18.9803 14.4075 18.9226 14.3735 18.8705C14.3599 18.8513 14.3447 18.8331 14.328 18.8163C14.3041 18.7902 14.277 18.7671 14.2475 18.7477C14.1977 18.7167 14.143 18.6947 14.0858 18.6823C14.0719 18.6795 14.0602 18.6712 14.0459 18.6695C14.0288 18.6701 14.0119 18.6716 13.995 18.6742C13.9777 18.6716 13.9602 18.6701 13.9427 18.6695C13.9286 18.6733 13.9145 18.6778 13.9008 18.683C13.8703 18.6894 13.8406 18.699 13.8121 18.7114C13.7861 18.7223 13.7611 18.7353 13.7374 18.7507C13.638 18.8192 13.5684 18.9233 13.5432 19.0414C13.5402 19.0555 13.5319 19.0673 13.5304 19.082L12.6456 27.0666H10.3158L10.7249 23.3846C10.7433 23.219 10.6719 23.056 10.5375 22.9571C10.4032 22.8584 10.2263 22.8388 10.0735 22.9056C9.92081 22.9725 9.81549 23.1158 9.7969 23.2816L9.3765 27.0666H8.42972L9.15582 17.2666H18.8325L19.5582 27.0666L15.3432 27.0698Z" fill="black"/>
</g>
<defs>
<clipPath id="clip0">
<rect width="28" height="28" fill="white"/>
</clipPath>
</defs>
</svg>
