<svg width="32" height="32" viewBox="0 0 28 28" fill="none" xmlns="http://www.w3.org/2000/svg">
<g clip-path="url(#clip0)">
<path d="M27.2829 5.18696C26.9654 5.0412 26.5996 5.03752 26.2793 5.17668C25.9589 5.31585 25.7119 5.58578 25.6018 5.91724L25.2685 6.91997L25.4139 4.86209C25.4644 4.14659 24.9696 3.51465 24.2629 3.39213C23.8784 3.32544 23.4812 3.42428 23.1727 3.66316C22.8642 3.90199 22.6691 4.26202 22.6374 4.65084L22.5731 5.4393L22.3915 3.50328C22.3231 2.77416 21.7192 2.2243 20.9869 2.2243C20.5215 2.2243 20.1103 2.44621 19.8536 2.79196C18.5411 2.10706 17.0706 1.74609 15.58 1.74609C13.2504 1.74609 11.1197 2.61285 9.49249 4.04028C9.46112 4.06121 9.43288 4.08637 9.40826 4.115C8.46943 4.95884 7.70382 5.99152 7.17193 7.15292C7.15611 7.17951 7.14325 7.20797 7.13369 7.23786C6.62241 8.3847 6.33765 9.6539 6.33765 10.9885C6.33765 14.3794 8.17362 17.3491 10.9033 18.9573C10.932 18.9796 10.963 18.9978 10.9955 19.0115C12.3474 19.787 13.9128 20.2309 15.58 20.2309C16.3493 20.2309 17.1109 20.1356 17.8498 19.9491V25.8364C17.8498 26.064 18.0343 26.2485 18.2618 26.2485C18.4894 26.2485 18.6739 26.064 18.6739 25.8364V19.336C18.7738 19.3429 18.8741 19.3476 18.9749 19.3476H19.5715C19.7991 19.3476 19.9836 19.1631 19.9836 18.9355C19.9836 18.708 19.7991 18.5235 19.5715 18.5235H18.9749C17.9707 18.5235 17.0053 18.0993 16.3261 17.3596L13.4961 14.2775C13.2204 13.9773 13.2302 13.5163 13.5184 13.2281C13.8115 12.9351 14.2764 12.929 14.577 13.2144L16.4205 14.9644C16.5959 15.1309 16.8486 15.1908 17.0801 15.1208C17.3116 15.0507 17.4887 14.8607 17.5423 14.6248L17.9533 12.8152C17.9638 12.769 17.9663 12.7214 17.9606 12.6745L17.7245 10.7189C17.6973 10.493 17.4919 10.3317 17.266 10.3592C17.0401 10.3864 16.8791 10.5917 16.9063 10.8177L17.1338 12.7023L16.7969 14.1855L15.1444 12.6167C14.5173 12.0213 13.5471 12.0339 12.9357 12.6453C12.3343 13.2467 12.3139 14.2085 12.8891 14.8349L15.7192 17.917C16.2505 18.4957 16.9247 18.9164 17.6627 19.1464C16.9852 19.3188 16.2863 19.4066 15.58 19.4066C15.4031 19.4066 15.2277 19.4004 15.0535 19.3896C15.0408 19.3649 15.0255 19.3412 15.0073 19.3187C14.1898 18.3074 13.5697 17.2356 13.1644 16.133C13.0858 15.9194 12.8491 15.81 12.6355 15.8884C12.4219 15.9669 12.3124 16.2037 12.3909 16.4173C12.748 17.3888 13.258 18.3355 13.9104 19.2399C13.0209 19.0602 12.1819 18.7399 11.4174 18.3031C9.95933 16.5943 9.39766 14.3451 9.74918 11.6155C9.96119 9.9696 10.4604 8.62859 10.6687 8.1206C11.2576 8.27218 11.9207 8.49635 12.5926 8.82814C12.3666 9.32579 11.9419 10.424 11.8013 11.9033C11.7798 12.1299 11.946 12.331 12.1726 12.3525C12.1858 12.3538 12.199 12.3544 12.212 12.3544C12.422 12.3544 12.6015 12.1946 12.6218 11.9813C12.7452 10.682 13.1128 9.69511 13.317 9.22932C13.9065 9.59347 14.4843 10.0503 15.0052 10.6243C15.0865 10.7139 15.1983 10.7595 15.3105 10.7595C15.4092 10.7595 15.5083 10.7242 15.5873 10.6526C15.7558 10.4996 15.7685 10.239 15.6155 10.0705C14.3226 8.64568 12.5091 7.6547 10.371 7.20468C9.48441 7.01804 8.7171 6.95953 8.19835 6.94508C8.63804 6.14546 9.20399 5.4248 9.869 4.80962C10.7547 4.89906 14.7418 5.41491 16.5132 7.56004L16.7088 9.17981C16.7361 9.40573 16.9412 9.56704 17.1672 9.53952C17.3932 9.51226 17.5542 9.307 17.5269 9.08103L17.0161 4.84918C16.9761 4.51799 17.1913 4.21213 17.5165 4.1378C17.6916 4.0978 17.8705 4.13038 18.0202 4.22955C18.17 4.32877 18.2698 4.4808 18.3012 4.65771L19.2585 10.0483C19.3005 10.285 19.5126 10.4502 19.7529 10.4335C19.9927 10.4164 20.1797 10.2224 20.1878 9.98196L20.4007 3.61525C20.4114 3.29731 20.6689 3.0482 20.987 3.0482C21.2916 3.0482 21.5427 3.27687 21.5711 3.58009L22.1476 9.72373C22.1697 9.95866 22.3635 10.135 22.5991 10.135H22.602C22.8389 10.1335 23.0321 9.95438 23.0514 9.71818L23.459 4.71759C23.4721 4.55656 23.5497 4.41344 23.6774 4.31454C23.8052 4.21559 23.9632 4.17642 24.1223 4.20395C24.4108 4.25394 24.6126 4.51184 24.592 4.8038L24.2435 9.73653C24.2273 9.968 24.3867 10.1766 24.6143 10.2216C24.8419 10.2665 25.0687 10.1346 25.1419 9.91449L26.3841 6.17705C26.421 6.06596 26.5005 5.97904 26.6079 5.9324C26.7153 5.88581 26.8331 5.88696 26.9394 5.93581C27.1044 6.01152 27.1998 6.18969 27.1713 6.36902L25.5842 16.3581C25.3848 17.6127 24.3182 18.5233 23.0478 18.5233C22.8203 18.5233 22.6358 18.7078 22.6358 18.9354C22.6358 19.1629 22.8203 19.3474 23.0478 19.3474C23.3581 19.3474 23.6592 19.306 23.9455 19.2285V21.7059C23.9455 21.9334 24.13 22.1179 24.3576 22.1179C24.5852 22.1179 24.7696 21.9334 24.7696 21.7059V18.8829C25.6184 18.3854 26.2331 17.5257 26.3981 16.4874L27.9852 6.49835C28.0712 5.95559 27.7825 5.41628 27.2829 5.18696ZM9.85049 7.94353C9.60342 8.56568 9.14526 9.87521 8.93483 11.4866C8.67238 13.4968 8.89028 15.3201 9.56512 16.8716C8.07929 15.3528 7.16177 13.2759 7.16177 10.9884C7.16177 9.84779 7.39027 8.75962 7.8031 7.76672C8.17357 7.76222 8.92764 7.77958 9.85049 7.94353ZM10.7593 4.09126C11.3848 3.65272 12.0724 3.2972 12.8061 3.0404C12.8364 3.04633 12.8678 3.04925 12.9 3.04815C12.9063 3.04782 13.5481 3.02524 14.3457 3.16973C14.9666 3.28225 15.7882 3.51883 16.3963 4.01319C16.2334 4.28504 16.157 4.61073 16.1978 4.94818L16.3554 6.25452C14.6395 4.8594 12.1423 4.30235 10.7593 4.09126ZM19.4772 6.56791L19.1124 4.51376C19.0412 4.11258 18.8148 3.76771 18.4752 3.54267C18.1355 3.31763 17.7297 3.24379 17.3326 3.33456C17.2176 3.36082 17.1088 3.39988 17.0072 3.44988C16.5277 3.03188 15.9444 2.75531 15.3685 2.57285C15.4388 2.57109 15.5093 2.57016 15.58 2.57016C16.978 2.57016 18.3559 2.91909 19.5774 3.57899C19.5773 3.58196 19.577 3.58487 19.5769 3.58784L19.4772 6.56791Z" fill="#002823"/>
<path d="M24.3574 22.9453C24.1298 22.9453 23.9453 23.1298 23.9453 23.3574V25.8394C23.9453 26.067 24.1298 26.2515 24.3574 26.2515C24.5849 26.2515 24.7694 26.067 24.7694 25.8394V23.3574C24.7694 23.1298 24.5849 22.9453 24.3574 22.9453Z" fill="#002823"/>
<path d="M0.41206 8.82021H5.53456C5.76213 8.82021 5.94662 8.63572 5.94662 8.40815C5.94662 8.18059 5.76213 7.99609 5.53456 7.99609H0.41206C0.184493 7.99609 0 8.18059 0 8.40815C0 8.63572 0.184493 8.82021 0.41206 8.82021Z" fill="#002823"/>
<path d="M0.41206 10.3358H5.10558C5.33315 10.3358 5.51764 10.1513 5.51764 9.92378C5.51764 9.69621 5.33315 9.51172 5.10558 9.51172H0.41206C0.184493 9.51172 0 9.69621 0 9.92378C0 10.1513 0.184493 10.3358 0.41206 10.3358Z" fill="#002823"/>
<path d="M16.6177 21.6355C16.8452 21.6355 17.0297 21.451 17.0297 21.2235C17.0297 20.9959 16.8452 20.8114 16.6177 20.8114H16.1273C16.0581 20.6809 15.9211 20.5919 15.7631 20.5919C15.6052 20.5919 15.4681 20.6809 15.399 20.8114H13.105V20.7811C13.105 20.5536 12.9205 20.3691 12.6929 20.3691C12.4654 20.3691 12.2809 20.5536 12.2809 20.7811V20.8114H10.0348V20.4593C10.0348 20.2317 9.85026 20.0472 9.62269 20.0472C9.39512 20.0472 9.21063 20.2317 9.21063 20.4593V20.8114H6.96458V19.3477H8.65627C8.88384 19.3477 9.06833 19.1632 9.06833 18.9357C9.06833 18.7081 8.88384 18.5236 8.65627 18.5236H6.96458V16.6478C6.96458 16.4203 6.78008 16.2358 6.55252 16.2358H3.89435V14.7721H5.19492C5.42249 14.7721 5.60698 14.5876 5.60698 14.36C5.60698 14.1325 5.42249 13.948 5.19492 13.948H3.89435V12.4843H5.19492C5.42249 12.4843 5.60698 12.2998 5.60698 12.0722C5.60698 11.8446 5.42249 11.6602 5.19492 11.6602H0.41206C0.184493 11.6602 0 11.8446 0 12.0722C0 12.2998 0.184493 12.4843 0.41206 12.4843H3.07023V13.948H0.41206C0.184493 13.948 0 14.1325 0 14.36C0 14.5876 0.184493 14.7721 0.41206 14.7721H3.07023V16.2358H0.41206C0.184493 16.2358 0 16.4203 0 16.6478C0 16.8754 0.184493 17.0599 0.41206 17.0599H3.07023V18.5236H0.41206C0.184493 18.5236 0 18.7081 0 18.9357C0 19.1632 0.184493 19.3477 0.41206 19.3477H3.07023V20.8114H0.41206C0.184493 20.8114 0 20.9959 0 21.2235C0 21.451 0.184493 21.6355 0.41206 21.6355H3.07023V23.0992H0.41206C0.184493 23.0992 0 23.2837 0 23.5113C0 23.7388 0.184493 23.9233 0.41206 23.9233H16.6177C16.8452 23.9233 17.0297 23.7388 17.0297 23.5113C17.0297 23.2837 16.8452 23.0992 16.6177 23.0992H16.1752V21.6355H16.6177ZM12.2809 21.6355V23.0992H10.0348V21.6355H12.2809ZM9.21063 21.6355V23.0992H6.96458V21.6355H9.21063ZM3.89435 17.0598H6.14046V18.5235H3.89435V17.0598ZM3.89435 19.3477H6.14046V20.8114H3.89435V19.3477ZM3.89435 21.6355H6.14046V23.0992H3.89435V21.6355ZM15.3511 23.0992H13.105V21.6355H15.3511V23.0992Z" fill="#002823"/>
</g>
<defs>
<clipPath id="clip0">
<rect width="28" height="28" fill="white"/>
</clipPath>
</defs>
</svg>
