<svg width="339" height="61" viewBox="0 0 339 61" fill="none" xmlns="http://www.w3.org/2000/svg">
<path d="M144.863 0.695801H151.294L150.773 2.08745H144.168L144.863 0.695801Z" fill="#316861"/>
<path d="M45.2625 17.3957L50.4772 13.3947C50.4772 13.3947 41.6318 -5.09319e-06 29.2708 0C16.5818 5.22837e-06 0.590082 7.82802 0.590088 31.3122C0.590093 54.2744 18.4938 60.015 26.4897 60.015C35.007 60.015 39.5264 57.0577 39.5264 57.0577V49.4036C39.5264 49.4036 35.1808 52.7088 26.8373 52.7088C17.7718 52.7088 9.1074 45.7506 8.58593 31.3122C8.06446 16.8738 17.9724 7.30617 29.2708 7.30617C38.8311 7.30617 45.2625 17.3957 45.2625 17.3957Z" fill="#03A356"/>
<rect x="33.4426" y="36.183" width="12.5152" height="0.695826" fill="#03A356"/>
<rect x="45.2625" y="36.183" width="0.695291" height="23.6581" fill="#03A356"/>
<rect x="32.7476" y="30.2685" width="0.695291" height="6.61035" fill="#03A356"/>
<rect x="32.7473" y="30.9643" width="0.695291" height="5.2187" fill="#03A356"/>
<rect x="33.4426" y="30.2684" width="18.7728" height="0.695826" fill="#03A356"/>
<rect x="33.4426" y="30.9643" width="18.7728" height="5.2187" fill="#03A356"/>
<rect x="45.9578" y="30.9643" width="6.25762" height="28.8768" fill="#03A356"/>
<path d="M95.1497 7.48014V1.56561C102.103 1.56561 111.315 9.04574 111.315 20.179C111.315 31.0374 103.435 35.6031 99.3214 36.5309L113.749 59.4931H104.362L87.5015 32.182H93.9841C94.7453 32.182 95.4931 31.9731 96.1414 31.5742C98.6861 30.0081 103.547 26.6835 103.667 20.179C103.806 12.664 98.0467 8.58186 95.1497 7.48014Z" fill="#03A356"/>
<rect x="68.7285" y="1.39166" width="26.421" height="6.26243" fill="#03A356"/>
<rect x="66.9902" y="1.39166" width="1.04294" height="58.4494" fill="#03A356"/>
<rect x="68.0332" y="1.39166" width="6.95291" height="58.4494" fill="#03A356"/>
<path d="M141.56 42.0975L160.159 41.9235V42.9673H141.213L141.56 42.0975Z" fill="#03A356"/>
<path d="M120.528 60.015L144.515 1.39166H150.947L128.35 60.015H120.528Z" fill="#03A356"/>
<path d="M150.599 17.9175L153.902 9.39368L174.76 60.015H166.764L150.599 17.9175Z" fill="#03A356"/>
<path d="M143.299 37.0527H158.421L159.986 42.0975H141.56L143.299 37.0527Z" fill="#03A356"/>
<path d="M253.502 42.4454L272.101 42.2714V43.3152H253.154L253.502 42.4454Z" fill="#03A356"/>
<path d="M232.469 60.3629L256.457 1.73956H262.888L240.292 60.3629H232.469Z" fill="#03A356"/>
<path d="M262.541 18.2654L265.843 9.74158L286.702 60.3629H278.706L262.541 18.2654Z" fill="#03A356"/>
<path d="M255.24 37.4006H270.363L271.927 42.4454H253.502L255.24 37.4006Z" fill="#03A356"/>
<path d="M184.668 1.73956H176.499L195.967 49.7516L200.312 41.2277L184.668 1.73956Z" fill="#03A356"/>
<path d="M199.443 60.189L222.909 1.56561H231.253L207.265 60.189H199.443Z" fill="#03A356"/>
<path d="M316.078 0.00293956C324.978 -0.136226 332.823 4.69976 335.546 7.3091L331.374 13.2236C329.752 11.3681 324.282 7.65703 316.078 7.65703C305.823 7.65703 302.172 11.1361 302.694 17.7465C303.215 24.3568 311.732 25.0527 323.379 28.0099C335.025 30.9672 338.154 37.2296 338.154 44.7098C338.154 52.1899 332.07 60.1919 316.078 60.1919C302.172 60.1919 295.567 54.6253 292.612 51.668C293.481 49.4066 295.322 44.5242 296.597 45.5445C301.621 49.5667 308.264 53.3959 316.259 52.8741C320.596 52.591 329.636 52.3638 329.462 44.7098C329.289 37.0557 320.424 35.4901 315.383 34.0984C310.809 32.8358 294.524 31.4891 294.524 17.7465C294.524 4.69512 304.953 0.176896 316.078 0.00293956Z" fill="#03A356"/>
<path d="M77.7674 32.3559H73.5957V38.2704H81.2439L77.7674 32.3559Z" fill="#316861"/>
<path d="M45.2625 17.3957L50.4772 13.3947C50.4772 13.3947 41.6318 -5.09319e-06 29.2708 0C16.5818 5.22837e-06 0.590082 7.82802 0.590088 31.3122C0.590093 54.2744 18.4938 60.015 26.4897 60.015C35.007 60.015 39.5264 57.0577 39.5264 57.0577V49.4036C39.5264 49.4036 35.1808 52.7088 26.8373 52.7088C17.7718 52.7088 9.1074 45.7506 8.58593 31.3122C8.06446 16.8738 17.9724 7.30617 29.2708 7.30617C38.8311 7.30617 45.2625 17.3957 45.2625 17.3957Z" fill="#316861"/>
<rect x="33.4426" y="36.183" width="12.5152" height="0.695826" fill="#316861"/>
<rect x="45.2625" y="36.183" width="0.695291" height="23.6581" fill="#316861"/>
<rect x="32.7476" y="30.2685" width="0.695291" height="6.61035" fill="#316861"/>
<rect x="32.7473" y="30.9643" width="0.695291" height="5.2187" fill="#316861"/>
<rect x="33.4426" y="30.2684" width="18.7728" height="0.695826" fill="#316861"/>
<rect x="33.4426" y="30.9643" width="18.7728" height="5.2187" fill="#316861"/>
<rect x="45.9578" y="30.9643" width="6.25762" height="28.8768" fill="#316861"/>
<path d="M95.1497 7.48014V1.56561C102.103 1.56561 111.315 9.04574 111.315 20.179C111.315 31.0374 103.435 35.6031 99.3214 36.5309L113.749 59.4931H104.362L87.5015 32.182H93.9841C94.7453 32.182 95.4931 31.9731 96.1414 31.5742C98.6861 30.0081 103.547 26.6835 103.667 20.179C103.806 12.664 98.0467 8.58186 95.1497 7.48014Z" fill="#316861"/>
<rect x="68.7285" y="1.39166" width="26.421" height="6.26243" fill="#316861"/>
<rect x="66.9902" y="1.39166" width="1.04294" height="58.4494" fill="#316861"/>
<rect x="68.0332" y="1.39166" width="6.95291" height="58.4494" fill="#316861"/>
<path d="M141.56 42.0975L160.159 41.9235V42.9673H141.213L141.56 42.0975Z" fill="#316861"/>
<path d="M120.528 60.015L144.515 1.39166H150.947L128.35 60.015H120.528Z" fill="#316861"/>
<path d="M150.599 17.9175L153.902 9.39368L174.76 60.015H166.764L150.599 17.9175Z" fill="#316861"/>
<path d="M143.299 37.0527H158.421L159.986 42.0975H150.773H141.56L143.299 37.0527Z" fill="#316861"/>
<path d="M253.502 42.4454L272.101 42.2714V43.3152H253.154L253.502 42.4454Z" fill="#03A356"/>
<path d="M232.469 60.3629L256.457 1.73956H262.888L240.292 60.3629H232.469Z" fill="#316861"/>
<path d="M256.978 0.695801H263.41L262.715 2.08745H256.283L256.978 0.695801Z" fill="#03A356"/>
<path d="M262.541 18.2654L265.843 9.74158L286.702 60.3629H278.706L262.541 18.2654Z" fill="#316861"/>
<path d="M255.24 37.4006H270.363L271.927 42.4454H253.502L255.24 37.4006Z" fill="#316861"/>
<path d="M223.257 0.695801H231.6L231.079 1.9135H222.735L223.257 0.695801Z" fill="#03A356"/>
<path d="M175.977 0.695801H184.321L184.668 1.73954L176.499 1.9135L175.977 0.695801Z" fill="#316861"/>
<path d="M184.668 1.73956H176.499L195.967 49.7516L200.312 41.2277L184.668 1.73956Z" fill="#316861"/>
<path d="M199.443 60.189L222.909 1.56561H231.253L207.265 60.189H199.443Z" fill="#316861"/>
<path d="M316.078 0.00293956C324.978 -0.136226 332.823 4.69976 335.546 7.3091L331.374 13.2236C329.752 11.3681 324.282 7.65703 316.078 7.65703C305.823 7.65703 302.172 11.1361 302.694 17.7465C303.215 24.3568 311.732 25.0527 323.379 28.0099C335.025 30.9672 338.154 37.2296 338.154 44.7098C338.154 52.1899 332.07 60.1919 316.078 60.1919C302.172 60.1919 295.567 54.6253 292.612 51.668C293.481 49.4066 295.322 44.5242 296.597 45.5445C301.621 49.5667 308.264 53.3959 316.259 52.8741C320.596 52.591 329.636 52.3638 329.462 44.7098C329.289 37.0557 320.424 35.4901 315.383 34.0984C310.809 32.8358 294.524 31.4891 294.524 17.7465C294.524 4.69512 304.953 0.176896 316.078 0.00293956Z" fill="#316861"/>
</svg>
