<svg width="2031" height="364" viewBox="0 0 2031 364" fill="none" xmlns="http://www.w3.org/2000/svg">
<path d="M268.737 104.647L300.107 80.5784C300.107 80.5784 246.895 -3.06392e-05 172.535 0C96.2014 3.14524e-05 -3.36681e-05 47.0911 0 188.365C3.29199e-05 326.499 107.704 361.033 155.804 361.033C207.042 361.033 234.229 343.243 234.229 343.243V297.198C234.229 297.198 208.088 317.081 157.896 317.081C103.36 317.081 51.2377 275.222 48.1007 188.365C44.9637 101.508 104.567 43.9519 172.535 43.9519C230.047 43.9519 268.737 104.647 268.737 104.647Z" fill="#03A356"/>
<rect x="197.631" y="217.666" width="75.288" height="4.18589" fill="#03A356"/>
<rect x="268.736" y="217.666" width="4.18267" height="142.32" fill="#03A356"/>
<rect x="193.45" y="182.087" width="4.18267" height="39.766" fill="#03A356"/>
<rect x="193.449" y="186.272" width="4.18267" height="31.3942" fill="#03A356"/>
<rect x="197.631" y="182.086" width="112.932" height="4.18589" fill="#03A356"/>
<rect x="197.631" y="186.272" width="112.932" height="31.3942" fill="#03A356"/>
<rect x="272.919" y="186.272" width="37.644" height="173.714" fill="#03A356"/>
<path d="M568.843 44.9982V9.41815C610.67 9.41815 666.09 54.4165 666.09 121.391C666.09 186.712 618.687 214.178 593.939 219.759L680.73 357.894H624.264L522.834 193.597H567.678C568.439 193.597 569.175 193.385 569.822 192.984C582.396 185.203 619.267 165.391 620.081 121.391C620.918 76.1831 586.271 51.6259 568.843 44.9982Z" fill="#03A356"/>
<rect x="409.902" y="8.37164" width="158.941" height="37.673" fill="#03A356"/>
<rect x="399.445" y="8.37164" width="6.274" height="351.615" fill="#03A356"/>
<rect x="405.719" y="8.37164" width="41.8267" height="351.615" fill="#03A356"/>
<path d="M848.037 253.246L959.923 252.2V258.479H845.945L848.037 253.246Z" fill="#03A356"/>
<path d="M721.51 361.033L865.812 8.37177H904.502L768.565 361.033H721.51Z" fill="#03A356"/>
<path d="M902.411 107.787L922.278 56.5095L1047.76 361.033H999.658L902.411 107.787Z" fill="#03A356"/>
<path d="M858.493 222.899H949.466L958.877 253.246H848.037L858.493 222.899Z" fill="#03A356"/>
<path d="M1521.45 255.339L1633.33 254.293V260.572H1519.35L1521.45 255.339Z" fill="#03A356"/>
<path d="M1394.92 363.126L1539.22 10.4647H1577.91L1441.98 363.126H1394.92Z" fill="#03A356"/>
<path d="M1542.36 4.18585H1581.05L1576.87 12.5576H1538.18L1542.36 4.18585Z" fill="#03A356"/>
<path d="M1575.82 109.88L1595.69 58.6024L1721.17 363.126H1673.07L1575.82 109.88Z" fill="#03A356"/>
<path d="M1531.9 224.992H1622.88L1632.29 255.339H1521.45L1531.9 224.992Z" fill="#03A356"/>
<path d="M1339.5 4.18585H1389.69L1386.55 11.5112H1336.36L1339.5 4.18585Z" fill="#03A356"/>
<path d="M1055.08 4.18585H1105.27L1107.36 10.4647L1058.22 11.5112L1055.08 4.18585Z" fill="#03A356"/>
<path d="M1107.36 10.4647H1058.21L1175.33 299.291L1201.47 248.014L1107.36 10.4647Z" fill="#03A356"/>
<path d="M1196.24 362.08L1337.41 9.41827H1387.6L1243.3 362.08H1196.24Z" fill="#03A356"/>
<path d="M1897.89 0.0176836C1951.42 -0.819495 1998.62 28.2724 2015 43.9695L1989.9 79.5496C1980.15 68.3872 1947.24 46.0625 1897.89 46.0625C1836.19 46.0625 1814.23 66.9919 1817.37 106.758C1820.51 146.524 1871.74 150.71 1941.8 168.5C2011.86 186.29 2030.69 223.963 2030.69 268.961C2030.69 313.959 1994.09 362.097 1897.89 362.097C1814.23 362.097 1774.5 328.61 1756.72 310.82C1761.95 297.216 1773.02 267.845 1780.69 273.983C1810.91 298.179 1850.88 321.215 1898.98 318.075C1925.06 316.373 1979.45 315.006 1978.4 268.961C1977.36 222.916 1924.03 213.498 1893.7 205.126C1866.19 197.531 1768.22 189.429 1768.22 106.758C1768.22 28.2445 1830.96 1.06416 1897.89 0.0176836Z" fill="#03A356"/>
</svg>
