<?xml version="1.0" standalone="no"?>
<!DOCTYPE svg PUBLIC "-//W3C//DTD SVG 20010904//EN"
 "http://www.w3.org/TR/2001/REC-SVG-20010904/DTD/svg10.dtd">
<svg version="1.0" xmlns="http://www.w3.org/2000/svg"
 width="503.000000pt" height="503.000000pt" viewBox="0 0 503.000000 503.000000"
 preserveAspectRatio="xMidYMid meet">
<metadata>
Created by potrace 1.11, written by Peter Selinger 2001-2013
</metadata>
<g transform="translate(0.000000,503.000000) scale(0.100000,-0.100000)"
fill="#000000" stroke="none">
<path d="M2567 4990 c-1111 -100 -1899 -809 -2112 -1901 -48 -248 -59 -371
-59 -689 0 -316 9 -423 60 -661 142 -676 540 -1199 1139 -1497 351 -175 694
-252 1060 -238 340 12 650 80 893 197 l82 40 0 318 0 319 -77 -44 c-154 -88
-390 -164 -613 -199 -151 -23 -415 -31 -536 -15 -817 102 -1344 825 -1346
1845 0 99 5 225 12 280 89 752 540 1343 1190 1559 139 46 227 64 388 78 344
31 655 -69 972 -313 115 -88 311 -283 400 -398 36 -46 72 -92 80 -102 14 -17
29 -7 227 144 116 89 212 166 212 170 1 14 -118 166 -227 290 -247 280 -537
507 -827 648 -164 79 -281 120 -431 149 -126 24 -339 33 -487 20z"/>
<path d="M3070 2205 l0 -275 520 0 520 0 0 -960 0 -960 288 2 287 3 3 1233 2
1232 -810 0 -810 0 0 -275z"/>
</g>
</svg>
